<svg width="120" height="88" viewBox="0 0 120 88" fill="none" xmlns="http://www.w3.org/2000/svg">
<g clip-path="url(#clip0_221_484)">
<mask id="mask0_221_484" style="mask-type:luminance" maskUnits="userSpaceOnUse" x="0" y="9" width="120" height="70">
<path d="M120 9.71428H0V78.2857H120V9.71428Z" fill="white"/>
</mask>
<g mask="url(#mask0_221_484)">
<path d="M103.284 63.2769H0.695986C0.3118 63.2769 0 62.9661 0 62.5832C0 62.2003 0.3118 61.8895 0.695986 61.8895H103.284C103.668 61.8895 103.98 62.2003 103.98 62.5832C103.98 62.9661 103.668 63.2769 103.284 63.2769Z" fill="black"/>
<path d="M24.4574 53.1566L24.2959 54.1728C24.6293 53.9918 24.9523 53.9516 25.3253 53.9516C26.8898 53.9516 27.7981 55.1988 27.7981 56.4565C27.7981 57.8446 26.7082 59.1522 24.932 59.1522C23.4886 59.1522 22.3485 58.3475 22.0862 57.0094H24.0036C24.2055 57.3014 24.5186 57.4721 24.8819 57.4721C25.4269 57.4721 25.8911 57.0399 25.8911 56.4863C25.8911 55.9328 25.4373 55.5103 24.8715 55.5103C24.3968 55.5103 24.0844 55.7212 23.8922 56.1541L22.3478 55.7719L22.9937 51.5569H27.1216V53.1566H24.4574Z" fill="#E21E26"/>
<path d="M31.4008 53.8205C31.5219 53.7802 31.6325 53.7802 31.7641 53.7802C33.147 53.7802 34.1158 54.9269 34.1158 56.3053C34.1158 57.9347 32.854 59.1418 31.2191 59.1418C29.5842 59.1418 28.2723 57.975 28.2723 56.265C28.2723 55.5207 28.5549 54.8665 28.9585 54.2734L30.8154 51.5576H33.0258L31.3805 53.7906L31.4008 53.8205ZM31.1586 55.4499C30.5934 55.4499 30.1494 55.8828 30.1494 56.4357C30.1494 56.9885 30.5628 57.4721 31.1586 57.4721C31.7543 57.4721 32.2081 57.0399 32.2081 56.4662C32.2081 55.8925 31.7543 55.4499 31.1586 55.4499Z" fill="#E21E26"/>
<path d="M38.7371 59.001V53.2273H37.2637V51.5576H42.1077V53.2273H40.644V59.001H38.7371Z" fill="black"/>
<path d="M42.8745 59.001V51.5576H44.7822V59.001H42.8745Z" fill="black"/>
<path d="M52.2597 59.001L52.3203 53.4285L52.3001 53.4084L50.7056 59.001H49.4437L47.8291 53.3577L47.8896 59.001H46.1337V51.5576H48.5863L50.0701 56.4565H50.0904L51.554 51.5576H54.0164V59.001H52.2605H52.2597Z" fill="black"/>
<path d="M55.368 59.001V51.5576H59.5161V53.2273H57.195V54.3844H59.4458V56.0542H57.195V57.3319H59.5161V59.0017L55.368 59.001Z" fill="black"/>
<path d="M68.9616 59.001L67.8409 54.1825H67.8207L66.7002 59.001H64.9742L63.0463 51.5576H64.9839L65.9833 56.3961H66.0035L67.1032 51.5576H68.5668L69.6467 56.4162H69.6672L70.6862 51.5576H72.6138L70.6362 59.001H68.9616Z" fill="black"/>
<path d="M73.4626 59.001V51.5576H75.3703V59.001H73.4626Z" fill="black"/>
<path d="M81.3648 59.001L78.4985 54.4545L78.5485 59.001H76.7218V51.5576H78.3668L81.2736 56.265L81.1927 51.5576H83.0194V59.001H81.3648Z" fill="black"/>
<path d="M89.0242 59.001L86.1579 54.4545L86.208 59.001H84.3812V51.5576H86.0263L88.933 56.265L88.8521 51.5576H90.6788V59.001H89.0242Z" fill="black"/>
<path d="M92.0414 59.001V51.5576H96.1893V53.2273H93.8681V54.3844H96.1186V56.0542H93.8681V57.3319H96.1893V59.0017L92.0414 59.001Z" fill="black"/>
<path d="M100.942 59.001L99.216 56.5966H99.1954V59.001H97.3687V51.5576H99.8112C100.588 51.5576 101.183 51.6582 101.578 51.8295C102.385 52.1916 102.95 53.0664 102.95 54.1229C102.95 55.3001 102.243 56.2657 101.093 56.4669L103.122 59.0017L100.942 59.001ZM99.9031 55.2994C100.66 55.2994 101.124 54.947 101.124 54.2332C101.124 53.5894 100.64 53.2273 99.9229 53.2273H99.1961V55.2994H99.9031Z" fill="black"/>
<path d="M52.143 49.0241H19.4485V9.71428H52.143" fill="#E11F26"/>
<path d="M48.6443 27.8537H43.4522V34.4355C43.4522 35.1112 43.1697 35.3921 42.6059 35.3921C42.0422 35.3921 41.7596 35.1112 41.7596 34.4355V17.3913C41.7596 16.8288 42.0415 16.4909 42.6059 16.4909C43.1704 16.4909 43.4522 16.828 43.4522 17.3913V23.3544H48.6443V17.6168C48.6443 14.8038 47.2335 12.7782 42.8314 12.7782C38.4293 12.7782 36.285 14.466 36.285 17.6168V34.2107C36.285 37.417 38.43 39.1055 42.8314 39.1055C47.2328 39.1055 48.6443 37.0799 48.6443 34.2107V27.8537ZM35.1561 17.7292C35.1561 14.5791 33.6326 12.8913 30.0204 12.8913H23.0216V38.9931H28.4962V28.9234H30.0204C33.6326 28.9234 35.1561 27.2356 35.1561 24.0855V17.7285V17.7292ZM28.4962 25.1545V16.6608C29.7379 16.6608 30.2459 16.998 30.2459 18.1232V23.6922C30.2459 24.8173 29.7379 25.1545 28.4962 25.1545Z" fill="white"/>
<path d="M24.249 43.7985H23.9387V45.5779H23.0485V40.9141H24.1641C25.0167 40.9141 25.4921 41.3088 25.4921 42.3411C25.4921 43.4281 25.0473 43.7985 24.249 43.7985ZM24.0792 41.5336H23.9393V43.1423H24.1335C24.4078 43.1423 24.5727 42.9175 24.5727 42.3474C24.5727 41.7771 24.4265 41.5336 24.0792 41.5336ZM27.145 45.6625C26.0795 45.6625 25.7621 45.0853 25.7621 43.3241C25.7621 41.5628 26.0551 40.8406 27.1095 40.8406C28.164 40.8406 28.3038 41.5149 28.3038 42.2675C28.3038 42.4133 28.2913 42.5527 28.2787 42.6443L27.4499 42.6685C27.4624 42.5471 27.4686 42.3897 27.4686 42.3043C27.4686 41.7272 27.4019 41.4234 27.1095 41.4234C26.756 41.4234 26.6829 41.7397 26.6829 43.288C26.6829 44.751 26.7253 45.0548 27.1401 45.0548C27.4812 45.0548 27.5362 44.6844 27.5362 44.1322C27.5362 44.0046 27.5299 43.8103 27.5118 43.6529L28.3219 43.6772C28.3407 43.7985 28.3463 43.9505 28.3463 44.0725C28.3463 45.1346 28.0665 45.6632 27.1457 45.6632M31.2569 45.5772V43.4579C31.2569 42.7538 31.2687 42.6019 31.275 42.1586C31.2263 42.6019 31.2144 42.9293 31.1288 43.4579C31.0133 44.1683 30.7697 45.5772 30.7697 45.5772H30.0201C30.0201 45.5772 29.7759 44.1683 29.6603 43.4579C29.5754 42.9356 29.5329 42.6199 29.5023 42.1586C29.5204 42.6199 29.5204 42.7538 29.5204 43.4579V45.5772H28.7103V40.9135H29.8489C30.0013 41.7757 30.1412 42.7109 30.2568 43.3303C30.3055 43.6099 30.3243 43.732 30.3848 44.1072C30.4398 43.7368 30.4704 43.5793 30.5129 43.3366C30.6277 42.7178 30.7802 41.7639 30.9388 40.9135H32.0663V45.5772H31.2569ZM34.171 45.5772L34.0123 44.7212H33.3365L33.1896 45.5772H32.3433L33.2391 40.8954H34.1411L35.1098 45.5772H34.171ZM33.7387 42.869C33.7025 42.5832 33.6775 42.3105 33.6657 42.1524C33.6532 42.3105 33.6351 42.5832 33.5982 42.8627C33.5251 43.4392 33.4464 44.0767 33.4464 44.0767H33.8974C33.8974 44.0767 33.8118 43.4392 33.7387 42.869ZM37.4372 45.5772L37.2361 45.2193C37.0837 45.4746 36.9312 45.6625 36.5053 45.6625C35.597 45.6625 35.1829 45.1707 35.1829 43.3976C35.1829 41.3567 35.5546 40.8406 36.5596 40.8406C37.4679 40.8406 37.7233 41.3629 37.7233 42.2557C37.7233 42.3349 37.717 42.4805 37.7107 42.5409L36.8762 42.5658C36.8881 42.4743 36.8881 42.3779 36.8881 42.2745C36.8881 41.7397 36.815 41.424 36.547 41.424C36.151 41.424 36.1023 41.7466 36.1023 43.3733C36.1023 44.8669 36.2005 45.0555 36.547 45.0555C36.9375 45.0555 37.0287 44.7517 37.0287 44.1142C37.0287 44.0296 37.0287 43.9685 37.0224 43.811H36.5589V43.1368H37.7956V45.5772H37.4365H37.4372ZM38.1805 44.545H39.1493V45.5772H38.1805V44.545ZM40.7877 45.6625C39.7215 45.6625 39.4047 45.0853 39.4047 43.3241C39.4047 41.5628 39.6971 40.8406 40.7515 40.8406C41.8059 40.8406 41.9458 41.5149 41.9458 42.2675C41.9458 42.4133 41.9332 42.5527 41.9214 42.6443L41.0926 42.6685C41.105 42.5471 41.1113 42.3897 41.1113 42.3043C41.1113 41.7272 41.0438 41.4234 40.7515 41.4234C40.3979 41.4234 40.3248 41.7397 40.3248 43.288C40.3248 44.751 40.3673 45.0548 40.7821 45.0548C41.1231 45.0548 41.1788 44.6844 41.1788 44.1322C41.1788 44.0046 41.1726 43.8103 41.1538 43.6529L41.9646 43.6772C41.9827 43.7985 41.9889 43.9505 41.9889 44.0725C41.9889 45.1346 41.7091 45.6632 40.7884 45.6632M43.6085 45.6625C42.6641 45.6625 42.25 45.2311 42.25 43.252C42.25 41.2728 42.6641 40.8406 43.6085 40.8406C44.5529 40.8406 44.9726 41.3567 44.9726 43.252C44.9726 45.1471 44.5523 45.6625 43.6085 45.6625ZM43.6085 41.4234C43.2006 41.4234 43.1693 41.8791 43.1693 43.252C43.1693 44.6248 43.2118 45.0548 43.6085 45.0548C44.0052 45.0548 44.0533 44.6719 44.0533 43.252C44.0533 41.8319 44.0157 41.4234 43.6085 41.4234ZM47.8547 45.5772V43.4579C47.8547 42.7538 47.8672 42.6019 47.8728 42.1586C47.8248 42.6019 47.8122 42.9293 47.7266 43.4579C47.6111 44.1683 47.3675 45.5772 47.3675 45.5772H46.6179C46.6179 45.5772 46.3743 44.1683 46.2588 43.4579C46.1732 42.9356 46.1308 42.6199 46.1001 42.1586C46.1182 42.6199 46.1182 42.7538 46.1182 43.4579V45.5772H45.3081V40.9135H46.4467C46.5991 41.7757 46.7398 42.7109 46.8552 43.3303C46.9033 43.6099 46.9221 43.732 46.9826 44.1072C47.0369 43.7368 47.0682 43.5793 47.1107 43.3366C47.2262 42.7178 47.3786 41.7639 47.5366 40.9135H48.6641V45.5772H47.854H47.8547Z" fill="white"/>
<path d="M120 29.3695L107.591 9.71428H53.4375V49.0241H107.591L120 29.3695Z" fill="#E11F26"/>
<path d="M116.864 11.9695C116.864 13.248 115.858 14.2525 114.546 14.2525C113.235 14.2525 112.214 13.2487 112.214 11.9695C112.214 10.6903 113.25 9.71428 114.546 9.71428C115.843 9.71428 116.864 10.7181 116.864 11.9695ZM112.793 11.9695C112.793 12.9733 113.539 13.771 114.559 13.771C115.58 13.771 116.285 12.9733 116.285 11.9834C116.285 10.9935 115.553 10.168 114.546 10.168C113.538 10.168 112.793 10.9796 112.793 11.9695ZM114.188 13.1523H113.663V10.897C113.87 10.8554 114.159 10.8284 114.532 10.8284C114.959 10.8284 115.153 10.897 115.319 10.9935C115.443 11.0899 115.539 11.2682 115.539 11.4881C115.539 11.7357 115.345 11.9279 115.07 12.0111V12.0389C115.29 12.1214 115.415 12.2865 115.484 12.589C115.553 12.933 115.594 13.0704 115.65 13.1529H115.083C115.016 13.0704 114.974 12.8644 114.904 12.6028C114.863 12.3552 114.725 12.2449 114.435 12.2449H114.187V13.1523H114.188ZM114.201 11.8731H114.45C114.739 11.8731 114.974 11.7766 114.974 11.5436C114.974 11.3368 114.823 11.1995 114.491 11.1995C114.352 11.1995 114.256 11.2134 114.202 11.2272V11.8731H114.201Z" fill="#231F20"/>
<path d="M57.5886 28.2921V19.1033H62.5593V20.3326H58.9339V23.0393H62.5593V24.2686H58.9339V27.0622H62.5593V28.2914L57.5886 28.2921Z" fill="white"/>
<path d="M64.0668 28.2921V19.1033H67.2683C70.0594 19.1033 71.7655 21.301 71.7655 23.6977C71.7655 26.5037 69.984 28.2921 67.0692 28.2921H64.0668ZM67.0191 27.0628C69.1495 27.0628 70.4201 25.8211 70.4201 23.7227C70.4201 21.6242 68.963 20.3326 67.0817 20.3326H65.4121V27.0628H67.0191Z" fill="white"/>
<path d="M73.3104 28.2921V19.1033H74.6558V28.2921H73.3104Z" fill="white"/>
<path d="M77.4343 28.2921V20.3326H75.6652V19.1033H80.5488V20.3326H78.7797V28.2921H77.4343Z" fill="white"/>
<path d="M85.6566 28.4662C83.1024 28.4662 80.9348 26.281 80.9348 23.7976C80.9348 20.9791 83.103 18.9299 85.6944 18.9299C88.4352 18.9299 90.528 21.0783 90.528 23.6359C90.528 26.4177 88.3721 28.4662 85.6566 28.4662ZM89.1819 23.7227C89.1819 21.8226 87.7371 20.1591 85.7931 20.1591C83.3012 20.1591 82.2795 22.295 82.2795 23.6609C82.2795 25.511 83.6249 27.2369 85.73 27.2369C87.8358 27.2369 89.1812 25.3993 89.1812 23.7227H89.1819Z" fill="white"/>
<path d="M96.2215 28.2921L93.1811 24.0327H93.1564V28.2921H91.811V19.1033H94.763C96.9806 19.1033 97.9646 20.2708 97.9646 22.1577C97.9646 23.9086 96.6193 24.8271 95.3233 24.8645L97.9022 28.2914H96.2195L96.2215 28.2921ZM94.1404 23.8468C95.71 23.8468 96.6193 23.2385 96.6193 22.046C96.6193 20.9909 95.7724 20.3326 94.5758 20.3326H93.1557V23.8468H94.1404Z" fill="white"/>
<path d="M102.761 21.4876C102.761 20.6558 102.226 20.1591 101.465 20.1591C100.817 20.1591 100.232 20.7425 100.232 21.4133C100.232 22.0841 100.668 22.4317 101.565 22.7168C103.558 23.3501 104.293 24.0952 104.293 25.6844C104.293 27.2737 103.097 28.4662 101.465 28.4662C99.8331 28.4662 98.6502 27.2987 98.6249 25.5728H99.9702C99.9826 26.5661 100.568 27.2369 101.465 27.2369C102.363 27.2369 102.948 26.5911 102.948 25.6844C102.948 25.0137 102.649 24.5919 101.665 24.2568C99.384 23.4868 98.8861 22.7417 98.8861 21.4383C98.8861 20.035 100.045 18.9299 101.464 18.9299C102.985 18.9299 104.081 19.8858 104.106 21.4876H102.76H102.761Z" fill="white"/>
<path d="M105.701 21.4259C106 21.3266 106.162 21.19 106.162 20.6184H105.701V19.1033H106.997V20.5067C106.997 21.4377 106.585 22.0342 105.701 22.2076V21.4259Z" fill="white"/>
<path d="M66.1722 37.1889C65.2382 38.7905 63.7551 39.6348 61.9114 39.6348C59.3572 39.6348 57.2518 37.3498 57.2518 34.9038C57.2518 32.1345 59.4442 30.0986 61.9239 30.0986C63.6681 30.0986 65.3002 30.8935 66.2342 32.6195H64.6146C63.9172 31.812 63.1071 31.3278 62.0235 31.3278C60.0921 31.3278 58.5979 32.9545 58.5979 34.7796C58.5979 36.7046 60.0552 38.4056 61.949 38.4056C62.9081 38.4056 63.7676 38.033 64.5158 37.1889H66.1722Z" fill="white"/>
<path d="M72.6007 39.4607V35.4622H68.8005V39.4607H67.4552V30.272H68.8005V34.233H72.6007V30.272H73.9461V39.4607H72.6007Z" fill="white"/>
<path d="M80.0633 39.6348C77.509 39.6348 75.3414 37.4496 75.3414 34.9663C75.3414 32.1477 77.5097 30.0986 80.1003 30.0986C82.8411 30.0986 84.9339 32.2469 84.9339 34.8046C84.9339 37.5863 82.7787 39.6348 80.0633 39.6348ZM83.5892 34.8913C83.5892 32.9913 82.1437 31.3278 80.2004 31.3278C77.7085 31.3278 76.6868 33.4636 76.6868 34.8296C76.6868 36.6796 78.0322 38.4056 80.1373 38.4056C82.2431 38.4056 83.5878 36.5679 83.5878 34.8913H83.5892Z" fill="white"/>
<path d="M86.3417 39.4607V30.272H87.687V39.4607H86.3417Z" fill="white"/>
<path d="M98.003 37.1889C97.069 38.7905 95.5858 39.6348 93.7419 39.6348C91.1877 39.6348 89.0825 37.3498 89.0825 34.9038C89.0825 32.1345 91.2747 30.0986 93.755 30.0986C95.4987 30.0986 97.1307 30.8935 98.0647 32.6195H96.4457C95.7483 31.812 94.9378 31.3278 93.8544 31.3278C91.9227 31.3278 90.4279 32.9545 90.4279 34.7796C90.4279 36.7046 91.885 38.4056 93.779 38.4056C94.7383 38.4056 95.5975 38.033 96.3449 37.1889H98.0023H98.003Z" fill="white"/>
<path d="M99.1604 39.4607V30.272H104.131V31.5012H100.506V34.208H104.131V35.4373H100.506V38.2315H104.131V39.4607H99.1604Z" fill="white"/>
<path d="M23.0271 69.3524V65.8083H22.1223V64.783H25.0956V65.8083H24.1971V69.3524H23.0271Z" fill="black"/>
<path d="M27.6789 69.3524V67.469C27.6789 67.0244 27.5056 66.7712 27.1276 66.7712C26.7497 66.7712 26.5513 66.9994 26.5513 67.4253V69.3517H25.5227V64.783H26.5513V66.2523C26.7003 65.9741 27.0344 65.8076 27.4436 65.8076C28.2301 65.8076 28.7075 66.3015 28.7075 67.1971V69.3517L27.6789 69.3524Z" fill="black"/>
<path d="M30.2682 67.9504C30.3238 68.3396 30.6524 68.599 31.0735 68.599C31.3519 68.599 31.5321 68.4943 31.6991 68.2779H32.7522C32.4236 69.0249 31.798 69.4634 31.0735 69.4634C30.0823 69.4634 29.2521 68.667 29.2521 67.648C29.2521 66.6289 30.0448 65.8083 31.0547 65.8083C32.0645 65.8083 32.8698 66.6171 32.8698 67.6792C32.8698 67.7777 32.8635 67.8581 32.8447 67.9511H30.2675L30.2682 67.9504ZM31.8418 67.2588C31.7611 66.9071 31.4514 66.6719 31.0554 66.6719C30.6837 66.6719 30.3615 66.8939 30.2814 67.2588H31.8418Z" fill="black"/>
<path d="M39.1577 69.3524L39.1946 65.9317L39.1821 65.9193L38.2036 69.3524H37.4296L36.4385 65.8887L36.4754 69.3524H35.3973V64.7837H36.9028L37.8131 67.7909H37.8256L38.7241 64.7837H40.2358V69.3524H39.1577Z" fill="black"/>
<path d="M42.7122 69.4569C41.6655 69.4569 40.8602 68.6848 40.8602 67.6353C40.8602 66.5857 41.6843 65.8136 42.7122 65.8136C43.7402 65.8136 44.5643 66.585 44.5643 67.6228C44.5643 68.6605 43.7465 69.4569 42.7122 69.4569ZM43.5363 67.6353C43.5363 67.1781 43.1897 66.7709 42.706 66.7709C42.2536 66.7709 41.8882 67.1663 41.8882 67.6353C41.8882 68.1042 42.2473 68.4996 42.7122 68.4996C43.1771 68.4996 43.5363 68.0924 43.5363 67.6353Z" fill="black"/>
<path d="M46.6086 66.8884C46.6024 66.6907 46.4597 66.629 46.2927 66.629C46.1256 66.629 45.9955 66.7274 45.9955 66.8572C45.9955 67.0424 46.1625 67.1354 46.64 67.2588C47.4578 67.4746 47.7243 67.802 47.7243 68.3021C47.7243 69.0188 47.1049 69.4689 46.324 69.4689C45.5431 69.4689 44.9982 69.0306 44.9237 68.3327H45.9461C45.9767 68.5491 46.1319 68.6476 46.3365 68.6476C46.5161 68.6476 46.6957 68.5429 46.6957 68.3819C46.6957 68.1905 46.5781 68.0919 46.0637 67.931C45.1965 67.6654 44.9675 67.3261 44.9675 66.9245C44.9675 66.2453 45.6057 65.8069 46.2997 65.8069C47.043 65.8069 47.5698 66.2141 47.6192 66.8877H46.6093L46.6086 66.8884Z" fill="black"/>
<path d="M48.4418 69.3524V66.7039H47.9337V65.9263H48.4418V64.7837H49.4698V65.9263H49.9653V66.7039H49.4698V69.3524H48.4418Z" fill="black"/>
<path d="M55.1995 69.3524L54.9761 68.692H53.3844L53.1429 69.3524H51.8853L53.7248 64.7837H54.6477L56.469 69.3524H55.1995ZM54.1967 66.2093L54.1778 66.203L53.7073 67.7652H54.6671L54.1967 66.2093Z" fill="black"/>
<path d="M59.3191 69.3523L58.7428 67.1359H58.7303L58.1541 69.3523H57.1998L56.1469 65.9254H57.2124L57.7267 68.0558H57.7392L58.303 65.9254H59.1702L59.7402 68.0558H59.7527L60.267 65.9254H61.3263L60.267 69.3523H59.3191Z" fill="black"/>
<path d="M64.2001 69.3524V68.9819H64.1876C64.0386 69.2843 63.6301 69.4695 63.1777 69.4695C62.1615 69.4695 61.4558 68.6732 61.4558 67.6361C61.4558 66.599 62.1929 65.8089 63.1777 65.8089C63.5988 65.8089 63.9892 65.9754 64.1876 66.2904H64.2001V65.9262H65.2281V69.353L64.2001 69.3524ZM64.2001 67.6354C64.2001 67.154 63.8097 66.7648 63.3266 66.7648C62.8436 66.7648 62.4845 67.154 62.4845 67.6479C62.4845 68.1418 62.8624 68.5123 63.3392 68.5123C63.8159 68.5123 64.2001 68.1293 64.2001 67.6354Z" fill="black"/>
<path d="M65.9711 69.3524V65.9255H66.9372V66.2897H66.9497C67.1293 65.9255 67.4146 65.8083 67.8106 65.8083V66.8391C67.1975 66.8453 66.9992 67.0735 66.9992 67.4627V69.3524H65.9711Z" fill="black"/>
<path d="M70.7787 69.3524V68.982H70.7664C70.5737 69.297 70.2274 69.4634 69.7378 69.4634C68.6976 69.4634 68.0162 68.6671 68.0162 67.63C68.0162 66.5929 68.7161 65.8083 69.72 65.8083C70.117 65.8083 70.4386 65.9256 70.73 66.2155V64.783H71.7586V69.3517H70.7801L70.7787 69.3524ZM70.7849 67.6231C70.7849 67.1479 70.4194 66.765 69.9113 66.765C69.4032 66.765 69.0445 67.1229 69.0445 67.6231C69.0445 68.1232 69.4093 68.5061 69.9051 68.5061C70.4009 68.5061 70.7849 68.1295 70.7849 67.6231Z" fill="black"/>
<path d="M73.3309 67.9504C73.3865 68.3396 73.7149 68.599 74.136 68.599C74.415 68.599 74.5947 68.4943 74.762 68.2779H75.8146C75.4861 69.0249 74.8608 69.4634 74.136 69.4634C73.1451 69.4634 72.3147 68.667 72.3147 67.648C72.3147 66.6289 73.1074 65.8083 74.1174 65.8083C75.1275 65.8083 75.9325 66.6171 75.9325 67.6792C75.9325 67.7777 75.9264 67.8581 75.9072 67.9511H73.3302L73.3309 67.9504ZM74.904 67.2588C74.823 66.9071 74.5131 66.6719 74.1174 66.6719C73.7458 66.6719 73.4235 66.8939 73.3433 67.2588H74.904Z" fill="black"/>
<path d="M79.1034 69.3524V68.982H79.091C78.899 69.297 78.5527 69.4634 78.0631 69.4634C77.0229 69.4634 76.3413 68.6671 76.3413 67.63C76.3413 66.5929 77.0414 65.8083 78.0453 65.8083C78.4417 65.8083 78.7633 65.9256 79.0547 66.2155V64.783H80.0839V69.3517H79.1054L79.1034 69.3524ZM79.1102 67.6231C79.1102 67.1479 78.7447 66.765 78.2366 66.765C77.7285 66.765 77.3692 67.1229 77.3692 67.6231C77.3692 68.1232 77.7347 68.5061 78.2304 68.5061C78.7255 68.5061 79.1102 68.1295 79.1102 67.6231Z" fill="black"/>
<path d="M86.1031 66.5176C85.9043 66.0175 85.4709 65.7213 84.9943 65.7213C84.2634 65.7213 83.7676 66.345 83.7676 67.0546C83.7676 67.7643 84.2757 68.4129 85.0005 68.4129C85.4647 68.4129 85.8611 68.1534 86.1031 67.6408H87.3292C87.0446 68.7395 86.0963 69.4375 85.0122 69.4375C84.3738 69.4375 83.7731 69.2154 83.302 68.7521C82.8069 68.2707 82.5957 67.69 82.5957 66.9984C82.5957 65.7879 83.6428 64.6953 84.9559 64.6953C85.5882 64.6953 86.0956 64.8681 86.5536 65.2572C86.9877 65.6276 87.2476 66.0474 87.3278 66.5169H86.1018L86.1031 66.5176Z" fill="black"/>
<path d="M89.5838 69.4569C88.5374 69.4569 87.7317 68.6848 87.7317 67.6353C87.7317 66.5857 88.5559 65.8136 89.5838 65.8136C90.6117 65.8136 91.4359 66.585 91.4359 67.6228C91.4359 68.6605 90.6179 69.4569 89.5838 69.4569ZM90.408 67.6353C90.408 67.1781 90.0611 66.7709 89.5776 66.7709C89.1251 66.7709 88.7596 67.1663 88.7596 67.6353C88.7596 68.1042 89.1189 68.4996 89.5838 68.4996C90.0487 68.4996 90.408 68.0924 90.408 67.6353Z" fill="black"/>
<path d="M94.1746 69.3524V67.4509C94.1746 66.9875 94.0135 66.7717 93.6357 66.7717C93.2208 66.7717 93.0466 67 93.0466 67.4634V69.353H92.0181V65.9262H92.9781V66.2904H92.9904C93.2071 65.9387 93.5102 65.8089 93.9257 65.8089C94.5456 65.8089 95.2018 66.1544 95.2018 67.1672V69.353H94.1733L94.1746 69.3524Z" fill="black"/>
<path d="M97.3948 66.8884C97.3886 66.6907 97.246 66.629 97.0793 66.629C96.912 66.629 96.7817 66.7274 96.7817 66.8572C96.7817 67.0424 96.9491 67.1354 97.4263 67.2588C98.2444 67.4746 98.5104 67.802 98.5104 68.3021C98.5104 69.0188 97.8912 69.4689 97.1102 69.4689C96.3292 69.4689 95.7847 69.0306 95.71 68.3327H96.7324C96.7639 68.5491 96.9182 68.6476 97.1232 68.6476C97.3022 68.6476 97.4818 68.5429 97.4818 68.3819C97.4818 68.1905 97.3646 68.0919 96.8503 67.931C95.9829 67.6654 95.7539 67.3261 95.7539 66.9245C95.7539 66.2453 96.3922 65.8069 97.0862 65.8069C97.8295 65.8069 98.3554 66.2141 98.4055 66.8877H97.3955L97.3948 66.8884Z" fill="black"/>
<path d="M101.235 69.3523V68.9881H101.223C101.074 69.3031 100.802 69.4633 100.337 69.4633C99.6131 69.4633 99.0117 69.0311 99.0117 68.0558V65.9254H100.04V67.8456C100.04 68.2965 100.201 68.506 100.592 68.506C100.982 68.506 101.18 68.2466 101.18 67.8269V65.9254H102.209V69.3523H101.236H101.235Z" fill="black"/>
<path d="M107.2 69.3524V67.5064C107.2 66.9695 107.026 66.7718 106.674 66.7718C106.283 66.7718 106.104 67.0063 106.104 67.4572V69.3524H105.075V67.4627C105.075 67.0181 104.915 66.7711 104.561 66.7711C104.159 66.7711 103.979 67.0306 103.979 67.5057V69.3517H102.95V65.9248H103.91V66.289H103.923C104.102 65.9678 104.431 65.8076 104.87 65.8076C105.311 65.8076 105.645 66.0296 105.861 66.4187C106.11 66.0296 106.481 65.8076 106.952 65.8076C107.72 65.8076 108.228 66.2765 108.228 67.2338V69.3517H107.199L107.2 69.3524Z" fill="black"/>
<path d="M109.783 67.9504C109.838 68.3396 110.167 68.599 110.588 68.599C110.866 68.599 111.047 68.4943 111.214 68.2779H112.266C111.938 69.0249 111.313 69.4634 110.588 69.4634C109.597 69.4634 108.767 68.667 108.767 67.648C108.767 66.6289 109.559 65.8083 110.569 65.8083C111.579 65.8083 112.384 66.6171 112.384 67.6792C112.384 67.7777 112.378 67.8581 112.359 67.9511H109.782L109.783 67.9504ZM111.357 67.2588C111.276 66.9071 110.966 66.6719 110.57 66.6719C110.198 66.6719 109.876 66.8939 109.796 67.2588H111.357Z" fill="black"/>
<path d="M112.948 69.3524V65.9255H113.914V66.2897H113.927C114.106 65.9255 114.391 65.8083 114.787 65.8083V66.8391C114.174 66.8453 113.976 67.0735 113.976 67.4627V69.3524H112.947H112.948Z" fill="black"/>
<path d="M22.5048 73.5256C22.4554 73.1982 22.3189 73.0809 22.09 73.0809C21.8728 73.0809 21.687 73.2356 21.687 73.4389C21.687 73.7108 21.9348 73.8343 22.4366 74.0501C23.4465 74.4822 23.7005 74.8464 23.7005 75.4451C23.7005 76.3281 23.0936 76.8463 22.1025 76.8463C21.1114 76.8463 20.4489 76.3275 20.4489 75.3459V75.2474H21.6132C21.6195 75.624 21.8053 75.871 22.0962 75.871C22.3377 75.871 22.5361 75.6795 22.5361 75.4326C22.5361 75.0684 22.0281 74.9075 21.6132 74.741C20.8636 74.4385 20.5226 74.0431 20.5226 73.4507C20.5226 72.6731 21.2784 72.1049 22.1206 72.1049C22.4241 72.1049 22.6906 72.1729 22.9321 72.2963C23.4214 72.5496 23.6566 72.9138 23.6629 73.5249L22.5048 73.5256Z" fill="black"/>
<path d="M25.1367 75.359C25.1924 75.7482 25.5209 76.0076 25.942 76.0076C26.2204 76.0076 26.4006 75.9029 26.5676 75.6864H27.6207C27.2922 76.4335 26.6665 76.872 25.942 76.872C24.9509 76.872 24.1206 76.0756 24.1206 75.0565C24.1206 74.0375 24.9133 73.2168 25.9232 73.2168C26.9331 73.2168 27.7383 74.0257 27.7383 75.0877C27.7383 75.1863 27.7321 75.2667 27.7133 75.3597H25.136L25.1367 75.359ZM26.7103 74.6674C26.6296 74.3157 26.3199 74.0805 25.9239 74.0805C25.5522 74.0805 25.23 74.3025 25.1499 74.6674H26.7103Z" fill="black"/>
<path d="M30.7364 74.6549C30.5874 74.3337 30.3216 74.1735 29.968 74.1735C29.4975 74.1735 29.1753 74.5626 29.1753 75.0441C29.1753 75.5255 29.5163 75.9146 29.9931 75.9146C30.3397 75.9146 30.5819 75.7544 30.7364 75.4576H31.7832C31.5786 76.3157 30.8415 76.8713 29.9618 76.8713C28.9456 76.8713 28.1404 76.0499 28.1404 75.0378C28.1404 74.0257 28.9519 73.2162 29.943 73.2162C30.847 73.2162 31.5848 73.7843 31.7762 74.6549H30.7364Z" fill="black"/>
<path d="M34.5581 76.7603V76.396H34.5456C34.3966 76.711 34.1246 76.8712 33.6596 76.8712C32.9351 76.8712 32.3337 76.4391 32.3337 75.4637V73.3333H33.3617V75.2535C33.3617 75.7044 33.5225 75.9139 33.9129 75.9139C34.3034 75.9139 34.5018 75.6545 34.5018 75.2348V73.3333H35.5304V76.7603H34.5581Z" fill="black"/>
<path d="M36.268 76.7603V73.3334H37.2339V73.6976H37.2465C37.4261 73.3334 37.7107 73.2162 38.1074 73.2162V74.247C37.4942 74.2532 37.2959 74.4815 37.2959 74.8706V76.7603H36.2672H36.268Z" fill="black"/>
<path d="M38.6519 72.9699V72.1923H39.6805V72.9699H38.6519ZM38.6519 76.7603V73.3334H39.6805V76.7603H38.6519Z" fill="black"/>
<path d="M40.6592 76.7603V74.1118H40.1511V73.3342H40.6592V72.1916H41.6872V73.3342H42.1827V74.1118H41.6872V76.7603H40.6592Z" fill="black"/>
<path d="M42.9947 77.9027L43.5396 76.5875L42.2639 73.3333H43.3601L44.0477 75.3215H44.0602L44.7165 73.3333H45.8071L44.0853 77.9021H42.9954L42.9947 77.9027Z" fill="black"/>
<path d="M48.142 76.7603V72.1916H49.6098C49.9383 72.1916 50.1798 72.2104 50.3406 72.2471C50.8612 72.3644 51.2948 72.766 51.2948 73.3834C51.2948 73.7725 51.109 74.118 50.7624 74.3095C51.2642 74.4822 51.5182 74.8464 51.5182 75.3716C51.5182 75.8099 51.3324 76.211 50.9858 76.4523C50.6267 76.7056 50.3914 76.761 49.6662 76.761L48.142 76.7603ZM49.7274 73.9266C50.0184 73.9266 50.1735 73.8031 50.1735 73.5624C50.1735 73.3217 50.0246 73.2169 49.7337 73.2169H49.2632V73.9272L49.7274 73.9266ZM49.8639 75.7358C50.1923 75.7358 50.3963 75.5935 50.3963 75.2973C50.3963 75.0317 50.2167 74.9019 49.8694 74.9019H49.2625V75.7358H49.8639Z" fill="black"/>
<path d="M52.0996 76.7603V73.3334H53.0656V73.6976H53.0781C53.2577 73.3334 53.5424 73.2162 53.9391 73.2162V74.247C53.3259 74.2532 53.1276 74.4815 53.1276 74.8706V76.7603H52.0989H52.0996Z" fill="black"/>
<path d="M56.8883 76.7603V76.3898H56.8757C56.7268 76.6922 56.3182 76.8775 55.8659 76.8775C54.8497 76.8775 54.144 76.0811 54.144 75.0441C54.144 74.007 54.881 73.2168 55.8659 73.2168C56.287 73.2168 56.6774 73.3833 56.8757 73.6983H56.8883V73.3341H57.9162V76.761L56.8883 76.7603ZM56.8883 75.0441C56.8883 74.5626 56.4978 74.1735 56.0148 74.1735C55.5318 74.1735 55.1727 74.5626 55.1727 75.0565C55.1727 75.5505 55.5506 75.9209 56.0274 75.9209C56.5041 75.9209 56.8883 75.538 56.8883 75.0441Z" fill="black"/>
<path d="M60.8216 76.7603V74.8589C60.8216 74.3954 60.6608 74.1797 60.2829 74.1797C59.8681 74.1797 59.694 74.4079 59.694 74.8713V76.761H58.6654V73.3341H59.6252V73.6983H59.6377C59.8542 73.3466 60.1576 73.2168 60.5731 73.2168C61.1925 73.2168 61.8488 73.5623 61.8488 74.5751V76.761H60.8202L60.8216 76.7603Z" fill="black"/>
<path d="M65.1825 76.7603V76.3899H65.17C64.9779 76.7049 64.6313 76.8714 64.1413 76.8714C63.1008 76.8714 62.4194 76.075 62.4194 75.0379C62.4194 74.0008 63.1196 73.2162 64.1225 73.2162C64.5192 73.2162 64.8414 73.3335 65.1324 73.6235V72.1909H66.161V76.7597L65.1825 76.7603ZM65.1888 75.0317C65.1888 74.5565 64.8233 74.1736 64.3153 74.1736C63.8073 74.1736 63.4481 74.5315 63.4481 75.0317C63.4481 75.5318 63.8135 75.9147 64.3091 75.9147C64.8046 75.9147 65.1888 75.5381 65.1888 75.0317Z" fill="black"/>
<path d="M68.8615 76.7603V72.1916H71.4075V73.2169H69.9826V73.9272H71.3643V74.9518H69.9826V75.7358H71.4075V76.7603H68.8615Z" fill="black"/>
<path d="M73.0553 76.7603L71.8224 73.3333H72.888L73.5442 75.47H73.5572L74.2142 73.3333H75.2798L74.0407 76.7603H73.0553Z" fill="black"/>
<path d="M76.4613 75.359C76.5168 75.7482 76.846 76.0076 77.267 76.0076C77.5454 76.0076 77.7251 75.9029 77.8924 75.6864H78.9456C78.6172 76.4335 77.9911 76.872 77.267 76.872C76.2755 76.872 75.4451 76.0756 75.4451 75.0565C75.4451 74.0375 76.2378 73.2168 77.2478 73.2168C78.2579 73.2168 79.0629 74.0257 79.0629 75.0877C79.0629 75.1863 79.0567 75.2667 79.0382 75.3597H76.4606L76.4613 75.359ZM78.035 74.6674C77.9541 74.3157 77.6448 74.0805 77.2485 74.0805C76.8768 74.0805 76.5546 74.3025 76.475 74.6674H78.035Z" fill="black"/>
<path d="M79.6265 76.7603V73.3334H80.5927V73.6976H80.6051C80.7847 73.3334 81.0693 73.2162 81.4663 73.2162V74.247C80.8533 74.2532 80.6544 74.4815 80.6544 74.8706V76.7603H79.6265Z" fill="black"/>
<path d="M83.7957 76.7603V72.1916H84.8242V73.6054C85.0971 73.3155 85.4441 73.2162 85.8027 73.2162C86.6955 73.2162 87.5122 73.8829 87.5122 75.0254C87.5122 76.0812 86.8375 76.8775 85.7781 76.8775C85.3632 76.8775 84.9477 76.6861 84.7934 76.3962H84.7803V76.7603H83.7957ZM86.4843 75.0441C86.4843 74.587 86.1312 74.1736 85.6361 74.1736C85.1403 74.1736 84.7872 74.5627 84.7872 75.0379C84.7872 75.5443 85.1465 75.921 85.6238 75.921C86.1017 75.921 86.4843 75.5381 86.4843 75.0441Z" fill="black"/>
<path d="M88.3303 77.9027L88.8748 76.5875L87.5994 73.3333H88.6958L89.3829 75.3215H89.3959L90.0528 73.3333H91.1425L89.4206 77.9021H88.331L88.3303 77.9027Z" fill="black"/>
<path d="M93.4773 76.7604V72.1917H95.0263C95.5152 72.1855 95.8807 72.2534 96.1221 72.3644C96.6179 72.5926 96.9278 73.1178 96.9278 73.7352C96.9278 74.5808 96.456 75.3279 95.1436 75.3279H94.5984V76.7604H93.4773ZM95.0997 74.3033C95.5708 74.3033 95.806 74.143 95.806 73.7539C95.806 73.3647 95.5769 73.217 95.0565 73.217H94.5978V74.3033H95.0997Z" fill="black"/>
<path d="M100.86 73.9266C100.662 73.4264 100.228 73.1302 99.7516 73.1302C99.0213 73.1302 98.5255 73.7538 98.5255 74.4636C98.5255 75.1732 99.0336 75.8217 99.7577 75.8217C100.222 75.8217 100.619 75.5623 100.86 75.0497H102.086C101.802 76.1485 100.854 76.8463 99.7701 76.8463C99.1317 76.8463 98.531 76.6244 98.0599 76.161C97.5642 75.6796 97.3536 75.0989 97.3536 74.4073C97.3536 73.1968 98.4 72.1043 99.7132 72.1043C100.345 72.1043 100.854 72.2769 101.312 72.6662C101.745 73.0366 102.006 73.4562 102.085 73.9259H100.859L100.86 73.9266Z" fill="black"/>
<path d="M106.454 76.7603L106.491 73.3397L106.478 73.3272L105.5 76.7603H104.726L103.735 73.2967L103.773 76.7603H102.695V72.1916H104.2L105.11 75.1988H105.123L106.021 72.1916H107.533V76.7603H106.454Z" fill="black"/>
<path d="M110.902 76.7603V76.3898H110.889C110.74 76.6922 110.331 76.8775 109.879 76.8775C108.863 76.8775 108.157 76.0811 108.157 75.0441C108.157 74.007 108.894 73.2168 109.879 73.2168C110.301 73.2168 110.691 73.3833 110.889 73.6983H110.902V73.3341H111.93V76.761L110.902 76.7603ZM110.902 75.0441C110.902 74.5626 110.511 74.1735 110.028 74.1735C109.545 74.1735 109.186 74.5626 109.186 75.0565C109.186 75.5505 109.564 75.9209 110.041 75.9209C110.517 75.9209 110.902 75.538 110.902 75.0441Z" fill="black"/>
<path d="M115.206 76.3594C115.051 76.6868 114.667 76.872 114.246 76.872C113.242 76.872 112.518 76.1 112.518 75.0692C112.518 74.0383 113.255 73.2232 114.246 73.2232C114.693 73.2232 115.033 73.3897 115.201 73.6554H115.213V73.3342H116.241V76.3969C116.241 76.8596 116.179 77.212 116.055 77.4465C115.808 77.9217 115.132 78.2857 114.272 78.2857C113.299 78.2857 112.667 77.7364 112.58 77.0816H113.77C113.887 77.3348 114.116 77.4208 114.37 77.4208C114.891 77.4208 115.207 77.0816 115.207 76.4579L115.206 76.3594ZM115.212 75.0629C115.212 74.5628 114.871 74.1798 114.37 74.1798C113.911 74.1798 113.545 74.5628 113.545 75.0317C113.545 75.5006 113.874 75.9148 114.37 75.9148C114.865 75.9148 115.212 75.5568 115.212 75.0629Z" fill="black"/>
</g>
</g>
<defs>
<clipPath id="clip0_221_484">
<rect width="120" height="68.5714" fill="white" transform="translate(0 9.71428)"/>
</clipPath>
</defs>
</svg>
