<svg width="184" height="136" viewBox="0 0 184 136" fill="none" xmlns="http://www.w3.org/2000/svg">
<g clip-path="url(#clip0_221_772)">
<mask id="mask0_221_772" style="mask-type:luminance" maskUnits="userSpaceOnUse" x="0" y="15" width="184" height="106">
<path d="M184 15.4286H0V120.571H184V15.4286Z" fill="white"/>
</mask>
<g mask="url(#mask0_221_772)">
<path d="M158.368 97.558H1.06718C0.478094 97.558 0 97.0814 0 96.4943C0 95.9072 0.478094 95.4307 1.06718 95.4307H158.368C158.958 95.4307 159.435 95.9072 159.435 96.4943C159.435 97.0814 158.958 97.558 158.368 97.558Z" fill="black"/>
<path d="M37.5013 82.0402L37.2537 83.5984C37.7649 83.3208 38.2601 83.2591 38.8321 83.2591C41.2311 83.2591 42.6238 85.1715 42.6238 87.1C42.6238 89.2284 40.9525 91.2334 38.2291 91.2334C36.0159 91.2334 34.2678 89.9996 33.8655 87.9477H36.8055C37.115 88.3955 37.5952 88.6572 38.1523 88.6572C38.9879 88.6572 39.6998 87.9945 39.6998 87.1457C39.6998 86.297 39.0039 85.6492 38.1363 85.6492C37.4085 85.6492 36.9293 85.9725 36.6347 86.6363L34.2667 86.0502L35.257 79.5873H41.5864V82.0402H37.5013Z" fill="#E21E26"/>
<path d="M48.1479 83.058C48.3336 82.9963 48.5033 82.9963 48.7049 82.9963C50.8255 82.9963 52.3109 84.7545 52.3109 86.8681C52.3109 89.3666 50.3762 91.2174 47.8694 91.2174C45.3625 91.2174 43.351 89.4283 43.351 86.8064C43.351 85.665 43.7841 84.662 44.4031 83.7526L47.2504 79.5883H50.6397L48.1169 83.0123L48.1479 83.058ZM47.7765 85.5565C46.9099 85.5565 46.2291 86.2203 46.2291 87.0681C46.2291 87.9157 46.863 88.6572 47.7765 88.6572C48.69 88.6572 49.3858 87.9945 49.3858 87.1149C49.3858 86.2351 48.69 85.5565 47.7765 85.5565Z" fill="#E21E26"/>
<path d="M59.3968 91.0015V82.1485H57.1376V79.5883H64.5651V82.1485H62.3208V91.0015H59.3968Z" fill="black"/>
<path d="M65.741 91.0015V79.5883H68.666V91.0015H65.741Z" fill="black"/>
<path d="M80.1315 91.0015L80.2244 82.457L80.1935 82.4262L77.7486 91.0015H75.8137L73.3379 82.3485L73.4308 91.0015H70.7383V79.5883H74.499L76.7742 87.0999H76.8052L79.0494 79.5883H82.8251V91.0015H80.1327H80.1315Z" fill="black"/>
<path d="M84.8977 91.0015V79.5883H91.2581V82.1485H87.699V83.9227H91.1503V86.4831H87.699V88.4423H91.2581V91.0025L84.8977 91.0015Z" fill="black"/>
<path d="M105.741 91.0015L104.023 83.6132H103.992L102.274 91.0015H99.627L96.6709 79.5883H99.6419L101.174 87.0074H101.205L102.891 79.5883H105.136L106.792 87.0382H106.823L108.385 79.5883H111.341L108.309 91.0015H105.741Z" fill="black"/>
<path d="M112.643 91.0015V79.5883H115.568V91.0015H112.643Z" fill="black"/>
<path d="M124.759 91.0015L120.364 84.0302L120.441 91.0015H117.64V79.5883H120.163L124.62 86.8064L124.495 79.5883H127.296V91.0015H124.759Z" fill="black"/>
<path d="M136.504 91.0015L132.109 84.0302L132.186 91.0015H129.385V79.5883H131.907L136.364 86.8064L136.24 79.5883H139.041V91.0015H136.504Z" fill="black"/>
<path d="M141.13 91.0015V79.5883H147.49V82.1485H143.931V83.9227H147.382V86.4831H143.931V88.4423H147.49V91.0025L141.13 91.0015Z" fill="black"/>
<path d="M154.778 91.0015L152.131 87.3148H152.1V91.0015H149.299V79.5883H153.044C154.235 79.5883 155.148 79.7426 155.752 80.0052C156.99 80.5605 157.856 81.9018 157.856 83.5217C157.856 85.3268 156.773 86.8074 155.009 87.1159L158.12 91.0025L154.778 91.0015ZM153.185 85.3258C154.346 85.3258 155.057 84.7854 155.057 83.6909C155.057 82.7038 154.314 82.1485 153.215 82.1485H152.101V85.3258H153.185Z" fill="black"/>
<path d="M79.9525 75.7036H29.8209V15.4286H79.9525" fill="#E11F26"/>
<path d="M74.5879 43.2424H66.6267V53.3345C66.6267 54.3705 66.1935 54.8012 65.329 54.8012C64.4646 54.8012 64.0314 54.3705 64.0314 53.3345V27.2001C64.0314 26.3375 64.4636 25.8194 65.329 25.8194C66.1946 25.8194 66.6267 26.3363 66.6267 27.2001V36.3434H74.5879V27.5458C74.5879 23.2326 72.4247 20.1266 65.6748 20.1266C58.925 20.1266 55.637 22.7146 55.637 27.5458V52.9898C55.637 57.9061 58.926 60.4951 65.6748 60.4951C72.4236 60.4951 74.5879 57.3892 74.5879 52.9898V43.2424ZM53.906 27.7181C53.906 22.8879 51.57 20.3 46.0313 20.3H35.2998V60.3228H43.6942V44.8826H46.0313C51.57 44.8826 53.906 42.2946 53.906 37.4645V27.7171V27.7181ZM43.6942 39.1036V26.08C45.5981 26.08 46.3771 26.597 46.3771 28.3223V36.8614C46.3771 38.5866 45.5981 39.1036 43.6942 39.1036Z" fill="white"/>
<path d="M37.1818 67.6911H36.7059V70.4194H35.3409V63.2684H37.0516C38.359 63.2684 39.0878 63.8736 39.0878 65.4564C39.0878 67.1231 38.4059 67.6911 37.1818 67.6911ZM36.9215 64.2182H36.707V66.6849H37.0047C37.4252 66.6849 37.6781 66.3402 37.6781 65.4659C37.6781 64.5916 37.454 64.2182 36.9215 64.2182ZM41.6223 70.5492C39.9885 70.5492 39.5019 69.6642 39.5019 66.9636C39.5019 64.2629 39.9511 63.1556 41.5679 63.1556C43.1847 63.1556 43.3992 64.1895 43.3992 65.3436C43.3992 65.567 43.38 65.7807 43.3607 65.9212L42.0897 65.9584C42.109 65.7722 42.1186 65.5308 42.1186 65.3999C42.1186 64.515 42.0161 64.0491 41.5679 64.0491C41.0258 64.0491 40.9137 64.5342 40.9137 66.9083C40.9137 69.1515 40.9788 69.6174 41.6148 69.6174C42.1378 69.6174 42.2221 69.0494 42.2221 68.2027C42.2221 68.007 42.2124 67.7092 42.1847 67.4678L43.427 67.505C43.4558 67.6911 43.4643 67.9241 43.4643 68.1112C43.4643 69.7398 43.0353 70.5502 41.6234 70.5502M47.9272 70.4184V67.1688C47.9272 66.0892 47.9454 65.8562 47.9549 65.1766C47.8803 65.8562 47.8621 66.3583 47.7309 67.1688C47.5537 68.258 47.1801 70.4184 47.1801 70.4184H46.0308C46.0308 70.4184 45.6563 68.258 45.4791 67.1688C45.3489 66.3679 45.2838 65.8839 45.2369 65.1766C45.2646 65.8839 45.2646 66.0892 45.2646 67.1688V70.4184H44.0224V63.2673H45.7683C46.002 64.5895 46.2165 66.0233 46.3937 66.9732C46.4684 67.4018 46.4972 67.589 46.5901 68.1644C46.6743 67.5965 46.7213 67.3549 46.7864 66.9827C46.9625 66.0339 47.1962 64.5714 47.4395 63.2673H49.1683V70.4184H47.9272ZM52.3954 70.4184L52.1521 69.1058H51.1159L50.8907 70.4184H49.5931L50.9665 63.2396H52.3496L53.835 70.4184H52.3954ZM51.7327 66.2658C51.6772 65.8275 51.6388 65.4095 51.6207 65.167C51.6015 65.4095 51.5737 65.8275 51.5172 66.2562C51.4051 67.1401 51.2845 68.1176 51.2845 68.1176H51.976C51.976 68.1176 51.8448 67.1401 51.7327 66.2658ZM57.4037 70.4184L57.0953 69.8695C56.8616 70.261 56.6278 70.5492 55.9748 70.5492C54.5821 70.5492 53.9471 69.7951 53.9471 67.0763C53.9471 63.9469 54.517 63.1556 56.058 63.1556C57.4507 63.1556 57.8424 63.9565 57.8424 65.3255C57.8424 65.4468 57.8327 65.6701 57.8231 65.7627L56.5435 65.8009C56.5617 65.6606 56.5617 65.5127 56.5617 65.3542C56.5617 64.5342 56.4496 64.0502 56.0387 64.0502C55.4315 64.0502 55.3569 64.5448 55.3569 67.0391C55.3569 69.3292 55.5073 69.6185 56.0387 69.6185C56.6375 69.6185 56.7773 69.1526 56.7773 68.1751C56.7773 68.0453 56.7773 67.9517 56.7677 67.7102H56.0569V66.6763H57.9533V70.4184H57.4026H57.4037ZM58.5434 68.8357H60.0289V70.4184H58.5434V68.8357ZM62.5411 70.5492C60.9062 70.5492 60.4206 69.6642 60.4206 66.9636C60.4206 64.2629 60.8688 63.1556 62.4856 63.1556C64.1023 63.1556 64.3168 64.1895 64.3168 65.3436C64.3168 65.567 64.2976 65.7807 64.2795 65.9212L63.0085 65.9584C63.0277 65.7722 63.0374 65.5308 63.0374 65.3999C63.0374 64.515 62.9338 64.0491 62.4856 64.0491C61.9434 64.0491 61.8314 64.5342 61.8314 66.9083C61.8314 69.1515 61.8966 69.6174 62.5326 69.6174C63.0554 69.6174 63.1408 69.0494 63.1408 68.2027C63.1408 68.007 63.1312 67.7092 63.1024 67.4678L64.3456 67.505C64.3734 67.6911 64.383 67.9241 64.383 68.1112C64.383 69.7398 63.954 70.5502 62.5421 70.5502M66.8663 70.5492C65.4182 70.5492 64.7833 69.8876 64.7833 66.853C64.7833 63.8182 65.4182 63.1556 66.8663 63.1556C68.3145 63.1556 68.958 63.9469 68.958 66.853C68.958 69.7589 68.3134 70.5492 66.8663 70.5492ZM66.8663 64.0491C66.241 64.0491 66.1929 64.7479 66.1929 66.853C66.1929 68.9579 66.2581 69.6174 66.8663 69.6174C67.4746 69.6174 67.5483 69.0303 67.5483 66.853C67.5483 64.6756 67.4907 64.0491 66.8663 64.0491ZM73.3772 70.4184V67.1688C73.3772 66.0892 73.3963 65.8562 73.4049 65.1766C73.3313 65.8562 73.312 66.3583 73.1808 67.1688C73.0036 68.258 72.6302 70.4184 72.6302 70.4184H71.4807C71.4807 70.4184 71.1073 68.258 70.9301 67.1688C70.7989 66.3679 70.7338 65.8839 70.6868 65.1766C70.7146 65.8839 70.7146 66.0892 70.7146 67.1688V70.4184H69.4724V63.2673H71.2183C71.4519 64.5895 71.6676 66.0233 71.8446 66.9732C71.9184 67.4018 71.9472 67.589 72.04 68.1644C72.1233 67.5965 72.1712 67.3549 72.2363 66.9827C72.4135 66.0339 72.6472 64.5714 72.8895 63.2673H74.6183V70.4184H73.3761H73.3772Z" fill="white"/>
<path d="M184 45.5666L164.972 15.4286H81.9375V75.7036H164.972L184 45.5666Z" fill="#E11F26"/>
<path d="M179.192 18.8866C179.192 20.8469 177.648 22.3871 175.638 22.3871C173.627 22.3871 172.062 20.848 172.062 18.8866C172.062 16.9252 173.65 15.4286 175.638 15.4286C177.626 15.4286 179.192 16.9677 179.192 18.8866ZM172.949 18.8866C172.949 20.4257 174.093 21.6489 175.658 21.6489C177.222 21.6489 178.303 20.4257 178.303 18.9079C178.303 17.39 177.181 16.1242 175.637 16.1242C174.091 16.1242 172.949 17.3687 172.949 18.8866ZM175.088 20.7001H174.284V17.2421C174.6 17.1783 175.044 17.1368 175.616 17.1368C176.271 17.1368 176.567 17.2421 176.822 17.39C177.012 17.5378 177.159 17.8112 177.159 18.1484C177.159 18.5281 176.863 18.8228 176.441 18.9504V18.993C176.779 19.1195 176.97 19.3727 177.075 19.8364C177.181 20.364 177.244 20.5746 177.33 20.7012H176.461C176.357 20.5746 176.293 20.2587 176.186 19.8577C176.124 19.478 175.912 19.3089 175.468 19.3089H175.087V20.7001H175.088ZM175.108 18.7387H175.49C175.933 18.7387 176.294 18.5909 176.294 18.2335C176.294 17.9165 176.062 17.7059 175.553 17.7059C175.34 17.7059 175.193 17.7272 175.109 17.7485V18.7387H175.108Z" fill="#231F20"/>
<path d="M88.3025 43.9145V29.8252H95.9242V31.71H90.3653V35.8604H95.9242V37.7453H90.3653V42.0287H95.9242V43.9135L88.3025 43.9145Z" fill="white"/>
<path d="M98.2357 43.9145V29.8252H103.145C107.424 29.8252 110.04 33.1949 110.04 36.8699C110.04 41.1724 107.309 43.9145 102.84 43.9145H98.2357ZM102.763 42.0298C106.029 42.0298 107.978 40.1257 107.978 36.9081C107.978 33.6906 105.743 31.71 102.859 31.71H100.299V42.0298H102.763Z" fill="white"/>
<path d="M112.409 43.9145V29.8252H114.472V43.9145H112.409Z" fill="white"/>
<path d="M118.733 43.9145V31.71H116.02V29.8252H123.508V31.71H120.795V43.9145H118.733Z" fill="white"/>
<path d="M131.34 44.1815C127.424 44.1815 124.1 40.8309 124.1 37.023C124.1 32.7012 127.425 29.5593 131.398 29.5593C135.601 29.5593 138.81 32.8534 138.81 36.7751C138.81 41.0404 135.504 44.1815 131.34 44.1815ZM136.746 36.9081C136.746 33.9947 134.53 31.4441 131.549 31.4441C127.729 31.4441 126.162 34.719 126.162 36.8135C126.162 39.6502 128.225 42.2967 131.453 42.2967C134.682 42.2967 136.745 39.479 136.745 36.9081H136.746Z" fill="white"/>
<path d="M147.54 43.9145L142.878 37.3836H142.84V43.9145H140.777V29.8252H145.303C148.704 29.8252 150.212 31.6154 150.212 34.5086C150.212 37.1932 148.149 38.6016 146.162 38.659L150.117 43.9135H147.536L147.54 43.9145ZM144.349 37.0986C146.755 37.0986 148.149 36.1657 148.149 34.3373C148.149 32.7195 146.851 31.71 145.016 31.71H142.839V37.0986H144.349Z" fill="white"/>
<path d="M157.567 33.481C157.567 32.2056 156.746 31.4441 155.58 31.4441C154.586 31.4441 153.689 32.3386 153.689 33.3671C153.689 34.3957 154.357 34.9286 155.732 35.3658C158.789 36.3369 159.916 37.4794 159.916 39.9162C159.916 42.353 158.082 44.1815 155.58 44.1815C153.077 44.1815 151.264 42.3913 151.225 39.745H153.288C153.307 41.2681 154.205 42.2967 155.58 42.2967C156.956 42.2967 157.853 41.3064 157.853 39.9162C157.853 38.8876 157.395 38.2409 155.886 37.7272C152.389 36.5464 151.625 35.4041 151.625 33.4055C151.625 31.2536 153.402 29.5593 155.579 29.5593C157.91 29.5593 159.591 31.025 159.629 33.481H157.566H157.567Z" fill="white"/>
<path d="M162.075 33.3864C162.534 33.2342 162.781 33.0247 162.781 32.1482H162.075V29.8252H164.062V31.9769C164.062 33.4045 163.431 34.3192 162.075 34.5851V33.3864Z" fill="white"/>
<path d="M101.464 57.5563C100.032 60.0122 97.7578 61.3067 94.9308 61.3067C91.0143 61.3067 87.7861 57.803 87.7861 54.0525C87.7861 49.8063 91.1478 46.6845 94.95 46.6845C97.6243 46.6845 100.127 47.9034 101.559 50.5499H99.0757C98.0064 49.3117 96.7643 48.5693 95.1027 48.5693C92.1412 48.5693 89.8501 51.0636 89.8501 53.8621C89.8501 56.8138 92.0847 59.4219 94.9885 59.4219C96.459 59.4219 97.777 58.8507 98.9242 57.5563H101.464Z" fill="white"/>
<path d="M111.321 61.0398V54.9088H105.494V61.0398H103.431V46.9504H105.494V53.024H111.321V46.9504H113.384V61.0398H111.321Z" fill="white"/>
<path d="M122.764 61.3067C118.847 61.3067 115.524 57.9561 115.524 54.1483C115.524 49.8265 118.848 46.6845 122.82 46.6845C127.023 46.6845 130.232 49.9786 130.232 53.9004C130.232 58.1657 126.927 61.3067 122.764 61.3067ZM128.17 54.0334C128.17 51.12 125.954 48.5693 122.974 48.5693C119.153 48.5693 117.586 51.8443 117.586 53.9387C117.586 56.7755 119.649 59.4219 122.877 59.4219C126.106 59.4219 128.168 56.6042 128.168 54.0334H128.17Z" fill="white"/>
<path d="M132.391 61.0398V46.9504H134.454V61.0398H132.391Z" fill="white"/>
<path d="M150.271 57.5563C148.839 60.0122 146.565 61.3067 143.738 61.3067C139.821 61.3067 136.593 57.803 136.593 54.0525C136.593 49.8063 139.955 46.6845 143.758 46.6845C146.431 46.6845 148.934 47.9034 150.366 50.5499H147.883C146.814 49.3117 145.571 48.5693 143.91 48.5693C140.948 48.5693 138.656 51.0636 138.656 53.8621C138.656 56.8138 140.89 59.4219 143.794 59.4219C145.265 59.4219 146.583 58.8507 147.729 57.5563H150.27H150.271Z" fill="white"/>
<path d="M152.046 61.0398V46.9504H159.668V48.8352H154.109V52.9856H159.668V54.8705H154.109V59.155H159.668V61.0398H152.046Z" fill="white"/>
<path d="M35.3083 106.874V101.439H33.9209V99.8674H38.4799V101.439H37.1022V106.874H35.3083Z" fill="black"/>
<path d="M42.441 106.874V103.986C42.441 103.304 42.1753 102.916 41.5958 102.916C41.0163 102.916 40.7121 103.266 40.7121 103.919V106.873H39.1349V99.8674H40.7121V102.12C40.9405 101.694 41.4528 101.438 42.0803 101.438C43.2862 101.438 44.0182 102.196 44.0182 103.569V106.873L42.441 106.874Z" fill="black"/>
<path d="M46.4112 104.724C46.4965 105.321 47.0003 105.719 47.646 105.719C48.0728 105.719 48.3491 105.558 48.6053 105.226H50.22C49.7162 106.372 48.7569 107.044 47.646 107.044C46.1262 107.044 44.8531 105.823 44.8531 104.26C44.8531 102.698 46.0686 101.439 47.6171 101.439C49.1656 101.439 50.4003 102.68 50.4003 104.308C50.4003 104.459 50.3907 104.582 50.3619 104.725H46.4101L46.4112 104.724ZM48.8241 103.664C48.7003 103.124 48.2254 102.764 47.6182 102.764C47.0483 102.764 46.5543 103.104 46.4315 103.664H48.8241Z" fill="black"/>
<path d="M60.0418 106.874L60.0984 101.629L60.0791 101.61L58.5787 106.874H57.392L55.8724 101.563L55.9289 106.874H54.2759V99.8684H56.5842L57.9801 104.479H57.9992L59.377 99.8684H61.6949V106.874H60.0418Z" fill="black"/>
<path d="M65.4922 107.034C63.8872 107.034 62.6525 105.85 62.6525 104.241C62.6525 102.631 63.916 101.448 65.4922 101.448C67.0685 101.448 68.332 102.63 68.332 104.222C68.332 105.813 67.078 107.034 65.4922 107.034ZM66.7558 104.241C66.7558 103.54 66.2243 102.915 65.4826 102.915C64.789 102.915 64.2287 103.522 64.2287 104.241C64.2287 104.96 64.7793 105.566 65.4922 105.566C66.205 105.566 66.7558 104.942 66.7558 104.241Z" fill="black"/>
<path d="M71.4665 103.096C71.4569 102.792 71.2381 102.698 70.982 102.698C70.7259 102.698 70.5263 102.849 70.5263 103.048C70.5263 103.332 70.7824 103.474 71.5146 103.664C72.7685 103.994 73.1772 104.496 73.1772 105.263C73.1772 106.362 72.2274 107.052 71.0301 107.052C69.8327 107.052 68.9971 106.38 68.8829 105.31H70.4506C70.4975 105.642 70.7355 105.793 71.0493 105.793C71.3246 105.793 71.5999 105.632 71.5999 105.386C71.5999 105.092 71.4196 104.941 70.6309 104.694C69.3012 104.287 68.9501 103.767 68.9501 103.151C68.9501 102.11 69.9287 101.437 70.9927 101.437C72.1325 101.437 72.9403 102.062 73.0161 103.095H71.4676L71.4665 103.096Z" fill="black"/>
<path d="M74.2774 106.874V102.813H73.4983V101.62H74.2774V99.8684H75.8536V101.62H76.6134V102.813H75.8536V106.874H74.2774Z" fill="black"/>
<path d="M84.6392 106.874L84.2967 105.861H81.8561L81.4858 106.874H79.5574L82.3779 99.8684H83.7931L86.5858 106.874H84.6392ZM83.1015 102.054L83.0726 102.045L82.3512 104.44H83.8229L83.1015 102.054Z" fill="black"/>
<path d="M90.956 106.874L90.0724 103.475H90.0532L89.1697 106.874H87.7065L86.0919 101.619H87.7257L88.5144 104.886H88.5336L89.398 101.619H90.7277L91.6017 104.886H91.6209L92.4095 101.619H94.0338L92.4095 106.874H90.956Z" fill="black"/>
<path d="M98.4401 106.874V106.306H98.4209C98.1925 106.769 97.566 107.053 96.8724 107.053C95.3143 107.053 94.2322 105.832 94.2322 104.242C94.2322 102.652 95.3624 101.44 96.8724 101.44C97.5181 101.44 98.1168 101.696 98.4209 102.179H98.4401V101.62H100.016V106.875L98.4401 106.874ZM98.4401 104.241C98.4401 103.503 97.8414 102.906 97.1008 102.906C96.3602 102.906 95.8095 103.503 95.8095 104.26C95.8095 105.017 96.389 105.586 97.12 105.586C97.851 105.586 98.4401 104.998 98.4401 104.241Z" fill="black"/>
<path d="M101.156 106.874V101.619H102.637V102.178H102.656C102.932 101.619 103.369 101.439 103.976 101.439V103.02C103.036 103.03 102.732 103.379 102.732 103.976V106.874H101.156Z" fill="black"/>
<path d="M108.527 106.874V106.306H108.508C108.213 106.789 107.682 107.044 106.931 107.044C105.336 107.044 104.292 105.823 104.292 104.233C104.292 102.643 105.365 101.439 106.904 101.439C107.513 101.439 108.006 101.619 108.453 102.064V99.8674H110.03V106.873H108.53L108.527 106.874ZM108.537 104.222C108.537 103.493 107.976 102.906 107.197 102.906C106.418 102.906 105.868 103.455 105.868 104.222C105.868 104.989 106.428 105.576 107.188 105.576C107.948 105.576 108.537 104.999 108.537 104.222Z" fill="black"/>
<path d="M112.441 104.724C112.526 105.321 113.03 105.719 113.675 105.719C114.103 105.719 114.379 105.558 114.635 105.226H116.249C115.745 106.372 114.787 107.044 113.675 107.044C112.156 107.044 110.883 105.823 110.883 104.26C110.883 102.698 112.098 101.439 113.647 101.439C115.196 101.439 116.43 102.68 116.43 104.308C116.43 104.459 116.42 104.582 116.391 104.725H112.44L112.441 104.724ZM114.853 103.664C114.729 103.124 114.253 102.764 113.647 102.764C113.077 102.764 112.583 103.104 112.46 103.664H114.853Z" fill="black"/>
<path d="M121.292 106.874V106.306H121.273C120.978 106.789 120.447 107.044 119.697 107.044C118.102 107.044 117.057 105.823 117.057 104.233C117.057 102.643 118.13 101.439 119.669 101.439C120.277 101.439 120.77 101.619 121.217 102.064V99.8674H122.795V106.873H121.295L121.292 106.874ZM121.302 104.222C121.302 103.493 120.742 102.906 119.963 102.906C119.184 102.906 118.633 103.455 118.633 104.222C118.633 104.989 119.193 105.576 119.953 105.576C120.712 105.576 121.302 104.999 121.302 104.222Z" fill="black"/>
<path d="M132.025 102.527C131.72 101.76 131.055 101.306 130.325 101.306C129.204 101.306 128.444 102.262 128.444 103.35C128.444 104.439 129.223 105.433 130.334 105.433C131.046 105.433 131.654 105.035 132.025 104.249H133.905C133.468 105.934 132.014 107.004 130.352 107.004C129.373 107.004 128.452 106.664 127.73 105.953C126.971 105.215 126.647 104.325 126.647 103.264C126.647 101.408 128.252 99.7328 130.266 99.7328C131.235 99.7328 132.013 99.9977 132.716 100.594C133.381 101.162 133.78 101.806 133.903 102.526H132.023L132.025 102.527Z" fill="black"/>
<path d="M137.362 107.034C135.757 107.034 134.522 105.85 134.522 104.241C134.522 102.631 135.786 101.448 137.362 101.448C138.938 101.448 140.202 102.63 140.202 104.222C140.202 105.813 138.947 107.034 137.362 107.034ZM138.626 104.241C138.626 103.54 138.094 102.915 137.352 102.915C136.658 102.915 136.098 103.522 136.098 104.241C136.098 104.96 136.649 105.566 137.362 105.566C138.075 105.566 138.626 104.942 138.626 104.241Z" fill="black"/>
<path d="M144.401 106.874V103.958C144.401 103.248 144.154 102.917 143.575 102.917C142.939 102.917 142.672 103.267 142.672 103.977V106.875H141.094V101.62H142.566V102.179H142.585C142.918 101.639 143.382 101.44 144.019 101.44C144.97 101.44 145.976 101.97 145.976 103.523V106.875H144.399L144.401 106.874Z" fill="black"/>
<path d="M149.339 103.096C149.329 102.792 149.11 102.698 148.855 102.698C148.598 102.698 148.399 102.849 148.399 103.048C148.399 103.332 148.655 103.474 149.387 103.664C150.641 103.994 151.049 104.496 151.049 105.263C151.049 106.362 150.1 107.052 148.902 107.052C147.705 107.052 146.87 106.38 146.755 105.31H148.323C148.371 105.642 148.608 105.793 148.922 105.793C149.197 105.793 149.472 105.632 149.472 105.386C149.472 105.092 149.292 104.941 148.504 104.694C147.174 104.287 146.823 103.767 146.823 103.151C146.823 102.11 147.801 101.437 148.865 101.437C150.005 101.437 150.812 102.062 150.888 103.095H149.34L149.339 103.096Z" fill="black"/>
<path d="M155.228 106.874V106.315H155.209C154.981 106.798 154.563 107.044 153.85 107.044C152.74 107.044 151.818 106.381 151.818 104.886V101.619H153.395V104.563C153.395 105.255 153.641 105.576 154.24 105.576C154.839 105.576 155.142 105.178 155.142 104.535V101.619H156.72V106.874H155.229H155.228Z" fill="black"/>
<path d="M164.373 106.874V104.043C164.373 103.22 164.107 102.917 163.567 102.917C162.967 102.917 162.693 103.276 162.693 103.968V106.874H161.116V103.976C161.116 103.294 160.87 102.916 160.327 102.916C159.71 102.916 159.434 103.314 159.434 104.042V106.873H157.857V101.618H159.328V102.177H159.348C159.624 101.684 160.127 101.438 160.801 101.438C161.476 101.438 161.988 101.779 162.321 102.375C162.701 101.779 163.271 101.438 163.992 101.438C165.17 101.438 165.949 102.157 165.949 103.625V106.873H164.372L164.373 106.874Z" fill="black"/>
<path d="M168.334 104.724C168.419 105.321 168.923 105.719 169.568 105.719C169.995 105.719 170.272 105.558 170.528 105.226H172.142C171.638 106.372 170.679 107.044 169.568 107.044C168.049 107.044 166.776 105.823 166.776 104.26C166.776 102.698 167.991 101.439 169.54 101.439C171.088 101.439 172.323 102.68 172.323 104.308C172.323 104.459 172.313 104.582 172.284 104.725H168.333L168.334 104.724ZM170.747 103.664C170.623 103.124 170.147 102.764 169.541 102.764C168.971 102.764 168.477 103.104 168.354 103.664H170.747Z" fill="black"/>
<path d="M173.187 106.874V101.619H174.669V102.178H174.687C174.963 101.619 175.399 101.439 176.007 101.439V103.02C175.067 103.03 174.763 103.379 174.763 103.976V106.874H173.186H173.187Z" fill="black"/>
<path d="M34.5074 113.273C34.4317 112.771 34.2224 112.591 33.8714 112.591C33.5384 112.591 33.2534 112.828 33.2534 113.14C33.2534 113.557 33.6334 113.746 34.4029 114.077C35.9513 114.739 36.3409 115.298 36.3409 116.216C36.3409 117.57 35.4102 118.364 33.8906 118.364C32.3709 118.364 31.355 117.569 31.355 116.064V115.913H33.1403C33.15 116.49 33.4349 116.869 33.8809 116.869C34.2512 116.869 34.5554 116.575 34.5554 116.197C34.5554 115.638 33.7764 115.391 33.1403 115.136C31.991 114.672 31.4681 114.066 31.4681 113.158C31.4681 111.965 32.627 111.094 33.9184 111.094C34.3836 111.094 34.7923 111.198 35.1626 111.388C35.9128 111.776 36.2736 112.334 36.2831 113.272L34.5074 113.273Z" fill="black"/>
<path d="M38.5429 116.084C38.6282 116.681 39.132 117.078 39.7777 117.078C40.2045 117.078 40.4809 116.918 40.737 116.586H42.3517C41.8479 117.731 40.8886 118.404 39.7777 118.404C38.2579 118.404 36.9849 117.183 36.9849 115.62C36.9849 114.058 38.2003 112.799 39.7489 112.799C41.2973 112.799 42.532 114.039 42.532 115.668C42.532 115.819 42.5224 115.942 42.4936 116.085H38.5418L38.5429 116.084ZM40.9558 115.023C40.832 114.484 40.3571 114.123 39.7499 114.123C39.18 114.123 38.6859 114.464 38.5632 115.023H40.9558Z" fill="black"/>
<path d="M47.1292 115.004C46.9008 114.512 46.4932 114.266 45.9511 114.266C45.2297 114.266 44.7356 114.863 44.7356 115.601C44.7356 116.339 45.2585 116.936 45.9895 116.936C46.5209 116.936 46.8923 116.69 47.1292 116.235H48.7343C48.4205 117.551 47.2904 118.403 45.9415 118.403C44.3834 118.403 43.1487 117.143 43.1487 115.591C43.1487 114.039 44.3929 112.798 45.9127 112.798C47.2989 112.798 48.4301 113.669 48.7236 115.004H47.1292Z" fill="black"/>
<path d="M52.9891 118.232V117.674H52.9699C52.7415 118.157 52.3243 118.403 51.6113 118.403C50.5005 118.403 49.5784 117.74 49.5784 116.244V112.978H51.1546V115.922C51.1546 116.613 51.4011 116.935 51.9998 116.935C52.5985 116.935 52.9027 116.537 52.9027 115.893V112.978H54.4799V118.232H52.9891Z" fill="black"/>
<path d="M55.6108 118.232V112.978H57.0919V113.536H57.1112C57.3865 112.978 57.823 112.798 58.4312 112.798V114.379C57.491 114.388 57.187 114.738 57.187 115.335V118.232H55.6096H55.6108Z" fill="black"/>
<path d="M59.2661 112.421V111.228H60.8434V112.421H59.2661ZM59.2661 118.232V112.978H60.8434V118.232H59.2661Z" fill="black"/>
<path d="M62.3441 118.233V114.171H61.5651V112.979H62.3441V111.227H63.9204V112.979H64.6801V114.171H63.9204V118.233H62.3441Z" fill="black"/>
<path d="M65.9251 119.984L66.7606 117.968L64.8046 112.978H66.4854L67.5396 116.026H67.5589L68.5652 112.978H70.2375L67.5974 119.983H65.9261L65.9251 119.984Z" fill="black"/>
<path d="M73.8176 118.233V111.227H76.0683C76.5721 111.227 76.9424 111.256 77.1888 111.312C77.9871 111.492 78.652 112.108 78.652 113.055C78.652 113.651 78.367 114.181 77.8356 114.475C78.605 114.739 78.9945 115.298 78.9945 116.103C78.9945 116.775 78.7096 117.39 78.1781 117.76C77.6275 118.149 77.2667 118.234 76.1547 118.234L73.8176 118.233ZM76.2486 113.887C76.6948 113.887 76.9327 113.698 76.9327 113.329C76.9327 112.96 76.7043 112.799 76.2583 112.799H75.5369V113.888L76.2486 113.887ZM76.4579 116.661C76.9615 116.661 77.2742 116.443 77.2742 115.989C77.2742 115.582 76.9989 115.383 76.4664 115.383H75.5358V116.661H76.4579Z" fill="black"/>
<path d="M79.886 118.232V112.978H81.3672V113.536H81.3864C81.6618 112.978 82.0983 112.798 82.7065 112.798V114.379C81.7663 114.388 81.4622 114.738 81.4622 115.335V118.232H79.8849H79.886Z" fill="black"/>
<path d="M87.2286 118.232V117.664H87.2093C86.981 118.128 86.3545 118.412 85.6609 118.412C84.1028 118.412 83.0208 117.191 83.0208 115.601C83.0208 114.011 84.1508 112.799 85.6609 112.799C86.3066 112.799 86.9053 113.054 87.2093 113.537H87.2286V112.979H88.8048V118.233L87.2286 118.232ZM87.2286 115.601C87.2286 114.863 86.6299 114.266 85.8893 114.266C85.1486 114.266 84.598 114.863 84.598 115.62C84.598 116.377 85.1774 116.945 85.9085 116.945C86.6395 116.945 87.2286 116.358 87.2286 115.601Z" fill="black"/>
<path d="M93.2597 118.232V115.317C93.2597 114.606 93.0133 114.276 92.4337 114.276C91.7977 114.276 91.5309 114.626 91.5309 115.336V118.233H89.9536V112.979H91.4253V113.537H91.4444C91.7764 112.998 92.2416 112.799 92.8788 112.799C93.8285 112.799 94.8349 113.329 94.8349 114.882V118.233H93.2576L93.2597 118.232Z" fill="black"/>
<path d="M99.9465 118.233V117.665H99.9272C99.6327 118.147 99.1012 118.403 98.35 118.403C96.7545 118.403 95.7097 117.182 95.7097 115.591C95.7097 114.001 96.7833 112.798 98.3212 112.798C98.9294 112.798 99.4235 112.978 99.8696 113.423V111.226H101.447V118.231L99.9465 118.233ZM99.956 115.582C99.956 114.853 99.3957 114.266 98.6167 114.266C97.8377 114.266 97.2871 114.815 97.2871 115.582C97.2871 116.349 97.8473 116.936 98.6071 116.936C99.3669 116.936 99.956 116.358 99.956 115.582Z" fill="black"/>
<path d="M105.588 118.233V111.227H109.492V112.799H107.307V113.888H109.425V115.459H107.307V116.661H109.492V118.233H105.588Z" fill="black"/>
<path d="M112.018 118.232L110.128 112.978H111.762L112.768 116.254H112.788L113.795 112.978H115.429L113.529 118.232H112.018Z" fill="black"/>
<path d="M117.241 116.084C117.326 116.681 117.83 117.078 118.476 117.078C118.903 117.078 119.178 116.918 119.435 116.586H121.05C120.546 117.731 119.586 118.404 118.476 118.404C116.956 118.404 115.682 117.183 115.682 115.62C115.682 114.058 116.898 112.799 118.447 112.799C119.995 112.799 121.23 114.039 121.23 115.668C121.23 115.819 121.22 115.942 121.192 116.085H117.24L117.241 116.084ZM119.654 115.023C119.53 114.484 119.055 114.123 118.448 114.123C117.878 114.123 117.384 114.464 117.262 115.023H119.654Z" fill="black"/>
<path d="M122.094 118.232V112.978H123.575V113.536H123.594C123.87 112.978 124.306 112.798 124.915 112.798V114.379C123.975 114.388 123.67 114.738 123.67 115.335V118.232H122.094Z" fill="black"/>
<path d="M128.487 118.233V111.227H130.064V113.395C130.482 112.95 131.014 112.798 131.564 112.798C132.933 112.798 134.185 113.82 134.185 115.572C134.185 117.191 133.151 118.412 131.526 118.412C130.89 118.412 130.253 118.119 130.017 117.674H129.997V118.233H128.487ZM132.609 115.601C132.609 114.9 132.068 114.266 131.309 114.266C130.549 114.266 130.007 114.863 130.007 115.591C130.007 116.368 130.558 116.945 131.29 116.945C132.023 116.945 132.609 116.358 132.609 115.601Z" fill="black"/>
<path d="M135.44 119.984L136.275 117.968L134.319 112.978H136L137.054 116.026H137.074L138.081 112.978H139.752L137.112 119.983H135.441L135.44 119.984Z" fill="black"/>
<path d="M143.332 118.233V111.227H145.707C146.457 111.218 147.017 111.322 147.387 111.492C148.147 111.842 148.623 112.647 148.623 113.594C148.623 114.891 147.899 116.036 145.887 116.036H145.051V118.233H143.332ZM145.819 114.465C146.542 114.465 146.902 114.219 146.902 113.623C146.902 113.026 146.551 112.799 145.753 112.799H145.05V114.465H145.819Z" fill="black"/>
<path d="M154.653 113.887C154.349 113.121 153.683 112.666 152.952 112.666C151.833 112.666 151.072 113.623 151.072 114.711C151.072 115.799 151.852 116.793 152.962 116.793C153.674 116.793 154.282 116.396 154.653 115.61H156.532C156.096 117.294 154.643 118.364 152.981 118.364C152.002 118.364 151.081 118.024 150.358 117.314C149.598 116.575 149.276 115.685 149.276 114.625C149.276 112.769 150.88 111.093 152.893 111.093C153.863 111.093 154.642 111.358 155.344 111.955C156.009 112.523 156.408 113.166 156.53 113.886H154.65L154.653 113.887Z" fill="black"/>
<path d="M163.23 118.233L163.286 112.988L163.267 112.968L161.766 118.233H160.579L159.06 112.922L159.118 118.233H157.465V111.227H159.773L161.169 115.838H161.188L162.566 111.227H164.884V118.233H163.23Z" fill="black"/>
<path d="M170.05 118.232V117.664H170.03C169.801 118.128 169.175 118.412 168.482 118.412C166.924 118.412 165.841 117.191 165.841 115.601C165.841 114.011 166.971 112.799 168.482 112.799C169.128 112.799 169.726 113.054 170.03 113.537H170.05V112.979H171.626V118.233L170.05 118.232ZM170.05 115.601C170.05 114.863 169.45 114.266 168.71 114.266C167.969 114.266 167.419 114.863 167.419 115.62C167.419 116.377 167.998 116.945 168.729 116.945C169.46 116.945 170.05 116.358 170.05 115.601Z" fill="black"/>
<path d="M176.649 117.618C176.412 118.12 175.823 118.404 175.177 118.404C173.638 118.404 172.528 117.22 172.528 115.639C172.528 114.059 173.658 112.809 175.177 112.809C175.862 112.809 176.383 113.064 176.641 113.472H176.66V112.979H178.236V117.675C178.236 118.385 178.141 118.925 177.951 119.285C177.572 120.013 176.536 120.571 175.216 120.571C173.725 120.571 172.756 119.729 172.622 118.725H174.447C174.626 119.113 174.978 119.245 175.368 119.245C176.166 119.245 176.65 118.725 176.65 117.769L176.649 117.618ZM176.659 115.63C176.659 114.863 176.135 114.276 175.367 114.276C174.663 114.276 174.103 114.863 174.103 115.582C174.103 116.301 174.607 116.936 175.367 116.936C176.126 116.936 176.659 116.387 176.659 115.63Z" fill="black"/>
</g>
</g>
<defs>
<clipPath id="clip0_221_772">
<rect width="184" height="105.143" fill="white" transform="translate(0 15.4286)"/>
</clipPath>
</defs>
</svg>
