<svg width="120" height="88" viewBox="0 0 120 88" fill="none" xmlns="http://www.w3.org/2000/svg">
<g clip-path="url(#clip0_244_778)">
<mask id="mask0_244_778" style="mask-type:luminance" maskUnits="userSpaceOnUse" x="16" y="0" width="88" height="88">
<path d="M57.4021 1.22295L17.2229 41.4021C15.7881 42.8369 15.7881 45.1631 17.2229 46.5979L57.4021 86.7771C58.8369 88.2119 61.1631 88.2119 62.598 86.7771L102.777 46.5979C104.212 45.1631 104.212 42.8369 102.777 41.4021L62.598 1.22295C61.1631 -0.211861 58.8369 -0.211863 57.4021 1.22295Z" fill="white"/>
</mask>
<g mask="url(#mask0_244_778)">
<path d="M57.4021 1.22295L17.2229 41.4021C15.7881 42.8369 15.7881 45.1631 17.2229 46.5979L57.4021 86.7771C58.8369 88.2119 61.1631 88.2119 62.598 86.7771L102.777 46.5979C104.212 45.1631 104.212 42.8369 102.777 41.4021L62.598 1.22295C61.1631 -0.211861 58.8369 -0.211863 57.4021 1.22295Z" fill="url(#paint0_linear_244_778)"/>
<path d="M49.4089 17.0058H44.5789V21.8359H49.4089V17.0058Z" fill="black"/>
<path d="M46.7569 19.2332V17.7794C46.7569 17.649 46.8627 17.5415 46.9948 17.5415C47.127 17.5415 47.2327 17.6473 47.2327 17.7794V19.2332C47.2327 19.3636 47.127 19.4711 46.9948 19.4711C46.8644 19.4711 46.7569 19.3653 46.7569 19.2332Z" fill="white"/>
<path d="M45.3719 19.5451C45.3719 19.064 45.5816 18.6323 45.9146 18.3362C46.0133 18.2481 46.1631 18.257 46.2494 18.3556C46.3376 18.4543 46.3287 18.6041 46.2301 18.6904C45.9939 18.9019 45.8477 19.205 45.8459 19.5451C45.8459 19.8623 45.9745 20.1477 46.1825 20.3557C46.3904 20.5636 46.6759 20.6905 46.9931 20.6922C47.3102 20.6922 47.5957 20.5636 47.8036 20.3557C48.0116 20.1477 48.1385 19.8623 48.1402 19.5451C48.1402 19.205 47.9922 18.9001 47.7578 18.6904C47.6592 18.6023 47.6521 18.4526 47.7384 18.3556C47.8266 18.257 47.9763 18.2499 48.0733 18.3362C48.4045 18.6323 48.616 19.0658 48.616 19.5451C48.616 20.4402 47.89 21.1662 46.9948 21.1662C46.0997 21.1662 45.3737 20.4402 45.3737 19.5451H45.3719Z" fill="white"/>
<path d="M51.4847 20.2499V21.8359H50.6019V17.0076H51.9676C53.3068 17.0076 54.0363 17.2138 54.0363 18.5389C54.0363 19.864 53.0284 20.2499 52.3464 20.2499H51.4847ZM51.4847 17.7459V19.4217H52.2301C52.8715 19.4217 53.1412 19.2015 53.1412 18.5459C53.1412 17.9944 52.9473 17.7459 52.2107 17.7459H51.4865H51.4847Z" fill="white"/>
<path d="M54.2125 19.4217C54.2125 17.9045 55.2134 16.9107 56.5932 16.9107C57.0972 16.9107 57.6135 17.0217 57.9659 17.1926L57.869 18.0349C57.469 17.8763 57.0972 17.7583 56.5932 17.7583C55.6557 17.7583 55.1782 18.4543 55.1782 19.42C55.1782 20.3856 55.654 21.0817 56.5932 21.0817C57.0972 21.0817 57.469 20.9636 57.869 20.805L57.9659 21.6473C57.6135 21.82 57.0972 21.931 56.5932 21.931C55.2134 21.931 54.2125 20.9372 54.2125 19.42V19.4217Z" fill="white"/>
<path d="M62.9897 21.8359H62.1721L61.291 18.6922L60.417 21.8359H59.543L58.1844 17.0076H59.1025L60.0681 20.4367L60.9879 17.0076H61.6012L62.5633 20.3468L63.4884 17.0076H64.4065L62.9915 21.8359H62.9897Z" fill="white"/>
<path d="M63.8972 20.1178C63.8972 19.1521 64.5386 18.331 65.6417 18.331C66.7448 18.331 67.3863 19.1521 67.3863 20.1178C67.3863 21.0834 66.7448 21.9046 65.6417 21.9046C64.5386 21.9046 63.8972 21.0834 63.8972 20.1178ZM64.773 20.1178C64.773 20.7592 65.0902 21.2015 65.6417 21.2015C66.1933 21.2015 66.5105 20.7592 66.5105 20.1178C66.5105 19.4764 66.1933 19.0341 65.6417 19.0341C65.0902 19.0341 64.773 19.4764 64.773 20.1178Z" fill="white"/>
<path d="M69.4938 19.1398H69.1766C68.8947 19.1398 68.6462 19.2913 68.5493 19.4852V21.8376H67.6946V18.3891H68.4946L68.5158 18.7556C68.6955 18.5689 69.0409 18.3345 69.4339 18.3345H69.6612L69.4955 19.1415L69.4938 19.1398Z" fill="white"/>
<path d="M71.152 21.9046H70.8418C70.2286 21.9046 69.959 21.4975 69.959 21.0006V16.6622H70.8136V20.6499C70.8136 21.2015 70.8894 21.2015 71.2277 21.2015L71.152 21.9046Z" fill="white"/>
<path d="M73.8286 21.8359L73.8145 21.642C73.5731 21.8077 73.3458 21.9046 72.9722 21.9046C71.8691 21.9046 71.2823 21.0834 71.2823 20.1178C71.2823 19.1521 71.8691 18.331 72.9722 18.331C73.3247 18.331 73.559 18.4138 73.7793 18.5583V16.6605H74.6339V21.8341H73.8269L73.8286 21.8359ZM72.1581 20.1178C72.1581 20.7592 72.4753 21.2015 73.0269 21.2015C73.5784 21.2015 73.8198 20.7592 73.8198 20.1178C73.8198 19.4764 73.5784 19.0341 73.0269 19.0341C72.4753 19.0341 72.1581 19.4764 72.1581 20.1178Z" fill="white"/>
<path d="M41.5727 38.0616C40.6159 38.8193 39.3894 39.0643 37.6978 39.0643H32.7092V23.6949H36.852C38.3004 23.6949 39.548 23.8059 40.5049 24.4297C41.4406 25.0306 42.1525 25.9452 42.1525 27.5487C42.1525 29.1523 41.1058 30.5109 39.8141 30.9126V30.9567C41.8864 31.3796 43.2221 32.6712 43.2221 34.6995C43.2221 36.303 42.5313 37.3057 41.5745 38.0634L41.5727 38.0616ZM38.9665 25.8341C38.4097 25.5223 37.8529 25.4112 36.8502 25.4112H34.8678V30.2888H36.6722C37.7418 30.2888 38.4537 30.199 38.9665 29.8219C39.4793 29.443 39.9903 28.9091 39.9903 27.7954C39.9903 26.6817 39.5005 26.1249 38.9665 25.8359V25.8341ZM39.8793 32.4933C39.1216 31.9805 38.1648 31.9364 37.185 31.9364H34.8678V37.3039H37.185C38.1648 37.3039 39.1234 37.281 39.8793 36.77C40.637 36.2572 40.993 35.5893 40.993 34.6096C40.993 33.6298 40.637 33.006 39.8793 32.4933Z" fill="url(#paint1_linear_244_778)"/>
<path d="M54.4716 34.2765H46.3199C46.4309 36.37 47.7684 37.6405 49.7279 37.6405C51.6874 37.6405 52.979 36.5708 53.224 36.4158L54.1139 37.6405C53.9799 37.7515 52.6213 39.311 49.4583 39.311C46.2953 39.311 44.1578 37.1277 44.1578 33.7655C44.1578 30.4034 46.586 28.287 49.5253 28.287C52.4645 28.287 54.5368 30.3805 54.5368 33.3426C54.5368 33.7444 54.4698 34.2783 54.4698 34.2783L54.4716 34.2765ZM52.5121 32.851C52.4892 31.6703 51.5993 29.8219 49.4601 29.8219C47.3208 29.8219 46.408 31.5822 46.3411 32.851H52.5103H52.5121Z" fill="url(#paint2_linear_244_778)"/>
<path d="M61.9448 38.3735C61.21 38.9744 60.2302 39.3092 59.0055 39.3092C57.224 39.3092 55.7756 38.5744 54.8857 37.4167L55.9112 36.1691C56.713 37.1488 58.0487 37.6827 59.0285 37.6827C60.0082 37.6827 61.0549 37.3268 61.0549 36.1691C61.0549 35.0113 59.3844 34.6536 58.6707 34.4087C57.9588 34.1638 57.7139 34.1197 57.2223 33.8519C56.5544 33.5171 55.5518 32.8281 55.5518 31.3126C55.5518 29.3531 57.2434 28.2835 59.1148 28.2835C60.9862 28.2835 62.054 28.9514 62.7237 29.665L61.8338 30.9796C61.21 30.3329 60.1862 29.843 59.1606 29.843C58.1351 29.843 57.4672 30.2888 57.4672 31.1576C57.4672 32.0263 58.4928 32.4051 59.5395 32.7382C60.1192 32.9391 60.5192 33.073 60.965 33.251C61.388 33.4289 61.8778 33.6968 62.1897 34.0087C62.5897 34.3875 63.0356 35.0113 63.0356 35.9682C63.0356 36.992 62.6338 37.7938 61.943 38.3735H61.9448Z" fill="url(#paint3_linear_244_778)"/>
<path d="M69.6488 38.9532C69.6488 38.9532 68.8242 39.3092 67.7105 39.3092C66.5968 39.3092 65.9061 38.8863 65.4602 38.2184C65.0144 37.5506 64.9263 36.7259 64.9263 35.0554V30.2219H63.3668V28.5073H64.9263V25.3443H67.0638V28.5073H69.603V30.2219H67.0638V35.0113C67.0638 35.903 67.0867 36.5039 67.3299 36.9497C67.5308 37.2845 67.8197 37.4836 68.4224 37.4836C69.025 37.4836 69.5132 37.2387 69.5132 37.2387L69.6471 38.9532H69.6488Z" fill="url(#paint4_linear_244_778)"/>
<path d="M75.1538 39.2193C73.4568 39.2193 72.2392 38.1127 72.2392 36.3876C72.2392 34.1726 73.9203 32.2818 76.248 32.2818C77.9432 32.2818 79.1485 33.4025 79.1485 35.1276C79.1485 37.3427 77.4674 39.2193 75.1538 39.2193ZM76.0648 33.3884C74.5793 33.3884 73.5978 34.8034 73.5978 36.192C73.5978 37.2563 74.2286 38.0563 75.3353 38.0563C76.8207 38.0563 77.8022 36.6413 77.8022 35.2387C77.8022 34.1743 77.1714 33.3884 76.0648 33.3884Z" fill="url(#paint5_linear_244_778)"/>
<path d="M80.5847 33.5153H79.6736L79.8551 32.4087H80.7662C80.99 30.9232 81.3547 29.2421 83.2473 29.2421C83.5556 29.2421 84.0596 29.2703 84.3398 29.3972L84.1019 30.421C83.8781 30.3364 83.6261 30.2941 83.3865 30.2941C82.2235 30.2941 82.2094 31.5699 82.0701 32.4104H83.5979L83.4288 33.5171H81.901L80.7662 40.5815C80.6534 41.2828 80.4296 41.674 80.4296 41.674H79.1256C79.1256 41.674 79.3494 41.2669 79.4481 40.6502L80.5829 33.5171L80.5847 33.5153Z" fill="url(#paint6_linear_244_778)"/>
<path d="M49.2186 61.528H36.4854L36.1031 59.7517L42.771 53.4398C44.2195 52.0459 45.8318 50.3243 45.8318 48.2203C45.8318 46.1163 44.3569 44.5586 41.9516 44.5586C39.5463 44.5586 38.0996 46.3348 37.3348 47.5912L35.9409 46.0335C36.4608 44.8864 38.3727 42.4 42.1155 42.4C45.8582 42.4 48.4274 44.6132 48.4274 47.9472C48.4274 51.2811 45.6133 53.6301 44.438 54.7226L39.6009 59.3412H49.2186V61.5262V61.528Z" fill="url(#paint7_linear_244_778)"/>
<path d="M56.9844 61.8293C51.9024 61.8293 49.7702 57.0204 49.7702 52.1287C49.7702 47.2371 51.9288 42.4017 56.9844 42.4017C62.0399 42.4017 64.1986 47.2106 64.1986 52.1287C64.1986 57.0469 62.0681 61.8293 56.9844 61.8293ZM56.9844 44.6414C53.9517 44.6414 52.4486 47.7569 52.4486 52.0741C52.4486 56.3913 53.9517 59.5068 56.9844 59.5068C60.017 59.5068 61.5201 56.3649 61.5201 52.0741C61.5201 47.7833 60.017 44.6414 56.9844 44.6414Z" fill="url(#paint8_linear_244_778)"/>
<path d="M78.0454 61.528H65.3122L64.9298 59.7517L71.596 53.4398C73.0445 52.0459 74.6568 50.3243 74.6568 48.2203C74.6568 46.1163 73.1819 44.5586 70.7766 44.5586C68.3713 44.5586 66.9246 46.3348 66.1598 47.5912L64.766 46.0335C65.2858 44.8864 67.1977 42.4 70.9405 42.4C74.6833 42.4 77.2525 44.6132 77.2525 47.9472C77.2525 51.2811 74.4383 53.6301 73.263 54.7226L68.4259 59.3412H78.0437V61.5262L78.0454 61.528Z" fill="url(#paint9_linear_244_778)"/>
<path d="M90.3751 57.6495V58.9993L87.7918 61.5826V57.6477H78.2252V55.6953L87.5997 42.7207H90.3769V55.4486H93.1258V56.2486L91.7266 57.6477H90.3769L90.3751 57.6495ZM87.82 45.8555L80.8384 55.4768H87.82V45.8555Z" fill="url(#paint10_linear_244_778)"/>
</g>
</g>
<defs>
<linearGradient id="paint0_linear_244_778" x1="37.979" y1="66.0218" x2="80.4377" y2="23.5632" gradientUnits="userSpaceOnUse">
<stop stop-color="#9E0B0F"/>
<stop offset="0.18" stop-color="#AF0F14"/>
<stop offset="0.42" stop-color="#C01419"/>
<stop offset="0.68" stop-color="#CA171C"/>
<stop offset="1" stop-color="#CE181E"/>
</linearGradient>
<linearGradient id="paint1_linear_244_778" x1="37.9639" y1="24.8967" x2="37.9639" y2="30.3223" gradientUnits="userSpaceOnUse">
<stop stop-color="#D9D9D9"/>
<stop offset="1" stop-color="white"/>
</linearGradient>
<linearGradient id="paint2_linear_244_778" x1="49.349" y1="24.8967" x2="49.349" y2="30.3223" gradientUnits="userSpaceOnUse">
<stop stop-color="#D9D9D9"/>
<stop offset="1" stop-color="white"/>
</linearGradient>
<linearGradient id="paint3_linear_244_778" x1="58.9615" y1="24.8967" x2="58.9615" y2="30.3223" gradientUnits="userSpaceOnUse">
<stop stop-color="#D9D9D9"/>
<stop offset="1" stop-color="white"/>
</linearGradient>
<linearGradient id="paint4_linear_244_778" x1="66.5087" y1="24.8967" x2="66.5087" y2="30.3223" gradientUnits="userSpaceOnUse">
<stop stop-color="#D9D9D9"/>
<stop offset="1" stop-color="white"/>
</linearGradient>
<linearGradient id="paint5_linear_244_778" x1="75.693" y1="24.8967" x2="75.693" y2="30.3223" gradientUnits="userSpaceOnUse">
<stop stop-color="#D9D9D9"/>
<stop offset="1" stop-color="white"/>
</linearGradient>
<linearGradient id="paint6_linear_244_778" x1="81.7336" y1="24.8967" x2="81.7336" y2="30.3223" gradientUnits="userSpaceOnUse">
<stop stop-color="#D9D9D9"/>
<stop offset="1" stop-color="white"/>
</linearGradient>
<linearGradient id="paint7_linear_244_778" x1="42.5789" y1="60.5799" x2="42.5789" y2="48.7595" gradientUnits="userSpaceOnUse">
<stop stop-color="#D9D9D9"/>
<stop offset="1" stop-color="white"/>
</linearGradient>
<linearGradient id="paint8_linear_244_778" x1="56.9844" y1="60.5799" x2="56.9844" y2="48.7595" gradientUnits="userSpaceOnUse">
<stop stop-color="#D9D9D9"/>
<stop offset="1" stop-color="white"/>
</linearGradient>
<linearGradient id="paint9_linear_244_778" x1="71.4057" y1="60.5799" x2="71.4057" y2="48.7595" gradientUnits="userSpaceOnUse">
<stop stop-color="#D9D9D9"/>
<stop offset="1" stop-color="white"/>
</linearGradient>
<linearGradient id="paint10_linear_244_778" x1="85.6755" y1="61.5826" x2="85.6755" y2="42.7224" gradientUnits="userSpaceOnUse">
<stop stop-color="#D9D9D9"/>
<stop offset="1" stop-color="white"/>
</linearGradient>
<clipPath id="clip0_244_778">
<rect width="88" height="88" fill="white" transform="translate(16)"/>
</clipPath>
</defs>
</svg>
