<svg width="184" height="136" viewBox="0 0 184 136" fill="none" xmlns="http://www.w3.org/2000/svg">
<g clip-path="url(#clip0_244_577)">
<mask id="mask0_244_577" style="mask-type:luminance" maskUnits="userSpaceOnUse" x="26" y="2" width="132" height="132">
<path d="M88.1031 3.83441L27.8344 64.1031C25.6822 66.2553 25.6822 69.7447 27.8344 71.8969L88.1031 132.166C90.2553 134.318 93.7447 134.318 95.8969 132.166L156.166 71.8969C158.318 69.7447 158.318 66.2553 156.166 64.1031L95.8969 3.83442C93.7447 1.68221 90.2553 1.6822 88.1031 3.83441Z" fill="white"/>
</mask>
<g mask="url(#mask0_244_577)">
<path d="M88.1031 3.83441L27.8344 64.1031C25.6822 66.2553 25.6822 69.7447 27.8344 71.8969L88.1031 132.166C90.2553 134.318 93.7447 134.318 95.8969 132.166L156.166 71.8969C158.318 69.7447 158.318 66.2553 156.166 64.1031L95.8969 3.83442C93.7447 1.68221 90.2553 1.6822 88.1031 3.83441Z" fill="url(#paint0_linear_244_577)"/>
<path d="M76.1134 27.5088H68.8684V34.7538H76.1134V27.5088Z" fill="black"/>
<path d="M72.1354 30.8498V28.6691C72.1354 28.4735 72.294 28.3123 72.4922 28.3123C72.6905 28.3123 72.8491 28.4709 72.8491 28.6691V30.8498C72.8491 31.0454 72.6905 31.2066 72.4922 31.2066C72.2966 31.2066 72.1354 31.048 72.1354 30.8498Z" fill="white"/>
<path d="M70.0578 31.3176C70.0578 30.596 70.3724 29.9485 70.872 29.5044C71.02 29.3722 71.2446 29.3855 71.3742 29.5335C71.5063 29.6815 71.4931 29.9062 71.3451 30.0357C70.9909 30.3529 70.7715 30.8075 70.7689 31.3176C70.7689 31.7934 70.9618 32.2216 71.2737 32.5335C71.5856 32.8454 72.0138 33.0357 72.4896 33.0384C72.9654 33.0384 73.3936 32.8454 73.7055 32.5335C74.0174 32.2216 74.2077 31.7934 74.2103 31.3176C74.2103 30.8075 73.9883 30.3502 73.6367 30.0357C73.4887 29.9035 73.4782 29.6788 73.6077 29.5335C73.7398 29.3855 73.9645 29.3749 74.1099 29.5044C74.6068 29.9485 74.924 30.5987 74.924 31.3176C74.924 32.6604 73.835 33.7494 72.4922 33.7494C71.1495 33.7494 70.0605 32.6604 70.0605 31.3176H70.0578Z" fill="white"/>
<path d="M79.2271 32.3749V34.7538H77.9029V27.5114H79.9514C81.9602 27.5114 83.0545 27.8207 83.0545 29.8084C83.0545 31.796 81.5426 32.3749 80.5197 32.3749H79.2271ZM79.2271 28.6189V31.1326H80.3452C81.3073 31.1326 81.7117 30.8022 81.7117 29.8189C81.7117 28.9916 81.421 28.6189 80.3161 28.6189H79.2298H79.2271Z" fill="white"/>
<path d="M83.3188 31.1326C83.3188 28.8568 84.8202 27.366 86.8898 27.366C87.6457 27.366 88.4202 27.5325 88.9488 27.7889L88.8035 29.0524C88.2035 28.8145 87.6457 28.6374 86.8898 28.6374C85.4836 28.6374 84.7673 29.6815 84.7673 31.1299C84.7673 32.5784 85.481 33.6225 86.8898 33.6225C87.6457 33.6225 88.2035 33.4454 88.8035 33.2075L88.9488 34.471C88.4202 34.73 87.6457 34.8965 86.8898 34.8965C84.8202 34.8965 83.3188 33.4057 83.3188 31.1299V31.1326Z" fill="white"/>
<path d="M96.4846 34.7538H95.2581L93.9365 30.0383L92.6255 34.7538H91.3145L89.2766 27.5114H90.6537L92.1022 32.6551L93.4819 27.5114H94.4017L95.8449 32.5203L97.2326 27.5114H98.6097L96.4872 34.7538H96.4846Z" fill="white"/>
<path d="M97.8458 32.1767C97.8458 30.7282 98.808 29.4965 100.463 29.4965C102.117 29.4965 103.079 30.7282 103.079 32.1767C103.079 33.6251 102.117 34.8569 100.463 34.8569C98.808 34.8569 97.8458 33.6251 97.8458 32.1767ZM99.1595 32.1767C99.1595 33.1388 99.6353 33.8022 100.463 33.8022C101.29 33.8022 101.766 33.1388 101.766 32.1767C101.766 31.2145 101.29 30.5511 100.463 30.5511C99.6353 30.5511 99.1595 31.2145 99.1595 32.1767Z" fill="white"/>
<path d="M106.241 30.7097H105.765C105.342 30.7097 104.969 30.937 104.824 31.2277V34.7564H103.542V29.5836H104.742L104.774 30.1334C105.043 29.8533 105.561 29.5017 106.151 29.5017H106.492L106.243 30.7123L106.241 30.7097Z" fill="white"/>
<path d="M108.728 34.8569H108.263C107.343 34.8569 106.938 34.2463 106.938 33.5009V26.9933H108.22V32.9749C108.22 33.8022 108.334 33.8022 108.842 33.8022L108.728 34.8569Z" fill="white"/>
<path d="M112.743 34.7538L112.722 34.463C112.36 34.7115 112.019 34.8568 111.458 34.8568C109.804 34.8568 108.924 33.6251 108.924 32.1766C108.924 30.7282 109.804 29.4964 111.458 29.4964C111.987 29.4964 112.339 29.6206 112.669 29.8374V26.9907H113.951V34.7511H112.74L112.743 34.7538ZM110.237 32.1766C110.237 33.1388 110.713 33.8022 111.54 33.8022C112.368 33.8022 112.73 33.1388 112.73 32.1766C112.73 31.2145 112.368 30.5511 111.54 30.5511C110.713 30.5511 110.237 31.2145 110.237 32.1766Z" fill="white"/>
<path d="M64.3591 59.0924C62.9238 60.229 61.0842 60.5964 58.5467 60.5964H51.0638V37.5424H57.278C59.4507 37.5424 61.3221 37.7089 62.7573 38.6446C64.1609 39.5459 65.2287 40.9177 65.2287 43.323C65.2287 45.7284 63.6586 47.7663 61.7212 48.3689V48.435C64.8296 49.0694 66.8331 51.0068 66.8331 54.0492C66.8331 56.4545 65.797 57.9585 64.3617 59.095L64.3591 59.0924ZM60.4498 40.7512C59.6145 40.2834 58.7793 40.1168 57.2753 40.1168H54.3017V47.4332H57.0083C58.6128 47.4332 59.6806 47.2984 60.4498 46.7328C61.219 46.1645 61.9855 45.3636 61.9855 43.6931C61.9855 42.0226 61.2507 41.1873 60.4498 40.7539V40.7512ZM61.819 50.7399C60.6824 49.9707 59.2471 49.9046 57.7775 49.9046H54.3017V57.9558H57.7775C59.2471 57.9558 60.685 57.9215 61.819 57.1549C62.9556 56.3858 63.4895 55.384 63.4895 53.9144C63.4895 52.4447 62.9556 51.509 61.819 50.7399Z" fill="url(#paint1_linear_244_577)"/>
<path d="M83.7074 53.4148H71.4799C71.6464 56.5549 73.6526 58.4607 76.5918 58.4607C79.5311 58.4607 81.4686 56.8562 81.836 56.6236L83.1708 58.4607C82.9699 58.6272 80.932 60.9664 76.1874 60.9664C71.4429 60.9664 68.2367 57.6915 68.2367 52.6483C68.2367 47.605 71.879 44.4305 76.2879 44.4305C80.6967 44.4305 83.8052 47.5707 83.8052 52.0139C83.8052 52.6165 83.7047 53.4174 83.7047 53.4174L83.7074 53.4148ZM80.7681 51.2764C80.7337 49.5055 79.3989 46.7328 76.1901 46.7328C72.9812 46.7328 71.6121 49.3733 71.5116 51.2764H80.7655H80.7681Z" fill="url(#paint2_linear_244_577)"/>
<path d="M94.9172 59.5603C93.815 60.4616 92.3453 60.9638 90.5083 60.9638C87.836 60.9638 85.6633 59.8616 84.3285 58.125L85.8669 56.2536C87.0695 57.7233 89.0731 58.5241 90.5427 58.5241C92.0123 58.5241 93.5824 57.9902 93.5824 56.2536C93.5824 54.517 91.0766 53.9805 90.0061 53.6131C88.9383 53.2457 88.5709 53.1796 87.8334 52.7778C86.8316 52.2756 85.3276 51.2421 85.3276 48.969C85.3276 46.0297 87.8651 44.4253 90.6722 44.4253C93.4793 44.4253 95.0811 45.4271 96.0855 46.4976L94.7507 48.4694C93.815 47.4993 92.2793 46.7645 90.7409 46.7645C89.2026 46.7645 88.2008 47.4333 88.2008 48.7364C88.2008 50.0395 89.7392 50.6077 91.3092 51.1073C92.1788 51.4086 92.7788 51.6095 93.4476 51.8765C94.0819 52.1434 94.8167 52.5452 95.2846 53.0131C95.8846 53.5814 96.5533 54.517 96.5533 55.9523C96.5533 57.488 95.9507 58.6907 94.9145 59.5603H94.9172Z" fill="url(#paint3_linear_244_577)"/>
<path d="M106.473 60.4299C106.473 60.4299 105.236 60.9638 103.566 60.9638C101.895 60.9638 100.859 60.3294 100.19 59.3277C99.5216 58.3259 99.3895 57.0889 99.3895 54.5831V47.3328H97.0502V44.761H99.3895V40.0164H102.596V44.761H106.405V47.3328H102.596V54.517C102.596 55.8545 102.63 56.7558 102.995 57.4246C103.296 57.9268 103.73 58.2255 104.634 58.2255C105.538 58.2255 106.27 57.858 106.27 57.858L106.471 60.4299H106.473Z" fill="url(#paint4_linear_244_577)"/>
<path d="M114.731 60.829C112.185 60.829 110.359 59.1691 110.359 56.5814C110.359 53.2589 112.88 50.4227 116.372 50.4227C118.915 50.4227 120.723 52.1038 120.723 54.6915C120.723 58.014 118.201 60.829 114.731 60.829ZM116.097 52.0827C113.869 52.0827 112.397 54.2052 112.397 56.288C112.397 57.8845 113.343 59.0845 115.003 59.0845C117.231 59.0845 118.703 56.962 118.703 54.858C118.703 53.2615 117.757 52.0827 116.097 52.0827Z" fill="url(#paint5_linear_244_577)"/>
<path d="M122.877 52.2729H121.51L121.783 50.613H123.149C123.485 48.3848 124.032 45.8632 126.871 45.8632C127.333 45.8632 128.089 45.9055 128.51 46.0958L128.153 47.6315C127.817 47.5046 127.439 47.4412 127.08 47.4412C125.335 47.4412 125.314 49.3548 125.105 50.6156H127.397L127.143 52.2756H124.851L123.149 62.8722C122.98 63.9242 122.644 64.511 122.644 64.511H120.688C120.688 64.511 121.024 63.9004 121.172 62.9753L122.874 52.2756L122.877 52.2729Z" fill="url(#paint6_linear_244_577)"/>
<path d="M75.828 94.292H56.7282L56.1546 91.6276L66.1565 82.1596C68.3292 80.0689 70.7477 77.4865 70.7477 74.3305C70.7477 71.1745 68.5354 68.8379 64.9274 68.8379C61.3194 68.8379 59.1493 71.5022 58.0022 73.3869L55.9114 71.0503C56.6912 69.3295 59.559 65.6 65.1732 65.6C70.7874 65.6 74.6412 68.9198 74.6412 73.9208C74.6412 78.9217 70.42 82.4451 68.657 84.0839L61.4014 91.0117H75.828V94.2893V94.292Z" fill="url(#paint7_linear_244_577)"/>
<path d="M87.4766 94.7439C79.8536 94.7439 76.6553 87.5306 76.6553 80.1931C76.6553 72.8556 79.8932 65.6026 87.4766 65.6026C95.0599 65.6026 98.2978 72.8159 98.2978 80.1931C98.2978 87.5703 95.1022 94.7439 87.4766 94.7439ZM87.4766 68.9621C82.9276 68.9621 80.673 73.6353 80.673 80.1112C80.673 86.587 82.9276 91.2602 87.4766 91.2602C92.0255 91.2602 94.2802 86.5474 94.2802 80.1112C94.2802 73.6749 92.0255 68.9621 87.4766 68.9621Z" fill="url(#paint8_linear_244_577)"/>
<path d="M119.068 94.292H99.9683L99.3948 91.6276L109.394 82.1596C111.567 80.0689 113.985 77.4865 113.985 74.3305C113.985 71.1745 111.773 68.8379 108.165 68.8379C104.557 68.8379 102.387 71.5022 101.24 73.3869L99.1489 71.0503C99.9287 69.3295 102.797 65.6 108.411 65.6C114.025 65.6 117.879 68.9198 117.879 73.9208C117.879 78.9217 113.657 82.4451 111.894 84.0839L104.639 91.0117H119.065V94.2893L119.068 94.292Z" fill="url(#paint9_linear_244_577)"/>
<path d="M137.563 88.4742V90.4989L133.688 94.3739V88.4716H119.338V85.5429L133.4 66.081H137.565V85.1729H141.689V86.3729L139.59 88.4716H137.565L137.563 88.4742ZM133.73 70.7833L123.258 85.2152H133.73V70.7833Z" fill="url(#paint10_linear_244_577)"/>
</g>
</g>
<defs>
<linearGradient id="paint0_linear_244_577" x1="58.9685" y1="101.033" x2="122.657" y2="37.3448" gradientUnits="userSpaceOnUse">
<stop stop-color="#9E0B0F"/>
<stop offset="0.18" stop-color="#AF0F14"/>
<stop offset="0.42" stop-color="#C01419"/>
<stop offset="0.68" stop-color="#CA171C"/>
<stop offset="1" stop-color="#CE181E"/>
</linearGradient>
<linearGradient id="paint1_linear_244_577" x1="58.9458" y1="39.345" x2="58.9458" y2="47.4834" gradientUnits="userSpaceOnUse">
<stop stop-color="#D9D9D9"/>
<stop offset="1" stop-color="white"/>
</linearGradient>
<linearGradient id="paint2_linear_244_577" x1="76.0236" y1="39.345" x2="76.0236" y2="47.4834" gradientUnits="userSpaceOnUse">
<stop stop-color="#D9D9D9"/>
<stop offset="1" stop-color="white"/>
</linearGradient>
<linearGradient id="paint3_linear_244_577" x1="90.4422" y1="39.3451" x2="90.4422" y2="47.4835" gradientUnits="userSpaceOnUse">
<stop stop-color="#D9D9D9"/>
<stop offset="1" stop-color="white"/>
</linearGradient>
<linearGradient id="paint4_linear_244_577" x1="101.763" y1="39.345" x2="101.763" y2="47.4835" gradientUnits="userSpaceOnUse">
<stop stop-color="#D9D9D9"/>
<stop offset="1" stop-color="white"/>
</linearGradient>
<linearGradient id="paint5_linear_244_577" x1="115.539" y1="39.3451" x2="115.539" y2="47.4835" gradientUnits="userSpaceOnUse">
<stop stop-color="#D9D9D9"/>
<stop offset="1" stop-color="white"/>
</linearGradient>
<linearGradient id="paint6_linear_244_577" x1="124.6" y1="39.345" x2="124.6" y2="47.4834" gradientUnits="userSpaceOnUse">
<stop stop-color="#D9D9D9"/>
<stop offset="1" stop-color="white"/>
</linearGradient>
<linearGradient id="paint7_linear_244_577" x1="65.8684" y1="92.8699" x2="65.8684" y2="75.1393" gradientUnits="userSpaceOnUse">
<stop stop-color="#D9D9D9"/>
<stop offset="1" stop-color="white"/>
</linearGradient>
<linearGradient id="paint8_linear_244_577" x1="87.4766" y1="92.8699" x2="87.4766" y2="75.1393" gradientUnits="userSpaceOnUse">
<stop stop-color="#D9D9D9"/>
<stop offset="1" stop-color="white"/>
</linearGradient>
<linearGradient id="paint9_linear_244_577" x1="109.109" y1="92.8699" x2="109.109" y2="75.1393" gradientUnits="userSpaceOnUse">
<stop stop-color="#D9D9D9"/>
<stop offset="1" stop-color="white"/>
</linearGradient>
<linearGradient id="paint10_linear_244_577" x1="130.513" y1="94.3739" x2="130.513" y2="66.0836" gradientUnits="userSpaceOnUse">
<stop stop-color="#D9D9D9"/>
<stop offset="1" stop-color="white"/>
</linearGradient>
<clipPath id="clip0_244_577">
<rect width="132" height="132" fill="white" transform="translate(26 2)"/>
</clipPath>
</defs>
</svg>
