<?xml version="1.0" encoding="utf-8"?>
<!-- Generator: Adobe Illustrator 28.0.0, SVG Export Plug-In . SVG Version: 6.00 Build 0)  -->
<svg version="1.1" id="Layer_1" xmlns="http://www.w3.org/2000/svg" xmlns:xlink="http://www.w3.org/1999/xlink" x="0px" y="0px"
	 viewBox="0 0 66.3 26" style="enable-background:new 0 0 66.3 26;" xml:space="preserve">
<style type="text/css">
	.st0{fill:#FFFFFF;}
	.st1{fill:#0400F5;}
</style>
<g>
	<g>
		<g>
			<g>
				<path class="st1" d="M12.1,26c3.8,0,7-1.3,9-4.5v3.8h2.3h1.9v-9.5c0-2.2-1.2-3.2-3.5-3.2h-8.4v1.9c0,1.6,0.9,2.3,2.4,2.3h3
					c-0.5,2.5-2.8,4.4-6,4.4c-3.9,0-7-3.2-7-8.2c0-4.5,2.7-8.1,7.5-8.1c1,0,1.8,0.2,2.6,0.5c1,0.4,1.4,0.8,2.2,1.5
					C18.8,7.5,19.3,8,20.5,8h4.2c-0.9-5-6-8-11.4-8C5.5,0,0,6,0,13.6C0,21.2,6.1,26,12.1,26L12.1,26z"/>
				<path class="st1" d="M45.2,16.1c0-5.4-3.7-8.9-8.8-8.9c-5.2,0-9.4,4-9.4,9.6c0,5.7,4,9.2,9.3,9.2c3.3,0,6.5-1.5,8.1-4.2
					c-0.4-0.3-0.7-0.5-1-0.8c-0.6-0.4-1.1-0.7-1.8-0.7c-0.7,0-1.2,0.4-2,0.9c-0.8,0.5-1.8,0.8-2.8,0.8c-2.3,0-4.4-1.3-4.7-4.1h13
					C45.2,17.6,45.2,16.6,45.2,16.1z M40.1,14.6h-7.9c0.4-2.3,2-3.7,4.1-3.7C38.5,10.9,40.1,12.3,40.1,14.6L40.1,14.6z"/>
			</g>
		</g>
	</g>
	<path class="st1" d="M46.9,25.3H52v-9.2c0-3,1.5-4.8,3.9-4.8c2,0,3.4,1,3.4,3.5v8.1c0,1.5,0.7,2.4,2.4,2.4h2.7V14.2
		c0-4.8-2.5-7.1-6.5-7.1c-2.1,0-3.5,0.6-4.7,1.7c-0.7,0.5-0.8,0.7-1.1,0.7c-0.4,0-0.5-0.3-0.8-0.7c-0.5-0.9-1.3-1.2-2.7-1.2h-1.7
		V25.3L46.9,25.3z"/>
	<g>
		<g>
			<polygon class="st1" points="64.7,7.1 64.7,7.4 64.3,7.4 64.3,8.7 64,8.7 64,7.4 63.6,7.4 63.6,7.1 			"/>
			<polygon class="st1" points="64.9,8.7 64.9,7.1 65.4,7.1 65.6,8.2 65.9,7.1 66.3,7.1 66.3,8.7 66.1,8.7 66.1,7.5 66.1,7.5 
				65.7,8.7 65.5,8.7 65.2,7.5 65.2,7.5 65.2,8.7 			"/>
		</g>
	</g>
</g>
</svg>
