<svg width="32" height="32" viewBox="0 0 32 32" fill="none" xmlns="http://www.w3.org/2000/svg">
<path fill-rule="evenodd" clip-rule="evenodd" d="M22.8074 9.62202L16.1646 7.5347C16.1512 7.53077 16.1369 7.5347 16.1231 7.53195C16.0819 7.52173 16.042 7.52173 15.9997 7.52173C15.9569 7.52173 15.917 7.52173 15.8755 7.53195C15.8624 7.5347 15.8486 7.53077 15.8351 7.5347L9.19314 9.62202C8.97442 9.69082 8.82617 9.88701 8.82617 10.1095V13.3571C8.82617 18.136 11.4715 22.6205 15.7288 25.0585C15.7301 25.0593 15.7317 25.0589 15.7333 25.0597C15.7349 25.0608 15.7353 25.062 15.737 25.0628C15.8184 25.1088 15.9093 25.1304 16.0001 25.1304C16.0905 25.1304 16.1809 25.108 16.2628 25.0628C16.2644 25.062 16.2648 25.0608 16.2664 25.0597C16.2677 25.0589 16.2697 25.0593 16.2709 25.0585C20.5291 22.6197 23.174 18.1356 23.174 13.3571V10.1095C23.174 9.88701 23.0262 9.69082 22.8074 9.62202" fill="#FEEB29"/>
<path d="M8.97646 9.30886L8.26489 9.52321V10.2664V13.4073C8.26489 18.2813 11.0658 22.811 15.5158 25.2749L16.0016 25.5438L16.4867 25.2737C20.946 22.7904 23.7351 18.2709 23.7351 13.4073V10.2664V9.52318L23.0235 9.30885L16.33 7.2928L16.2498 7.26866L16.1809 7.25996L16.1037 7.24567H16.0119H15.9847H15.8829L15.824 7.25779L15.7668 7.26337L15.6729 7.29165L8.97646 9.30886Z" stroke="#242424" stroke-width="2"/>
<path d="M13.5061 18.3756C13.2038 18.3756 12.9141 18.327 12.6371 18.2298C12.36 18.1309 12.1135 17.9743 11.8976 17.7602C11.6817 17.5443 11.5116 17.2618 11.3875 16.9128C11.2633 16.5619 11.2022 16.1346 11.204 15.6308C11.2058 15.1756 11.2615 14.7672 11.3713 14.4055C11.481 14.0421 11.6376 13.7335 11.8409 13.4798C12.046 13.2261 12.2907 13.0327 12.575 12.8996C12.8611 12.7646 13.1804 12.6971 13.5331 12.6971C13.9199 12.6971 14.2609 12.7727 14.5559 12.9239C14.8528 13.0732 15.0903 13.2747 15.2684 13.5284C15.4466 13.7803 15.5518 14.061 15.5842 14.3704H14.2699C14.2303 14.1959 14.143 14.0637 14.0081 13.9737C13.8749 13.8819 13.7166 13.8361 13.5331 13.8361C13.1948 13.8361 12.942 13.9827 12.7747 14.276C12.6092 14.5693 12.5246 14.9615 12.521 15.4527H12.5561C12.6317 15.2872 12.7405 15.145 12.8827 15.0263C13.0248 14.9075 13.1876 14.8167 13.3711 14.7537C13.5565 14.6889 13.7526 14.6565 13.9595 14.6565C14.2906 14.6565 14.5829 14.733 14.8366 14.8859C15.0903 15.0389 15.2891 15.2485 15.4331 15.5148C15.577 15.7792 15.6481 16.0824 15.6463 16.4243C15.6481 16.8093 15.5581 17.1494 15.3764 17.4444C15.1947 17.7377 14.9428 17.9662 14.6207 18.13C14.3005 18.2937 13.9289 18.3756 13.5061 18.3756ZM13.498 17.35C13.6617 17.35 13.8084 17.3113 13.9379 17.2339C14.0675 17.1566 14.1691 17.0513 14.2429 16.9182C14.3166 16.785 14.3526 16.6348 14.3508 16.4675C14.3526 16.2983 14.3166 16.1481 14.2429 16.0167C14.1709 15.8854 14.0702 15.781 13.9406 15.7037C13.8129 15.6263 13.6662 15.5876 13.5007 15.5876C13.3801 15.5876 13.2677 15.6101 13.1633 15.6551C13.059 15.7001 12.9681 15.7631 12.8907 15.844C12.8152 15.9232 12.7558 16.0167 12.7126 16.1247C12.6694 16.2309 12.647 16.346 12.6452 16.4702C12.647 16.6339 12.6847 16.7823 12.7585 16.9155C12.8323 17.0486 12.933 17.1548 13.0608 17.2339C13.1885 17.3113 13.3343 17.35 13.498 17.35ZM18.5225 18.4349C18.0403 18.4349 17.6247 18.3207 17.2756 18.0922C16.9266 17.8619 16.6576 17.5317 16.4687 17.1017C16.2797 16.6699 16.1862 16.1508 16.188 15.5444C16.1898 14.9381 16.2842 14.4235 16.4714 14.0007C16.6603 13.5761 16.9284 13.2531 17.2756 13.0318C17.6247 12.8087 18.0403 12.6971 18.5225 12.6971C19.0047 12.6971 19.4203 12.8087 19.7694 13.0318C20.1202 13.2531 20.3901 13.5761 20.579 14.0007C20.7679 14.4253 20.8615 14.9399 20.8597 15.5444C20.8597 16.1526 20.7652 16.6726 20.5763 17.1044C20.3874 17.5362 20.1184 17.8664 19.7694 18.0949C19.4221 18.3216 19.0065 18.4349 18.5225 18.4349ZM18.5225 17.3419C18.8104 17.3419 19.0434 17.1953 19.2215 16.902C19.3996 16.6069 19.4878 16.1544 19.486 15.5444C19.486 15.145 19.4455 14.8158 19.3645 14.5567C19.2836 14.2958 19.1711 14.1015 19.0272 13.9737C18.8832 13.846 18.715 13.7821 18.5225 13.7821C18.2364 13.7821 18.0052 13.9269 17.8289 14.2166C17.6526 14.5045 17.5635 14.9471 17.5617 15.5444C17.5599 15.9493 17.5986 16.2848 17.6777 16.5511C17.7587 16.8174 17.8721 17.0162 18.0178 17.1476C18.1635 17.2771 18.3318 17.3419 18.5225 17.3419Z" fill="#242424"/>
<circle cx="16" cy="16" r="15" stroke="#242424" stroke-width="2"/>
</svg>
