<svg width="60" height="60" viewBox="0 0 60 60" fill="none" xmlns="http://www.w3.org/2000/svg">
<path fill-rule="evenodd" clip-rule="evenodd" d="M41.3957 19.1188L30.2752 15.4997C30.2527 15.4922 30.2289 15.4997 30.2064 15.4936C30.1368 15.4766 30.07 15.4766 29.9991 15.4766C29.9275 15.4766 29.8607 15.4766 29.7918 15.4943C29.7693 15.4997 29.7461 15.4922 29.7236 15.4997L18.6046 19.1188C18.2384 19.2382 17.9902 19.5784 17.9902 19.9643V25.5961C17.9902 33.8843 22.418 41.6597 29.5457 45.8884C29.5477 45.8897 29.5511 45.8891 29.5532 45.8904C29.5559 45.8918 29.5566 45.8952 29.5593 45.8966C29.6957 45.975 29.8477 46.0132 29.9998 46.0132C30.1511 46.0132 30.3032 45.9743 30.4396 45.8966C30.4423 45.8952 30.443 45.8918 30.4457 45.8904C30.4477 45.8891 30.4511 45.8897 30.4532 45.8884C37.5816 41.6591 42.0093 33.8829 42.0093 25.5961V19.9643C42.0093 19.5784 41.7618 19.2382 41.3957 19.1188Z" fill="#FEEB29"/>
<path fill-rule="evenodd" clip-rule="evenodd" d="M19.0158 20.0632V25.5962C19.0158 33.4984 23.2233 40.9125 30.0005 44.9659C36.7969 40.8771 40.9846 33.4787 40.9846 25.5962V20.0632L30.068 16.5102C30.053 16.5082 30.036 16.5055 30.0196 16.5021H29.9753C29.963 16.5048 29.9501 16.5068 29.9364 16.5082L19.0158 20.0632ZM29.9992 47.0387C29.6651 47.0387 29.3358 46.9514 29.048 46.785C29.0467 46.7843 29.0453 46.7837 29.0439 46.783C29.0371 46.7789 29.0296 46.7741 29.0221 46.77C21.5848 42.3587 16.9648 34.245 16.9648 25.5962V19.9643C16.9648 19.1339 17.496 18.4023 18.2862 18.1439L29.4067 14.5241C29.4755 14.5016 29.5608 14.4852 29.6446 14.4771C29.9146 14.428 30.0455 14.4273 30.3285 14.473C30.398 14.4777 30.4901 14.4914 30.591 14.5241L41.7128 18.1432C41.7135 18.1439 41.7135 18.1439 41.7142 18.1439C42.5044 18.4023 43.0355 19.1339 43.0355 19.9643V25.5962C43.0355 34.2437 38.4142 42.3573 30.9769 46.77C30.9687 46.7748 30.9605 46.7796 30.9523 46.7843C30.9346 46.7946 30.9169 46.8041 30.8978 46.8137C30.6578 46.9521 30.3298 47.0387 29.9992 47.0387Z" fill="#242424"/>
<path fill-rule="evenodd" clip-rule="evenodd" d="M35.6487 26.6459C35.2485 26.2456 34.5994 26.2456 34.1985 26.6459L28.0948 32.7495L25.8012 30.4559C25.4003 30.0556 24.7519 30.0556 24.351 30.4559C23.9507 30.8568 23.9507 31.5059 24.351 31.9061L26.9685 34.5229C27.278 34.8325 27.6844 34.9866 28.0907 34.9866C28.0935 34.9866 28.0962 34.9859 28.0989 34.9859C28.0989 34.9859 28.0989 34.9859 28.0996 34.9859C28.5053 34.9859 28.9116 34.8318 29.2219 34.5229L35.6487 28.0961C36.0489 27.6952 36.0489 27.0461 35.6487 26.6459Z" fill="#242424"/>
<path fill-rule="evenodd" clip-rule="evenodd" d="M30 2.05091C14.5882 2.05091 2.05091 14.5889 2.05091 30C2.05091 45.4118 14.5882 57.9498 30 57.9498C45.4118 57.9498 57.9491 45.4118 57.9491 30C57.9491 14.5889 45.4118 2.05091 30 2.05091ZM30 60C13.4577 60 0 46.5423 0 30C0 13.4577 13.4577 0 30 0C46.5423 0 60 13.4577 60 30C60 46.5423 46.5423 60 30 60Z" fill="#242424"/>
</svg>
