<svg width="48" height="48" viewBox="0 0 48 48" fill="none" xmlns="http://www.w3.org/2000/svg">
<path fill-rule="evenodd" clip-rule="evenodd" d="M33.9141 14.6458L24.2418 11.6626C24.2222 11.657 24.2015 11.6626 24.1813 11.6587C24.1214 11.644 24.0633 11.644 24.0016 11.644C23.9394 11.644 23.8812 11.644 23.8208 11.6587C23.8018 11.6626 23.7816 11.657 23.762 11.6626L14.091 14.6458C13.7725 14.7442 13.5566 15.0245 13.5566 15.3426V19.984C13.5566 26.8142 17.4084 33.2234 23.6073 36.7079C23.609 36.709 23.6114 36.7084 23.6138 36.7096C23.6162 36.7113 23.6168 36.7129 23.6191 36.7141C23.7377 36.7798 23.87 36.8107 24.0022 36.8107C24.1339 36.8107 24.2655 36.7787 24.3847 36.7141C24.3871 36.7129 24.3877 36.7113 24.3901 36.7096C24.3918 36.7084 24.3948 36.709 24.3966 36.7079C30.5967 33.2223 34.4478 26.8136 34.4478 19.984V15.3426C34.4478 15.0245 34.2325 14.7442 33.9141 14.6458" fill="#FEEB29"/>
<path d="M13.3844 14.2509L12.6729 14.4652V15.2084V20.0245C12.6729 27.29 16.8497 34.0638 23.5159 37.7548L24.0017 38.0238L24.4868 37.7537C31.1687 34.0327 35.3271 27.2738 35.3271 20.0245V15.2084V14.4652L34.6155 14.2509L24.3522 11.1596L24.272 11.1355L24.1954 11.1258L24.11 11.11H24.0183H23.9766H23.8748L23.8099 11.1233L23.7461 11.1295L23.6523 11.1578L13.3844 14.2509Z" stroke="#242424" stroke-width="2"/>
<path d="M20.7001 27.2859C20.3243 27.2836 19.9616 27.2205 19.612 27.0968C19.2647 26.9732 18.9532 26.7722 18.6773 26.4939C18.4014 26.2156 18.1825 25.847 18.0208 25.3879C17.8615 24.9289 17.7818 24.3652 17.7818 23.6969C17.7842 23.0832 17.8543 22.535 17.9923 22.0522C18.1326 21.567 18.3324 21.1555 18.5916 20.8178C18.8533 20.48 19.166 20.2232 19.5299 20.0472C19.8938 19.8688 20.3017 19.7796 20.7536 19.7796C21.2412 19.7796 21.6717 19.8747 22.0451 20.065C22.4185 20.2529 22.7182 20.5086 22.9442 20.832C23.1725 21.1555 23.3105 21.5182 23.358 21.9202H21.8346C21.7752 21.6657 21.6503 21.4659 21.46 21.3208C21.2698 21.1757 21.0343 21.1032 20.7536 21.1032C20.2779 21.1032 19.9164 21.3101 19.6691 21.724C19.4241 22.1378 19.2992 22.7003 19.2945 23.4115H19.3444C19.4538 23.195 19.6013 23.0107 19.7868 22.8585C19.9747 22.7039 20.1876 22.5861 20.4254 22.5053C20.6656 22.422 20.9189 22.3804 21.1853 22.3804C21.6182 22.3804 22.0035 22.4827 22.3412 22.6872C22.679 22.8894 22.9454 23.1677 23.1404 23.5221C23.3354 23.8764 23.4329 24.282 23.4329 24.7386C23.4329 25.2333 23.3176 25.6733 23.0869 26.0587C22.8585 26.444 22.5386 26.746 22.1272 26.9648C21.7181 27.1813 21.2424 27.2883 20.7001 27.2859ZM20.693 26.0729C20.9308 26.0729 21.1437 26.0158 21.3316 25.9017C21.5195 25.7875 21.667 25.6329 21.774 25.4379C21.881 25.2429 21.9345 25.024 21.9345 24.7814C21.9345 24.5388 21.881 24.3212 21.774 24.1286C21.6693 23.9359 21.5242 23.7825 21.3387 23.6683C21.1532 23.5542 20.9415 23.4971 20.7037 23.4971C20.5253 23.4971 20.36 23.5304 20.2078 23.597C20.0579 23.6636 19.9259 23.7563 19.8118 23.8753C19.7 23.9942 19.612 24.1321 19.5478 24.2891C19.4835 24.4437 19.4514 24.609 19.4514 24.785C19.4514 25.0205 19.505 25.2357 19.612 25.4307C19.7214 25.6258 19.8689 25.7816 20.0544 25.8981C20.2423 26.0147 20.4551 26.0729 20.693 26.0729ZM27.2256 27.3466C26.612 27.3442 26.0839 27.1932 25.6416 26.8935C25.2015 26.5938 24.8626 26.1597 24.6248 25.5913C24.3893 25.0228 24.2728 24.339 24.2751 23.5399C24.2751 22.7431 24.3929 22.0641 24.6283 21.5028C24.8662 20.9415 25.2051 20.5145 25.6451 20.222C26.0875 19.927 26.6143 19.7796 27.2256 19.7796C27.8369 19.7796 28.3625 19.927 28.8025 20.222C29.2449 20.5169 29.585 20.945 29.8228 21.5063C30.0607 22.0653 30.1784 22.7431 30.176 23.5399C30.176 24.3414 30.0571 25.0264 29.8193 25.5949C29.5838 26.1633 29.2461 26.5974 28.8061 26.8971C28.3661 27.1967 27.8392 27.3466 27.2256 27.3466ZM27.2256 26.0658C27.6442 26.0658 27.9784 25.8553 28.2281 25.4343C28.4778 25.0133 28.6015 24.3819 28.5991 23.5399C28.5991 22.9857 28.5421 22.5243 28.4279 22.1556C28.3161 21.787 28.1568 21.5099 27.9498 21.3244C27.7453 21.1389 27.5039 21.0461 27.2256 21.0461C26.8094 21.0461 26.4764 21.2542 26.2267 21.6704C25.9769 22.0867 25.8509 22.7098 25.8485 23.5399C25.8485 24.1012 25.9044 24.5698 26.0162 24.9455C26.1303 25.319 26.2909 25.5996 26.4978 25.7875C26.7047 25.973 26.9473 26.0658 27.2256 26.0658Z" fill="#242424"/>
<circle cx="24" cy="24" r="23" stroke="#242424" stroke-width="2"/>
</svg>
