<svg width="24" height="24" viewBox="0 0 24 24" fill="none" xmlns="http://www.w3.org/2000/svg">
<path fill-rule="evenodd" clip-rule="evenodd" d="M12.0295 22.1521C16.8593 19.2248 19.8531 13.915 19.8531 8.26269H19.8591V4.35686L12.0415 1.81297H12.0235L4.20582 4.35686V8.26269C4.20582 13.921 7.19969 19.2302 12.0295 22.1521ZM12.5215 0.0736468L20.5911 2.70093C21.2271 2.91092 21.6591 3.4995 21.6531 4.17147V8.25669C21.6531 14.599 18.2692 20.5448 12.8154 23.778L12.8094 23.784C12.8063 23.7875 12.8032 23.7891 12.8 23.7908C12.7972 23.7923 12.7943 23.7938 12.7914 23.7966C12.5575 23.928 12.2935 24 12.0295 24C11.7595 24 11.4955 23.928 11.2555 23.7966C11.2555 23.7966 11.2495 23.7906 11.2435 23.7906C11.2435 23.784 11.2375 23.784 11.2375 23.784C5.78375 20.5502 2.3999 14.599 2.3999 8.26269V4.17147C2.3999 3.4995 2.83188 2.91092 3.46786 2.70093L11.5495 0.0736468C11.6095 0.0550476 11.6815 0.0370484 11.7535 0.0310486C11.9875 -0.0103495 12.0715 -0.0103495 12.3055 0.0310486C12.3835 0.0370484 12.4555 0.0496478 12.5215 0.0736468ZM7.81767 11.6827C8.16565 11.3287 8.73563 11.3287 9.08961 11.6827L10.6495 13.2432L14.9754 8.91738C15.3233 8.5628 15.8933 8.5628 16.2473 8.91738C16.6013 9.26536 16.6013 9.83474 16.2473 10.1893L11.5795 14.8565C11.3335 15.1025 11.0035 15.2411 10.6555 15.2411H10.6495H10.6435C10.2956 15.2411 9.96557 15.1025 9.71958 14.8565L7.81767 12.9546C7.46368 12.6066 7.46368 12.0366 7.81767 11.6827Z" fill="#0F71F0"/>
<mask id="mask0_639_5917" style="mask-type:luminance" maskUnits="userSpaceOnUse" x="2" y="0" width="20" height="24">
<path fill-rule="evenodd" clip-rule="evenodd" d="M12.0295 22.1521C16.8593 19.2248 19.8531 13.915 19.8531 8.26269H19.8591V4.35686L12.0415 1.81297H12.0235L4.20582 4.35686V8.26269C4.20582 13.921 7.19969 19.2302 12.0295 22.1521ZM12.5215 0.0736468L20.5911 2.70093C21.2271 2.91092 21.6591 3.4995 21.6531 4.17147V8.25669C21.6531 14.599 18.2692 20.5448 12.8154 23.778L12.8094 23.784C12.8063 23.7875 12.8032 23.7891 12.8 23.7908C12.7972 23.7923 12.7943 23.7938 12.7914 23.7966C12.5575 23.928 12.2935 24 12.0295 24C11.7595 24 11.4955 23.928 11.2555 23.7966C11.2555 23.7966 11.2495 23.7906 11.2435 23.7906C11.2435 23.784 11.2375 23.784 11.2375 23.784C5.78375 20.5502 2.3999 14.599 2.3999 8.26269V4.17147C2.3999 3.4995 2.83188 2.91092 3.46786 2.70093L11.5495 0.0736468C11.6095 0.0550476 11.6815 0.0370484 11.7535 0.0310486C11.9875 -0.0103495 12.0715 -0.0103495 12.3055 0.0310486C12.3835 0.0370484 12.4555 0.0496478 12.5215 0.0736468ZM7.81767 11.6827C8.16565 11.3287 8.73563 11.3287 9.08961 11.6827L10.6495 13.2432L14.9754 8.91738C15.3233 8.5628 15.8933 8.5628 16.2473 8.91738C16.6013 9.26536 16.6013 9.83474 16.2473 10.1893L11.5795 14.8565C11.3335 15.1025 11.0035 15.2411 10.6555 15.2411H10.6495H10.6435C10.2956 15.2411 9.96557 15.1025 9.71958 14.8565L7.81767 12.9546C7.46368 12.6066 7.46368 12.0366 7.81767 11.6827Z" fill="white"/>
</mask>
<g mask="url(#mask0_639_5917)">
<rect x="-56.5715" y="-56.5715" width="137.143" height="137.143" rx="20" fill="#0F71F0"/>
</g>
</svg>
