<svg width="44" height="40" viewBox="0 0 44 40" fill="none" xmlns="http://www.w3.org/2000/svg">
<g clip-path="url(#clip0_1124_4)">
<path d="M30.4075 36.3638C29.8566 35.5924 29.416 34.7109 29.3058 33.8293C26.6617 35.5924 23.3565 36.6943 19.9411 36.6943C10.6867 36.6943 3.19499 29.2013 3.19499 19.9454C3.19499 10.6894 10.6867 3.08632 19.9411 3.08632C28.2041 3.08632 35.0348 9.03659 36.467 16.9702C37.0179 16.7499 37.5687 16.6397 38.2297 16.6397C38.6704 16.6397 39.2213 16.7499 39.6619 16.8601C38.2297 7.27354 29.9669 0.000997288 19.9411 0.000997288C8.92395 -0.109193 0 8.9264 0 19.8352C0 30.744 8.92395 39.7797 19.9411 39.7797C23.9074 39.7797 27.543 38.5676 30.6279 36.5841L30.4075 36.3638Z" fill="#0C74F8"/>
<path d="M43.4077 31.9561C43.0771 31.7358 42.7467 31.6256 42.3059 31.6256C41.7551 31.6256 41.3144 31.8459 40.9839 32.2867L39.7719 33.7192V21.5982C39.7719 20.7168 39.0007 19.9454 38.1194 19.9454C37.238 19.9454 36.4668 20.7168 36.4668 21.5982V33.7192L35.2549 32.2867C34.9245 31.9561 34.4837 31.7358 33.9329 31.7358C33.4921 31.7358 33.1617 31.8459 32.8312 32.0663C32.5006 32.3969 32.2803 32.7275 32.2803 33.1682C32.2803 33.609 32.3905 34.0498 32.6108 34.3803L36.7973 39.449C37.1279 39.7797 37.5685 40 38.1194 40C38.6703 40 39.1109 39.7797 39.4415 39.449L43.628 34.3803C43.9585 34.0498 44.0686 33.609 43.9585 33.1682C44.0686 32.6172 43.8483 32.2867 43.4077 31.9561Z" fill="#0C74F8"/>
<path fill-rule="evenodd" clip-rule="evenodd" d="M25.4499 20.6066C24.8992 20.1658 24.3483 19.8352 23.6872 19.5047C23.0262 19.1741 22.255 18.9537 21.4838 18.7333L20.9329 18.6231V13.1136C21.4838 13.2238 22.0346 13.4442 22.3652 13.6646C22.6956 13.8849 22.916 14.2156 23.1364 14.5461C23.3567 15.097 23.9076 15.3174 24.3483 15.3174H24.6787C25.2296 15.3174 25.6704 15.097 25.8907 14.5461C26.111 14.1053 26.111 13.5543 25.8907 13.1136C25.8907 13.0586 25.8631 13.031 25.8356 13.0034C25.8081 12.9759 25.7805 12.9483 25.7805 12.8932C25.3398 12.2321 24.5686 11.5709 23.5771 11.1302C22.916 10.7996 22.0346 10.5792 21.1532 10.469V8.92637C21.1532 8.15504 20.6024 7.6041 19.8312 7.6041C19.06 7.6041 18.5091 8.15504 18.5091 8.92637V10.469C17.7379 10.5792 17.0769 10.7996 16.4158 11.02C15.4243 11.4608 14.543 12.1219 13.9921 12.8932C13.4412 13.6646 13.1107 14.6562 13.1107 15.7581C13.1107 17.0804 13.5513 18.0721 14.4328 18.8434C15.3141 19.6148 16.5261 20.276 18.0685 20.6066L18.3989 20.7167L18.2888 26.5568H18.1786C18.1235 26.5568 18.0685 26.5292 18.0134 26.5017C17.9583 26.4741 17.9032 26.4465 17.848 26.4465C17.1871 26.2262 16.7464 25.7854 16.3057 25.3447C16.1955 25.2345 16.0853 25.0141 15.9752 24.7938C15.7549 24.2428 15.204 23.9122 14.6531 23.9122H14.3225C13.8819 23.9122 13.4412 24.1327 13.1107 24.5733C12.8903 24.9039 12.7801 25.3447 13.0006 25.7854C13.1107 26.116 13.331 26.4465 13.5513 26.7772C14.1022 27.6587 14.9836 28.3199 16.0853 28.7605C16.7464 28.981 17.5176 29.2013 18.2888 29.3115V30.8542C18.2888 31.1848 18.3989 31.5153 18.6193 31.8459C18.8397 32.0663 19.1701 32.2867 19.6109 32.2867C20.382 32.2867 20.9329 31.7358 20.9329 30.9644V29.4218C22.0346 29.3115 23.0262 29.0912 23.7974 28.7605C24.7889 28.3199 25.6704 27.6587 26.2211 26.8873C26.772 26.116 26.9923 25.1243 27.1026 24.0224C27.1026 23.2511 26.9923 22.59 26.772 22.039C26.6743 21.9169 26.582 21.7948 26.4916 21.675C26.1739 21.2547 25.8787 20.8638 25.4499 20.6066ZM23.6872 24.0224C23.6872 24.5733 23.4668 25.1243 23.1364 25.5651C22.8059 26.0059 22.3652 26.3364 21.8143 26.5568C21.594 26.667 21.2634 26.7772 20.9329 26.7772V21.488L21.9244 21.8187C22.4753 22.039 22.916 22.3695 23.1364 22.7001C23.5771 23.0307 23.6872 23.4714 23.6872 24.0224ZM18.3989 17.962V13.2238C18.2888 13.2238 18.1786 13.2238 18.0685 13.4442C17.5176 13.6646 17.1871 13.8849 16.8565 14.3257C16.5261 14.6562 16.4158 15.2072 16.4158 15.648C16.4158 15.9786 16.5261 16.4193 16.7464 16.7499C16.9667 17.0804 17.1871 17.3008 17.5176 17.5212C17.5843 17.5546 17.6612 17.598 17.745 17.6454C17.938 17.7548 18.1685 17.8851 18.3989 17.962Z" fill="#0C74F8"/>
</g>
<defs>
<clipPath id="clip0_1124_4">
<rect width="44" height="40" fill="white"/>
</clipPath>
</defs>
</svg>
