<svg width="16" height="16" viewBox="0 0 16 16" fill="none" xmlns="http://www.w3.org/2000/svg">
<g clip-path="url(#clip0_425_1761)">
<path d="M8 16C12.4183 16 16 12.4183 16 8C16 3.58172 12.4183 0 8 0C3.58172 0 0 3.58172 0 8C0 12.4183 3.58172 16 8 16Z" fill="#0F71F0"/>
<path fill-rule="evenodd" clip-rule="evenodd" d="M9 4.43755C9 4.95533 8.55228 5.37508 8 5.37508C7.44772 5.37508 7 4.95533 7 4.43755C7 3.91976 7.44772 3.5 8 3.5C8.55228 3.5 9 3.91976 9 4.43755ZM8.80003 7.62513C8.80003 7.21091 8.44193 6.87518 8.00011 6.87518C7.5583 6.87518 7.2002 7.21091 7.2002 7.62513V11.75C7.2002 12.1642 7.5583 12.5 8.00011 12.5C8.44193 12.5 8.80003 12.1642 8.80003 11.75V7.62513Z" fill="#F4F1ED"/>
</g>
<defs>
<clipPath id="clip0_425_1761">
<rect width="16" height="16" fill="white"/>
</clipPath>
</defs>
</svg>
