<svg width="26" height="24" viewBox="0 0 26 24" fill="none" xmlns="http://www.w3.org/2000/svg">
<g clip-path="url(#clip0_1124_9)">
<path d="M17.9681 21.8182C17.6425 21.3554 17.3821 20.8265 17.3171 20.2976C15.7546 21.3554 13.8015 22.0166 11.7834 22.0166C6.31486 22.0166 1.88795 17.5208 1.88795 11.9672C1.88795 6.41366 6.31486 1.85179 11.7834 1.85179C16.6661 1.85179 20.7023 5.42195 21.5486 10.1821C21.8742 10.05 22.1997 9.98383 22.5903 9.98383C22.8507 9.98383 23.1762 10.05 23.4366 10.1161C22.5903 4.36413 17.7077 0.000598374 11.7834 0.000598374C5.27324 -0.0655157 0 5.35584 0 11.9011C0 18.4464 5.27324 23.8678 11.7834 23.8678C14.1271 23.8678 16.2754 23.1406 18.0983 21.9505L17.9681 21.8182Z" fill="#0C74F8"/>
<path d="M25.65 19.1737C25.4546 19.0414 25.2594 18.9754 24.999 18.9754C24.6734 18.9754 24.413 19.1076 24.2178 19.3721L23.5016 20.2315V12.959C23.5016 12.4301 23.0459 11.9672 22.5251 11.9672C22.0043 11.9672 21.5486 12.4301 21.5486 12.959V20.2315L20.8324 19.3721C20.6372 19.1737 20.3768 19.0414 20.0512 19.0414C19.7908 19.0414 19.5955 19.1076 19.4002 19.2398C19.2049 19.4382 19.0747 19.6365 19.0747 19.901C19.0747 20.1654 19.1398 20.4299 19.27 20.6282L21.7439 23.6695C21.9392 23.8678 22.1996 24 22.5251 24C22.8506 24 23.111 23.8678 23.3063 23.6695L25.7802 20.6282C25.9755 20.4299 26.0406 20.1654 25.9755 19.901C26.0406 19.5703 25.9104 19.3721 25.65 19.1737Z" fill="#0C74F8"/>
<path fill-rule="evenodd" clip-rule="evenodd" d="M15.0383 12.3639C14.7128 12.0995 14.3873 11.9011 13.9967 11.7027C13.606 11.5044 13.1504 11.3722 12.6947 11.2399L12.3692 11.1738V7.86813C12.6947 7.93424 13.0201 8.06646 13.2155 8.1987C13.4108 8.33089 13.541 8.52926 13.6712 8.72763C13.8014 9.05817 14.1269 9.19042 14.3873 9.19042H14.5826C14.9081 9.19042 15.1685 9.05817 15.2987 8.72763C15.4289 8.46314 15.4289 8.13258 15.2987 7.86813C15.2987 7.83507 15.2825 7.81854 15.2661 7.80201C15.2499 7.78548 15.2336 7.76896 15.2336 7.73589C14.9732 7.33922 14.5175 6.94253 13.9316 6.67807C13.541 6.47973 13.0201 6.3475 12.4993 6.28139V5.35579C12.4993 4.89299 12.1738 4.56242 11.7181 4.56242C11.2624 4.56242 10.9369 4.89299 10.9369 5.35579V6.28139C10.4812 6.3475 10.0906 6.47973 9.69995 6.61196C9.11406 6.87641 8.59324 7.2731 8.26776 7.73589C7.94222 8.1987 7.74691 8.79376 7.74691 9.45483C7.74691 10.2482 8.00732 10.8433 8.52816 11.3061C9.04897 11.7688 9.76503 12.1655 10.6765 12.3639L10.8718 12.43L10.8067 15.934H10.7416C10.7091 15.934 10.6765 15.9175 10.6439 15.901C10.6114 15.8844 10.5788 15.868 10.5462 15.868C10.1557 15.7357 9.89527 15.4712 9.63487 15.2068C9.56979 15.1407 9.50462 15.0084 9.43954 14.8762C9.30938 14.5456 8.98381 14.3473 8.65832 14.3473H8.463C8.20259 14.3473 7.94222 14.4795 7.74691 14.744C7.61671 14.9423 7.55161 15.2068 7.68181 15.4712C7.74691 15.6696 7.87711 15.868 8.00732 16.0663C8.33284 16.5952 8.85365 16.9918 9.50462 17.2563C9.89527 17.3886 10.351 17.5208 10.8067 17.5869V18.5125C10.8067 18.7108 10.8718 18.9092 11.002 19.1075C11.1322 19.2397 11.3275 19.372 11.5879 19.372C12.0436 19.372 12.3692 19.0414 12.3692 18.5786V17.653C13.0201 17.5869 13.606 17.4547 14.0618 17.2563C14.6477 16.9918 15.1685 16.5952 15.494 16.1324C15.8195 15.6696 15.9497 15.0746 16.0149 14.4134C16.0149 13.9506 15.9497 13.5539 15.8195 13.2233C15.7618 13.1501 15.7072 13.0768 15.6539 13.005C15.4661 12.7528 15.2917 12.5182 15.0383 12.3639ZM13.9967 14.4134C13.9967 14.744 13.8664 15.0746 13.6712 15.3391C13.4759 15.6035 13.2155 15.8018 12.89 15.934C12.7597 16.0001 12.5644 16.0663 12.3692 16.0663V12.8928L12.9551 13.0912C13.2806 13.2233 13.541 13.4217 13.6712 13.6201C13.9316 13.8184 13.9967 14.0829 13.9967 14.4134ZM10.8718 10.7771V7.93424C10.8067 7.93424 10.7416 7.93424 10.6765 8.06647C10.351 8.1987 10.1557 8.33089 9.96036 8.59538C9.76503 8.79376 9.69995 9.12429 9.69995 9.38871C9.69995 9.58708 9.76503 9.85158 9.89527 10.0499C10.0254 10.2482 10.1557 10.3805 10.351 10.5127C10.3904 10.5327 10.4358 10.5587 10.4853 10.5872C10.5995 10.6528 10.7356 10.7311 10.8718 10.7771Z" fill="#0C74F8"/>
</g>
<defs>
<clipPath id="clip0_1124_9">
<rect width="26" height="24" fill="white"/>
</clipPath>
</defs>
</svg>
