<?xml version="1.0" encoding="UTF-8"?>
<svg width="88px" height="88px" viewBox="0 0 88 88" version="1.1" xmlns="http://www.w3.org/2000/svg" xmlns:xlink="http://www.w3.org/1999/xlink">
    <title>icon_experience_desktop</title>
    <g id="HP_Current-Copy" stroke="none" stroke-width="1" fill="none" fill-rule="evenodd">
        <g id="icon_experience_desktop">
            <path d="M44,84.993 C21.396,84.993 3.007,66.604 3.007,44 C3.007,21.396 21.396,3.007 44,3.007 C66.603,3.007 84.992,21.396 84.992,44 C84.992,66.604 66.603,84.993 44,84.993 M44,0 C19.738,0 0,19.738 0,44 C0,68.263 19.738,88.001 44,88.001 C68.261,88.001 88,68.263 88,44 C88,19.738 68.261,0 44,0" id="Fill-5" fill="#242424"></path>
            <path d="M30.4291,29.5326 L26.6941,25.9106 C25.9261,25.1596 24.6941,25.1776 23.9481,25.9506 L13.4111,36.8636 C12.7231,37.5766 12.6841,38.6946 13.3211,39.4546 L16.5891,43.5636 C17.3281,44.4436 18.6671,44.4906 19.4651,43.6636 L30.4691,32.2626 C31.2091,31.4966 31.1911,30.2766 30.4291,29.5326" id="Fill-1" fill="#FEEB29"></path>
            <path d="M57.5699,29.5326 L61.3049,25.9106 C62.0729,25.1596 63.3049,25.1776 64.0509,25.9506 L74.5879,36.8636 C75.2759,37.5766 75.3149,38.6946 74.6779,39.4546 L71.4099,43.5636 C70.6709,44.4436 69.3319,44.4906 68.5339,43.6636 L57.5299,32.2626 C56.7899,31.4966 56.8079,30.2766 57.5699,29.5326" id="Fill-3" fill="#FEEB29"></path>
            <path d="M73.5004,38.5184 L70.2584,42.5964 C70.1504,42.7244 70.0144,42.7484 69.9414,42.7514 C69.8844,42.7454 69.7334,42.7394 69.6154,42.6184 L58.6124,31.2194 C58.4484,31.0494 58.4514,30.7754 58.6194,30.6094 L62.3564,26.9854 C62.4634,26.8834 62.6024,26.8874 62.6644,26.8624 C62.7464,26.8644 62.8654,26.8884 62.9694,26.9954 L73.5064,37.9084 C73.6614,38.0684 73.6684,38.3164 73.5004,38.5184 L73.5004,38.5184 Z M59.6004,52.1164 L50.9514,41.6164 C49.9714,40.4264 48.5264,39.7084 46.9874,39.6454 C45.4334,39.5834 43.9474,40.1794 42.8594,41.3014 L38.1124,46.3304 C37.7504,46.7144 37.2634,46.9014 36.7344,46.9154 C36.2064,46.9084 35.7214,46.6884 35.3684,46.2964 C34.7184,45.5724 34.7394,44.4564 35.4134,43.7564 L43.8654,34.9854 C44.7654,34.0584 46.0214,33.5274 47.3114,33.5274 L48.3254,33.5274 L55.8424,33.5274 C56.0814,33.5274 56.3044,33.4664 56.5054,33.3674 L66.5614,43.7864 C66.4794,43.8504 66.4014,43.9244 66.3314,44.0084 L59.6004,52.1164 Z M58.2394,57.5514 C57.6024,58.0734 56.6574,57.9854 56.1374,57.3554 L51.3214,51.4594 C51.3214,51.4594 51.3204,51.4584 51.3194,51.4584 L48.9244,48.5184 C48.3994,47.8744 47.4524,47.7774 46.8094,48.3024 C46.1644,48.8274 46.0674,49.7744 46.5924,50.4184 L48.9864,53.3564 C48.9884,53.3584 48.9894,53.3614 48.9914,53.3634 L49.3954,53.8584 L52.7534,57.9794 C53.0084,58.2874 53.1264,58.6774 53.0884,59.0764 C53.0504,59.4744 52.8594,59.8344 52.5504,60.0894 C52.2404,60.3434 51.8494,60.4644 51.4534,60.4244 C51.0554,60.3864 50.6944,60.1954 50.4494,59.8954 L45.8134,54.1714 C45.7814,54.1324 45.7434,54.1014 45.7084,54.0664 L44.7554,52.8904 C44.2344,52.2434 43.2864,52.1454 42.6414,52.6694 C41.9954,53.1904 41.8974,54.1384 42.4194,54.7834 L47.0644,60.5174 C47.3194,60.8254 47.4374,61.2154 47.3994,61.6134 C47.3614,62.0124 47.1704,62.3724 46.8604,62.6274 C46.2254,63.1514 45.2774,63.0624 44.7454,62.4144 L43.7554,61.2324 C43.7304,61.2004 43.7144,61.1644 43.6884,61.1334 L40.3554,57.1514 C39.8224,56.5134 38.8754,56.4294 38.2374,56.9634 C37.6004,57.4964 37.5164,58.4444 38.0494,59.0814 L39.0334,60.2584 C39.0584,60.2924 39.0774,60.3294 39.1044,60.3624 L41.4424,63.1554 C41.6464,63.4464 41.7444,63.7934 41.7104,64.1514 C41.6714,64.5504 41.4804,64.9094 41.1714,65.1634 C40.8634,65.4184 40.4804,65.5384 40.0744,65.4984 C39.6764,65.4604 39.3174,65.2694 39.0594,64.9564 L21.6674,44.0084 C21.5974,43.9244 21.5194,43.8504 21.4374,43.7864 L31.4944,33.3664 C31.6954,33.4664 31.9184,33.5274 32.1574,33.5274 L41.0944,33.5274 L33.2474,41.6704 C31.4844,43.5004 31.4324,46.4144 33.1304,48.3064 C34.0384,49.3164 35.3394,49.9064 36.6984,49.9224 C38.0444,49.9144 39.3684,49.3814 40.3004,48.3944 L45.0324,43.3814 C45.5174,42.8814 46.1734,42.6384 46.8634,42.6504 C47.5594,42.6784 48.1864,42.9894 48.6294,43.5284 L58.4124,55.4054 C58.4194,55.4134 58.4264,55.4224 58.4334,55.4304 L58.4434,55.4424 C58.9684,56.0804 58.8774,57.0254 58.2394,57.5514 L58.2394,57.5514 Z M18.0574,42.7514 C17.9854,42.7484 17.8494,42.7244 17.7654,42.6274 L14.4734,38.4874 C14.3304,38.3164 14.3384,38.0684 14.4924,37.9084 L25.0304,26.9944 C25.1334,26.8884 25.2524,26.8644 25.3354,26.8624 L25.3404,26.8624 C25.4234,26.8624 25.5394,26.8854 25.6474,26.9904 L29.3794,30.6094 C29.5474,30.7754 29.5504,31.0484 29.3874,31.2184 L18.3834,42.6184 C18.2664,42.7394 18.1094,42.7464 18.0574,42.7514 L18.0574,42.7514 Z M75.6704,35.8194 L65.1344,24.9074 C64.4934,24.2424 63.6314,23.8684 62.7084,23.8554 C61.7384,23.8304 60.9124,24.1904 60.2584,24.8314 L56.5234,28.4524 C56.5214,28.4544 56.5204,28.4554 56.5194,28.4564 C55.9344,29.0274 55.6124,29.7624 55.5254,30.5194 L48.3254,30.5194 L47.3114,30.5194 L32.4744,30.5194 C32.3864,29.7624 32.0644,29.0274 31.4794,28.4564 C31.4784,28.4554 31.4774,28.4544 31.4754,28.4524 L27.7454,24.8354 C27.0854,24.1894 26.1884,23.8314 25.2904,23.8554 C24.3674,23.8684 23.5064,24.2424 22.8654,24.9064 L12.3294,35.8194 C11.1024,37.0904 11.0334,39.0684 12.1444,40.3904 L15.4374,44.5304 C16.0634,45.2764 16.9804,45.7234 17.9524,45.7564 C17.9924,45.7574 18.0324,45.7584 18.0714,45.7584 C18.4384,45.7584 18.7954,45.6834 19.1394,45.5714 C19.1944,45.6964 19.2604,45.8184 19.3524,45.9294 L36.7424,66.8734 C37.5064,67.8024 38.5884,68.3774 39.7864,68.4924 C39.9334,68.5064 40.0804,68.5144 40.2264,68.5144 C41.2684,68.5144 42.2704,68.1554 43.0844,67.4844 C43.6764,66.9974 44.1044,66.3734 44.3814,65.6814 C44.8754,65.8604 45.3894,65.9744 45.9124,65.9744 C46.9214,65.9744 47.9354,65.6374 48.7744,64.9474 C49.3764,64.4514 49.7974,63.8224 50.0684,63.1444 C50.5634,63.3224 51.0774,63.4364 51.6004,63.4364 C52.6104,63.4364 53.6254,63.1014 54.4634,62.4094 C55.0664,61.9134 55.4864,61.2844 55.7584,60.6054 C56.2524,60.7834 56.7674,60.8984 57.2904,60.8984 C58.3004,60.8984 59.3154,60.5624 60.1524,59.8724 C61.7274,58.5744 62.1724,56.4294 61.4144,54.6404 L68.6464,45.9294 C68.7384,45.8184 68.8044,45.6964 68.8594,45.5714 C69.2034,45.6834 69.5604,45.7584 69.9274,45.7584 C69.9674,45.7584 70.0064,45.7574 70.0464,45.7564 C71.0184,45.7234 71.9354,45.2764 72.5874,44.4994 L75.8284,40.4214 C76.9654,39.0684 76.8964,37.0904 75.6704,35.8194 L75.6704,35.8194 Z" id="Fill-8" fill="#242424"></path>
        </g>
    </g>
</svg>