<?xml version="1.0" encoding="UTF-8"?>
<svg width="60px" height="60px" viewBox="0 0 60 60" version="1.1" xmlns="http://www.w3.org/2000/svg" xmlns:xlink="http://www.w3.org/1999/xlink">
    <title>icon_threat_blocking_mobile</title>
    <g id="HP_Current-Copy" stroke="none" stroke-width="1" fill="none" fill-rule="evenodd">
        <g id="icon_threat_blocking_mobile">
            <path d="M30,2.05088579 C14.5881818,2.05088579 2.05022727,14.5886979 2.05022727,30.0003409 C2.05022727,45.411984 14.5881818,57.949796 30,57.949796 C45.4111364,57.949796 57.9490909,45.411984 57.9490909,30.0003409 C57.9490909,14.5886979 45.4111364,2.05088579 30,2.05088579 M30,60 C13.4577273,60 0,46.5424257 0,30.0003409 C0,13.4575743 13.4577273,0 30,0 C46.5415909,0 60,13.4575743 60,30.0003409 C60,46.5424257 46.5415909,60 30,60" id="Fill-1" fill="#242424"></path>
            <path d="M29.9986364,24.5312667 C26.9331818,24.5312667 24.4397727,26.9626027 24.4397727,29.9564323 C24.4397727,32.9516255 26.9331818,35.3829616 29.9986364,35.3829616 C33.0654545,35.3829616 35.5588636,32.9516255 35.5588636,29.9564323 C35.5588636,26.9626027 33.0654545,24.5312667 29.9986364,24.5312667" id="Fill-4" fill="#242424"></path>
            <path d="M29.9986364,24.5312667 C26.9331818,24.5312667 24.4397727,26.9626027 24.4397727,29.9564323 C24.4397727,32.9516255 26.9331818,35.3829616 29.9986364,35.3829616 C33.0654545,35.3829616 35.5588636,32.9516255 35.5588636,29.9564323 C35.5588636,26.9626027 33.0654545,24.5312667 29.9986364,24.5312667" id="Fill-6" fill="#242424"></path>
            <path d="M29.9986364,37.4338473 C25.8027273,37.4338473 22.3895455,34.07934 22.3895455,29.9564323 C22.3895455,25.8342064 25.8027273,22.4803809 29.9986364,22.4803809 C34.1952273,22.4803809 37.6090909,25.8342064 37.6090909,29.9564323 C37.6090909,34.07934 34.1952273,37.4338473 29.9986364,37.4338473 M29.9986364,17.9477051 C21.1970455,17.9477051 13.6827273,22.9276485 10.6363636,29.9564323 L10.6363636,29.9564323 C13.6827273,36.9865797 21.1970455,41.9665231 29.9986364,41.9665231 C38.7995455,41.9665231 46.3172727,36.9865797 49.3622727,29.9564323 C46.3172727,22.9276485 38.8090909,17.9477051 29.9986364,17.9477051" id="Fill-8" fill="#FEEB29"></path>
        </g>
    </g>
</svg>