<svg width="24" height="24" viewBox="0 0 24 24" fill="none" xmlns="http://www.w3.org/2000/svg">
<path fill-rule="evenodd" clip-rule="evenodd" d="M20.5532 12.5076C20.5536 12.4995 20.5536 12.4913 20.5536 12.4836V8.47609C20.5536 6.66477 19.9876 4.93495 18.9171 3.47276C18.6952 3.17027 18.2709 3.10461 17.9675 3.3265C17.665 3.54793 17.5998 3.97269 17.8213 4.27563C18.7201 5.5028 19.1951 6.95548 19.1951 8.47609V12.423L19.1946 12.4271L19.1946 12.4272L19.1934 12.4373L19.1915 12.4542C19.1879 12.4918 19.1879 12.5298 19.1911 12.5674C19.1919 12.5788 19.1935 12.5909 19.1952 12.6034L19.1956 12.6064V15.523C19.1956 15.5762 19.1918 15.6286 19.1881 15.6809L19.1881 15.681L19.187 15.6965L19.1788 15.8369C19.1775 15.8581 19.1779 15.8799 19.1788 15.9012C19.1752 15.9338 19.1725 15.9659 19.1707 15.9922C19.1621 16.1258 19.1526 16.2589 19.1358 16.3957C19.12 16.536 19.0964 16.6741 19.0724 16.8077L19.0602 16.8775C19.0511 16.9295 19.0416 16.9816 19.0308 17.0337C18.9914 17.2166 18.9443 17.396 18.8922 17.5698L18.8632 17.6695C18.7989 17.8751 18.7237 18.0802 18.6332 18.2953C18.2795 19.1317 17.7728 19.8847 17.1343 20.5255L17.1035 20.5581C16.9627 20.6975 16.816 20.8293 16.6597 20.9606L16.5855 21.0263C16.4528 21.1345 16.3147 21.2351 16.1748 21.3333L16.0249 21.4415C15.9176 21.5131 15.8057 21.5783 15.6635 21.6607L15.5657 21.7191C15.52 21.7472 15.4742 21.7748 15.4276 21.8002C15.3662 21.8328 15.3032 21.8622 15.2397 21.8918L15.2396 21.8918L15.2293 21.8966L15.0336 21.9895L15.026 21.9932C14.9516 22.0295 14.8774 22.0657 14.7986 22.0982C14.7588 22.1149 14.718 22.1289 14.6772 22.143L14.5047 22.2059C14.3865 22.2508 14.2679 22.2956 14.147 22.3323L13.9835 22.3739C13.8142 22.421 13.6452 22.4677 13.4424 22.5066L13.3509 22.5206C13.1621 22.5546 12.9723 22.5868 12.7776 22.6058C12.7432 22.6093 12.7078 22.6105 12.6725 22.6116L12.6572 22.6121L12.4126 22.6257L12.3899 22.6273C12.2866 22.6345 12.1846 22.6416 12.1011 22.642C12.0916 22.6416 12.0549 22.6402 12.0463 22.6402C12.0146 22.6384 11.9829 22.6366 11.9562 22.6361C11.7877 22.6329 11.6193 22.6271 11.4486 22.6121C11.3613 22.6049 11.2752 22.593 11.1896 22.5811L11.1719 22.5786L10.9776 22.5537L10.9404 22.5499L10.926 22.5483C10.907 22.5433 10.8884 22.5392 10.8708 22.536C7.73807 22.0076 5.32674 19.4423 5.00569 16.2938C4.99391 16.1819 4.98304 16.0696 4.9767 15.9528L4.97172 15.9021C4.97263 15.8812 4.97308 15.8604 4.97218 15.8391L4.96674 15.7309L4.96565 15.7104C4.96235 15.6484 4.95904 15.5863 4.95904 15.524V12.6666C4.96131 12.6485 4.96357 12.6281 4.96448 12.6068C4.96493 12.5878 4.96493 12.5688 4.96448 12.5502C4.96357 12.5307 4.96176 12.5099 4.95859 12.4886V8.477C4.95859 4.55186 8.15195 1.35849 12.0766 1.35849C12.4516 1.35849 12.7559 1.05464 12.7559 0.679247C12.7559 0.30385 12.4516 0 12.0766 0C7.40297 0 3.6001 3.80287 3.6001 8.477V12.5466C3.6001 12.5593 3.60055 12.5715 3.601 12.5833C3.60055 12.5914 3.60055 12.5996 3.60055 12.6073V15.524C3.60055 15.6168 3.60508 15.7087 3.61006 15.8011L3.61051 15.8124C3.60825 15.8378 3.6078 15.8636 3.6087 15.8889C3.61006 15.931 3.61368 15.9718 3.62002 16.0334C3.62817 16.1692 3.6404 16.3042 3.65489 16.435C4.03527 20.1718 6.88901 23.2221 10.595 23.8669C10.6176 23.8737 10.6403 23.8787 10.6625 23.8823C10.7186 23.8918 10.7743 23.8982 10.8305 23.904L10.9844 23.924C11.1003 23.9403 11.2158 23.9561 11.3317 23.9656C11.5323 23.9833 11.732 23.9905 11.9544 23.9955C11.9902 23.9982 12.0259 24 12.0775 24C12.2229 24 12.3646 23.9905 12.5068 23.9806L12.7029 23.9697C12.7731 23.9674 12.8437 23.9647 12.9117 23.9579C13.1422 23.9353 13.3681 23.8982 13.6235 23.8529L13.6236 23.8529C13.6616 23.8474 13.6996 23.842 13.7372 23.8348C13.9441 23.7936 14.1461 23.7388 14.3476 23.6831L14.4028 23.669L14.4029 23.669C14.4491 23.6577 14.4952 23.6464 14.5414 23.6323C14.6917 23.5866 14.8371 23.5323 14.9825 23.4775L15.1274 23.4249C15.1926 23.4019 15.2578 23.3783 15.3194 23.3529C15.424 23.3095 15.5249 23.2615 15.6255 23.2121L15.8039 23.1274C15.8922 23.0862 15.9805 23.0446 16.0679 22.9984C16.1358 22.9617 16.2024 22.9223 16.268 22.8825L16.379 22.8163C16.5135 22.7376 16.648 22.6588 16.7788 22.5718C16.821 22.5437 16.8613 22.5143 16.902 22.4844L16.9573 22.4441C17.123 22.3268 17.2869 22.2073 17.4495 22.0742L17.5373 21.9976C17.718 21.8464 17.8923 21.6888 18.0907 21.4905C18.8591 20.7193 19.4623 19.8222 19.8907 18.8083C19.9921 18.5683 20.0822 18.322 20.1583 18.0802L20.1923 17.9634C20.2561 17.751 20.3127 17.5359 20.3589 17.3172C20.3717 17.2588 20.3824 17.2 20.3931 17.1409L20.3974 17.1175L20.4096 17.05C20.4391 16.8847 20.4662 16.719 20.4853 16.556C20.5043 16.3997 20.5161 16.2412 20.5265 16.0823C20.5265 16.0796 20.531 16.0334 20.531 16.0307C20.536 15.9854 20.5405 15.9406 20.5423 15.8944C20.5432 15.869 20.5428 15.8437 20.541 15.8187L20.5428 15.7898L20.544 15.77C20.549 15.6879 20.5541 15.606 20.5541 15.523V12.5448C20.5541 12.5321 20.5536 12.5194 20.5532 12.5076ZM15.0303 1.98992C15.4189 2.16924 15.7884 2.37981 16.1284 2.61528C16.2466 2.69724 16.3811 2.73664 16.5147 2.73664C16.7298 2.73664 16.9417 2.63475 17.0735 2.44456C17.2872 2.13619 17.2103 1.71279 16.9023 1.4995C16.4979 1.21875 16.0596 0.96924 15.6 0.756409C15.2572 0.597918 14.8551 0.747805 14.6988 1.08833C14.5413 1.42886 14.6898 1.83279 15.0303 1.98992ZM13.196 12.5398C13.196 12.5321 13.196 12.5244 13.1964 12.5163V9.16575C13.1964 8.5336 12.7038 8.01013 12.0983 7.99835C11.7999 8.00107 11.5078 8.10975 11.295 8.31851C11.0781 8.53179 10.9586 8.81526 10.9586 9.11685V12.5511C10.9586 12.5593 10.9586 12.567 10.9581 12.5747V14.8343C10.9581 15.4664 11.4508 15.9899 12.0558 16.0017C12.3723 15.994 12.6472 15.8898 12.8595 15.6815C13.076 15.4683 13.196 15.1848 13.196 14.8832V12.5398ZM10.3427 7.34945C10.8137 6.88665 11.4598 6.62084 12.1232 6.63986C13.4645 6.66567 14.5549 7.79866 14.5549 9.16575V12.4814C14.5563 12.4977 14.5568 12.5135 14.5568 12.5294C14.5568 12.547 14.5558 12.5652 14.5545 12.5828V14.8832C14.5545 15.552 14.2905 16.1797 13.8114 16.6506C13.3509 17.103 12.7196 17.3602 12.0739 17.3602C12.0598 17.3602 12.0454 17.3602 12.0313 17.3597C10.69 17.3344 9.59961 16.2014 9.59961 14.8343V12.6095C9.59825 12.5932 9.5978 12.5774 9.5978 12.5615C9.5978 12.5439 9.5987 12.5262 9.60006 12.5081V9.11685C9.60006 8.44802 9.86406 7.82039 10.3427 7.34945ZM7.37376 10.576C7.74871 10.576 8.05301 10.2722 8.05301 9.8968V8.53152C8.05301 8.15657 7.74871 7.85227 7.37376 7.85227C6.99882 7.85227 6.69452 8.15657 6.69452 8.53152V9.8968C6.69452 10.2722 6.99882 10.576 7.37376 10.576ZM7.61549 5.32751C8.62168 3.83996 10.2895 2.95241 12.0763 2.95241C15.0437 2.95241 17.4578 5.36646 17.4578 8.3334V12.6122C17.4578 12.9871 17.1535 13.2915 16.7785 13.2915C16.4036 13.2915 16.0993 12.9871 16.0993 12.6122V8.3334C16.0993 6.11544 14.2943 4.31091 12.0763 4.31091C10.7409 4.31091 9.49428 4.97566 8.74077 6.08872C8.53021 6.39982 8.10771 6.48042 7.79752 6.27076C7.48688 6.06019 7.40537 5.63815 7.61549 5.32751ZM17.4599 15.6578C17.4599 15.6184 17.4635 15.5794 17.4707 15.5423C17.5454 15.1746 17.3082 14.816 16.9405 14.7417C16.5755 14.6661 16.2141 14.9038 16.1398 15.2724C16.114 15.3978 16.1014 15.5273 16.1014 15.6578C16.1014 16.0332 16.4057 16.337 16.7806 16.337C17.1555 16.337 17.4599 16.0332 17.4599 15.6578ZM16.5389 18.6725C15.6075 20.0487 14.0235 20.8067 12.0776 20.8067C9.11069 20.8067 6.69665 18.3927 6.69665 15.4257V12.6096C6.69665 12.2346 7.00095 11.9303 7.37589 11.9303C7.75084 11.9303 8.05514 12.2346 8.05514 12.6096V15.4257C8.05514 17.6437 9.85967 19.4482 12.0776 19.4482C13.125 19.4482 14.5542 19.1815 15.4136 17.9109C15.6247 17.6002 16.0472 17.5196 16.3569 17.7293C16.6675 17.9394 16.749 18.3619 16.5389 18.6725Z" fill="#0F71F0"/>
<mask id="mask0_639_5929" style="mask-type:luminance" maskUnits="userSpaceOnUse" x="3" y="0" width="18" height="24">
<path fill-rule="evenodd" clip-rule="evenodd" d="M20.5532 12.5076C20.5536 12.4995 20.5536 12.4913 20.5536 12.4836V8.47609C20.5536 6.66477 19.9876 4.93495 18.9171 3.47276C18.6952 3.17027 18.2709 3.10461 17.9675 3.3265C17.665 3.54793 17.5998 3.97269 17.8213 4.27563C18.7201 5.5028 19.1951 6.95548 19.1951 8.47609V12.423L19.1946 12.4271L19.1946 12.4272L19.1934 12.4373L19.1915 12.4542C19.1879 12.4918 19.1879 12.5298 19.1911 12.5674C19.1919 12.5788 19.1935 12.5909 19.1952 12.6034L19.1956 12.6064V15.523C19.1956 15.5762 19.1918 15.6286 19.1881 15.6809L19.1881 15.681L19.187 15.6965L19.1788 15.8369C19.1775 15.8581 19.1779 15.8799 19.1788 15.9012C19.1752 15.9338 19.1725 15.9659 19.1707 15.9922C19.1621 16.1258 19.1526 16.2589 19.1358 16.3957C19.12 16.536 19.0964 16.6741 19.0724 16.8077L19.0602 16.8775C19.0511 16.9295 19.0416 16.9816 19.0308 17.0337C18.9914 17.2166 18.9443 17.396 18.8922 17.5698L18.8632 17.6695C18.7989 17.8751 18.7237 18.0802 18.6332 18.2953C18.2795 19.1317 17.7728 19.8847 17.1343 20.5255L17.1035 20.5581C16.9627 20.6975 16.816 20.8293 16.6597 20.9606L16.5855 21.0263C16.4528 21.1345 16.3147 21.2351 16.1748 21.3333L16.0249 21.4415C15.9176 21.5131 15.8057 21.5783 15.6635 21.6607L15.5657 21.7191C15.52 21.7472 15.4742 21.7748 15.4276 21.8002C15.3662 21.8328 15.3032 21.8622 15.2397 21.8918L15.2396 21.8918L15.2293 21.8966L15.0336 21.9895L15.026 21.9932C14.9516 22.0295 14.8774 22.0657 14.7986 22.0982C14.7588 22.1149 14.718 22.1289 14.6772 22.143L14.5047 22.2059C14.3865 22.2508 14.2679 22.2956 14.147 22.3323L13.9835 22.3739C13.8142 22.421 13.6452 22.4677 13.4424 22.5066L13.3509 22.5206C13.1621 22.5546 12.9723 22.5868 12.7776 22.6058C12.7432 22.6093 12.7078 22.6105 12.6725 22.6116L12.6572 22.6121L12.4126 22.6257L12.3899 22.6273C12.2866 22.6345 12.1846 22.6416 12.1011 22.642C12.0916 22.6416 12.0549 22.6402 12.0463 22.6402C12.0146 22.6384 11.9829 22.6366 11.9562 22.6361C11.7877 22.6329 11.6193 22.6271 11.4486 22.6121C11.3613 22.6049 11.2752 22.593 11.1896 22.5811L11.1719 22.5786L10.9776 22.5537L10.9404 22.5499L10.926 22.5483C10.907 22.5433 10.8884 22.5392 10.8708 22.536C7.73807 22.0076 5.32674 19.4423 5.00569 16.2938C4.99391 16.1819 4.98304 16.0696 4.9767 15.9528L4.97172 15.9021C4.97263 15.8812 4.97308 15.8604 4.97218 15.8391L4.96674 15.7309L4.96565 15.7104C4.96235 15.6484 4.95904 15.5863 4.95904 15.524V12.6666C4.96131 12.6485 4.96357 12.6281 4.96448 12.6068C4.96493 12.5878 4.96493 12.5688 4.96448 12.5502C4.96357 12.5307 4.96176 12.5099 4.95859 12.4886V8.477C4.95859 4.55186 8.15195 1.35849 12.0766 1.35849C12.4516 1.35849 12.7559 1.05464 12.7559 0.679247C12.7559 0.30385 12.4516 0 12.0766 0C7.40297 0 3.6001 3.80287 3.6001 8.477V12.5466C3.6001 12.5593 3.60055 12.5715 3.601 12.5833C3.60055 12.5914 3.60055 12.5996 3.60055 12.6073V15.524C3.60055 15.6168 3.60508 15.7087 3.61006 15.8011L3.61051 15.8124C3.60825 15.8378 3.6078 15.8636 3.6087 15.8889C3.61006 15.931 3.61368 15.9718 3.62002 16.0334C3.62817 16.1692 3.6404 16.3042 3.65489 16.435C4.03527 20.1718 6.88901 23.2221 10.595 23.8669C10.6176 23.8737 10.6403 23.8787 10.6625 23.8823C10.7186 23.8918 10.7743 23.8982 10.8305 23.904L10.9844 23.924C11.1003 23.9403 11.2158 23.9561 11.3317 23.9656C11.5323 23.9833 11.732 23.9905 11.9544 23.9955C11.9902 23.9982 12.0259 24 12.0775 24C12.2229 24 12.3646 23.9905 12.5068 23.9806L12.7029 23.9697C12.7731 23.9674 12.8437 23.9647 12.9117 23.9579C13.1422 23.9353 13.3681 23.8982 13.6235 23.8529L13.6236 23.8529C13.6616 23.8474 13.6996 23.842 13.7372 23.8348C13.9441 23.7936 14.1461 23.7388 14.3476 23.6831L14.4028 23.669L14.4029 23.669C14.4491 23.6577 14.4952 23.6464 14.5414 23.6323C14.6917 23.5866 14.8371 23.5323 14.9825 23.4775L15.1274 23.4249C15.1926 23.4019 15.2578 23.3783 15.3194 23.3529C15.424 23.3095 15.5249 23.2615 15.6255 23.2121L15.8039 23.1274C15.8922 23.0862 15.9805 23.0446 16.0679 22.9984C16.1358 22.9617 16.2024 22.9223 16.268 22.8825L16.379 22.8163C16.5135 22.7376 16.648 22.6588 16.7788 22.5718C16.821 22.5437 16.8613 22.5143 16.902 22.4844L16.9573 22.4441C17.123 22.3268 17.2869 22.2073 17.4495 22.0742L17.5373 21.9976C17.718 21.8464 17.8923 21.6888 18.0907 21.4905C18.8591 20.7193 19.4623 19.8222 19.8907 18.8083C19.9921 18.5683 20.0822 18.322 20.1583 18.0802L20.1923 17.9634C20.2561 17.751 20.3127 17.5359 20.3589 17.3172C20.3717 17.2588 20.3824 17.2 20.3931 17.1409L20.3974 17.1175L20.4096 17.05C20.4391 16.8847 20.4662 16.719 20.4853 16.556C20.5043 16.3997 20.5161 16.2412 20.5265 16.0823C20.5265 16.0796 20.531 16.0334 20.531 16.0307C20.536 15.9854 20.5405 15.9406 20.5423 15.8944C20.5432 15.869 20.5428 15.8437 20.541 15.8187L20.5428 15.7898L20.544 15.77C20.549 15.6879 20.5541 15.606 20.5541 15.523V12.5448C20.5541 12.5321 20.5536 12.5194 20.5532 12.5076ZM15.0303 1.98992C15.4189 2.16924 15.7884 2.37981 16.1284 2.61528C16.2466 2.69724 16.3811 2.73664 16.5147 2.73664C16.7298 2.73664 16.9417 2.63475 17.0735 2.44456C17.2872 2.13619 17.2103 1.71279 16.9023 1.4995C16.4979 1.21875 16.0596 0.96924 15.6 0.756409C15.2572 0.597918 14.8551 0.747805 14.6988 1.08833C14.5413 1.42886 14.6898 1.83279 15.0303 1.98992ZM13.196 12.5398C13.196 12.5321 13.196 12.5244 13.1964 12.5163V9.16575C13.1964 8.5336 12.7038 8.01013 12.0983 7.99835C11.7999 8.00107 11.5078 8.10975 11.295 8.31851C11.0781 8.53179 10.9586 8.81526 10.9586 9.11685V12.5511C10.9586 12.5593 10.9586 12.567 10.9581 12.5747V14.8343C10.9581 15.4664 11.4508 15.9899 12.0558 16.0017C12.3723 15.994 12.6472 15.8898 12.8595 15.6815C13.076 15.4683 13.196 15.1848 13.196 14.8832V12.5398ZM10.3427 7.34945C10.8137 6.88665 11.4598 6.62084 12.1232 6.63986C13.4645 6.66567 14.5549 7.79866 14.5549 9.16575V12.4814C14.5563 12.4977 14.5568 12.5135 14.5568 12.5294C14.5568 12.547 14.5558 12.5652 14.5545 12.5828V14.8832C14.5545 15.552 14.2905 16.1797 13.8114 16.6506C13.3509 17.103 12.7196 17.3602 12.0739 17.3602C12.0598 17.3602 12.0454 17.3602 12.0313 17.3597C10.69 17.3344 9.59961 16.2014 9.59961 14.8343V12.6095C9.59825 12.5932 9.5978 12.5774 9.5978 12.5615C9.5978 12.5439 9.5987 12.5262 9.60006 12.5081V9.11685C9.60006 8.44802 9.86406 7.82039 10.3427 7.34945ZM7.37376 10.576C7.74871 10.576 8.05301 10.2722 8.05301 9.8968V8.53152C8.05301 8.15657 7.74871 7.85227 7.37376 7.85227C6.99882 7.85227 6.69452 8.15657 6.69452 8.53152V9.8968C6.69452 10.2722 6.99882 10.576 7.37376 10.576ZM7.61549 5.32751C8.62168 3.83996 10.2895 2.95241 12.0763 2.95241C15.0437 2.95241 17.4578 5.36646 17.4578 8.3334V12.6122C17.4578 12.9871 17.1535 13.2915 16.7785 13.2915C16.4036 13.2915 16.0993 12.9871 16.0993 12.6122V8.3334C16.0993 6.11544 14.2943 4.31091 12.0763 4.31091C10.7409 4.31091 9.49428 4.97566 8.74077 6.08872C8.53021 6.39982 8.10771 6.48042 7.79752 6.27076C7.48688 6.06019 7.40537 5.63815 7.61549 5.32751ZM17.4599 15.6578C17.4599 15.6184 17.4635 15.5794 17.4707 15.5423C17.5454 15.1746 17.3082 14.816 16.9405 14.7417C16.5755 14.6661 16.2141 14.9038 16.1398 15.2724C16.114 15.3978 16.1014 15.5273 16.1014 15.6578C16.1014 16.0332 16.4057 16.337 16.7806 16.337C17.1555 16.337 17.4599 16.0332 17.4599 15.6578ZM16.5389 18.6725C15.6075 20.0487 14.0235 20.8067 12.0776 20.8067C9.11069 20.8067 6.69665 18.3927 6.69665 15.4257V12.6096C6.69665 12.2346 7.00095 11.9303 7.37589 11.9303C7.75084 11.9303 8.05514 12.2346 8.05514 12.6096V15.4257C8.05514 17.6437 9.85967 19.4482 12.0776 19.4482C13.125 19.4482 14.5542 19.1815 15.4136 17.9109C15.6247 17.6002 16.0472 17.5196 16.3569 17.7293C16.6675 17.9394 16.749 18.3619 16.5389 18.6725Z" fill="white"/>
</mask>
<g mask="url(#mask0_639_5929)">
<rect x="-56.3999" y="-56.5715" width="137.143" height="137.143" rx="20" fill="#0F71F0"/>
</g>
</svg>
