<?xml version="1.0" encoding="UTF-8"?>
<svg width="31px" height="30px" viewBox="0 0 31 30" version="1.1" xmlns="http://www.w3.org/2000/svg" xmlns:xlink="http://www.w3.org/1999/xlink">
    <title>icon_instagram</title>
    <g id="Navigations-and-Footers" stroke="none" stroke-width="1" fill="none" fill-rule="evenodd">
        <g id="Footers" transform="translate(-1744.000000, -3308.000000)" fill="#242424" fill-rule="nonzero">
            <g id="Desktop" transform="translate(90.000000, 160.000000)">
                <g id="Footer_Breadcrumbs_D" transform="translate(1530.000000, 188.000000)">
                    <g id="Footer" transform="translate(0.000000, 1884.000000)">
                        <g id="Social" transform="translate(70.000000, 1076.000000)">
                            <g id="Instagram" transform="translate(54.796493, 0.000000)">
                                <path d="M21.7524707,0 C26.3243529,0 30.0435943,3.71402207 30.0435943,8.27891543 L30.0435943,8.27891543 L30.0435943,21.7210846 C30.0435943,26.2859779 26.3243529,30 21.7524707,30 L21.7524707,30 L8.29076816,30 C3.71924137,30 0,26.2861554 0,21.7210846 L0,21.7210846 L0,8.27891543 C0,3.71402207 3.71924137,0 8.29076816,0 L8.29076816,0 Z M21.7524707,2.6617454 L8.29076816,2.6617454 C5.18906054,2.6617454 2.66561329,5.18170849 2.66561329,8.27891543 L2.66561329,8.27891543 L2.66561329,21.7210846 C2.66561329,24.818469 5.18906054,27.3382546 8.29076816,27.3382546 L8.29076816,27.3382546 L21.7526484,27.3382546 C24.8545337,27.3382546 27.3781587,24.818469 27.3781587,21.7210846 L27.3781587,21.7210846 L27.3781587,8.27891543 C27.3781587,5.18170849 24.854356,2.6617454 21.7524707,2.6617454 L21.7524707,2.6617454 Z M15.0217971,7.27011392 C19.2905103,7.27011392 22.7632712,10.7378358 22.7632712,15.0003549 C22.7632712,19.2626965 19.2905103,22.730241 15.0217971,22.730241 C10.753084,22.730241 7.28032302,19.2626965 7.28032302,15.0003549 C7.28032302,10.7378358 10.753084,7.27011392 15.0217971,7.27011392 Z M15.0217971,9.93168187 C12.2229032,9.93168187 9.94593631,12.2053448 9.94593631,15.0001774 C9.94593631,17.7948327 12.2230809,20.0683181 15.0217971,20.0683181 C17.8205134,20.0683181 20.097658,17.7948327 20.097658,15.0001774 C20.097658,12.2053448 17.8206911,9.93168187 15.0217971,9.93168187 Z M23.0879429,5.01313128 C23.6032948,5.01313128 24.1079843,5.22074742 24.4705077,5.58451929 C24.8348082,5.94651666 25.042726,6.45047379 25.042726,6.9650779 C25.042726,7.47790751 24.8348082,7.98186464 24.4705077,8.34563651 C24.1062072,8.70763389 23.6032948,8.91702452 23.0879429,8.91702452 C22.5743681,8.91702452 22.0696787,8.70763389 21.7071553,8.34563651 C21.3428548,7.98186464 21.1331599,7.47808496 21.1331599,6.9650779 C21.1331599,6.45047379 21.3426771,5.94651666 21.7071553,5.58451929 C22.0698564,5.22074742 22.5743681,5.01313128 23.0879429,5.01313128 Z" id="icon_instagram"></path>
                            </g>
                        </g>
                    </g>
                </g>
            </g>
        </g>
    </g>
</svg>