<?xml version="1.0" encoding="UTF-8"?>
<svg width="88px" height="88px" viewBox="0 0 88 88" version="1.1" xmlns="http://www.w3.org/2000/svg" xmlns:xlink="http://www.w3.org/1999/xlink">
    <title>icon_threat_blocking_desktop</title>
    <g id="HP_Current-Copy" stroke="none" stroke-width="1" fill="none" fill-rule="evenodd">
        <g id="icon_threat_blocking_desktop" transform="translate(0.000000, -0.000300)">
            <path d="M44,3.008 C21.396,3.008 3.007,21.397 3.007,44.001 C3.007,66.605 21.396,84.994 44,84.994 C66.603,84.994 84.992,66.605 84.992,44.001 C84.992,21.397 66.603,3.008 44,3.008 M44,88.001 C19.738,88.001 0,68.263 0,44.001 C0,19.738 19.738,0 44,0 C68.261,0 88,19.738 88,44.001 C88,68.263 68.261,88.001 44,88.001" id="Fill-1" fill="#242424"></path>
            <path d="M43.998,35.9796 C39.502,35.9796 35.845,39.5456 35.845,43.9366 C35.845,48.3296 39.502,51.8956 43.998,51.8956 C48.496,51.8956 52.153,48.3296 52.153,43.9366 C52.153,39.5456 48.496,35.9796 43.998,35.9796" id="Fill-4" fill="#242424"></path>
            <path d="M43.998,35.9796 C39.502,35.9796 35.845,39.5456 35.845,43.9366 C35.845,48.3296 39.502,51.8956 43.998,51.8956 C48.496,51.8956 52.153,48.3296 52.153,43.9366 C52.153,39.5456 48.496,35.9796 43.998,35.9796" id="Fill-6" fill="#242424"></path>
            <path d="M43.998,54.9036 C37.844,54.9036 32.838,49.9836 32.838,43.9366 C32.838,37.8906 37.844,32.9716 43.998,32.9716 C50.153,32.9716 55.16,37.8906 55.16,43.9366 C55.16,49.9836 50.153,54.9036 43.998,54.9036 M43.998,26.3236 C31.089,26.3236 20.068,33.6276 15.6,43.9366 L15.6,43.9366 C20.068,54.2476 31.089,61.5516 43.998,61.5516 C56.906,61.5516 67.932,54.2476 72.398,43.9366 C67.932,33.6276 56.92,26.3236 43.998,26.3236" id="Fill-8" fill="#FEEB29"></path>
        </g>
    </g>
</svg>