<svg width="16" height="16" viewBox="0 0 16 16" fill="none" xmlns="http://www.w3.org/2000/svg">
<g clip-path="url(#clip0_425_1761)">
<path fill-rule="evenodd" clip-rule="evenodd" d="M8 0C3.58171 0 0 3.58171 0 8C0 12.4183 3.58171 16 8 16C12.4183 16 16 12.4183 16 8C16 3.58171 12.4183 0 8 0ZM1.48818 8C1.48818 4.40362 4.40362 1.48818 8 1.48818C11.5964 1.48818 14.5118 4.40362 14.5118 8C14.5118 11.5964 11.5964 14.5118 8 14.5118C4.40362 14.5118 1.48818 11.5964 1.48818 8ZM8.00016 5.39527C8.51394 5.39527 8.93045 4.97877 8.93045 4.46499C8.93045 3.95121 8.51394 3.5347 8.00016 3.5347C7.48638 3.5347 7.06987 3.95121 7.06987 4.46499C7.06987 4.97877 7.48638 5.39527 8.00016 5.39527ZM8.00018 6.88368C8.4112 6.88368 8.74434 7.21681 8.74434 7.62783V11.7208C8.74434 12.1318 8.4112 12.465 8.00018 12.465C7.58917 12.465 7.25603 12.1318 7.25603 11.7208V7.62783C7.25603 7.21681 7.58917 6.88368 8.00018 6.88368Z" fill="#0F71F0"/>
</g>
<defs>
<clipPath id="clip0_425_1761">
<rect width="16" height="16" fill="white"/>
</clipPath>
</defs>
</svg>
