<svg width="80" height="80" viewBox="0 0 80 80" fill="none" xmlns="http://www.w3.org/2000/svg">
<g clip-path="url(#clip0_496_20677)">
<circle cx="40" cy="40" r="38.5" stroke="#242424" stroke-width="3"/>
<path d="M40.8266 42.3992L37.8045 45.4208C36.5445 46.6806 34.3904 45.7882 34.3904 44.0065V25.449C34.3904 22.6876 36.629 20.449 39.3904 20.449H56.5522C59.3136 20.449 61.5522 22.6876 61.5522 25.449V37.3992C61.5522 40.1607 59.3136 42.3992 56.5522 42.3992H40.8266Z" fill="#FEEB29"/>
<path d="M45.6094 28.3017C45.5905 26.5808 47.2998 25.2897 48.9456 25.7175C50.3627 26.1102 51.2051 27.5595 50.8351 28.9848C50.4518 30.6105 48.3649 31.0881 48.237 32.9056V33.0587M48.237 37.34V37.4811M29.2061 31.1657L23.4478 31.1657C20.6863 31.1657 18.4478 33.4043 18.4478 36.1657V48.1159C18.4478 50.8774 20.6863 53.1159 23.4478 53.1159H39.191L42.2131 56.1375C43.4731 57.3973 45.6272 56.5049 45.6272 54.7232V47.5814M23.7797 41.9478V42.5121M29.1537 41.9478V42.5121M40.8266 42.3992L37.8045 45.4208C36.5445 46.6806 34.3904 45.7882 34.3904 44.0065V25.449C34.3904 22.6876 36.629 20.449 39.3904 20.449H56.5522C59.3136 20.449 61.5522 22.6876 61.5522 25.449V37.3992C61.5522 40.1607 59.3136 42.3992 56.5522 42.3992H40.8266Z" stroke="#242424" stroke-width="3" stroke-linecap="square"/>
</g>
<defs>
<clipPath id="clip0_496_20677">
<rect width="80" height="80" fill="white"/>
</clipPath>
</defs>
</svg>
