<svg width="40" height="40" viewBox="0 0 40 40" fill="none" xmlns="http://www.w3.org/2000/svg">
<path fill-rule="evenodd" clip-rule="evenodd" d="M20.0493 36.9201C28.0989 32.0413 33.0887 23.1917 33.0887 13.7711H33.0987V7.26143L20.0693 3.02162H20.0393L7.00987 7.26143V13.7711C7.00987 23.2017 11.9997 32.0503 20.0493 36.9201ZM20.8693 0.122745L34.3187 4.50155C35.3786 4.85154 36.0986 5.8325 36.0886 6.95245V13.7611C36.0886 24.3317 30.4488 34.2413 21.3592 39.63L21.3492 39.64C21.344 39.6458 21.3388 39.6485 21.3335 39.6513C21.3288 39.6538 21.324 39.6563 21.3192 39.661C20.9293 39.88 20.4893 40 20.0493 40C19.5993 40 19.1593 39.88 18.7594 39.661C18.7594 39.661 18.7494 39.651 18.7394 39.651C18.7394 39.64 18.7294 39.64 18.7294 39.64C9.63975 34.2503 4 24.3317 4 13.7711V6.95245C4 5.8325 4.71997 4.85154 5.77992 4.50155L19.2493 0.122745C19.3493 0.091746 19.4693 0.0617473 19.5893 0.0517477C19.9793 -0.0172492 20.1193 -0.0172492 20.5093 0.0517477C20.6393 0.0617473 20.7593 0.0827464 20.8693 0.122745ZM13.0296 19.4711C13.6096 18.8811 14.5595 18.8811 15.1495 19.4711L17.7494 22.072L24.9591 14.8623C25.5391 14.2713 26.489 14.2713 27.079 14.8623C27.669 15.4423 27.669 16.3912 27.079 16.9822L19.2993 24.7609C18.8893 25.1708 18.3394 25.4018 17.7594 25.4018H17.7494H17.7394C17.1594 25.4018 16.6094 25.1708 16.1995 24.7609L13.0296 21.591C12.4396 21.011 12.4396 20.0611 13.0296 19.4711Z" fill="#0F71F0"/>
<mask id="mask0_639_7336" style="mask-type:luminance" maskUnits="userSpaceOnUse" x="4" y="0" width="33" height="40">
<path fill-rule="evenodd" clip-rule="evenodd" d="M20.0493 36.9201C28.0989 32.0413 33.0887 23.1917 33.0887 13.7711H33.0987V7.26143L20.0693 3.02162H20.0393L7.00987 7.26143V13.7711C7.00987 23.2017 11.9997 32.0503 20.0493 36.9201ZM20.8693 0.122745L34.3187 4.50155C35.3786 4.85154 36.0986 5.8325 36.0886 6.95245V13.7611C36.0886 24.3317 30.4488 34.2413 21.3592 39.63L21.3492 39.64C21.344 39.6458 21.3388 39.6485 21.3335 39.6513C21.3288 39.6538 21.324 39.6563 21.3192 39.661C20.9293 39.88 20.4893 40 20.0493 40C19.5993 40 19.1593 39.88 18.7594 39.661C18.7594 39.661 18.7494 39.651 18.7394 39.651C18.7394 39.64 18.7294 39.64 18.7294 39.64C9.63975 34.2503 4 24.3317 4 13.7711V6.95245C4 5.8325 4.71997 4.85154 5.77992 4.50155L19.2493 0.122745C19.3493 0.091746 19.4693 0.0617473 19.5893 0.0517477C19.9793 -0.0172492 20.1193 -0.0172492 20.5093 0.0517477C20.6393 0.0617473 20.7593 0.0827464 20.8693 0.122745ZM13.0296 19.4711C13.6096 18.8811 14.5595 18.8811 15.1495 19.4711L17.7494 22.072L24.9591 14.8623C25.5391 14.2713 26.489 14.2713 27.079 14.8623C27.669 15.4423 27.669 16.3912 27.079 16.9822L19.2993 24.7609C18.8893 25.1708 18.3394 25.4018 17.7594 25.4018H17.7494H17.7394C17.1594 25.4018 16.6094 25.1708 16.1995 24.7609L13.0296 21.591C12.4396 21.011 12.4396 20.0611 13.0296 19.4711Z" fill="white"/>
</mask>
<g mask="url(#mask0_639_7336)">
<rect x="-94.2856" y="-94.2856" width="228.571" height="228.571" rx="20" fill="#0F71F0"/>
</g>
</svg>
