<svg width="88" height="88" viewBox="0 0 88 88" fill="none" xmlns="http://www.w3.org/2000/svg">
<path fill-rule="evenodd" clip-rule="evenodd" d="M60.7137 28.0407L44.4037 22.7327C44.3707 22.7217 44.3357 22.7327 44.3027 22.7237C44.2007 22.6987 44.1027 22.6987 43.9987 22.6987C43.8937 22.6987 43.7957 22.6987 43.6947 22.7247C43.6617 22.7327 43.6277 22.7217 43.5947 22.7327L27.2867 28.0407C26.7497 28.2157 26.3857 28.7147 26.3857 29.2807V37.5407C26.3857 49.6967 32.8797 61.1007 43.3337 67.3027C43.3367 67.3047 43.3417 67.3037 43.3447 67.3057C43.3487 67.3077 43.3497 67.3127 43.3537 67.3147C43.5537 67.4297 43.7767 67.4857 43.9997 67.4857C44.2217 67.4857 44.4447 67.4287 44.6447 67.3147C44.6487 67.3127 44.6497 67.3077 44.6537 67.3057C44.6567 67.3037 44.6617 67.3047 44.6647 67.3027C55.1197 61.0997 61.6137 49.6947 61.6137 37.5407V29.2807C61.6137 28.7147 61.2507 28.2157 60.7137 28.0407Z" fill="#FEEB29"/>
<path fill-rule="evenodd" clip-rule="evenodd" d="M27.8896 29.4259V37.5409C27.8896 49.1309 34.0606 60.0049 44.0006 65.9499C53.9686 59.9529 60.1106 49.1019 60.1106 37.5409V29.4259L44.0996 24.2149C44.0776 24.2119 44.0526 24.2079 44.0286 24.2029H43.9636C43.9456 24.2069 43.9266 24.2099 43.9066 24.2119L27.8896 29.4259ZM43.9986 68.9899C43.5086 68.9899 43.0256 68.8619 42.6036 68.6179C42.6016 68.6169 42.5996 68.6159 42.5976 68.6149C42.5876 68.6089 42.5766 68.6019 42.5656 68.5959C31.6576 62.1259 24.8816 50.2259 24.8816 37.5409V29.2809C24.8816 28.0629 25.6606 26.9899 26.8196 26.6109L43.1296 21.3019C43.2306 21.2689 43.3556 21.2449 43.4786 21.2329C43.8746 21.1609 44.0666 21.1599 44.4816 21.2269C44.5836 21.2339 44.7186 21.2539 44.8666 21.3019L61.1786 26.6099C61.1796 26.6109 61.1796 26.6109 61.1806 26.6109C62.3396 26.9899 63.1186 28.0629 63.1186 29.2809V37.5409C63.1186 50.2239 56.3406 62.1239 45.4326 68.5959C45.4206 68.6029 45.4086 68.6099 45.3966 68.6169C45.3706 68.6319 45.3446 68.6459 45.3166 68.6599C44.9646 68.8629 44.4836 68.9899 43.9986 68.9899Z" fill="#242424"/>
<path fill-rule="evenodd" clip-rule="evenodd" d="M52.2848 39.0804C51.6978 38.4934 50.7458 38.4934 50.1578 39.0804L41.2058 48.0324L37.8418 44.6684C37.2538 44.0814 36.3028 44.0814 35.7148 44.6684C35.1278 45.2564 35.1278 46.2084 35.7148 46.7954L39.5538 50.6334C40.0078 51.0874 40.6038 51.3134 41.1998 51.3134C41.2038 51.3134 41.2078 51.3124 41.2118 51.3124C41.2118 51.3124 41.2118 51.3124 41.2128 51.3124C41.8078 51.3124 42.4038 51.0864 42.8588 50.6334L52.2848 41.2074C52.8718 40.6194 52.8718 39.6674 52.2848 39.0804Z" fill="#242424"/>
<path fill-rule="evenodd" clip-rule="evenodd" d="M44 3.008C21.396 3.008 3.008 21.397 3.008 44C3.008 66.604 21.396 84.993 44 84.993C66.604 84.993 84.992 66.604 84.992 44C84.992 21.397 66.604 3.008 44 3.008ZM44 88C19.738 88 0 68.262 0 44C0 19.738 19.738 0 44 0C68.262 0 88 19.738 88 44C88 68.262 68.262 88 44 88Z" fill="#242424"/>
</svg>
