<svg width="20" height="20" viewBox="0 0 20 20" fill="none" xmlns="http://www.w3.org/2000/svg">
<path d="M11.8325 10.0001L19.6203 2.21215C20.1271 1.70557 20.1271 0.88651 19.6203 0.379933C19.1137 -0.126644 18.2947 -0.126644 17.7881 0.379933L10.0001 8.16793L2.21233 0.379933C1.70552 -0.126644 0.886688 -0.126644 0.380111 0.379933C-0.126704 0.88651 -0.126704 1.70557 0.380111 2.21215L8.16787 10.0001L0.380111 17.7881C-0.126704 18.2947 -0.126704 19.1138 0.380111 19.6204C0.632569 19.8731 0.964513 20 1.29622 20C1.62793 20 1.95963 19.8731 2.21233 19.6204L10.0001 11.8324L17.7881 19.6204C18.0408 19.8731 18.3725 20 18.7042 20C19.0359 20 19.3676 19.8731 19.6203 19.6204C20.1271 19.1138 20.1271 18.2947 19.6203 17.7881L11.8325 10.0001Z" fill="#242424"/>
<mask id="mask0_170_18177" style="mask-type:luminance" maskUnits="userSpaceOnUse" x="0" y="0" width="21" height="20">
<path d="M11.8325 10.0001L19.6203 2.21215C20.1271 1.70557 20.1271 0.88651 19.6203 0.379933C19.1137 -0.126644 18.2947 -0.126644 17.7881 0.379933L10.0001 8.16793L2.21233 0.379933C1.70552 -0.126644 0.886688 -0.126644 0.380111 0.379933C-0.126704 0.88651 -0.126704 1.70557 0.380111 2.21215L8.16787 10.0001L0.380111 17.7881C-0.126704 18.2947 -0.126704 19.1138 0.380111 19.6204C0.632569 19.8731 0.964513 20 1.29622 20C1.62793 20 1.95963 19.8731 2.21233 19.6204L10.0001 11.8324L17.7881 19.6204C18.0408 19.8731 18.3725 20 18.7042 20C19.0359 20 19.3676 19.8731 19.6203 19.6204C20.1271 19.1138 20.1271 18.2947 19.6203 17.7881L11.8325 10.0001Z" fill="white"/>
</mask>
<g mask="url(#mask0_170_18177)">
<rect x="-58.9656" y="-58.9656" width="137.931" height="137.931" rx="20" fill="#242424"/>
</g>
</svg>
