<?xml version="1.0" encoding="UTF-8"?>
<svg width="31px" height="30px" viewBox="0 0 31 30" version="1.1" xmlns="http://www.w3.org/2000/svg" xmlns:xlink="http://www.w3.org/1999/xlink">
    <title>icon_facebook</title>
    <g id="Navigations-and-Footers" stroke="none" stroke-width="1" fill="none" fill-rule="evenodd">
        <g id="Footers" transform="translate(-1799.000000, -3308.000000)" fill="#242424" fill-rule="nonzero">
            <g id="Desktop" transform="translate(90.000000, 160.000000)">
                <g id="Footer_Breadcrumbs_D" transform="translate(1530.000000, 188.000000)">
                    <g id="Footer" transform="translate(0.000000, 1884.000000)">
                        <g id="Social" transform="translate(70.000000, 1076.000000)">
                            <g id="Facebook" transform="translate(109.876416, 0.000492)">
                                <path d="M28.2596943,0 L1.65092013,0 C0.739761944,0 0,0.737213115 0,1.64852459 L0,28.2186885 C0,29.13 0.739761944,29.8681967 1.65092013,29.8681967 L15.9762969,29.8681967 L15.9762969,18.3014754 L12.0785099,18.3014754 L12.0785099,13.7931148 L15.9762969,13.7931148 L15.9762969,10.4685246 C15.9762969,6.61131148 18.3349653,4.50983607 21.7816058,4.50983607 C23.4340035,4.50983607 24.8509776,4.63327869 25.2642002,4.68688525 L25.2642002,8.71868852 L22.8735181,8.71967213 C20.9994874,8.71967213 20.6379792,9.60934426 20.6379792,10.9140984 L20.6379792,13.7916393 L25.109057,13.7916393 L24.5244382,18.2995082 L20.6374867,18.2995082 L20.6374867,29.8667213 L28.2592018,29.8667213 C29.171345,29.8667213 29.9115995,29.127541 29.9115995,28.2186885 L29.9115995,1.64754098 C29.9111069,0.737213115 29.1718375,0 28.2596943,0 Z" id="icon_facebook"></path>
                            </g>
                        </g>
                    </g>
                </g>
            </g>
        </g>
    </g>
</svg>