<?xml version="1.0" encoding="UTF-8"?>
<svg width="60px" height="60px" viewBox="0 0 60 60" version="1.1" xmlns="http://www.w3.org/2000/svg" xmlns:xlink="http://www.w3.org/1999/xlink">
    <title>icon_experience_mobile</title>
    <g id="HP_Current-Copy" stroke="none" stroke-width="1" fill="none" fill-rule="evenodd">
        <g id="icon_experience_mobile">
            <path d="M30,57.9491142 C14.5881818,57.9491142 2.05022727,45.4113021 2.05022727,29.9996591 C2.05022727,14.588016 14.5881818,2.05020397 30,2.05020397 C45.4111364,2.05020397 57.9490909,14.588016 57.9490909,29.9996591 C57.9490909,45.4113021 45.4111364,57.9491142 30,57.9491142 M30,0 C13.4577273,0 0,13.4575743 0,29.9996591 C0,46.5424257 13.4577273,60 30,60 C46.5415909,60 60,46.5424257 60,29.9996591 C60,13.4575743 46.5415909,0 30,0" id="Fill-5" fill="#242424"></path>
            <path d="M20.7471136,20.1356348 L18.2005227,17.6661174 C17.6768864,17.1540778 16.8368864,17.1663504 16.32825,17.6933898 L9.14393182,25.1339871 C8.67484091,25.620118 8.64825,26.382382 9.08256818,26.9005579 L11.31075,29.702117 C11.8146136,30.3021102 12.7275682,30.3341553 13.2716591,29.7702981 L20.7743864,21.9969773 C21.2789318,21.4747105 21.2666591,20.6429018 20.7471136,20.1356348" id="Fill-1" fill="#FEEB29"></path>
            <path d="M39.2522045,20.1356348 L41.7987955,17.6661174 C42.3224318,17.1540778 43.1624318,17.1663504 43.6710682,17.6933898 L50.8553864,25.1339871 C51.3244773,25.620118 51.3510682,26.382382 50.91675,26.9005579 L48.6885682,29.702117 C48.1847045,30.3021102 47.27175,30.3341553 46.7276591,29.7702981 L39.2249318,21.9969773 C38.7203864,21.4747105 38.7326591,20.6429018 39.2522045,20.1356348" id="Fill-3" fill="#FEEB29"></path>
            <path d="M50.1139091,26.262247 L47.9034545,29.04267 C47.8298182,29.1299417 47.7370909,29.1463052 47.6873182,29.1483506 C47.6484545,29.1442597 47.5455,29.1401689 47.4650455,29.0576698 L39.963,21.2857127 C39.8511818,21.1698049 39.8532273,20.9829888 39.9677727,20.8698083 L42.5157273,18.3989273 C42.5886818,18.3293826 42.6834545,18.3321099 42.7257273,18.3150646 C42.7816364,18.3164282 42.8627727,18.3327917 42.9336818,18.4057454 L50.118,25.8463427 C50.2236818,25.9554323 50.2284545,26.1245213 50.1139091,26.262247 L50.1139091,26.262247 Z M40.6366364,35.5335053 L34.7395909,28.3744957 C34.0714091,27.5631413 33.0861818,27.0736014 32.0368636,27.0306474 C30.9773182,26.9883751 29.9641364,27.3947342 29.2223182,28.1597255 L25.9857273,31.5885501 C25.7389091,31.8503653 25.4068636,31.9778639 25.0461818,31.9874092 C24.6861818,31.9826366 24.3555,31.8326383 24.1148182,31.5653686 C23.6716364,31.0717378 23.6859545,30.3108374 24.1455,29.8335701 L29.9082273,23.8534108 C30.5218636,23.2213725 31.3782273,22.8593311 32.2577727,22.8593311 L32.9491364,22.8593311 L38.0743636,22.8593311 C38.2373182,22.8593311 38.3893636,22.8177407 38.5264091,22.7502415 L45.3827727,29.8540244 C45.3268636,29.8976603 45.2736818,29.9481142 45.2259545,30.0053863 L40.6366364,35.5335053 Z M39.7086818,39.239145 C39.2743636,39.5950501 38.6300455,39.5350507 38.2755,39.1055102 L34.9918636,35.0855558 C34.9918636,35.0855558 34.9911818,35.084874 34.9905,35.084874 L33.3575455,33.0803514 C32.9995909,32.6412654 32.3539091,32.5751298 31.9155,32.9330803 C31.4757273,33.2910308 31.4095909,33.9367053 31.7675455,34.3757912 L33.3998182,36.3789502 C33.4011818,36.3803139 33.4018636,36.3823593 33.4032273,36.3837229 L33.6786818,36.7212191 L35.9682273,39.5309599 C36.1420909,39.7409575 36.2225455,40.0068636 36.1966364,40.2789059 C36.1707273,40.5502665 36.0405,40.7957182 35.8298182,40.9695799 C35.6184545,41.1427597 35.3518636,41.2252588 35.0818636,41.1979864 C34.8105,41.1720776 34.5643636,41.0418518 34.3973182,40.8373087 L31.2364091,36.9346257 C31.2145909,36.9080351 31.1886818,36.886899 31.1648182,36.8630356 L30.5150455,36.0612266 C30.1598182,35.6200952 29.5134545,35.5532778 29.0736818,35.9105465 C28.6332273,36.2657697 28.5664091,36.912126 28.9223182,37.3518937 L32.0893636,41.2613948 C32.2632273,41.4713924 32.3436818,41.7372984 32.3177727,42.008659 C32.2918636,42.2807014 32.1616364,42.5261531 31.9502727,42.7000148 C31.5173182,43.0572834 30.8709545,42.9966023 30.5082273,42.5547892 L29.8332273,41.7488892 C29.8161818,41.7270713 29.8052727,41.7025261 29.7875455,41.68139 L27.5150455,38.9664208 C27.1516364,38.5314258 26.5059545,38.4741537 26.0709545,38.8382405 C25.6366364,39.2016454 25.5793636,39.8480017 25.9427727,40.282315 L26.6136818,41.0848059 C26.6307273,41.1079874 26.6436818,41.1332144 26.6620909,41.1557141 L28.2561818,43.0600107 C28.3952727,43.2584175 28.4620909,43.4950057 28.4389091,43.7390939 C28.4123182,44.0111362 28.2820909,44.2559062 28.0714091,44.429086 C27.8614091,44.6029477 27.6002727,44.6847649 27.3234545,44.6574925 C27.0520909,44.6315837 26.8073182,44.5013579 26.6314091,44.2879513 L14.7732273,30.0053863 C14.7255,29.9481142 14.6723182,29.8976603 14.6164091,29.8540244 L21.4734545,22.7495597 C21.6105,22.8177407 21.7625455,22.8593311 21.9255,22.8593311 L28.0189091,22.8593311 L22.6686818,28.4113135 C21.4666364,29.6590266 21.4311818,31.6458222 22.5889091,32.9358075 C23.208,33.6244361 24.0950455,34.0267042 25.0216364,34.0376132 C25.9393636,34.0321587 26.8420909,33.6687538 27.4775455,32.9958069 L30.7039091,29.5778912 C31.0345909,29.2369859 31.4818636,29.071306 31.9523182,29.0794877 C32.4268636,29.0985784 32.8543636,29.3106215 33.1564091,29.6781173 L39.8266364,37.7759798 C39.8314091,37.7814343 39.8361818,37.7875706 39.8409545,37.7930251 L39.8477727,37.8012068 C40.2057273,38.2362019 40.1436818,38.8805127 39.7086818,39.239145 L39.7086818,39.239145 Z M12.3118636,29.1483506 C12.2627727,29.1463052 12.1700455,29.1299417 12.1127727,29.0638061 L9.86822727,26.2411109 C9.77072727,26.1245213 9.77618182,25.9554323 9.88118182,25.8463427 L17.0661818,18.4050636 C17.1364091,18.3327917 17.2175455,18.3164282 17.2741364,18.3150646 L17.2775455,18.3150646 C17.3341364,18.3150646 17.4132273,18.3307462 17.4868636,18.4023363 L20.0314091,20.8698083 C20.1459545,20.9829888 20.148,21.1691231 20.0368636,21.2850309 L12.5341364,29.0576698 C12.4543636,29.1401689 12.3473182,29.1449415 12.3118636,29.1483506 L12.3118636,29.1483506 Z M51.5934545,24.4220407 L44.4098182,16.9821252 C43.9727727,16.5287213 43.3850455,16.2737242 42.7557273,16.2648606 C42.0943636,16.2478154 41.5311818,16.4932671 41.0852727,16.9303076 L38.5386818,19.3991432 C38.5373182,19.4005068 38.5366364,19.4011886 38.5359545,19.4018704 C38.1370909,19.7911842 37.9175455,20.2923149 37.8582273,20.8084454 L32.9491364,20.8084454 L32.2577727,20.8084454 L22.1416364,20.8084454 C22.0816364,20.2923149 21.8620909,19.7911842 21.4632273,19.4018704 C21.4625455,19.4011886 21.4618636,19.4005068 21.4605,19.3991432 L18.9173182,16.9330349 C18.4673182,16.4925853 17.8557273,16.2484972 17.2434545,16.2648606 C16.6141364,16.2737242 16.0270909,16.5287213 15.5900455,16.9814434 L8.40640909,24.4220407 C7.56981818,25.2886217 7.52277273,26.6372428 8.28027273,27.5385962 L10.5255,30.3612913 C10.9523182,30.8699219 11.5775455,31.1746912 12.2402727,31.1971909 C12.2675455,31.1978728 12.2948182,31.1985546 12.3214091,31.1985546 C12.5716364,31.1985546 12.8150455,31.1474188 13.0495909,31.071056 C13.0870909,31.1562823 13.1320909,31.2394632 13.1948182,31.3151441 L25.0516364,45.5949819 C25.5725455,46.2283838 26.3102727,46.6204248 27.1270909,46.698833 C27.2273182,46.7083783 27.3275455,46.7138328 27.4270909,46.7138328 C28.1375455,46.7138328 28.8207273,46.4690629 29.3757273,46.0115681 C29.7793636,45.6795264 30.0711818,45.2540767 30.2600455,44.7822638 C30.5968636,44.9043079 30.9473182,44.9820343 31.3039091,44.9820343 C31.9918636,44.9820343 32.6832273,44.7522642 33.2552727,44.281815 C33.6657273,43.943637 33.9527727,43.5147782 34.1375455,43.0525108 C34.4750455,43.173873 34.8255,43.2515994 35.1820909,43.2515994 C35.8707273,43.2515994 36.5627727,43.0231929 37.1341364,42.5513801 C37.5452727,42.2132021 37.8316364,41.7843434 38.0170909,41.3213941 C38.3539091,41.4427563 38.7050455,41.5211645 39.0616364,41.5211645 C39.7502727,41.5211645 40.4423182,41.2920762 41.013,40.821627 C42.0868636,39.9366371 42.3902727,38.4741537 41.8734545,37.2543948 L46.8043636,31.3151441 C46.8670909,31.2394632 46.9120909,31.1562823 46.9495909,31.071056 C47.1841364,31.1474188 47.4275455,31.1985546 47.6777727,31.1985546 C47.7050455,31.1985546 47.7316364,31.1978728 47.7589091,31.1971909 C48.4216364,31.1746912 49.0468636,30.8699219 49.4914091,30.3401552 L51.7011818,27.5597323 C52.4764091,26.6372428 52.4293636,25.2886217 51.5934545,24.4220407 L51.5934545,24.4220407 Z" id="Fill-8" fill="#242424"></path>
        </g>
    </g>
</svg>