<svg width="40" height="40" viewBox="0 0 40 40" fill="none" xmlns="http://www.w3.org/2000/svg">
<path fill-rule="evenodd" clip-rule="evenodd" d="M34.2551 20.8461C34.2559 20.8325 34.2559 20.8189 34.2559 20.8061V14.1268C34.2559 11.1079 33.3125 8.22492 31.5283 5.78794C31.1585 5.28378 30.4514 5.17435 29.9457 5.54416C29.4416 5.91322 29.3329 6.62114 29.7019 7.12605C31.2 9.17134 31.9917 11.5925 31.9917 14.1268V20.7049L31.9909 20.7117L31.9891 20.7262C31.9878 20.7367 31.9866 20.747 31.9857 20.757C31.9797 20.8197 31.9797 20.8831 31.985 20.9457C31.9864 20.9646 31.9891 20.9849 31.9919 21.0058L31.9925 21.0106V25.8717C31.9925 25.9604 31.9862 26.0477 31.98 26.135L31.9782 26.1608L31.9646 26.3948C31.9623 26.4302 31.9631 26.4665 31.9646 26.5019C31.9585 26.5563 31.954 26.6099 31.951 26.6536C31.9367 26.8763 31.9208 27.0982 31.8929 27.3261C31.8665 27.5601 31.8272 27.7902 31.7872 28.0129L31.7668 28.1291C31.7517 28.2159 31.7359 28.3027 31.7178 28.3895C31.6521 28.6944 31.5736 28.9933 31.4868 29.2831L31.4385 29.4491C31.3314 29.7918 31.2061 30.1336 31.0551 30.4921C30.4657 31.8861 29.6212 33.1412 28.557 34.2091L28.5057 34.2635C28.271 34.4959 28.0265 34.7155 27.7661 34.9344L27.6423 35.0438C27.4212 35.2242 27.191 35.3918 26.9578 35.5555L26.708 35.7359C26.5291 35.8552 26.3427 35.9638 26.1057 36.1012L25.9427 36.1986C25.8665 36.2453 25.7902 36.2914 25.7125 36.3337C25.6103 36.388 25.5054 36.4369 25.3997 36.4861L25.3996 36.4862L25.3996 36.4862L25.3995 36.4862L25.3994 36.4862L25.3993 36.4863L25.3819 36.4944L25.0559 36.6491L25.0432 36.6553C24.9192 36.7159 24.7956 36.7762 24.6642 36.8303C24.5978 36.8582 24.5298 36.8816 24.4619 36.905L24.1744 37.0099C23.9774 37.0846 23.7797 37.1593 23.5781 37.2204L23.3057 37.2899C23.0234 37.3684 22.7419 37.4461 22.4038 37.511L22.2514 37.5344C21.9366 37.591 21.6204 37.6446 21.2959 37.6763C21.2387 37.6822 21.1797 37.6841 21.121 37.686H21.121L21.1208 37.686L21.0951 37.6869L20.6876 37.7095L20.6499 37.7121H20.6498H20.6498H20.6497H20.6497H20.6496C20.4775 37.7241 20.3075 37.736 20.1683 37.7367C20.1525 37.7359 20.0913 37.7337 20.077 37.7337C20.0242 37.7306 19.9713 37.7276 19.9268 37.7269C19.6461 37.7216 19.3653 37.7118 19.0808 37.6869C18.9354 37.6749 18.792 37.655 18.6494 37.6351L18.6196 37.631L18.2959 37.5895L18.2811 37.588C18.2565 37.5855 18.2318 37.583 18.2098 37.5804C18.1781 37.5721 18.1472 37.5654 18.1178 37.5601C12.8966 36.6793 8.87774 32.4038 8.34265 27.1563C8.32302 26.9699 8.30491 26.7827 8.29434 26.588L8.28604 26.5034C8.28755 26.4687 8.28831 26.434 8.2868 26.3985L8.27774 26.2182L8.27592 26.1839C8.27042 26.0806 8.26491 25.9772 8.26491 25.8733V21.111C8.26868 21.0808 8.27246 21.0468 8.27397 21.0114C8.27472 20.9797 8.27472 20.948 8.27397 20.917C8.27246 20.8846 8.26944 20.8498 8.26416 20.8144V14.1283C8.26416 7.58643 13.5864 2.26416 20.1276 2.26416C20.7525 2.26416 21.2597 1.75774 21.2597 1.13208C21.2597 0.506416 20.7525 0 20.1276 0C12.3381 0 6 6.33812 6 14.1283V20.911C6 20.9321 6.00075 20.9525 6.00151 20.9721C6.00075 20.9857 6.00075 20.9993 6.00075 21.0121V25.8733C6.00075 26.028 6.0083 26.1812 6.0166 26.3351L6.01736 26.354C6.01358 26.3963 6.01283 26.4393 6.01434 26.4816C6.0166 26.5517 6.02264 26.6197 6.03321 26.7223C6.04679 26.9487 6.06717 27.1736 6.09132 27.3917C6.72528 33.6197 11.4815 38.7035 17.6581 39.7782C17.6959 39.7895 17.7336 39.7978 17.7706 39.8038C17.8642 39.8197 17.957 39.8303 18.0506 39.8401L18.3072 39.8733C18.5004 39.9005 18.6929 39.9269 18.8861 39.9427C19.2204 39.9721 19.5532 39.9842 19.9238 39.9925C19.9834 39.9971 20.043 40.0001 20.1291 40.0001C20.3713 40.0001 20.6076 39.9842 20.8446 39.9676L21.1713 39.9495C21.2883 39.9457 21.4061 39.9412 21.5193 39.9299C21.9034 39.8922 22.28 39.8303 22.7057 39.7548C22.7691 39.7457 22.8325 39.7367 22.8951 39.7246C23.24 39.6559 23.5766 39.5646 23.9125 39.4718L24.0046 39.4484C24.0815 39.4295 24.1585 39.4106 24.2355 39.3872C24.4861 39.311 24.7283 39.2204 24.9706 39.1291L25.2121 39.0416C25.3208 39.0031 25.4295 38.9638 25.5321 38.9216C25.7065 38.8491 25.8748 38.7691 26.0423 38.6869L26.3397 38.5457C26.4868 38.4771 26.634 38.4076 26.7797 38.3306C26.8929 38.2695 27.0038 38.2038 27.1132 38.1374L27.2982 38.0272C27.5223 37.8959 27.7465 37.7646 27.9646 37.6197C28.0348 37.5729 28.1019 37.5238 28.1699 37.474L28.2619 37.4069C28.5382 37.2114 28.8114 37.0121 29.0823 36.7903L29.2287 36.6627C29.5299 36.4106 29.8204 36.148 30.151 35.8174C31.4317 34.5321 32.437 33.037 33.151 31.3472C33.32 30.9472 33.4702 30.5367 33.597 30.1336L33.6536 29.9389C33.76 29.585 33.8544 29.2265 33.9314 28.8619C33.9527 28.7646 33.9705 28.6668 33.9884 28.5683L33.9955 28.5291L34.0159 28.4167C34.065 28.1412 34.1102 27.865 34.1419 27.5933C34.1736 27.3329 34.1933 27.0687 34.2106 26.8038C34.2106 26.8016 34.2125 26.7815 34.2143 26.7613L34.2144 26.7608L34.2144 26.7607C34.2163 26.7404 34.2182 26.72 34.2182 26.7178C34.2265 26.6423 34.234 26.5676 34.237 26.4906C34.2385 26.4484 34.2378 26.4061 34.2348 26.3646L34.2378 26.3163L34.2398 26.2832C34.2483 26.1464 34.2567 26.01 34.2567 25.8717V20.908C34.2567 20.8986 34.2565 20.8893 34.2563 20.8801L34.2551 20.8461ZM25.0504 3.31653C25.6979 3.6154 26.3138 3.96635 26.8806 4.3588C27.0775 4.4954 27.3017 4.56106 27.5243 4.56106C27.8828 4.56106 28.236 4.39125 28.4557 4.07427C28.8119 3.56031 28.6836 2.85465 28.1704 2.49917C27.4964 2.03125 26.7659 1.6154 25.9998 1.26068C25.4285 0.99653 24.7583 1.24634 24.4979 1.81389C24.2353 2.38144 24.4828 3.05465 25.0504 3.31653ZM21.9932 20.8997L21.9932 20.891C21.9932 20.881 21.9933 20.8709 21.9939 20.8604V15.2763C21.9939 14.2227 21.1728 13.3502 20.1637 13.3306C19.6664 13.3351 19.1796 13.5163 18.8249 13.8642C18.4633 14.2196 18.2641 14.6921 18.2641 15.1947V20.9185C18.2641 20.9321 18.2641 20.9449 18.2633 20.9578V24.7238C18.2633 25.7774 19.0845 26.6499 20.0928 26.6695C20.6203 26.6567 21.0784 26.4831 21.4324 26.1359C21.7932 25.7804 21.9932 25.308 21.9932 24.8053V20.8997ZM17.2377 12.2491C18.0226 11.4778 19.0996 11.0347 20.2052 11.0664C22.4407 11.1095 24.2581 12.9978 24.2581 15.2763V20.8023C24.2603 20.8295 24.2611 20.8559 24.2611 20.8823C24.2611 20.9117 24.2596 20.9419 24.2573 20.9714V24.8053C24.2573 25.92 23.8173 26.9661 23.0188 27.751C22.2513 28.505 21.1992 28.9336 20.123 28.9336H20.1228C20.0995 28.9336 20.0754 28.9336 20.052 28.9329C17.8166 28.8906 15.9992 27.0023 15.9992 24.7238V21.0159C15.9969 20.9887 15.9962 20.9623 15.9962 20.9359C15.9962 20.9065 15.9977 20.877 15.9999 20.8468V15.1947C15.9999 14.08 16.4399 13.034 17.2377 12.2491ZM12.2894 17.6268C12.9144 17.6268 13.4215 17.1203 13.4215 16.4947V14.2192C13.4215 13.5943 12.9144 13.0871 12.2894 13.0871C11.6645 13.0871 11.1574 13.5943 11.1574 14.2192V16.4947C11.1574 17.1203 11.6645 17.6268 12.2894 17.6268ZM12.6923 8.87919C14.3693 6.39994 17.1489 4.92069 20.127 4.92069C25.0727 4.92069 29.0961 8.94409 29.0961 13.889V21.0203C29.0961 21.6452 28.5889 22.1524 27.964 22.1524C27.3391 22.1524 26.832 21.6452 26.832 21.0203V13.889C26.832 10.1924 23.8237 7.18484 20.127 7.18484C17.9014 7.18484 15.8236 8.29277 14.5678 10.1479C14.2168 10.6664 13.5127 10.8007 12.9957 10.4513C12.478 10.1003 12.3421 9.39692 12.6923 8.87919ZM29.0996 26.0963C29.0996 26.0306 29.1056 25.9657 29.1177 25.9038C29.2422 25.291 28.8468 24.6933 28.2339 24.5695C27.6256 24.4434 27.0234 24.8397 26.8996 25.454C26.8566 25.6631 26.8354 25.8789 26.8354 26.0963C26.8354 26.7219 27.3426 27.2284 27.9675 27.2284C28.5924 27.2284 29.0996 26.7219 29.0996 26.0963ZM27.5647 31.1209C26.0123 33.4145 23.3723 34.6779 20.1292 34.6779C15.1843 34.6779 11.1609 30.6545 11.1609 25.7096V21.016C11.1609 20.3911 11.6681 19.8839 12.293 19.8839C12.9179 19.8839 13.4251 20.3911 13.4251 21.016V25.7096C13.4251 29.4062 16.4326 32.4137 20.1292 32.4137C21.8749 32.4137 24.2568 31.9692 25.6892 29.8515C26.0409 29.3337 26.7451 29.1994 27.2613 29.5488C27.7791 29.899 27.9149 30.6032 27.5647 31.1209Z" fill="#0F71F0"/>
<mask id="mask0_639_7332" style="mask-type:luminance" maskUnits="userSpaceOnUse" x="6" y="0" width="29" height="40">
<path fill-rule="evenodd" clip-rule="evenodd" d="M34.2551 20.8461C34.2559 20.8325 34.2559 20.8189 34.2559 20.8061V14.1268C34.2559 11.1079 33.3125 8.22492 31.5283 5.78794C31.1585 5.28378 30.4514 5.17435 29.9457 5.54416C29.4416 5.91322 29.3329 6.62114 29.7019 7.12605C31.2 9.17134 31.9917 11.5925 31.9917 14.1268V20.7049L31.9909 20.7117L31.9891 20.7262C31.9878 20.7367 31.9866 20.747 31.9857 20.757C31.9797 20.8197 31.9797 20.8831 31.985 20.9457C31.9864 20.9646 31.9891 20.9849 31.9919 21.0058L31.9925 21.0106V25.8717C31.9925 25.9604 31.9862 26.0477 31.98 26.135L31.9782 26.1608L31.9646 26.3948C31.9623 26.4302 31.9631 26.4665 31.9646 26.5019C31.9585 26.5563 31.954 26.6099 31.951 26.6536C31.9367 26.8763 31.9208 27.0982 31.8929 27.3261C31.8665 27.5601 31.8272 27.7902 31.7872 28.0129L31.7668 28.1291C31.7517 28.2159 31.7359 28.3027 31.7178 28.3895C31.6521 28.6944 31.5736 28.9933 31.4868 29.2831L31.4385 29.4491C31.3314 29.7918 31.2061 30.1336 31.0551 30.4921C30.4657 31.8861 29.6212 33.1412 28.557 34.2091L28.5057 34.2635C28.271 34.4959 28.0265 34.7155 27.7661 34.9344L27.6423 35.0438C27.4212 35.2242 27.191 35.3918 26.9578 35.5555L26.708 35.7359C26.5291 35.8552 26.3427 35.9638 26.1057 36.1012L25.9427 36.1986C25.8665 36.2453 25.7902 36.2914 25.7125 36.3337C25.6103 36.388 25.5054 36.4369 25.3997 36.4861L25.3996 36.4862L25.3996 36.4862L25.3995 36.4862L25.3994 36.4862L25.3993 36.4863L25.3819 36.4944L25.0559 36.6491L25.0432 36.6553C24.9192 36.7159 24.7956 36.7762 24.6642 36.8303C24.5978 36.8582 24.5298 36.8816 24.4619 36.905L24.1744 37.0099C23.9774 37.0846 23.7797 37.1593 23.5781 37.2204L23.3057 37.2899C23.0234 37.3684 22.7419 37.4461 22.4038 37.511L22.2514 37.5344C21.9366 37.591 21.6204 37.6446 21.2959 37.6763C21.2387 37.6822 21.1797 37.6841 21.121 37.686H21.121L21.1208 37.686L21.0951 37.6869L20.6876 37.7095L20.6499 37.7121H20.6498H20.6498H20.6497H20.6497H20.6496C20.4775 37.7241 20.3075 37.736 20.1683 37.7367C20.1525 37.7359 20.0913 37.7337 20.077 37.7337C20.0242 37.7306 19.9713 37.7276 19.9268 37.7269C19.6461 37.7216 19.3653 37.7118 19.0808 37.6869C18.9354 37.6749 18.792 37.655 18.6494 37.6351L18.6196 37.631L18.2959 37.5895L18.2811 37.588C18.2565 37.5855 18.2318 37.583 18.2098 37.5804C18.1781 37.5721 18.1472 37.5654 18.1178 37.5601C12.8966 36.6793 8.87774 32.4038 8.34265 27.1563C8.32302 26.9699 8.30491 26.7827 8.29434 26.588L8.28604 26.5034C8.28755 26.4687 8.28831 26.434 8.2868 26.3985L8.27774 26.2182L8.27592 26.1839C8.27042 26.0806 8.26491 25.9772 8.26491 25.8733V21.111C8.26868 21.0808 8.27246 21.0468 8.27397 21.0114C8.27472 20.9797 8.27472 20.948 8.27397 20.917C8.27246 20.8846 8.26944 20.8498 8.26416 20.8144V14.1283C8.26416 7.58643 13.5864 2.26416 20.1276 2.26416C20.7525 2.26416 21.2597 1.75774 21.2597 1.13208C21.2597 0.506416 20.7525 0 20.1276 0C12.3381 0 6 6.33812 6 14.1283V20.911C6 20.9321 6.00075 20.9525 6.00151 20.9721C6.00075 20.9857 6.00075 20.9993 6.00075 21.0121V25.8733C6.00075 26.028 6.0083 26.1812 6.0166 26.3351L6.01736 26.354C6.01358 26.3963 6.01283 26.4393 6.01434 26.4816C6.0166 26.5517 6.02264 26.6197 6.03321 26.7223C6.04679 26.9487 6.06717 27.1736 6.09132 27.3917C6.72528 33.6197 11.4815 38.7035 17.6581 39.7782C17.6959 39.7895 17.7336 39.7978 17.7706 39.8038C17.8642 39.8197 17.957 39.8303 18.0506 39.8401L18.3072 39.8733C18.5004 39.9005 18.6929 39.9269 18.8861 39.9427C19.2204 39.9721 19.5532 39.9842 19.9238 39.9925C19.9834 39.9971 20.043 40.0001 20.1291 40.0001C20.3713 40.0001 20.6076 39.9842 20.8446 39.9676L21.1713 39.9495C21.2883 39.9457 21.4061 39.9412 21.5193 39.9299C21.9034 39.8922 22.28 39.8303 22.7057 39.7548C22.7691 39.7457 22.8325 39.7367 22.8951 39.7246C23.24 39.6559 23.5766 39.5646 23.9125 39.4718L24.0046 39.4484C24.0815 39.4295 24.1585 39.4106 24.2355 39.3872C24.4861 39.311 24.7283 39.2204 24.9706 39.1291L25.2121 39.0416C25.3208 39.0031 25.4295 38.9638 25.5321 38.9216C25.7065 38.8491 25.8748 38.7691 26.0423 38.6869L26.3397 38.5457C26.4868 38.4771 26.634 38.4076 26.7797 38.3306C26.8929 38.2695 27.0038 38.2038 27.1132 38.1374L27.2982 38.0272C27.5223 37.8959 27.7465 37.7646 27.9646 37.6197C28.0348 37.5729 28.1019 37.5238 28.1699 37.474L28.2619 37.4069C28.5382 37.2114 28.8114 37.0121 29.0823 36.7903L29.2287 36.6627C29.5299 36.4106 29.8204 36.148 30.151 35.8174C31.4317 34.5321 32.437 33.037 33.151 31.3472C33.32 30.9472 33.4702 30.5367 33.597 30.1336L33.6536 29.9389C33.76 29.585 33.8544 29.2265 33.9314 28.8619C33.9527 28.7646 33.9705 28.6668 33.9884 28.5683L33.9955 28.5291L34.0159 28.4167C34.065 28.1412 34.1102 27.865 34.1419 27.5933C34.1736 27.3329 34.1933 27.0687 34.2106 26.8038C34.2106 26.8016 34.2125 26.7815 34.2143 26.7613L34.2144 26.7608L34.2144 26.7607C34.2163 26.7404 34.2182 26.72 34.2182 26.7178C34.2265 26.6423 34.234 26.5676 34.237 26.4906C34.2385 26.4484 34.2378 26.4061 34.2348 26.3646L34.2378 26.3163L34.2398 26.2832C34.2483 26.1464 34.2567 26.01 34.2567 25.8717V20.908C34.2567 20.8986 34.2565 20.8893 34.2563 20.8801L34.2551 20.8461ZM25.0504 3.31653C25.6979 3.6154 26.3138 3.96635 26.8806 4.3588C27.0775 4.4954 27.3017 4.56106 27.5243 4.56106C27.8828 4.56106 28.236 4.39125 28.4557 4.07427C28.8119 3.56031 28.6836 2.85465 28.1704 2.49917C27.4964 2.03125 26.7659 1.6154 25.9998 1.26068C25.4285 0.99653 24.7583 1.24634 24.4979 1.81389C24.2353 2.38144 24.4828 3.05465 25.0504 3.31653ZM21.9932 20.8997L21.9932 20.891C21.9932 20.881 21.9933 20.8709 21.9939 20.8604V15.2763C21.9939 14.2227 21.1728 13.3502 20.1637 13.3306C19.6664 13.3351 19.1796 13.5163 18.8249 13.8642C18.4633 14.2196 18.2641 14.6921 18.2641 15.1947V20.9185C18.2641 20.9321 18.2641 20.9449 18.2633 20.9578V24.7238C18.2633 25.7774 19.0845 26.6499 20.0928 26.6695C20.6203 26.6567 21.0784 26.4831 21.4324 26.1359C21.7932 25.7804 21.9932 25.308 21.9932 24.8053V20.8997ZM17.2377 12.2491C18.0226 11.4778 19.0996 11.0347 20.2052 11.0664C22.4407 11.1095 24.2581 12.9978 24.2581 15.2763V20.8023C24.2603 20.8295 24.2611 20.8559 24.2611 20.8823C24.2611 20.9117 24.2596 20.9419 24.2573 20.9714V24.8053C24.2573 25.92 23.8173 26.9661 23.0188 27.751C22.2513 28.505 21.1992 28.9336 20.123 28.9336H20.1228C20.0995 28.9336 20.0754 28.9336 20.052 28.9329C17.8166 28.8906 15.9992 27.0023 15.9992 24.7238V21.0159C15.9969 20.9887 15.9962 20.9623 15.9962 20.9359C15.9962 20.9065 15.9977 20.877 15.9999 20.8468V15.1947C15.9999 14.08 16.4399 13.034 17.2377 12.2491ZM12.2894 17.6268C12.9144 17.6268 13.4215 17.1203 13.4215 16.4947V14.2192C13.4215 13.5943 12.9144 13.0871 12.2894 13.0871C11.6645 13.0871 11.1574 13.5943 11.1574 14.2192V16.4947C11.1574 17.1203 11.6645 17.6268 12.2894 17.6268ZM12.6923 8.87919C14.3693 6.39994 17.1489 4.92069 20.127 4.92069C25.0727 4.92069 29.0961 8.94409 29.0961 13.889V21.0203C29.0961 21.6452 28.5889 22.1524 27.964 22.1524C27.3391 22.1524 26.832 21.6452 26.832 21.0203V13.889C26.832 10.1924 23.8237 7.18484 20.127 7.18484C17.9014 7.18484 15.8236 8.29277 14.5678 10.1479C14.2168 10.6664 13.5127 10.8007 12.9957 10.4513C12.478 10.1003 12.3421 9.39692 12.6923 8.87919ZM29.0996 26.0963C29.0996 26.0306 29.1056 25.9657 29.1177 25.9038C29.2422 25.291 28.8468 24.6933 28.2339 24.5695C27.6256 24.4434 27.0234 24.8397 26.8996 25.454C26.8566 25.6631 26.8354 25.8789 26.8354 26.0963C26.8354 26.7219 27.3426 27.2284 27.9675 27.2284C28.5924 27.2284 29.0996 26.7219 29.0996 26.0963ZM27.5647 31.1209C26.0123 33.4145 23.3723 34.6779 20.1292 34.6779C15.1843 34.6779 11.1609 30.6545 11.1609 25.7096V21.016C11.1609 20.3911 11.6681 19.8839 12.293 19.8839C12.9179 19.8839 13.4251 20.3911 13.4251 21.016V25.7096C13.4251 29.4062 16.4326 32.4137 20.1292 32.4137C21.8749 32.4137 24.2568 31.9692 25.6892 29.8515C26.0409 29.3337 26.7451 29.1994 27.2613 29.5488C27.7791 29.899 27.9149 30.6032 27.5647 31.1209Z" fill="white"/>
</mask>
<g mask="url(#mask0_639_7332)">
<rect x="-94" y="-94.2856" width="228.571" height="228.571" rx="20" fill="#0F71F0"/>
</g>
</svg>
