<svg width="24" height="16" viewBox="0 0 24 16" fill="none" xmlns="http://www.w3.org/2000/svg">
<path d="M0 7.99964C0.0166664 7.82044 0.0958195 7.58119 0.222216 7.447L6.88888 0.28902C7.17969 -0.0850127 7.77928 -0.0837809 8.1483 0.222125C8.51733 0.528031 8.54546 1.07157 8.22222 1.39429L2.84721 7.15753H23.1111C23.602 7.15753 24 7.53454 24 7.99964C24 8.46474 23.602 8.84175 23.1111 8.84175H2.84721L8.22221 14.605C8.57492 14.9277 8.47573 15.4811 8.1067 15.787C7.73767 16.0929 7.17969 16.0711 6.88888 15.7102L0.222208 8.55228C0.0440254 8.36941 0.0100307 8.17097 0 7.99964Z" fill="#555551"/>
</svg>
