<svg width="20" height="20" viewBox="0 0 20 20" fill="none" xmlns="http://www.w3.org/2000/svg">
<path fill-rule="evenodd" clip-rule="evenodd" d="M8.10383 6.04894H7.95442C7.54349 6.04894 7.20727 5.60062 7.39406 5.2644C7.76763 3.9569 9.07512 3.06022 10.532 3.28436C11.7275 3.47115 12.6988 4.51719 12.8855 5.74997C13.035 6.90804 12.3999 7.4684 11.8022 7.9914C11.7462 8.04744 11.6901 8.09416 11.6341 8.14089C11.578 8.18761 11.522 8.23433 11.466 8.29037L11.2418 8.51437C11.1872 8.56902 11.1525 8.62372 11.1086 8.69302C11.0925 8.71845 11.0751 8.74585 11.0551 8.77594V8.81333V8.85073C10.943 9.03751 10.8683 9.29901 10.8683 9.59787C10.8683 9.89673 10.4947 10.3076 10.1585 10.3076C9.82226 10.3076 9.4487 10.0088 9.4487 9.59787C9.4487 9.14958 9.5234 8.92529 9.59812 8.70115V8.66394V8.62655V8.58915V8.55176C9.63547 8.49572 9.66349 8.4397 9.69151 8.38367C9.71953 8.32764 9.74755 8.27162 9.7849 8.21558C10.009 7.84201 10.3453 7.58058 10.6441 7.35644C10.6696 7.33562 10.695 7.31494 10.7204 7.29433C11.1045 6.9822 11.4683 6.68659 11.5033 6.16094C11.5407 5.45115 11.0551 4.81608 10.3826 4.66665C9.63549 4.51722 8.96305 4.92812 8.73891 5.56319C8.62684 5.86204 8.40269 6.04894 8.10383 6.04894ZM10.6067 11.5403C10.6067 11.9324 10.2889 12.2501 9.8969 12.2501C9.50489 12.2501 9.18713 11.9324 9.18713 11.5403C9.18713 11.1483 9.50489 10.8306 9.8969 10.8306C10.2889 10.8306 10.6067 11.1483 10.6067 11.5403Z" fill="#242424"/>
<path fill-rule="evenodd" clip-rule="evenodd" d="M18.1518 12.71C18.1518 13.58 17.4386 14.29 16.5647 14.29H9.66337C9.45743 14.29 9.25652 14.375 9.11589 14.525L5.52963 18.32C5.49949 18.35 5.47438 18.38 5.45429 18.415C5.4342 18.44 5.37895 18.525 5.25338 18.485C5.12279 18.445 5.12279 18.345 5.12279 18.31V15.0345C5.12279 14.6195 4.78626 14.2845 4.36937 14.2845H3.43514C2.56117 14.2845 1.84794 13.5745 1.84794 12.705V3.08C1.84794 2.21 2.56117 1.5 3.43514 1.5H16.5697C17.4436 1.5 18.1569 2.21 18.1569 3.08V12.71H18.1518ZM16.5647 0H3.43521C1.72747 0 0.341187 1.38 0.341187 3.08V12.71C0.341187 14.4095 1.72747 15.79 3.43521 15.79H3.61101V18.315C3.61101 19.06 4.09319 19.71 4.81145 19.925C4.9772 19.975 5.14295 20 5.3087 20C5.8361 20 6.34339 19.75 6.66485 19.31L9.98992 15.79H16.5647C18.2725 15.79 19.6588 14.4095 19.6588 12.71V3.08C19.6638 1.38 18.2725 0 16.5647 0V0Z" fill="#242424"/>
</svg>
