<svg width="44" height="40" viewBox="0 0 44 40" fill="none" xmlns="http://www.w3.org/2000/svg">
<g clip-path="url(#clip0_1124_14)">
<path d="M30.4075 36.3638C29.8566 35.5924 29.416 34.7109 29.3058 33.8293C26.6617 35.5924 23.3565 36.6943 19.9411 36.6943C10.6867 36.6943 3.19499 29.2013 3.19499 19.9454C3.19499 10.6894 10.6867 3.08632 19.9411 3.08632C28.2041 3.08632 35.0348 9.03659 36.467 16.9702C37.0179 16.7499 37.5687 16.6397 38.2297 16.6397C38.6704 16.6397 39.2213 16.7499 39.6619 16.8601C38.2297 7.27354 29.9669 0.000997288 19.9411 0.000997288C8.92395 -0.109193 0 8.9264 0 19.8352C0 30.744 8.92395 39.7797 19.9411 39.7797C23.9074 39.7797 27.543 38.5676 30.6279 36.5841L30.4075 36.3638Z" fill="#0C74F8"/>
<path d="M43.4077 31.9562C43.0771 31.7358 42.7467 31.6257 42.3059 31.6257C41.7551 31.6257 41.3144 31.846 40.9839 32.2868L39.7719 33.7192V21.5983C39.7719 20.7168 39.0007 19.9454 38.1194 19.9454C37.238 19.9454 36.4668 20.7168 36.4668 21.5983V33.7192L35.2549 32.2868C34.9245 31.9562 34.4837 31.7358 33.9329 31.7358C33.4921 31.7358 33.1617 31.846 32.8312 32.0663C32.5006 32.397 32.2803 32.7276 32.2803 33.1683C32.2803 33.609 32.3905 34.0498 32.6108 34.3803L36.7973 39.4491C37.1279 39.7797 37.5685 40.0001 38.1194 40.0001C38.6703 40.0001 39.1109 39.7797 39.4415 39.4491L43.628 34.3803C43.9585 34.0498 44.0686 33.609 43.9585 33.1683C44.0686 32.6173 43.8483 32.2868 43.4077 31.9562Z" fill="#0C74F8"/>
<path fill-rule="evenodd" clip-rule="evenodd" d="M25.4499 20.6066C24.8992 20.1659 24.3483 19.8352 23.6872 19.5047C23.0262 19.1741 22.255 18.9538 21.4838 18.7333L20.9329 18.6232V13.1137C21.4838 13.2239 22.0346 13.4442 22.3652 13.6647C22.6956 13.885 22.916 14.2156 23.1364 14.5461C23.3567 15.0971 23.9076 15.3174 24.3483 15.3174H24.6787C25.2296 15.3174 25.6704 15.0971 25.8907 14.5461C26.111 14.1053 26.111 13.5545 25.8907 13.1137C25.8907 13.0586 25.8631 13.031 25.8356 13.0035C25.8081 12.9759 25.7805 12.9483 25.7805 12.8933C25.3398 12.2321 24.5686 11.571 23.5771 11.1302C22.916 10.7997 22.0346 10.5793 21.1532 10.4691V8.92645C21.1532 8.15513 20.6024 7.60417 19.8312 7.60417C19.06 7.60417 18.5091 8.15513 18.5091 8.92645V10.4691C17.7379 10.5793 17.0769 10.7997 16.4158 11.0201C15.4243 11.4608 14.543 12.122 13.9921 12.8933C13.4412 13.6647 13.1107 14.6563 13.1107 15.7582C13.1107 17.0806 13.5513 18.0722 14.4328 18.8436C15.3141 19.6149 16.5261 20.276 18.0685 20.6066L18.3989 20.7168L18.2888 26.5569H18.1786C18.1235 26.5569 18.0685 26.5293 18.0134 26.5018C17.9583 26.4742 17.9032 26.4467 17.848 26.4467C17.1871 26.2263 16.7464 25.7856 16.3057 25.3448C16.1955 25.2346 16.0853 25.0142 15.9752 24.7938C15.7549 24.2429 15.204 23.9123 14.6531 23.9123H14.3225C13.8819 23.9123 13.4412 24.1327 13.1107 24.5735C12.8903 24.904 12.7801 25.3448 13.0006 25.7856C13.1107 26.1161 13.331 26.4467 13.5513 26.7772C14.1022 27.6588 14.9836 28.3199 16.0853 28.7607C16.7464 28.981 17.5176 29.2015 18.2888 29.3117V30.8542C18.2888 31.1849 18.3989 31.5155 18.6193 31.846C18.8397 32.0663 19.1701 32.2868 19.6109 32.2868C20.382 32.2868 20.9329 31.7358 20.9329 30.9645V29.4218C22.0346 29.3117 23.0262 29.0912 23.7974 28.7607C24.7889 28.3199 25.6704 27.6588 26.2211 26.8875C26.772 26.1161 26.9923 25.1244 27.1026 24.0224C27.1026 23.2511 26.9923 22.59 26.772 22.0391C26.6743 21.9169 26.582 21.7948 26.4916 21.6751C26.1739 21.2547 25.8787 20.8639 25.4499 20.6066ZM23.6871 24.0226C23.6871 24.5735 23.4667 25.1244 23.1362 25.5652C22.8056 26.006 22.365 26.3366 21.8141 26.5569C21.5938 26.6671 21.2633 26.7773 20.9328 26.7773V21.4882L21.9243 21.8188C22.4752 22.0391 22.9159 22.3697 23.1362 22.7002C23.5768 23.0309 23.6871 23.4716 23.6871 24.0226ZM18.3988 17.9619V13.2238C18.2886 13.2238 18.1784 13.2238 18.0683 13.4441C17.5174 13.6646 17.1868 13.8849 16.8564 14.3257C16.5258 14.6562 16.4156 15.2071 16.4156 15.6479C16.4156 15.9785 16.5258 16.4192 16.7462 16.7498C16.9665 17.0804 17.1868 17.3008 17.5174 17.5211C17.5842 17.5546 17.6609 17.598 17.7448 17.6455C17.9379 17.7547 18.1684 17.8851 18.3988 17.9619Z" fill="#0C74F8"/>
</g>
<defs>
<clipPath id="clip0_1124_14">
<rect width="44" height="40" fill="white"/>
</clipPath>
</defs>
</svg>
