<svg width="30" height="30" viewBox="0 0 30 30" fill="none" xmlns="http://www.w3.org/2000/svg">
<path fill-rule="evenodd" clip-rule="evenodd" d="M26.7205 4.63068C28.0108 4.97841 29.0284 6.00114 29.3727 7.3C30 9.65568 30 14.5682 30 14.5682C30 14.5682 30 19.4824 29.3727 21.8364C29.0284 23.1352 28.0108 24.158 26.7205 24.5057C24.3818 25.1364 15 25.1364 15 25.1364C15 25.1364 5.61989 25.1364 3.27955 24.5057C1.9892 24.158 0.971591 23.1352 0.627273 21.8364C0 19.4807 0 14.5682 0 14.5682C0 14.5682 0 9.65568 0.627273 7.3C0.971591 6.00114 1.9892 4.97841 3.27955 4.63068C5.61818 4 15 4 15 4C15 4 24.3818 4 26.7205 4.63068ZM19.7727 14.5682L11.9318 19.029V10.1074L19.7727 14.5682Z" fill="#282828"/>
</svg>
