<svg width="80" height="80" viewBox="0 0 80 80" fill="none" xmlns="http://www.w3.org/2000/svg">
<g id="Icon">
<g id="Group 65">
<circle id="Elipse" cx="40" cy="40" r="38.5" stroke="#242424" stroke-width="3"/>
<g id="Vector">
<path d="M40.8281 42.3992L37.8059 45.4208C36.546 46.6805 34.3919 45.7881 34.3919 44.0064V25.449C34.3919 22.6875 36.6304 20.449 39.3919 20.449H56.5536C59.315 20.449 61.5536 22.6876 61.5536 25.449V37.3992C61.5536 40.1606 59.315 42.3992 56.5536 42.3992H40.8281Z" fill="#FEEB29"/>
<path d="M45.6109 28.3016C45.5919 26.5807 47.3013 25.2896 48.9471 25.7175C50.3641 26.1101 51.2066 27.5595 50.8366 28.9848C50.4532 30.6104 48.3664 31.088 48.2385 32.9055V33.0586M48.2385 37.3399V37.4811M29.2076 31.1657L23.4492 31.1657C20.6878 31.1657 18.4492 33.4042 18.4492 36.1657V48.1159C18.4492 50.8773 20.6878 53.1159 23.4492 53.1159H39.1925L42.2146 56.1375C43.4746 57.3972 45.6287 56.5048 45.6287 54.7231V47.5814M23.7812 41.9477V42.5121M29.1552 41.9477V42.5121M40.8281 42.3992L37.8059 45.4208C36.546 46.6805 34.3919 45.7881 34.3919 44.0064V25.449C34.3919 22.6875 36.6304 20.449 39.3919 20.449H56.5536C59.315 20.449 61.5536 22.6876 61.5536 25.449V37.3992C61.5536 40.1606 59.315 42.3992 56.5536 42.3992H40.8281Z" stroke="#242424" stroke-width="3" stroke-linecap="square"/>
</g>
</g>
</g>
</svg>
