<svg width="24" height="24" viewBox="0 0 24 24" fill="none" xmlns="http://www.w3.org/2000/svg">
<g clip-path="url(#clip0_162_12711)">
<mask id="mask0_162_12711" style="mask-type:alpha" maskUnits="userSpaceOnUse" x="0" y="0" width="24" height="24">
<path d="M12 24C18.6274 24 24 18.6274 24 12C24 5.37258 18.6274 0 12 0C5.37258 0 0 5.37258 0 12C0 18.6274 5.37258 24 12 24Z" fill="white"/>
</mask>
<g mask="url(#mask0_162_12711)">
<path d="M12 23.5C18.3513 23.5 23.5 18.3513 23.5 12C23.5 5.64873 18.3513 0.5 12 0.5C5.64873 0.5 0.5 5.64873 0.5 12C0.5 18.3513 5.64873 23.5 12 23.5Z" fill="#F8F9FA" stroke="#E5E8EA"/>
<path d="M24 11.9999C24.0004 9.74264 23.3642 7.53103 22.1644 5.61905C20.9646 3.70707 19.2498 2.17227 17.217 1.19092V22.8089C19.2498 21.8276 20.9646 20.2927 22.1644 18.3808C23.3642 16.4688 24.0004 14.2572 24 11.9999ZM2.37231e-07 11.9999C-0.000448519 14.2572 0.635777 16.4688 1.83561 18.3808C3.03544 20.2927 4.75021 21.8276 6.783 22.8089V1.19092C4.75021 2.17227 3.03544 3.70707 1.83561 5.61905C0.635777 7.53103 -0.000448519 9.74264 2.37231e-07 11.9999ZM14.087 13.5649L16.174 12.5219L15.13 11.9999V10.9569L13.043 11.9999L14.087 9.9129H13.044L12 8.3479L10.957 9.9129H9.912L10.956 11.9999L8.87 10.9569V11.9999L7.826 12.5219L9.913 13.5649L9.391 14.6089H11.478V16.1739H12.522V14.6089H14.609L14.087 13.5649Z" fill="#D80027"/>
</g>
</g>
<defs>
<clipPath id="clip0_162_12711">
<rect width="24" height="24" fill="white"/>
</clipPath>
</defs>
</svg>
