<svg width="24" height="24" viewBox="0 0 24 24" fill="none" xmlns="http://www.w3.org/2000/svg">
<circle cx="12" cy="12" r="11.5" fill="#F7FAFC" stroke="#E1EAF0"/>
<path fill-rule="evenodd" clip-rule="evenodd" d="M11.3271 19.5492C12.1477 19.5492 12.5744 19.1717 12.5744 18.4496V16.2669C13.5489 16.2193 14.5664 16.1632 15.6269 16.1047C16.031 16.0824 16.4412 16.0598 16.8578 16.0371C17.3009 16.3982 17.6947 16.7428 18.0558 17.1039L18.9912 16.4474C18.1707 15.6925 17.0055 14.8227 15.4792 13.838L14.6422 14.3632L14.7874 14.4668C15.1951 14.7575 15.5882 15.0379 15.9551 15.3314C13.5427 15.4955 11.1138 15.6268 8.6849 15.7089C11.081 15.0688 13.3129 14.1498 15.3807 12.9682L14.5274 12.4102C13.8381 12.8041 13.1488 13.1651 12.4595 13.5098L8.52079 13.6411C9.57112 13.28 10.5886 12.8533 11.5569 12.3446L11.0974 12.0163L11.1794 11.7209H12.0821V11.0645H11.3271C11.3928 10.7034 11.4584 10.2931 11.5077 9.85003H12.5744V9.06228H11.5733C11.6061 8.50429 11.6225 7.89707 11.6225 7.22421H6.02626L6.02626 7.2242C6.27243 6.96162 6.5186 6.69904 6.74836 6.42005H12.3446V5.56666H7.35558C7.38897 5.5099 7.42304 5.45246 7.45751 5.39434L7.45752 5.39432L7.45752 5.39431C7.59248 5.16677 7.73361 4.92881 7.86433 4.68044L6.87965 4.45068C6.25602 5.6323 5.45186 6.58416 4.5 7.30626L5.10722 8.04478L5.9442 7.30626C5.89945 7.84325 5.84115 8.36668 5.78161 8.90119L5.76368 9.06228H4.5V9.85003H5.6488C5.55033 10.4737 5.45186 11.0973 5.33698 11.7209H10.2112C10.1953 11.7685 10.1795 11.8177 10.1631 11.8686L10.1631 11.8687L10.163 11.8687C10.1285 11.976 10.0916 12.0909 10.047 12.2133C9.16083 12.6728 8.32385 13.0338 7.51969 13.3292C7.33917 13.3949 7.02735 13.4441 6.60066 13.4441L6.78118 14.2975L11.0317 14.1662C9.53829 14.7899 8.09409 15.2658 6.68271 15.5612C6.35449 15.5612 6.04267 15.5448 5.73085 15.5284L5.97702 16.513C7.65098 16.4802 9.47265 16.4146 11.4584 16.3161V18.187C11.4584 18.4988 11.2943 18.6629 10.9825 18.6629C10.5355 18.6629 10.0741 18.634 9.58457 18.6033L9.58454 18.6033L9.48906 18.5973L9.70241 19.5492H11.3271ZM18.9584 12.4758L19.5 11.5404C18.3512 11.1465 17.3665 10.6706 16.5788 10.129C17.3009 9.29204 17.826 8.24171 18.1379 6.97804H19.1225V6.02618H14.7079C14.9212 5.59948 15.1182 5.15637 15.3151 4.68044L14.2976 4.45068C13.7068 5.99335 12.9354 7.22421 12.0164 8.17607L12.64 8.93099C12.9683 8.60276 13.2801 8.2253 13.5919 7.81502C13.9037 8.66841 14.3961 9.45615 15.0853 10.1618C14.3304 10.7527 13.395 11.1793 12.2462 11.4583L12.8042 12.3281C14.0186 12.0163 15.0361 11.524 15.8567 10.8347C16.6772 11.4583 17.7112 12.0163 18.9584 12.4758ZM14.2155 6.97804C14.4617 7.9299 14.9869 8.78329 15.791 9.50539C16.4311 8.7997 16.8906 7.96272 17.1532 6.97804H14.2155ZM10.6214 9.19357H6.69912L6.84683 7.86425H10.7035C10.6871 8.32377 10.6543 8.76688 10.6214 9.19357ZM9.65317 8.70123L9.35777 9.16075C8.79978 8.86534 8.22538 8.63559 7.65098 8.47147L7.9628 8.01195C8.58643 8.19248 9.14442 8.42224 9.65317 8.70123ZM10.3753 11.0645H6.38731C6.46937 10.6378 6.55142 10.1947 6.61707 9.75156H10.5722C10.523 10.2111 10.4573 10.6378 10.3753 11.0645ZM9.52188 10.5229L9.21007 10.9988C8.61926 10.7034 8.01203 10.4901 7.40481 10.326L7.70022 9.86644C8.37309 10.047 8.98031 10.2603 9.52188 10.5229ZM18.4333 19.3358L19.0241 18.4004C17.6783 17.7931 16.1849 17.2844 14.5438 16.8577L13.953 17.7275C15.4956 18.1214 16.9891 18.6465 18.4333 19.3358ZM9.60394 17.629C8.42232 18.3183 6.9453 18.8927 5.17287 19.3522L4.72976 18.4332C6.43654 18.0393 7.86433 17.5306 8.98031 16.9069L9.60394 17.629Z" fill="#071D2B"/>
</svg>
