<svg width="24" height="24" viewBox="0 0 24 24" fill="none" xmlns="http://www.w3.org/2000/svg">
<g clip-path="url(#clip0_162_12498)">
<mask id="mask0_162_12498" style="mask-type:alpha" maskUnits="userSpaceOnUse" x="0" y="0" width="24" height="24">
<path d="M12 24C18.6274 24 24 18.6274 24 12C24 5.37258 18.6274 0 12 0C5.37258 0 0 5.37258 0 12C0 18.6274 5.37258 24 12 24Z" fill="white"/>
</mask>
<g mask="url(#mask0_162_12498)">
<path d="M12 24C18.6274 24 24 18.6274 24 12C24 5.37258 18.6274 0 12 0C5.37258 0 0 5.37258 0 12C0 18.6274 5.37258 24 12 24Z" fill="#D80027"/>
<path d="M11.5091 9.81006L12.4931 11.16L14.0881 10.65L13.1021 12L14.0861 13.36L12.4921 12.84L11.5061 14.1899L11.5071 12.52L9.91309 12L11.5081 11.48L11.5091 9.81006Z" fill="#F8F9FA"/>
<path d="M8.82177 15.3902C7.92251 15.3902 7.06004 15.033 6.42398 14.3974C5.78791 13.7617 5.4303 12.8994 5.42977 12.0001C5.43046 11.4131 5.58347 10.8364 5.87386 10.3262C6.16425 9.81602 6.58207 9.38994 7.08646 9.08962C7.59085 8.7893 8.16455 8.62498 8.75145 8.61281C9.33835 8.60064 9.91837 8.74101 10.4348 9.02016C9.65689 8.25452 8.60824 7.8268 7.51677 7.8301C6.96872 7.82918 6.42586 7.93646 5.91929 8.14565C5.41272 8.35484 4.9524 8.66186 4.56467 9.04921C4.17695 9.43656 3.86945 9.89661 3.65977 10.403C3.4501 10.9093 3.34238 11.4521 3.34277 12.0001C3.34277 14.3101 5.21277 16.1702 7.51677 16.1702C8.65277 16.1702 9.68177 15.7201 10.4348 14.9801C9.95477 15.2401 9.40477 15.3902 8.82177 15.3902Z" fill="#F8F9FA"/>
</g>
</g>
<defs>
<clipPath id="clip0_162_12498">
<rect width="24" height="24" fill="white"/>
</clipPath>
</defs>
</svg>
