<svg width="24" height="24" viewBox="0 0 24 24" fill="none" xmlns="http://www.w3.org/2000/svg">
<g clip-path="url(#clip0_1158_8148)">
<mask id="mask0_1158_8148" style="mask-type:alpha" maskUnits="userSpaceOnUse" x="0" y="0" width="24" height="24">
<circle cx="12" cy="12" r="12" fill="#D9D9D9"/>
</mask>
<g mask="url(#mask0_1158_8148)">
<mask id="mask1_1158_8148" style="mask-type:alpha" maskUnits="userSpaceOnUse" x="0" y="0" width="24" height="24">
<path d="M12 24C18.6274 24 24 18.6274 24 12C24 5.37258 18.6274 0 12 0C5.37258 0 0 5.37258 0 12C0 18.6274 5.37258 24 12 24Z" fill="white"/>
</mask>
<g mask="url(#mask1_1158_8148)">
<path d="M12 23.5C18.3513 23.5 23.5 18.3513 23.5 12C23.5 5.64873 18.3513 0.5 12 0.5C5.64873 0.5 0.5 5.64873 0.5 12C0.5 18.3513 5.64873 23.5 12 23.5Z" fill="#F8F9FA" stroke="#E5E8EA"/>
<path d="M24 12C24.0004 9.74273 23.3642 7.53112 22.1644 5.61914C20.9645 3.70716 19.2498 2.17233 17.217 1.19098V22.809C19.2498 21.8277 20.9645 20.2928 22.1644 18.3809C23.3642 16.4689 24.0004 14.2573 24 12Z" fill="#4997D0"/>
<path d="M2.37231e-07 12C-0.000448519 14.2573 0.635777 16.4689 1.83561 18.3809C3.03544 20.2928 4.75021 21.8277 6.783 22.809V1.19098C4.75021 2.17233 3.03544 3.70716 1.83561 5.61914C0.635777 7.53112 -0.000448519 9.74273 2.37231e-07 12Z" fill="#4997D0"/>
</g>
<path d="M12 15.96C14.1981 15.96 15.98 14.1781 15.98 11.98C15.98 9.78191 14.1981 8 12 8C9.80193 8 8.02002 9.78191 8.02002 11.98C8.02002 14.1781 9.80193 15.96 12 15.96Z" fill="#448027"/>
<path d="M13.36 13.89H11.13C10.95 13.89 10.8 13.76 10.78 13.59L10.29 10.47C10.26 10.25 10.42 10.06 10.64 10.06H12.87C13.05 10.06 13.2 10.19 13.22 10.36L13.71 13.48C13.74 13.7 13.58 13.89 13.36 13.89Z" fill="#F7F0B2"/>
</g>
</g>
<defs>
<clipPath id="clip0_1158_8148">
<rect width="24" height="24" fill="white"/>
</clipPath>
</defs>
</svg>
