<svg width="24" height="24" viewBox="0 0 24 24" fill="none" xmlns="http://www.w3.org/2000/svg">
<g clip-path="url(#clip0_1158_5906)">
<mask id="mask0_1158_5906" style="mask-type:alpha" maskUnits="userSpaceOnUse" x="0" y="0" width="24" height="24">
<circle cx="12" cy="12" r="12" fill="#D9D9D9"/>
</mask>
<g mask="url(#mask0_1158_5906)">
<path d="M23.5 12C23.5 18.3513 18.3513 23.5 12 23.5C5.64873 23.5 0.5 18.3513 0.5 12C0.5 5.64873 5.64873 0.5 12 0.5C18.3513 0.5 23.5 5.64873 23.5 12Z" fill="#F8F9FA" stroke="#E5E8EA"/>
<path d="M13.3333 2.6665H36V5.33317H13.3333V2.6665Z" fill="#0038A8"/>
<path d="M13.3333 7.99985H36V10.6665H13.3333V7.99985Z" fill="#0038A8"/>
<path d="M0 13.3332H36V15.9998H0V13.3332Z" fill="#0038A8"/>
<path d="M0 18.6665H36V21.3332H0V18.6665Z" fill="#0038A8"/>
<path d="M11.17 7.41L9.7 8.09999L10.48 9.52L8.89 9.20999L8.69 10.82L7.58 9.64L6.47 10.82L6.27 9.20999L4.68 9.52L5.46 8.09999L4 7.41L5.47 6.72L4.69 5.3L6.28 5.61L6.48 4L7.59 5.17999L8.7 4L8.9 5.61L10.49 5.3L9.71 6.72L11.18 7.41H11.17Z" fill="#FFCD00"/>
</g>
</g>
<defs>
<clipPath id="clip0_1158_5906">
<rect width="24" height="24" fill="white"/>
</clipPath>
</defs>
</svg>
