<svg width="24" height="24" viewBox="0 0 24 24" fill="none" xmlns="http://www.w3.org/2000/svg">
<circle cx="12" cy="12" r="11.5" fill="#F7FAFC" stroke="#E1EAF0"/>
<path fill-rule="evenodd" clip-rule="evenodd" d="M10.4557 8.36674L9.41536 8.75687C9.09025 8.05788 8.70011 7.3914 8.26121 6.75743H7.13957C6.71693 7.47268 6.26177 8.13916 5.74159 8.74062L4.75 8.10665C5.72534 7.01752 6.44058 5.81461 6.89574 4.51416L8.03363 4.75799C7.90359 5.09936 7.77354 5.42447 7.6435 5.73333H11.935V6.75743H9.49664C9.90303 7.32638 10.2281 7.86281 10.4557 8.36674ZM17.4781 8.23669L16.4378 8.62683C16.1127 7.9766 15.7388 7.35889 15.2999 6.75743H14.0482C13.7231 7.37515 13.3655 7.94409 12.9591 8.46427L11.9675 7.8303C12.7803 6.82246 13.3655 5.73333 13.7231 4.53042L14.8447 4.77425C14.7472 5.09936 14.6334 5.42447 14.5034 5.73333H19.25V6.75743H16.5516C16.9254 7.27761 17.2343 7.78154 17.4781 8.23669ZM8.63509 10.9351L9.49664 10.3337C9.04148 9.76472 8.375 9.1145 7.51345 8.36674L6.65191 8.90317C7.48094 9.65093 8.14742 10.3337 8.63509 10.9351ZM18.2747 18.0063C18.2747 18.9491 17.7545 19.4206 16.7466 19.4206H15.2511L14.9748 18.3639L16.5028 18.3964C16.9092 18.3964 17.1205 18.1526 17.1205 17.6812V10.1061H10.8133V9.03322H18.2747V18.0063ZM7.02578 19.4856V10.7888H5.87164V19.4856H7.02578ZM14.991 11.5528V17.6812H9.12276V11.5528H14.991ZM13.9019 14.1212H10.2444V12.5282H13.9019V14.1212ZM10.2444 16.6896H13.9019V15.064H10.2444V16.6896Z" fill="#071D2B"/>
</svg>
