<svg width="24" height="24" viewBox="0 0 24 24" fill="none" xmlns="http://www.w3.org/2000/svg">
<g clip-path="url(#clip0_162_12436)">
<mask id="mask0_162_12436" style="mask-type:alpha" maskUnits="userSpaceOnUse" x="0" y="0" width="24" height="24">
<path d="M12 24C18.6274 24 24 18.6274 24 12C24 5.37258 18.6274 0 12 0C5.37258 0 0 5.37258 0 12C0 18.6274 5.37258 24 12 24Z" fill="white"/>
</mask>
<g mask="url(#mask0_162_12436)">
<path d="M12 23.5C18.3513 23.5 23.5 18.3513 23.5 12C23.5 5.64873 18.3513 0.5 12 0.5C5.64873 0.5 0.5 5.64873 0.5 12C0.5 18.3513 5.64873 23.5 12 23.5Z" fill="#F8F9FA" stroke="#E5E8EA"/>
<path fill-rule="evenodd" clip-rule="evenodd" d="M13.5059 9.39093H16.5179L15.0119 11.9999L16.5179 14.6089H13.5059L11.9999 17.2169L10.4939 14.6089H7.48193L8.98793 11.9999L7.48193 9.39093H10.4939L11.9999 6.78296L13.5059 9.39093ZM12.9259 13.603L13.8499 11.9999L12.9249 10.3969H11.0749L10.1499 11.9999L11.0749 13.603H12.9259ZM11.9999 8.79492L12.3439 9.39093H11.6559L11.9999 8.79492ZM9.91293 10.3969H9.22393L9.56893 10.994L9.91293 10.3969ZM9.22393 13.603L9.56893 13.0059L9.91293 13.603H9.22393ZM11.6559 14.6089L11.9999 15.205L12.3439 14.6089H11.6559ZM14.4309 13.0059L14.7759 13.603H14.0869L14.4309 13.0059ZM14.7759 10.3969H14.0869L14.4309 10.994L14.7759 10.3969Z" fill="#0052B4"/>
<path d="M19.4698 2.60889H4.52977C3.43151 3.48298 2.49442 4.54225 1.76077 5.73889H22.2398C21.5057 4.54222 20.5683 3.48296 19.4698 2.60889ZM4.52977 21.3909H19.4698C20.568 20.5167 21.5051 19.4575 22.2388 18.2609H1.75977C2.49375 19.4576 3.43118 20.5168 4.52977 21.3909Z" fill="#0052B4"/>
</g>
</g>
<defs>
<clipPath id="clip0_162_12436">
<rect width="24" height="24" fill="white"/>
</clipPath>
</defs>
</svg>
