<svg width="24" height="24" viewBox="0 0 24 24" fill="none" xmlns="http://www.w3.org/2000/svg">
<circle cx="12" cy="12" r="12" fill="white"/>
<mask id="mask0_164_18440" style="mask-type:luminance" maskUnits="userSpaceOnUse" x="0" y="0" width="24" height="24">
<circle cx="12" cy="12" r="12" fill="white"/>
</mask>
<g mask="url(#mask0_164_18440)">
<circle cx="12" cy="12" r="11.5" fill="#F7FAFC" stroke="#E1EAF0"/>
<path d="M16.174 12.0001C16.174 13.0435 14.3052 15.6522 12.0001 15.6522C9.69489 15.6522 7.82617 13.0435 7.82617 12.0001C7.82617 9.69484 9.69489 7.82617 12.0001 7.82617C14.3052 7.82617 16.174 9.69484 16.174 12.0001Z" fill="#D80027"/>
<path d="M16.174 12C16.174 14.3052 14.3052 16.1739 12.0001 16.1739C9.69489 16.1739 7.82617 14.3052 7.82617 12" fill="#0052B4"/>
<path d="M16.4268 15.6892L17.5335 14.5825L18.2714 15.3203L17.1646 16.4271L16.4268 15.6892Z" fill="#071D2B"/>
<path d="M14.582 17.5339L15.6888 16.4272L16.4266 17.165L15.3199 18.2718L14.582 17.5339Z" fill="#071D2B"/>
<path d="M18.6406 17.9023L19.7474 16.7956L20.4852 17.5334L19.3785 18.6402L18.6406 17.9023Z" fill="#071D2B"/>
<path d="M16.7959 19.7473L17.9027 18.6406L18.6405 19.3784L17.5337 20.4852L16.7959 19.7473Z" fill="#071D2B"/>
<path d="M17.5337 16.7959L18.6404 15.6891L19.3783 16.427L18.2715 17.5337L17.5337 16.7959Z" fill="#071D2B"/>
<path d="M15.6895 18.6406L16.7962 17.5339L17.5341 18.2717L16.4273 19.3785L15.6895 18.6406Z" fill="#071D2B"/>
<path d="M18.6411 8.31055L15.6898 5.35919L16.4276 4.62134L19.379 7.5727L18.6411 8.31055Z" fill="#071D2B"/>
<path d="M15.6895 7.573L14.5827 6.46624L15.3205 5.72843L16.4273 6.83518L15.6895 7.573Z" fill="#071D2B"/>
<path d="M17.5342 9.41748L16.4274 8.31073L17.1652 7.57291L18.272 8.67967L17.5342 9.41748Z" fill="#071D2B"/>
<path d="M17.9023 5.35938L16.7956 4.25262L17.5334 3.51477L18.6402 4.62153L17.9023 5.35938Z" fill="#071D2B"/>
<path d="M19.7476 7.2041L18.6408 6.09735L19.3787 5.3595L20.4854 6.46625L19.7476 7.2041Z" fill="#071D2B"/>
<path d="M4.25244 16.7961L7.2038 19.7475L6.46595 20.4853L3.51459 17.534L4.25244 16.7961Z" fill="#071D2B"/>
<path d="M7.20361 17.5337L8.31037 18.6404L7.57255 19.3783L6.4658 18.2715L7.20361 17.5337Z" fill="#071D2B"/>
<path d="M5.35938 15.6892L6.46613 16.796L5.72828 17.5338L4.62153 16.4271L5.35938 15.6892Z" fill="#071D2B"/>
<path d="M6.46631 14.5825L9.41767 17.5339L8.67982 18.2717L5.72846 15.3204L6.46631 14.5825Z" fill="#071D2B"/>
<path d="M7.2041 4.25244L4.25274 7.2038L3.5149 6.46595L6.46625 3.51459L7.2041 4.25244Z" fill="#071D2B"/>
<path d="M8.31055 5.35889L5.35919 8.31024L4.62134 7.5724L7.5727 4.62104L8.31055 5.35889Z" fill="#071D2B"/>
<path d="M9.41797 6.46631L6.46661 9.41767L5.7288 8.67985L8.68015 5.72849L9.41797 6.46631Z" fill="#071D2B"/>
</g>
</svg>
