<svg width="24" height="24" viewBox="0 0 24 24" fill="none" xmlns="http://www.w3.org/2000/svg">
<g clip-path="url(#clip0_162_12574)">
<mask id="mask0_162_12574" style="mask-type:alpha" maskUnits="userSpaceOnUse" x="0" y="0" width="24" height="24">
<path d="M12 24C18.6274 24 24 18.6274 24 12C24 5.37258 18.6274 0 12 0C5.37258 0 0 5.37258 0 12C0 18.6274 5.37258 24 12 24Z" fill="white"/>
</mask>
<g mask="url(#mask0_162_12574)">
<path d="M7.73241e-06 12C7.73241e-06 13.468 0.264008 14.874 0.746008 16.174L12 17.2169L23.254 16.174C23.736 14.874 24 13.468 24 12C24 10.532 23.736 9.12596 23.254 7.82596L12 6.78296L0.746008 7.82596C0.251015 9.16183 -0.00161125 10.5753 7.73241e-06 12Z" fill="#FFDA44"/>
<path d="M23.2541 7.82599C21.5581 3.25699 17.1601 0 12.0001 0C6.84009 0 2.44209 3.25699 0.746094 7.82599H23.2541ZM0.746094 16.174C2.44209 20.743 6.84009 24 12.0001 24C17.1601 24 21.5581 20.743 23.2541 16.174H0.746094Z" fill="#D80027"/>
</g>
</g>
<defs>
<clipPath id="clip0_162_12574">
<rect width="24" height="24" fill="white"/>
</clipPath>
</defs>
</svg>
