<svg width="24" height="24" viewBox="0 0 24 24" fill="none" xmlns="http://www.w3.org/2000/svg">
<g clip-path="url(#clip0_162_12430)">
<mask id="mask0_162_12430" style="mask-type:alpha" maskUnits="userSpaceOnUse" x="0" y="0" width="24" height="24">
<path d="M12 24C18.6274 24 24 18.6274 24 12C24 5.37258 18.6274 0 12 0C5.37258 0 0 5.37258 0 12C0 18.6274 5.37258 24 12 24Z" fill="white"/>
</mask>
<g mask="url(#mask0_162_12430)">
<path d="M12 23.5C18.3513 23.5 23.5 18.3513 23.5 12C23.5 5.64873 18.3513 0.5 12 0.5C5.64873 0.5 0.5 5.64873 0.5 12C0.5 18.3513 5.64873 23.5 12 23.5Z" fill="#F8F9FA" stroke="#E5E8EA"/>
<path d="M12 8.87001H23.587C23.29 7.76716 22.836 6.71272 22.239 5.73901H12V8.87001ZM4.53 21.391H19.47C20.5682 20.5169 21.5053 19.4576 22.239 18.261H1.76C2.49399 19.4577 3.43142 20.517 4.53 21.391ZM4.174 2.90301C3.22777 3.71779 2.41374 4.67452 1.761 5.73901H4.174V2.90301ZM12 12V8.87001H7.304V12H4.174V8.87001H0.414001C0.138866 9.89058 -0.00033704 10.943 6.12782e-07 12C6.12782e-07 13.083 0.144001 14.132 0.413001 15.13H23.587C23.8618 14.1094 24.0007 13.057 24 12H12ZM12 1.4051e-05C10.334 1.4051e-05 8.747 0.340009 7.304 0.954009V5.73901H12V2.60901H19.47C17.3487 0.916015 14.7141 -0.00414705 12 1.4051e-05Z" fill="#338AF3"/>
</g>
</g>
<defs>
<clipPath id="clip0_162_12430">
<rect width="24" height="24" fill="white"/>
</clipPath>
</defs>
</svg>
