<svg width="24" height="24" viewBox="0 0 24 24" fill="none" xmlns="http://www.w3.org/2000/svg">
<g clip-path="url(#clip0_162_12459)">
<mask id="mask0_162_12459" style="mask-type:alpha" maskUnits="userSpaceOnUse" x="0" y="0" width="24" height="24">
<path d="M12 24C18.6274 24 24 18.6274 24 12C24 5.37258 18.6274 0 12 0C5.37258 0 0 5.37258 0 12C0 18.6274 5.37258 24 12 24Z" fill="white"/>
</mask>
<g mask="url(#mask0_162_12459)">
<path d="M12 23.5C18.3513 23.5 23.5 18.3513 23.5 12C23.5 5.64873 18.3513 0.5 12 0.5C5.64873 0.5 0.5 5.64873 0.5 12C0.5 18.3513 5.64873 23.5 12 23.5Z" fill="#F8F9FA" stroke="#E5E8EA"/>
<path d="M6.7832 16.1741L7.8262 23.2541C9.1262 23.7361 10.5322 24.0001 12.0002 24.0001C17.1602 24.0001 21.5582 20.7431 23.2542 16.1741H6.7832Z" fill="#071D2B"/>
<path d="M6.7832 7.82599L7.8262 0.746002C9.1262 0.264002 10.5322 0 12.0002 0C17.1602 0 21.5582 3.25699 23.2542 7.82599H6.7832Z" fill="#6DA544"/>
<path d="M0 12.0001C0 17.1601 3.257 21.5581 7.826 23.2541V0.746094C3.256 2.44209 0 6.84009 0 12.0001Z" fill="#A2001D"/>
</g>
</g>
<defs>
<clipPath id="clip0_162_12459">
<rect width="24" height="24" fill="white"/>
</clipPath>
</defs>
</svg>
