<svg width="24" height="24" viewBox="0 0 24 24" fill="none" xmlns="http://www.w3.org/2000/svg">
<g clip-path="url(#clip0_162_12661)">
<mask id="mask0_162_12661" style="mask-type:alpha" maskUnits="userSpaceOnUse" x="0" y="0" width="24" height="24">
<circle cx="12" cy="12" r="12" fill="#D9D9D9"/>
</mask>
<g mask="url(#mask0_162_12661)">
<path d="M23.5 12C23.5 18.3513 18.3513 23.5 12 23.5C5.64873 23.5 0.5 18.3513 0.5 12C0.5 5.64873 5.64873 0.5 12 0.5C18.3513 0.5 23.5 5.64873 23.5 12Z" fill="#F8F9FA" stroke="#E5E8EA"/>
<path fill-rule="evenodd" clip-rule="evenodd" d="M36 4.8H0V0H36V4.8ZM0 9.6H36V14.4H0V9.6ZM36 24H0V19.2H36V24Z" fill="#EE0000"/>
<path d="M0 0V24L20.8 12" fill="#0050F0"/>
<path d="M4.56008 15.28L6.92008 7.95996L9.28008 15.28L3.08008 10.76H10.7601" fill="white"/>
</g>
</g>
<defs>
<clipPath id="clip0_162_12661">
<rect width="24" height="24" fill="white"/>
</clipPath>
</defs>
</svg>
