<svg width="24" height="24" viewBox="0 0 24 24" fill="none" xmlns="http://www.w3.org/2000/svg">
<g clip-path="url(#clip0_162_12539)">
<mask id="mask0_162_12539" style="mask-type:alpha" maskUnits="userSpaceOnUse" x="0" y="0" width="24" height="24">
<path d="M12 24C18.6274 24 24 18.6274 24 12C24 5.37258 18.6274 0 12 0C5.37258 0 0 5.37258 0 12C0 18.6274 5.37258 24 12 24Z" fill="white"/>
</mask>
<g mask="url(#mask0_162_12539)">
<path d="M12.0229 23.454C18.3615 23.454 23.4999 18.3156 23.4999 11.977C23.4999 5.63843 18.3615 0.5 12.0229 0.5C5.68433 0.5 0.545898 5.63843 0.545898 11.977C0.545898 18.3156 5.68433 23.454 12.0229 23.454Z" fill="#F8F9FA" stroke="#E5E8EA"/>
<path d="M10.9817 11.9771C10.9817 11.9771 3.56169 20.4471 3.55469 20.4451C4.66538 21.5589 5.9853 22.4423 7.43854 23.0443C8.89178 23.6463 10.4497 23.9552 12.0227 23.953C18.6377 23.953 23.9997 18.5911 23.9997 11.9771H10.9817Z" fill="#D80027"/>
<path d="M3.55489 3.50806C-1.12311 8.18506 -1.12311 15.7681 3.55489 20.4451L12.0229 11.9771L3.55489 3.50806Z" fill="#0052B4"/>
</g>
</g>
<defs>
<clipPath id="clip0_162_12539">
<rect width="24" height="24" fill="white"/>
</clipPath>
</defs>
</svg>
