<svg width="24" height="24" viewBox="0 0 24 24" fill="none" xmlns="http://www.w3.org/2000/svg">
<circle cx="12" cy="12" r="12" fill="white"/>
<mask id="mask0_201_9442" style="mask-type:luminance" maskUnits="userSpaceOnUse" x="0" y="0" width="24" height="24">
<circle cx="12" cy="12" r="12" fill="white"/>
</mask>
<g mask="url(#mask0_201_9442)">
<circle cx="12" cy="12" r="11.5" fill="#F7FAFC" stroke="#E1EAF0"/>
<path d="M2.56956 4.57849C2.79698 4.2899 3.24362 4.3816 3.36029 4.73001V4.73001C3.39429 4.83158 3.46126 4.91887 3.55056 4.97801L6.07354 6.64922C6.37421 6.84838 6.4183 7.27247 6.16504 7.52923V7.52923C6.05929 7.63644 5.99999 7.78098 5.99999 7.93157V9.20132C5.99999 9.35472 6.03528 9.50606 6.10313 9.64364L6.92572 11.3115C7.06266 11.5892 7.32046 11.7878 7.62387 11.8493L9.19868 12.1686C9.66488 12.2631 9.99997 12.673 9.99997 13.1486V17.934C9.99997 18.0596 10.0236 18.1842 10.0698 18.301L10.9769 20.6001C11.0822 20.8669 11.2996 21.0737 11.5712 21.1654V21.1654C12.2027 21.3788 12.8571 20.9092 12.8571 20.2426V19.1993C12.8571 18.8869 13.0032 18.5924 13.2519 18.4033L14.7481 17.2657C14.9968 17.0766 15.1428 16.7821 15.1428 16.4697V15.6378C15.1428 15.375 15.2463 15.1227 15.4309 14.9356L17.2176 13.1243C17.3552 12.9848 17.4488 12.8079 17.4867 12.6156L17.7645 11.2073C17.8865 10.5893 17.4134 10.0138 16.7835 10.0138H16.2844C15.931 10.0138 15.6039 9.82726 15.4239 9.52313L14.2904 7.60792C14.1104 7.30379 13.7832 7.11725 13.4298 7.11725H10.6218C10.241 7.11725 9.89334 6.90104 9.72493 6.55957L9.30681 5.71177C9.08679 5.26565 8.49253 5.16963 8.14321 5.52377L8.04013 5.62827C7.62376 6.05039 6.90502 5.75556 6.90502 5.16264V5.16264C6.90502 4.98605 6.83457 4.81675 6.7093 4.69228L6.03611 4.02342C5.84718 3.83571 5.74093 3.58037 5.74093 3.31404V2.86327C5.74093 2.36528 6.10735 1.94318 6.60041 1.87319L9.61635 1.44512C9.74767 1.42649 9.87396 1.38191 9.98789 1.314L11.9458 0.146791C12.1052 0.0517832 12.2887 0.0019889 12.4741 0.00919214C18.8818 0.258145 24 5.53136 24 12C24 18.6274 18.6274 24 12 24C5.37258 24 0 18.6274 0 12C0 9.19818 0.96023 6.62063 2.56956 4.57849Z" fill="#00A651"/>
</g>
</svg>
