<svg width="24" height="24" viewBox="0 0 24 24" fill="none" xmlns="http://www.w3.org/2000/svg">
<g clip-path="url(#clip0_162_12743)">
<mask id="mask0_162_12743" style="mask-type:alpha" maskUnits="userSpaceOnUse" x="0" y="0" width="24" height="24">
<path d="M12 24C18.6274 24 24 18.6274 24 12C24 5.37258 18.6274 0 12 0C5.37258 0 0 5.37258 0 12C0 18.6274 5.37258 24 12 24Z" fill="white"/>
</mask>
<g mask="url(#mask0_162_12743)">
<path d="M12 23.5C18.3513 23.5 23.5 18.3513 23.5 12C23.5 5.64873 18.3513 0.5 12 0.5C5.64873 0.5 0.5 5.64873 0.5 12C0.5 18.3513 5.64873 23.5 12 23.5Z" fill="#F8F9FA" stroke="#E5E8EA"/>
<path d="M12 24.0469C18.627 24.0469 24 18.6739 24 12.0469C24 5.41888 18.627 0.046875 12 0.046875V6.30789H8.474L12 9.83289V12.0149L11.968 12.0469H9.786L6.261 8.52087V12.0469H0C0 18.6739 5.373 24.0469 12 24.0469Z" fill="#0052B4"/>
<path d="M11.98 12.108H12.062V12.026C12.0346 12.0536 12.008 12.081 11.98 12.108Z" fill="#F0F0F0"/>
<path d="M6.07094 1.61182C4.19208 2.68261 2.63573 4.23896 1.56494 6.11783V12.0468H4.69494V4.74283H11.9999V1.61182H6.07094Z" fill="#D80027"/>
<path d="M11.9998 10.5709L7.73677 6.30786H6.25977L11.9998 12.0468V10.5709Z" fill="#D80027"/>
<path d="M7.23704 14.1339L7.89604 15.5109L9.38304 15.1669L8.71704 16.5409L9.91304 17.4889L8.42304 17.8249L8.42804 19.3509L7.23804 18.3959L6.04604 19.3509L6.05104 17.8249L4.56104 17.4889L5.75804 16.5409L5.09104 15.1669L6.57904 15.5109L7.23704 14.1339ZM17.966 16.7429L18.296 17.4309L19.039 17.2589L18.706 17.9459L19.304 18.4199L18.56 18.5879L18.562 19.3509L17.966 18.8739L17.371 19.3509L17.373 18.5879L16.629 18.4199L17.227 17.9459L16.894 17.2589L17.637 17.4309L17.966 16.7429ZM14.903 9.4379L15.233 10.1269L15.976 9.9549L15.643 10.6419L16.241 11.1159L15.496 11.2839L15.498 12.0469L14.903 11.5689L14.308 12.0469L14.31 11.2839L13.565 11.1159L14.163 10.6419L13.83 9.9549L14.574 10.1269L14.904 9.4379H14.903ZM17.966 5.26392L18.296 5.95291L19.039 5.78091L18.706 6.4679L19.304 6.94189L18.56 7.10989L18.562 7.87289L17.966 7.3949L17.371 7.87289L17.373 7.10989L16.629 6.94189L17.227 6.4679L16.894 5.78091L17.637 5.95291L17.966 5.26392ZM20.642 8.3949L20.972 9.08292L21.715 8.91092L21.382 9.5979L21.98 10.0719L21.235 10.2399L21.238 11.0029L20.642 10.5259L20.047 11.0029L20.049 10.2399L19.304 10.0719L19.902 9.5979L19.569 8.91092L20.313 9.08292L20.642 8.3949ZM18.729 12.0469L18.988 12.8439H19.826L19.148 13.3369L19.407 14.1339L18.729 13.6409L18.051 14.1339L18.31 13.3369L17.632 12.8439H18.47L18.729 12.0469Z" fill="#F8F9FA"/>
</g>
</g>
<defs>
<clipPath id="clip0_162_12743">
<rect width="24" height="24" fill="white"/>
</clipPath>
</defs>
</svg>
