<svg width="24" height="24" viewBox="0 0 24 24" fill="none" xmlns="http://www.w3.org/2000/svg">
<g clip-path="url(#clip0_162_12443)">
<mask id="mask0_162_12443" style="mask-type:alpha" maskUnits="userSpaceOnUse" x="0" y="0" width="24" height="24">
<path d="M12 24C18.6274 24 24 18.6274 24 12C24 5.37258 18.6274 0 12 0C5.37258 0 0 5.37258 0 12C0 18.6274 5.37258 24 12 24Z" fill="white"/>
</mask>
<g mask="url(#mask0_162_12443)">
<path d="M23.4999 12C23.4999 18.352 18.3599 23.5 12.0229 23.5C5.68587 23.5 0.546875 18.352 0.546875 12C0.546875 5.648 5.68587 0.5 12.0229 0.5C18.3609 0.5 23.4999 5.648 23.4999 12Z" fill="#F8F9FA" stroke="#E5E8EA"/>
<path d="M3.55489 20.4851C-1.12311 15.7991 -1.12311 8.20114 3.55489 3.51514L10.4599 12.0001L3.55389 20.4851H3.55489Z" fill="#071D2B"/>
<path d="M10.4611 11.9999L1.63511 6.02393C1.36044 6.50304 1.1192 7.00057 0.913109 7.51294L5.38011 11.9999L0.912109 16.4869C1.11911 17.0019 1.36011 17.4989 1.63411 17.9749L10.4601 11.9999H10.4611Z" fill="#FFDA44"/>
<path d="M23.8988 10.4351H10.4598L3.55379 3.51514C2.8065 4.26363 2.16096 5.10718 1.63379 6.02411L7.58779 12.0001L1.63479 17.9751C2.16165 18.8926 2.80721 19.7365 3.55479 20.4851L10.4608 13.5651H23.8988C24.034 12.5262 24.034 11.4741 23.8988 10.4351Z" fill="#6DA544"/>
<path d="M4.73193 21.5189C6.82025 23.1309 9.38484 24.0035 12.0229 23.9999C17.5569 23.9999 22.2129 20.2399 23.5869 15.1299H11.1079L4.73193 21.5189Z" fill="#0052B4"/>
<path d="M23.5869 8.87C22.2129 3.75999 17.5569 0 12.0229 0C9.27893 0 6.75093 0.924988 4.73193 2.48099L11.1079 8.87H23.5869Z" fill="#D80027"/>
</g>
</g>
<defs>
<clipPath id="clip0_162_12443">
<rect width="24" height="24" fill="white"/>
</clipPath>
</defs>
</svg>
