<svg width="24" height="24" viewBox="0 0 24 24" fill="none" xmlns="http://www.w3.org/2000/svg">
<g clip-path="url(#clip0_162_12958)">
<mask id="mask0_162_12958" style="mask-type:alpha" maskUnits="userSpaceOnUse" x="0" y="0" width="24" height="24">
<path d="M12 24C18.6274 24 24 18.6274 24 12C24 5.37258 18.6274 0 12 0C5.37258 0 0 5.37258 0 12C0 18.6274 5.37258 24 12 24Z" fill="white"/>
</mask>
<g mask="url(#mask0_162_12958)">
<path d="M12 23.5C18.3513 23.5 23.5 18.3513 23.5 12C23.5 5.64873 18.3513 0.5 12 0.5C5.64873 0.5 0.5 5.64873 0.5 12C0.5 18.3513 5.64873 23.5 12 23.5Z" fill="#F8F9FA" stroke="#E5E8EA"/>
<path d="M12.0001 0V12L3.51514 20.49C4.62864 21.605 5.95142 22.489 7.40752 23.0913C8.86363 23.6937 10.4244 24.0025 12.0001 24C18.6271 24 24.0001 18.63 24.0001 12C24.0001 5.37 12.0001 0 12.0001 0Z" fill="#D80027"/>
<path d="M12.0001 0C8.68614 0 5.68614 1.34001 3.51514 3.51001C6.45914 6.46001 7.50514 7.5 12.0001 12H24.0001C24.0001 5.37 18.6271 0 12.0001 0Z" fill="#0052B4"/>
<path d="M8.21697 12.0002L6.75097 11.3103L7.53097 9.89026L5.94097 10.2002L5.73897 8.59021L4.62997 9.77026L3.52197 8.59021L3.31997 10.2002L1.72897 9.89026L2.50897 11.3103L1.04297 12.0002L2.50897 12.6902L1.72897 14.1102L3.31997 13.8003L3.52197 15.4103L4.62997 14.2302L5.73897 15.4103L5.93997 13.8003L7.53197 14.1102L6.75197 12.6902L8.21697 12.0002ZM3.19997 4.7002L3.68797 5.38025L4.48697 5.12024L3.98897 5.80029L4.47697 6.48022L3.68197 6.22021L3.18397 6.89026L3.18997 6.05029L2.39497 5.79028L3.19497 5.53027L3.19997 4.7002ZM3.19997 17.1102L3.68797 17.7903L4.48697 17.5403L3.98897 18.2102L4.47697 18.8903L3.68197 18.6302L3.18397 19.3003L3.18997 18.4702L2.39497 18.2002L3.19497 17.9502L3.19997 17.1102ZM10.156 10.9003L9.66897 11.5802L8.86897 11.3302L9.36697 12.0103L8.87997 12.6902L9.67497 12.4203L10.173 13.1002L10.166 12.2603L10.961 11.9902L10.162 11.7402L10.156 10.9003Z" fill="#FFB800"/>
</g>
</g>
<defs>
<clipPath id="clip0_162_12958">
<rect width="24" height="24" fill="white"/>
</clipPath>
</defs>
</svg>
