<svg width="24" height="24" viewBox="0 0 24 24" fill="none" xmlns="http://www.w3.org/2000/svg">
<g clip-path="url(#clip0_162_12717)">
<mask id="mask0_162_12717" style="mask-type:alpha" maskUnits="userSpaceOnUse" x="0" y="0" width="24" height="24">
<path d="M12 24C18.6274 24 24 18.6274 24 12C24 5.37258 18.6274 0 12 0C5.37258 0 0 5.37258 0 12C0 18.6274 5.37258 24 12 24Z" fill="white"/>
</mask>
<g mask="url(#mask0_162_12717)">
<path d="M12 23.5C18.3513 23.5 23.5 18.3513 23.5 12C23.5 5.64873 18.3513 0.5 12 0.5C5.64873 0.5 0.5 5.64873 0.5 12C0.5 18.3513 5.64873 23.5 12 23.5Z" fill="#F8F9FA" stroke="#E5E8EA"/>
<path d="M24 12C24 18.627 18.627 24 12 24C5.373 24 0 18.627 0 12C0 5.37302 12 12 12 12H24Z" fill="#D80027"/>
<path d="M0 12C0 5.373 5.373 0 12 0V12H0Z" fill="#0052B4"/>
<path d="M7.14307 4.17407L7.92007 6.56506H10.4351L8.40007 8.04306L9.17707 10.4351L7.14207 8.95706L5.10807 10.4351L5.88507 8.04306L3.85107 6.56506H6.36507L7.14307 4.17407Z" fill="#F8F9FA"/>
</g>
</g>
<defs>
<clipPath id="clip0_162_12717">
<rect width="24" height="24" fill="white"/>
</clipPath>
</defs>
</svg>
