<svg width="24" height="24" viewBox="0 0 24 24" fill="none" xmlns="http://www.w3.org/2000/svg">
<g clip-path="url(#clip0_162_12923)">
<mask id="mask0_162_12923" style="mask-type:alpha" maskUnits="userSpaceOnUse" x="0" y="0" width="24" height="24">
<path d="M12 24C18.6274 24 24 18.6274 24 12C24 5.37258 18.6274 0 12 0C5.37258 0 0 5.37258 0 12C0 18.6274 5.37258 24 12 24Z" fill="white"/>
</mask>
<g mask="url(#mask0_162_12923)">
<path d="M12 23.5C18.3513 23.5 23.5 18.3513 23.5 12C23.5 5.64873 18.3513 0.5 12 0.5C5.64873 0.5 0.5 5.64873 0.5 12C0.5 18.3513 5.64873 23.5 12 23.5Z" fill="#F8F9FA" stroke="#E5E8EA"/>
<path d="M12 23.9999C18.627 23.9999 24 18.6379 24 12.0229C24 5.40889 18.627 0.046875 12 0.046875V6.29489H8.474L12 9.81387V11.9909L11.968 12.0229H9.786L6.261 8.50488V12.0229H0C0 18.6379 5.373 23.9999 12 23.9999Z" fill="#0052B4"/>
<path d="M11.9795 12.0899H12.0615V12.0039L11.9795 12.0899Z" fill="#F0F0F0"/>
<path d="M6.07143 1.60889C4.19346 2.67685 2.63715 4.23004 1.56543 6.10587V12.0229H4.69543V4.73288H12.0004V1.60889H6.07143Z" fill="#D80027"/>
<path d="M11.9998 10.5509L7.73677 6.29492H6.25977L11.9998 12.0229V10.5509Z" fill="#D80027"/>
<path d="M20.7811 8.93381L21.0411 9.72882H21.8781L21.2001 10.2208L21.4601 11.0168L20.7811 10.5248L20.1031 11.0168L20.3621 10.2208L19.6841 9.72882H20.5221L20.7811 8.93381ZM17.7851 14.6618L18.1731 15.8548H19.4311L18.4131 16.5928L18.8031 17.7858L17.7851 17.0478L16.7681 17.7858L17.1561 16.5928L16.1391 15.8548H17.3961L17.7851 14.6618ZM17.8981 5.28882L18.2221 6.28281H19.2701L18.4221 6.89783L18.7461 7.89182L17.8981 7.27783L17.0501 7.89182L17.3741 6.89783L16.5271 6.28281H17.5741L17.8981 5.28882ZM15.0151 8.8988L15.4041 10.0918H16.6611L15.6441 10.8298L16.0321 12.0228L15.0151 11.2858L13.9981 12.0228L14.3871 10.8298L13.3691 10.0918H14.6271L15.0151 8.8988Z" fill="#FF002E"/>
</g>
</g>
<defs>
<clipPath id="clip0_162_12923">
<rect width="24" height="24" fill="white"/>
</clipPath>
</defs>
</svg>
