<svg width="24" height="24" viewBox="0 0 24 24" fill="none" xmlns="http://www.w3.org/2000/svg">
<g clip-path="url(#clip0_162_12732)">
<mask id="mask0_162_12732" style="mask-type:alpha" maskUnits="userSpaceOnUse" x="0" y="0" width="24" height="24">
<path d="M12 24C18.6274 24 24 18.6274 24 12C24 5.37258 18.6274 0 12 0C5.37258 0 0 5.37258 0 12C0 18.6274 5.37258 24 12 24Z" fill="white"/>
</mask>
<g mask="url(#mask0_162_12732)">
<path d="M12 23.5C18.3513 23.5 23.5 18.3513 23.5 12C23.5 5.64873 18.3513 0.5 12 0.5C5.64873 0.5 0.5 5.64873 0.5 12C0.5 18.3513 5.64873 23.5 12 23.5Z" fill="#F8F9FA" stroke="#E5E8EA"/>
<path d="M23.9998 11.9999C24.0002 9.74267 23.364 7.53106 22.1642 5.61908C20.9644 3.7071 19.2496 2.17227 17.2168 1.19092V22.809C19.2496 21.8276 20.9644 20.2928 22.1642 18.3808C23.364 16.4688 24.0002 14.2572 23.9998 11.9999Z" fill="#D80027"/>
<path d="M2.37231e-07 11.9999C-0.000448519 14.2572 0.635777 16.4688 1.83561 18.3808C3.03544 20.2928 4.75021 21.8276 6.783 22.809V1.19092C4.75021 2.17227 3.03544 3.7071 1.83561 5.61908C0.635777 7.53106 -0.000448519 9.74267 2.37231e-07 11.9999ZM8.87 11.9999C8.87 12.8301 9.19977 13.6262 9.78676 14.2132C10.3737 14.8002 11.1699 15.1299 12 15.1299C12.8301 15.1299 13.6263 14.8002 14.2132 14.2132C14.8002 13.6262 15.13 12.8301 15.13 11.9999V10.9569H8.87V11.9999Z" fill="#6DA544"/>
<path d="M16.1742 9.91315H13.0442C13.0442 9.63626 12.9342 9.37071 12.7384 9.17493C12.5426 8.97914 12.2771 8.86914 12.0002 8.86914C11.7233 8.86914 11.4577 8.97914 11.262 9.17493C11.0662 9.37071 10.9562 9.63626 10.9562 9.91315H7.82617C7.82617 10.4891 8.32817 10.9571 8.90417 10.9571H8.87017C8.87017 11.5331 9.33717 12.0001 9.91317 12.0001C9.91317 12.5761 10.3802 13.0441 10.9562 13.0441H13.0432C13.6202 13.0441 14.0872 12.5761 14.0872 12.0001C14.6632 12.0001 15.1302 11.5331 15.1302 10.9571H15.0962C15.6722 10.9571 16.1742 10.4891 16.1742 9.91315Z" fill="#FF9811"/>
</g>
</g>
<defs>
<clipPath id="clip0_162_12732">
<rect width="24" height="24" fill="white"/>
</clipPath>
</defs>
</svg>
