<svg width="24" height="24" viewBox="0 0 24 24" fill="none" xmlns="http://www.w3.org/2000/svg">
<g clip-path="url(#clip0_162_12690)">
<mask id="mask0_162_12690" style="mask-type:alpha" maskUnits="userSpaceOnUse" x="0" y="0" width="24" height="24">
<path d="M12 24C18.6274 24 24 18.6274 24 12C24 5.37258 18.6274 0 12 0C5.37258 0 0 5.37258 0 12C0 18.6274 5.37258 24 12 24Z" fill="white"/>
</mask>
<g mask="url(#mask0_162_12690)">
<path d="M12 23.5C18.3513 23.5 23.5 18.3513 23.5 12C23.5 5.64873 18.3513 0.5 12 0.5C5.64873 0.5 0.5 5.64873 0.5 12C0.5 18.3513 5.64873 23.5 12 23.5Z" fill="#F8F9FA" stroke="#E5E8EA"/>
<path d="M11.9999 4.77771e-07C9.7425 -0.00063641 7.53067 0.635487 5.61849 1.83533C3.70632 3.03517 2.17136 4.75005 1.18994 6.78299H22.8099C21.8285 4.75005 20.2936 3.03517 18.3814 1.83533C16.4692 0.635487 14.2574 -0.00063641 11.9999 4.77771e-07ZM11.9999 24C16.7579 24 20.8679 21.231 22.8099 17.217H1.18994C2.17136 19.2499 3.70632 20.9648 5.61849 22.1647C7.53067 23.3645 9.7425 24.0006 11.9999 24Z" fill="#338AF3"/>
<path d="M15.5871 11.9999L14.1211 12.6889L14.9011 14.1089L13.3111 13.8039L13.1081 15.4119L12.0001 14.2299L10.8921 15.4119L10.6901 13.8039L9.09806 14.1089L9.87806 12.6889L8.41406 11.9999L9.88006 11.3109L9.10006 9.89087L10.6901 10.1959L10.8931 8.58789L12.0001 9.77087L13.1081 8.58789L13.3101 10.1959L14.9021 9.89087L14.1221 11.3109L15.5871 11.9999Z" fill="#FFCD00"/>
</g>
</g>
<defs>
<clipPath id="clip0_162_12690">
<rect width="24" height="24" fill="white"/>
</clipPath>
</defs>
</svg>
