<svg width="24" height="24" viewBox="0 0 24 24" fill="none" xmlns="http://www.w3.org/2000/svg">
<g clip-path="url(#clip0_162_12485)">
<mask id="mask0_162_12485" style="mask-type:alpha" maskUnits="userSpaceOnUse" x="0" y="0" width="24" height="24">
<path d="M12 24C18.6274 24 24 18.6274 24 12C24 5.37258 18.6274 0 12 0C5.37258 0 0 5.37258 0 12C0 18.6274 5.37258 24 12 24Z" fill="white"/>
</mask>
<g mask="url(#mask0_162_12485)">
<path d="M12 23.5C18.3513 23.5 23.5 18.3513 23.5 12C23.5 5.64873 18.3513 0.5 12 0.5C5.64873 0.5 0.5 5.64873 0.5 12C0.5 18.3513 5.64873 23.5 12 23.5Z" fill="#F8F9FA" stroke="#E5E8EA"/>
<path d="M23.254 16.174C23.736 14.874 24 13.4679 24 11.9999C24 10.5319 23.736 9.12593 23.254 7.82593H0.746008C0.251015 9.1618 -0.00161125 10.5753 7.73241e-06 11.9999C7.73241e-06 13.4679 0.264008 14.874 0.746008 16.174L12 17.2169L23.254 16.174Z" fill="#0052B4"/>
<path d="M12.0001 24.0001C17.1601 24.0001 21.5581 20.7441 23.2541 16.1741H0.746094C2.44209 20.7441 6.84009 24.0001 12.0001 24.0001Z" fill="#D80027"/>
</g>
</g>
<defs>
<clipPath id="clip0_162_12485">
<rect width="24" height="24" fill="white"/>
</clipPath>
</defs>
</svg>
