<svg width="24" height="24" viewBox="0 0 24 24" fill="none" xmlns="http://www.w3.org/2000/svg">
<g clip-path="url(#clip0_162_12552)">
<mask id="mask0_162_12552" style="mask-type:alpha" maskUnits="userSpaceOnUse" x="0" y="0" width="24" height="24">
<path d="M12 24C18.6274 24 24 18.6274 24 12C24 5.37258 18.6274 0 12 0C5.37258 0 0 5.37258 0 12C0 18.6274 5.37258 24 12 24Z" fill="white"/>
</mask>
<g mask="url(#mask0_162_12552)">
<path d="M0.746094 16.1739C2.44209 20.7429 6.84009 23.9999 12.0001 23.9999C17.1601 23.9999 21.5581 20.7429 23.2541 16.1739L12.0001 15.1299L0.746094 16.1739Z" fill="#FFDA44"/>
<path d="M12.0001 0C6.84009 0 2.44209 3.257 0.746094 7.826L12.0001 8.87L23.2541 7.826C21.5581 3.257 17.1601 0 12.0001 0Z" fill="#071D2B"/>
<path d="M0.746008 7.82593C0.251015 9.1618 -0.00161125 10.5753 7.73241e-06 11.9999C7.73241e-06 13.4679 0.264008 14.8739 0.746008 16.1739H23.254C23.736 14.8739 24 13.4679 24 11.9999C24 10.5319 23.736 9.12593 23.254 7.82593H0.746008Z" fill="#D80027"/>
</g>
</g>
<defs>
<clipPath id="clip0_162_12552">
<rect width="24" height="24" fill="white"/>
</clipPath>
</defs>
</svg>
