<svg width="24" height="24" viewBox="0 0 24 24" fill="none" xmlns="http://www.w3.org/2000/svg">
<g clip-path="url(#clip0_162_12518)">
<mask id="mask0_162_12518" style="mask-type:alpha" maskUnits="userSpaceOnUse" x="0" y="0" width="24" height="24">
<path d="M12 24C18.6274 24 24 18.6274 24 12C24 5.37258 18.6274 0 12 0C5.37258 0 0 5.37258 0 12C0 18.6274 5.37258 24 12 24Z" fill="white"/>
</mask>
<g mask="url(#mask0_162_12518)">
<path d="M0 12.0001C0 17.1591 3.256 21.5582 7.826 23.2542L8.87 12.0001L7.826 0.746094C3.256 2.44209 0 6.84012 0 12.0001Z" fill="#6DA544"/>
<path d="M24.0002 12C24.0002 5.373 18.6272 0 12.0002 0C10.5322 0 9.12617 0.263972 7.82617 0.745972V23.254C9.12617 23.736 10.5322 24 12.0002 24C18.6272 24 24.0002 18.627 24.0002 12Z" fill="#D80027"/>
<path d="M7.82586 16.174C10.1311 16.174 11.9999 14.3052 11.9999 11.9999C11.9999 9.6947 10.1311 7.82593 7.82586 7.82593C5.52062 7.82593 3.65186 9.6947 3.65186 11.9999C3.65186 14.3052 5.52062 16.174 7.82586 16.174Z" fill="#FFDA44"/>
<path d="M5.47803 9.91309V12.522C5.47803 13.1448 5.72541 13.742 6.16574 14.1824C6.60608 14.6227 7.2033 14.8701 7.82603 14.8701C8.44876 14.8701 9.04598 14.6227 9.48631 14.1824C9.92665 13.742 10.174 13.1448 10.174 12.522V9.91309H5.47803Z" fill="#D80027"/>
<path d="M7.82597 13.304C7.61848 13.304 7.41947 13.2216 7.27266 13.075C7.12585 12.9284 7.04323 12.7295 7.04297 12.522V11.478H8.60997V12.522C8.6097 12.7295 8.52709 12.9284 8.38028 13.075C8.23347 13.2216 8.03346 13.304 7.82597 13.304Z" fill="#F0F0F0"/>
</g>
</g>
<defs>
<clipPath id="clip0_162_12518">
<rect width="24" height="24" fill="white"/>
</clipPath>
</defs>
</svg>
