<svg width="24" height="24" viewBox="0 0 24 24" fill="none" xmlns="http://www.w3.org/2000/svg">
<g clip-path="url(#clip0_162_12933)">
<mask id="mask0_162_12933" style="mask-type:alpha" maskUnits="userSpaceOnUse" x="0" y="0" width="24" height="24">
<path d="M12 24C18.6274 24 24 18.6274 24 12C24 5.37258 18.6274 0 12 0C5.37258 0 0 5.37258 0 12C0 18.6274 5.37258 24 12 24Z" fill="white"/>
</mask>
<g mask="url(#mask0_162_12933)">
<path d="M12 23.5C18.3513 23.5 23.5 18.3513 23.5 12C23.5 5.64873 18.3513 0.5 12 0.5C5.64873 0.5 0.5 5.64873 0.5 12C0.5 18.3513 5.64873 23.5 12 23.5Z" fill="#F8F9FA" stroke="#E5E8EA"/>
<path d="M12.0004 4.77771e-07C9.74299 -0.00063641 7.53115 0.635487 5.61898 1.83533C3.70681 3.03517 2.17185 4.75008 1.19043 6.78302H22.8104C21.829 4.75008 20.2941 3.03517 18.3819 1.83533C16.4697 0.635487 14.2579 -0.00063641 12.0004 4.77771e-07Z" fill="#FF9811"/>
<path d="M12.0004 23.9998C16.7584 23.9998 20.8684 21.2308 22.8104 17.2168H1.19043C2.17185 19.2497 3.70681 20.9646 5.61898 22.1645C7.53115 23.3643 9.74299 24.0005 12.0004 23.9998Z" fill="#6DA544"/>
<path d="M12.0002 16.174C14.3054 16.174 16.1742 14.3052 16.1742 11.9999C16.1742 9.6947 14.3054 7.82593 12.0002 7.82593C9.69494 7.82593 7.82617 9.6947 7.82617 11.9999C7.82617 14.3052 9.69494 16.174 12.0002 16.174Z" fill="#0052B4"/>
<path d="M11.9996 14.6091C13.4405 14.6091 14.6086 13.441 14.6086 12.0001C14.6086 10.5592 13.4405 9.39111 11.9996 9.39111C10.5587 9.39111 9.39062 10.5592 9.39062 12.0001C9.39062 13.441 10.5587 14.6091 11.9996 14.6091Z" fill="#F0F0F0"/>
<path d="M11.9999 8.78125L12.8049 10.6063L14.7879 10.3903L13.6099 12.0002L14.7879 13.6102L12.8049 13.3942L11.9999 15.2192L11.1949 13.3942L9.21191 13.6093L10.3899 12.0002L9.21191 10.3903L11.1949 10.6063L11.9999 8.78125Z" fill="#0052B4"/>
</g>
</g>
<defs>
<clipPath id="clip0_162_12933">
<rect width="24" height="24" fill="white"/>
</clipPath>
</defs>
</svg>
