<svg width="24" height="24" viewBox="0 0 24 24" fill="none" xmlns="http://www.w3.org/2000/svg">
<g clip-path="url(#clip0_162_12697)">
<mask id="mask0_162_12697" style="mask-type:alpha" maskUnits="userSpaceOnUse" x="0" y="0" width="24" height="24">
<path d="M12 24C18.6274 24 24 18.6274 24 12C24 5.37258 18.6274 0 12 0C5.37258 0 0 5.37258 0 12C0 18.6274 5.37258 24 12 24Z" fill="white"/>
</mask>
<g mask="url(#mask0_162_12697)">
<path d="M12 24C18.6274 24 24 18.6274 24 12C24 5.37258 18.6274 0 12 0C5.37258 0 0 5.37258 0 12C0 18.6274 5.37258 24 12 24Z" fill="#6DA544"/>
<path d="M11.9999 4.69604L21.9129 12.0001L11.9999 19.3041L2.08691 12.0001L11.9999 4.69604Z" fill="#FFDA44"/>
<path d="M12.0002 16.174C14.3054 16.174 16.1742 14.3052 16.1742 11.9999C16.1742 9.6947 14.3054 7.82593 12.0002 7.82593C9.69494 7.82593 7.82617 9.6947 7.82617 11.9999C7.82617 14.3052 9.69494 16.174 12.0002 16.174Z" fill="#F8F9FA"/>
<path d="M9.91315 11.739C9.20595 11.7387 8.50275 11.8449 7.82715 12.054C7.83912 12.9365 8.13052 13.7925 8.65949 14.499C9.18845 15.2055 9.92776 15.7261 10.7712 15.9861C11.6146 16.2461 12.5187 16.2321 13.3537 15.946C14.1886 15.6599 14.9114 15.1165 15.4181 14.3939C14.7594 13.5658 13.9222 12.897 12.9691 12.4373C12.0159 11.9776 10.9714 11.7389 9.91315 11.739ZM16.0971 12.7999C16.2947 11.7887 16.1112 10.7402 15.5821 9.85609C15.053 8.97201 14.2156 8.31491 13.231 8.01118C12.2465 7.70745 11.1844 7.77856 10.2492 8.21089C9.31392 8.64322 8.57163 9.40622 8.16515 10.353C9.58633 10.0569 11.0594 10.126 12.4466 10.5539C13.8338 10.9819 15.0898 11.7546 16.0971 12.7999Z" fill="#0052B4"/>
</g>
</g>
<defs>
<clipPath id="clip0_162_12697">
<rect width="24" height="24" fill="white"/>
</clipPath>
</defs>
</svg>
