<svg width="24" height="24" viewBox="0 0 24 24" fill="none" xmlns="http://www.w3.org/2000/svg">
<g clip-path="url(#clip0_162_12676)">
<mask id="mask0_162_12676" style="mask-type:alpha" maskUnits="userSpaceOnUse" x="0" y="0" width="24" height="24">
<path d="M12 24C18.6274 24 24 18.6274 24 12C24 5.37258 18.6274 0 12 0C5.37258 0 0 5.37258 0 12C0 18.6274 5.37258 24 12 24Z" fill="white"/>
</mask>
<g mask="url(#mask0_162_12676)">
<path d="M12 23.5C18.3513 23.5 23.5 18.3513 23.5 12C23.5 5.64873 18.3513 0.5 12 0.5C5.64873 0.5 0.5 5.64873 0.5 12C0.5 18.3513 5.64873 23.5 12 23.5Z" fill="#F8F9FA" stroke="#E5E8EA"/>
<path d="M11.4781 11.9999H24.0001C24.0007 10.9429 23.8619 9.89049 23.5871 8.86987H11.4781V11.9999ZM11.4781 5.73889H22.2381C21.5047 4.54235 20.568 3.4831 19.4701 2.60889H11.4781V5.73889ZM12.0001 23.9999C14.8241 23.9999 17.4201 23.0239 19.4701 21.3909H4.53009C6.65141 23.0839 9.28601 24.004 12.0001 23.9999ZM1.76109 18.2609H22.2401C22.8372 17.2872 23.2911 16.2328 23.5881 15.1299H0.413086C0.710475 16.2326 1.16443 17.287 1.76109 18.2609Z" fill="#D80027"/>
<path fill-rule="evenodd" clip-rule="evenodd" d="M6.652 1.874H5.56C7.48366 0.647163 9.71842 -0.00313098 12 1.13344e-05V12H0C0 11.493 0.032 10.994 0.093 10.504L0.702 10.061L1.719 10.8L1.331 9.60402L2.348 8.865H1.09L0.749 7.817C0.867 7.5 0.998 7.18902 1.141 6.88502L1.718 7.304L1.409 6.35301C1.502 6.17901 1.599 6.00801 1.699 5.84001L2.347 5.37001H1.997C2.64303 4.39727 3.42687 3.52349 4.324 2.77601L3.988 3.809L5.005 3.07002L6.023 3.809L5.634 2.61302L6.652 1.874ZM5.006 10.061L6.024 10.8L5.635 9.60402L6.652 8.865H5.395L5.006 7.67002L4.618 8.865H3.36L4.377 9.60402L3.988 10.8L5.006 10.061ZM5.635 6.10902L6.024 7.304L5.006 6.56501L3.989 7.304L4.378 6.10902L3.361 5.37001H4.618L5.006 4.17402L5.395 5.37001H6.652L5.635 6.10902ZM9.311 10.061L10.328 10.8L9.939 9.60402L10.957 8.865H9.698L9.31 7.67002L8.921 8.865H7.665L8.682 9.60402L8.294 10.8L9.311 10.061ZM9.939 6.10902L10.328 7.304L9.311 6.56501L8.294 7.304L8.682 6.10902L7.665 5.37001H8.922L9.311 4.17402L9.699 5.37001H10.957L9.939 6.10902ZM10.328 3.809L9.939 2.61302L10.957 1.874H9.698L9.31 0.67802L8.921 1.874H7.665L8.682 2.61302L8.294 3.809L9.311 3.07002L10.328 3.809Z" fill="#0052B4"/>
</g>
</g>
<defs>
<clipPath id="clip0_162_12676">
<rect width="24" height="24" fill="white"/>
</clipPath>
</defs>
</svg>
