<svg width="24" height="24" viewBox="0 0 24 24" fill="none" xmlns="http://www.w3.org/2000/svg">
<g clip-path="url(#clip0_162_12994)">
<mask id="mask0_162_12994" style="mask-type:alpha" maskUnits="userSpaceOnUse" x="0" y="0" width="24" height="24">
<path d="M12 24C18.6274 24 24 18.6274 24 12C24 5.37258 18.6274 0 12 0C5.37258 0 0 5.37258 0 12C0 18.6274 5.37258 24 12 24Z" fill="white"/>
</mask>
<g mask="url(#mask0_162_12994)">
<path d="M12 23.5C18.3513 23.5 23.5 18.3513 23.5 12C23.5 5.64873 18.3513 0.5 12 0.5C5.64873 0.5 0.5 5.64873 0.5 12C0.5 18.3513 5.64873 23.5 12 23.5Z" fill="#F8F9FA" stroke="#E5E8EA"/>
<path d="M23.254 7.83008H0.746C0.264 9.13008 0 10.5301 0 12.0001C0 13.4701 0.264 14.8702 0.746 16.1702H23.254C23.736 14.8702 24 13.4701 24 12.0001C24 10.5301 23.736 9.13008 23.254 7.83008Z" fill="#0052B4"/>
<path d="M11.9998 2.74965e-06C10.2726 -0.00116693 8.56558 0.370858 6.99549 1.09058C5.42539 1.8103 4.02932 2.86077 2.90283 4.17005H21.0968C19.9703 2.86077 18.5743 1.8103 17.0042 1.09058C15.4341 0.370858 13.727 -0.00116693 11.9998 2.74965e-06ZM21.0968 19.83H2.90283C4.02932 21.1392 5.42539 22.1897 6.99549 22.9094C8.56558 23.6291 10.2726 24.0012 11.9998 24C13.727 24.0012 15.4341 23.6291 17.0042 22.9094C18.5743 22.1897 19.9703 21.1392 21.0968 19.83Z" fill="#D80027"/>
</g>
</g>
<defs>
<clipPath id="clip0_162_12994">
<rect width="24" height="24" fill="white"/>
</clipPath>
</defs>
</svg>
