<svg width="24" height="24" viewBox="0 0 24 24" fill="none" xmlns="http://www.w3.org/2000/svg">
<g clip-path="url(#clip0_162_17074)">
<mask id="mask0_162_17074" style="mask-type:alpha" maskUnits="userSpaceOnUse" x="0" y="0" width="24" height="24">
<circle cx="12" cy="12" r="12" fill="#D9D9D9"/>
</mask>
<g mask="url(#mask0_162_17074)">
<path d="M23.5 12C23.5 18.3513 18.3513 23.5 12 23.5C5.64873 23.5 0.5 18.3513 0.5 12C0.5 5.64873 5.64873 0.5 12 0.5C18.3513 0.5 23.5 5.64873 23.5 12Z" fill="#F8F9FA" stroke="#E5E8EA"/>
<path d="M12.5 0H30.5V12H12.5V0Z" fill="#DA121A"/>
<path d="M-5.5 12H12.5V24H-5.5V12Z" fill="#072357"/>
<path d="M17.25 13.7002L17.8991 15.698H20L18.3003 16.933L18.9494 18.9308L17.25 17.6961L15.5506 18.9308L16.1997 16.933L14.5 15.698H16.6009L17.25 13.7002Z" fill="#DA121A"/>
<path d="M7.75 4.5L8.3991 6.49783H10.5L8.80032 7.73276L9.44943 9.73062L7.75 8.49588L6.05057 9.73062L6.69968 7.73276L5 6.49783H7.1009L7.75 4.5Z" fill="#072357"/>
</g>
</g>
<defs>
<clipPath id="clip0_162_17074">
<rect width="24" height="24" fill="white"/>
</clipPath>
</defs>
</svg>
