<svg width="24" height="24" viewBox="0 0 24 24" fill="none" xmlns="http://www.w3.org/2000/svg">
<g clip-path="url(#clip0_162_12422)">
<mask id="mask0_162_12422" style="mask-type:alpha" maskUnits="userSpaceOnUse" x="0" y="0" width="24" height="24">
<path d="M12 24C18.6274 24 24 18.6274 24 12C24 5.37258 18.6274 0 12 0C5.37258 0 0 5.37258 0 12C0 18.6274 5.37258 24 12 24Z" fill="white"/>
</mask>
<g mask="url(#mask0_162_12422)">
<path d="M12 23.5C18.3513 23.5 23.5 18.3513 23.5 12C23.5 5.64873 18.3513 0.5 12 0.5C5.64873 0.5 0.5 5.64873 0.5 12C0.5 18.3513 5.64873 23.5 12 23.5Z" fill="#F8F9FA" stroke="#E5E8EA"/>
<path d="M2.48009 4.69385C1.52397 5.93687 0.821642 7.35579 0.413086 8.86984H6.65609L2.48009 4.69385ZM23.5871 8.86984C23.1782 7.35574 22.4755 5.93683 21.5191 4.69385L17.3441 8.86984H23.5871ZM0.413086 15.1299C0.821773 16.644 1.52446 18.063 2.48109 19.3058L6.65609 15.1299H0.413086ZM19.3061 2.48083C18.0632 1.52421 16.6443 0.821529 15.1301 0.412842V6.65585L19.3061 2.48083ZM4.69409 21.5189C5.93695 22.4755 7.3559 23.1781 8.87009 23.5869V17.3438L4.69409 21.5189ZM8.87009 0.412842C7.35589 0.821529 5.93693 1.52421 4.69409 2.48083L8.87009 6.65585V0.412842ZM15.1301 23.5869C16.6443 23.1782 18.0633 22.4755 19.3061 21.5189L15.1301 17.3438V23.5869ZM17.3441 15.1299L21.5191 19.3058C22.4757 18.063 23.1784 16.644 23.5871 15.1299H17.3441Z" fill="#0052B4"/>
<path d="M23.898 10.4349H13.565V0.101906C12.5261 -0.0339688 11.4739 -0.0339688 10.435 0.101906V10.4349H0.101979C-0.0333419 11.4739 -0.0333419 12.526 0.101979 13.5649H10.435V23.8979C11.4739 24.0338 12.5261 24.0338 13.565 23.8979V13.5649H23.898C24.0334 12.526 24.0334 11.4739 23.898 10.4349Z" fill="#D80027"/>
<path d="M15.1301 15.1299L20.4851 20.4848C20.7321 20.2388 20.9671 19.9818 21.1911 19.7148L16.6061 15.1299H15.1301ZM8.87008 15.1299L3.51508 20.4848C3.76108 20.7318 4.01808 20.9659 4.28508 21.1909L8.87008 16.6058V15.1299ZM8.87008 8.86984L3.51508 3.51486C3.26866 3.76113 3.0331 4.01803 2.80908 4.28485L7.39408 8.86984H8.87008ZM15.1301 8.86984L20.4851 3.51486C20.239 3.26827 19.982 3.03268 19.7151 2.80884L15.1301 7.39386V8.86984Z" fill="#D80027"/>
</g>
</g>
<defs>
<clipPath id="clip0_162_12422">
<rect width="24" height="24" fill="white"/>
</clipPath>
</defs>
</svg>
