<svg width="24" height="24" viewBox="0 0 24 24" fill="none" xmlns="http://www.w3.org/2000/svg">
<g clip-path="url(#clip0_162_12546)">
<mask id="mask0_162_12546" style="mask-type:alpha" maskUnits="userSpaceOnUse" x="0" y="0" width="24" height="24">
<path d="M12 24C18.6274 24 24 18.6274 24 12C24 5.37258 18.6274 0 12 0C5.37258 0 0 5.37258 0 12C0 18.6274 5.37258 24 12 24Z" fill="white"/>
</mask>
<g mask="url(#mask0_162_12546)">
<path d="M12 23.5C18.3513 23.5 23.5 18.3513 23.5 12C23.5 5.64873 18.3513 0.5 12 0.5C5.64873 0.5 0.5 5.64873 0.5 12C0.5 18.3513 5.64873 23.5 12 23.5Z" fill="#F8F9FA" stroke="#E5E8EA"/>
<path d="M9.39105 10.435H23.8981C23.1311 4.547 18.0971 0 12.0001 0C11.1041 0 10.2311 0.0990037 9.39105 0.285004V10.435ZM6.26005 10.435V1.459C4.59922 2.36443 3.17576 3.6494 2.10565 5.20921C1.03553 6.76903 0.349023 8.55958 0.102051 10.435H6.26005ZM6.26005 13.565H0.103051C0.350129 15.4405 1.03679 17.2311 2.10708 18.7909C3.17738 20.3508 4.60103 21.6357 6.26205 22.541V13.565H6.26005ZM9.39105 13.565V23.715C10.2311 23.901 11.1041 24 12.0001 24C18.0971 24 23.1311 19.453 23.8981 13.565H9.39105Z" fill="#D80027"/>
</g>
</g>
<defs>
<clipPath id="clip0_162_12546">
<rect width="24" height="24" fill="white"/>
</clipPath>
</defs>
</svg>
