<svg width="24" height="24" viewBox="0 0 24 24" fill="none" xmlns="http://www.w3.org/2000/svg">
<g clip-path="url(#clip0_162_12644)">
<mask id="mask0_162_12644" style="mask-type:alpha" maskUnits="userSpaceOnUse" x="0" y="0" width="24" height="24">
<path d="M12 24C18.6274 24 24 18.6274 24 12C24 5.37258 18.6274 0 12 0C5.37258 0 0 5.37258 0 12C0 18.6274 5.37258 24 12 24Z" fill="white"/>
</mask>
<g mask="url(#mask0_162_12644)">
<path d="M12 24C18.6274 24 24 18.6274 24 12C24 5.37258 18.6274 0 12 0C5.37258 0 0 5.37258 0 12C0 18.6274 5.37258 24 12 24Z" fill="#F8F9FA"/>
<path d="M0.413086 15.13C1.10134 17.6723 2.60625 19.9179 4.69609 21.521V15.13H0.413086ZM10.9571 23.954C11.3001 23.984 11.6481 24 12.0001 24C17.5441 24 22.2101 20.24 23.5871 15.13H10.9571V23.954ZM23.5871 8.87C22.2101 3.75999 17.5441 0 12.0001 0C11.6481 0 11.3001 0.0160205 10.9571 0.0460205V8.87H23.5871ZM4.69609 2.479C2.60642 4.08222 1.10154 6.32775 0.413086 8.87H4.69609V2.479Z" fill="#D80027"/>
<path d="M23.8982 10.4349H9.39117V0.284912C8.29791 0.527404 7.24423 0.922628 6.26117 1.45892V10.4349H0.10017C-0.035343 11.4739 -0.035343 12.526 0.10017 13.5649H6.26017V22.541C7.23017 23.07 8.28117 23.469 9.39017 23.715V13.5649H23.8972C24.0326 12.526 24.0326 11.4739 23.8972 10.4349H23.8982Z" fill="#0052B4"/>
</g>
</g>
<defs>
<clipPath id="clip0_162_12644">
<rect width="24" height="24" fill="white"/>
</clipPath>
</defs>
</svg>
