<svg width="24" height="24" viewBox="0 0 24 24" fill="none" xmlns="http://www.w3.org/2000/svg">
<g clip-path="url(#clip0_162_12559)">
<mask id="mask0_162_12559" style="mask-type:alpha" maskUnits="userSpaceOnUse" x="0" y="0" width="24" height="24">
<path d="M12 24C18.6274 24 24 18.6274 24 12C24 5.37258 18.6274 0 12 0C5.37258 0 0 5.37258 0 12C0 18.6274 5.37258 24 12 24Z" fill="white"/>
</mask>
<g mask="url(#mask0_162_12559)">
<path d="M23.5 12C23.5 18.3513 18.3513 23.5 12 23.5C5.64873 23.5 0.5 18.3513 0.5 12C0.5 5.64873 5.64873 0.5 12 0.5C18.3513 0.5 23.5 5.64873 23.5 12Z" fill="#F8F9FA" stroke="#E5E8EA"/>
<path d="M12.0001 0C6.84009 0 2.44209 3.257 0.746094 7.826L12.0001 8.87L23.2541 7.826C21.5581 3.257 17.1601 0 12.0001 0Z" fill="#0072CE"/>
<path d="M0.746008 7.82593C0.251015 9.1618 -0.00161125 10.5753 7.73241e-06 11.9999C7.73241e-06 13.4679 0.264008 14.8739 0.746008 16.1739H23.254C23.736 14.8739 24 13.4679 24 11.9999C24 10.5319 23.736 9.12593 23.254 7.82593H0.746008Z" fill="black"/>
</g>
</g>
<defs>
<clipPath id="clip0_162_12559">
<rect width="24" height="24" fill="white"/>
</clipPath>
</defs>
</svg>
