<svg width="24" height="24" viewBox="0 0 24 24" fill="none" xmlns="http://www.w3.org/2000/svg">
<g clip-path="url(#clip0_1158_5344)">
<mask id="mask0_1158_5344" style="mask-type:alpha" maskUnits="userSpaceOnUse" x="0" y="0" width="24" height="24">
<circle cx="12" cy="12" r="12" fill="#D9D9D9"/>
</mask>
<g mask="url(#mask0_1158_5344)">
<path d="M-7 0H30.5V24H-7V0Z" fill="#032EA1"/>
<path d="M-7 6H30.5V18H-7V6Z" fill="#E00025"/>
<path d="M18.7284 14.7503H18.7726C18.7726 14.0597 18.2087 13.5006 17.5121 13.5006C17.5121 12.8429 16.9924 12.3057 16.329 12.2728V10.4421C16.329 9.63094 15.9198 8.9732 15.4223 8.9732C14.9247 8.9732 14.5155 9.63094 14.5155 10.4421V12.2509H12.9233V8.46894C12.9233 7.65773 12.5142 7 12.0166 7C11.519 7 11.1099 7.65773 11.1099 8.46894V12.2509H9.51762V10.4421C9.51762 9.63094 9.1085 8.9732 8.61092 8.9732C8.11334 8.9732 7.70422 9.63094 7.70422 10.4421V12.2728C7.05183 12.3167 6.52108 12.8429 6.52108 13.5006C5.82447 13.5006 5.26054 14.0597 5.26054 14.7503H5.30477C4.60816 14.7503 4 15.3094 4 16H20C20 15.3094 19.3918 14.7503 18.6952 14.7503H18.7284Z" fill="white"/>
</g>
</g>
<defs>
<clipPath id="clip0_1158_5344">
<rect width="24" height="24" fill="white"/>
</clipPath>
</defs>
</svg>
