<svg width="24" height="24" viewBox="0 0 24 24" fill="none" xmlns="http://www.w3.org/2000/svg">
<g clip-path="url(#clip0_162_12453)">
<mask id="mask0_162_12453" style="mask-type:alpha" maskUnits="userSpaceOnUse" x="0" y="0" width="24" height="24">
<path d="M12 24C18.6274 24 24 18.6274 24 12C24 5.37258 18.6274 0 12 0C5.37258 0 0 5.37258 0 12C0 18.6274 5.37258 24 12 24Z" fill="white"/>
</mask>
<g mask="url(#mask0_162_12453)">
<path d="M12 23.5C18.3513 23.5 23.5 18.3513 23.5 12C23.5 5.64873 18.3513 0.5 12 0.5C5.64873 0.5 0.5 5.64873 0.5 12C0.5 18.3513 5.64873 23.5 12 23.5Z" fill="#F8F9FA" stroke="#E5E8EA"/>
<path d="M23.8978 10.4349H9.39077V0.284912C8.29751 0.527404 7.24384 0.922628 6.26077 1.45892V10.4349H0.0997746C-0.0358624 11.4739 -0.0358624 12.526 0.0997746 13.5649H6.25977V22.541C7.22977 23.07 8.28078 23.469 9.38978 23.715V13.5649H23.8968C24.0321 12.526 24.0321 11.4739 23.8968 10.4349H23.8978Z" fill="#0052B4"/>
</g>
</g>
<defs>
<clipPath id="clip0_162_12453">
<rect width="24" height="24" fill="white"/>
</clipPath>
</defs>
</svg>
