<svg width="24" height="24" viewBox="0 0 24 24" fill="none" xmlns="http://www.w3.org/2000/svg">
<g clip-path="url(#clip0_1158_9402)">
<mask id="mask0_1158_9402" style="mask-type:alpha" maskUnits="userSpaceOnUse" x="0" y="0" width="24" height="24">
<circle cx="12" cy="12" r="12" fill="#D9D9D9"/>
</mask>
<g mask="url(#mask0_1158_9402)">
<path d="M30 0H-6V24H30V0Z" fill="#ED1C24"/>
<path d="M30 0H-6V18H30V0Z" fill="#034EA2"/>
<path d="M30 0H-6V12H30V0Z" fill="#FFDD00"/>
<path d="M7.53003 11.81C7.53003 14.96 9.53003 17.51 12 17.51C14.47 17.51 16.47 14.96 16.47 11.81V8.56H7.53003V11.81Z" fill="#F9DE4A"/>
<path d="M12 15.79C13.5133 15.79 14.74 14.2275 14.74 12.3C14.74 10.3725 13.5133 8.81 12 8.81C10.4867 8.81 9.26001 10.3725 9.26001 12.3C9.26001 14.2275 10.4867 15.79 12 15.79Z" fill="#72BCD9"/>
<path d="M16.1701 6.17H13.0401C13.0401 5.89 12.9301 5.63 12.7301 5.43C12.5301 5.23 12.2701 5.12 11.9901 5.12C11.7101 5.12 11.4501 5.23 11.2501 5.43C11.0501 5.63 10.9401 5.89 10.9401 6.17H7.81006C7.81006 6.75 8.31006 7.21 8.89006 7.21H8.86006C8.86006 7.79 9.33006 8.25 9.90006 8.25C9.90006 8.83 10.3701 9.29 10.9401 9.29H13.0301C13.6101 9.29 14.0701 8.82 14.0701 8.25C14.6501 8.25 15.1101 7.78 15.1101 7.21H15.0801C15.6601 7.21 16.1601 6.74 16.1601 6.17H16.1701Z" fill="#452C25"/>
</g>
</g>
<defs>
<clipPath id="clip0_1158_9402">
<rect width="24" height="24" fill="white"/>
</clipPath>
</defs>
</svg>
