<svg width="24" height="24" viewBox="0 0 24 24" fill="none" xmlns="http://www.w3.org/2000/svg">
<g clip-path="url(#clip0_162_12966)">
<mask id="mask0_162_12966" style="mask-type:alpha" maskUnits="userSpaceOnUse" x="0" y="0" width="24" height="24">
<path d="M12 24C18.6274 24 24 18.6274 24 12C24 5.37258 18.6274 0 12 0C5.37258 0 0 5.37258 0 12C0 18.6274 5.37258 24 12 24Z" fill="white"/>
</mask>
<g mask="url(#mask0_162_12966)">
<path d="M12 23.5C18.3513 23.5 23.5 18.3513 23.5 12C23.5 5.64873 18.3513 0.5 12 0.5C5.64873 0.5 0.5 5.64873 0.5 12C0.5 18.3513 5.64873 23.5 12 23.5Z" fill="#F8F9FA" stroke="#E5E8EA"/>
<path d="M0 12C0 5.373 5.373 0 12 0C18.627 0 24 5.373 24 12" fill="#D80027"/>
<path d="M7.30411 6.2609C7.30417 5.42823 7.58878 4.62058 8.11076 3.97183C8.63275 3.32309 9.36075 2.87218 10.1741 2.69388C9.64071 2.57674 9.08783 2.58074 8.55618 2.70554C8.02452 2.83034 7.52762 3.07283 7.10206 3.41507C6.6765 3.75732 6.33311 4.19063 6.09718 4.68314C5.86124 5.17565 5.73877 5.71479 5.73877 6.2609C5.73877 6.807 5.86124 7.34614 6.09718 7.83866C6.33311 8.33117 6.6765 8.76454 7.10206 9.10678C7.52762 9.44903 8.02452 9.69145 8.55618 9.81626C9.08783 9.94106 9.64071 9.94505 10.1741 9.82791C9.36084 9.64945 8.63294 9.19849 8.11099 8.54978C7.58904 7.90107 7.30436 7.09352 7.30411 6.2609ZM12.0001 2.86991L12.2591 3.6669H13.0971L12.4191 4.15891L12.6791 4.9559L12.0001 4.4639L11.3221 4.9559L11.5811 4.15891L10.9031 3.6669H11.7411L12.0001 2.86991Z" fill="#F8F9FA"/>
<path d="M9.96712 4.43506L10.2261 5.23206H11.0641L10.3861 5.72504L10.6451 6.52203L9.96712 6.02905L9.28912 6.52203L9.54812 5.72504L8.87012 5.23206H9.70812L9.96712 4.43506ZM14.0331 4.43506L14.2931 5.23206H15.1311L14.4521 5.72504L14.7121 6.52203L14.0331 6.02905L13.3551 6.52203L13.6151 5.72504L12.9361 5.23206H13.7741L14.0341 4.43506H14.0331ZM13.2501 6.78308L13.5101 7.58008H14.3481L13.6701 8.07208L13.9291 8.87006L13.2511 8.37708L12.5731 8.87006L12.8321 8.07208L12.1531 7.58008H12.9921L13.2511 6.78308H13.2501ZM10.7501 6.78308L11.0081 7.58008H11.8471L11.1681 8.07208L11.4281 8.87006L10.7491 8.37708L10.0711 8.87006L10.3311 8.07208L9.65212 7.58008H10.4901L10.7501 6.78308Z" fill="#F8F9FA"/>
</g>
</g>
<defs>
<clipPath id="clip0_162_12966">
<rect width="24" height="24" fill="white"/>
</clipPath>
</defs>
</svg>
