<svg width="24" height="24" viewBox="0 0 24 24" fill="none" xmlns="http://www.w3.org/2000/svg">
<g clip-path="url(#clip0_162_12505)">
<mask id="mask0_162_12505" style="mask-type:alpha" maskUnits="userSpaceOnUse" x="0" y="0" width="24" height="24">
<path d="M12 24C18.6274 24 24 18.6274 24 12C24 5.37258 18.6274 0 12 0C5.37258 0 0 5.37258 0 12C0 18.6274 5.37258 24 12 24Z" fill="white"/>
</mask>
<g mask="url(#mask0_162_12505)">
<path d="M12 24C18.6274 24 24 18.6274 24 12C24 5.37258 18.6274 0 12 0C5.37258 0 0 5.37258 0 12C0 18.6274 5.37258 24 12 24Z" fill="#FFDA44"/>
<path d="M23.9998 12C23.9998 6.84 20.7438 2.44 16.1738 0.75V23.25C18.4712 22.3986 20.4527 20.864 21.8518 18.8528C23.2509 16.8415 24.0005 14.45 23.9998 12Z" fill="#D80027"/>
<path d="M5.10239e-07 12C5.10239e-07 17.16 3.257 21.56 7.826 23.25V0.75C5.52865 1.60141 3.54715 3.13596 2.14803 5.14722C0.748906 7.15848 -0.000713952 9.54996 5.10239e-07 12Z" fill="#0052B4"/>
</g>
</g>
<defs>
<clipPath id="clip0_162_12505">
<rect width="24" height="24" fill="white"/>
</clipPath>
</defs>
</svg>
