<svg width="24" height="24" viewBox="0 0 24 24" fill="none" xmlns="http://www.w3.org/2000/svg">
<g clip-path="url(#clip0_162_12949)">
<mask id="mask0_162_12949" style="mask-type:alpha" maskUnits="userSpaceOnUse" x="0" y="0" width="24" height="24">
<path d="M12 24C18.6274 24 24 18.6274 24 12C24 5.37258 18.6274 0 12 0C5.37258 0 0 5.37258 0 12C0 18.6274 5.37258 24 12 24Z" fill="white"/>
</mask>
<g mask="url(#mask0_162_12949)">
<path d="M12 23.5C18.3513 23.5 23.5 18.3513 23.5 12C23.5 5.64873 18.3513 0.5 12 0.5C5.64873 0.5 0.5 5.64873 0.5 12C0.5 18.3513 5.64873 23.5 12 23.5Z" fill="#F8F9FA" stroke="#E5E8EA"/>
<path d="M11.4781 11.9999H24.0001C24.0007 10.9429 23.8619 9.89049 23.5871 8.86987H11.4781V11.9999ZM11.4781 5.73889H22.2381C21.5047 4.54235 20.568 3.4831 19.4701 2.60889H11.4781V5.73889ZM12.0001 23.9999C14.8241 23.9999 17.4201 23.0239 19.4701 21.3909H4.53009C6.65141 23.0839 9.28601 24.004 12.0001 23.9999ZM1.76109 18.2609H22.2401C22.8372 17.2872 23.2911 16.2328 23.5881 15.1299H0.413086C0.710475 16.2326 1.16443 17.287 1.76109 18.2609Z" fill="#D80027"/>
<path d="M12 12V0C5.373 0 0 5.373 0 12H12Z" fill="#0052B4"/>
<path d="M7.97996 10.2718C7.52804 10.2722 7.08202 10.1693 6.6759 9.97106C6.26978 9.77282 5.9143 9.48447 5.63655 9.12798C5.35881 8.77149 5.16613 8.35631 5.07323 7.91405C4.98032 7.47179 4.98964 7.01415 5.10046 6.57604C5.21129 6.13792 5.4207 5.73087 5.71272 5.38597C6.00474 5.04108 6.37167 4.76741 6.78551 4.58586C7.19936 4.40432 7.6492 4.31972 8.10073 4.33843C8.55226 4.35714 8.99355 4.47867 9.39096 4.69384C8.87708 4.19111 8.22627 3.85123 7.52006 3.71679C6.81386 3.58234 6.08368 3.6593 5.42103 3.93804C4.75838 4.21678 4.19274 4.68491 3.79498 5.28374C3.39723 5.88257 3.18506 6.58548 3.18506 7.30437C3.18506 8.02326 3.39723 8.72617 3.79498 9.325C4.19274 9.92383 4.75838 10.3919 5.42103 10.6706C6.08368 10.9494 6.81386 11.0264 7.52006 10.892C8.22627 10.7575 8.87708 10.4176 9.39096 9.91484C8.97096 10.1418 8.49096 10.2718 7.97996 10.2718Z" fill="#FFDA44"/>
<path d="M8.8158 5.21704L9.3428 6.31903L10.5328 6.04407L9.9998 7.14307L10.9568 7.90204L9.7648 8.17004L9.7688 9.39105L8.8158 8.62708L7.8628 9.39105L7.8668 8.17004L6.6748 7.90204L7.6318 7.14307L7.0988 6.04407L8.2888 6.31903L8.8158 5.21704Z" fill="#FFDA44"/>
</g>
</g>
<defs>
<clipPath id="clip0_162_12949">
<rect width="24" height="24" fill="white"/>
</clipPath>
</defs>
</svg>
