<svg width="24" height="24" viewBox="0 0 24 24" fill="none" xmlns="http://www.w3.org/2000/svg">
<g clip-path="url(#clip0_162_12587)">
<mask id="mask0_162_12587" style="mask-type:alpha" maskUnits="userSpaceOnUse" x="0" y="0" width="24" height="24">
<path d="M12 24C18.6274 24 24 18.6274 24 12C24 5.37258 18.6274 0 12 0C5.37258 0 0 5.37258 0 12C0 18.6274 5.37258 24 12 24Z" fill="white"/>
</mask>
<g mask="url(#mask0_162_12587)">
<path d="M16.1742 0.745978C14.8383 0.251151 13.4248 -0.00144167 12.0002 6.1891e-06C10.5322 6.1891e-06 9.1262 0.263978 7.8262 0.745978L6.7832 12L7.8262 23.254C9.1262 23.736 10.5322 24 12.0002 24C13.4682 24 14.8742 23.736 16.1742 23.254L17.2172 12L16.1742 0.745978Z" fill="#FFDA44"/>
<path d="M23.9998 12.0001C23.9998 6.84012 20.7438 2.44209 16.1738 0.746094V23.2542C20.7438 21.5582 23.9998 17.1601 23.9998 12.0001Z" fill="#D80027"/>
<path d="M0 12.0001C0 17.1601 3.256 21.5582 7.826 23.2542V0.746094C3.256 2.44209 0 6.84012 0 12.0001Z" fill="#071D2B"/>
</g>
</g>
<defs>
<clipPath id="clip0_162_12587">
<rect width="24" height="24" fill="white"/>
</clipPath>
</defs>
</svg>
