<svg width="24" height="24" viewBox="0 0 24 24" fill="none" xmlns="http://www.w3.org/2000/svg">
<g clip-path="url(#clip0_162_12492)">
<mask id="mask0_162_12492" style="mask-type:alpha" maskUnits="userSpaceOnUse" x="0" y="0" width="24" height="24">
<path d="M12 24C18.6274 24 24 18.6274 24 12C24 5.37258 18.6274 0 12 0C5.37258 0 0 5.37258 0 12C0 18.6274 5.37258 24 12 24Z" fill="white"/>
</mask>
<g mask="url(#mask0_162_12492)">
<path d="M12 24C18.6274 24 24 18.6274 24 12C24 5.37258 18.6274 0 12 0C5.37258 0 0 5.37258 0 12C0 18.6274 5.37258 24 12 24Z" fill="#FFDA44"/>
<path d="M9.39105 10.43H23.8981C23.1311 4.54999 18.0971 0 12.0001 0C11.1041 0 10.2311 0.099978 9.39105 0.289978V10.43ZM6.26005 10.43V1.46002C2.96605 3.26002 0.607051 6.54999 0.102051 10.43H6.26005ZM6.26005 13.57H0.103051C0.608051 17.45 2.96705 20.74 6.26205 22.54V13.57H6.26005ZM9.39105 13.57V23.71C10.2311 23.9 11.1041 24 12.0001 24C18.0971 24 23.1311 19.45 23.8981 13.57H9.39105Z" fill="#0052B4"/>
</g>
</g>
<defs>
<clipPath id="clip0_162_12492">
<rect width="24" height="24" fill="white"/>
</clipPath>
</defs>
</svg>
