<svg width="24" height="24" viewBox="0 0 24 24" fill="none" xmlns="http://www.w3.org/2000/svg">
<g clip-path="url(#clip0_1158_5748)">
<mask id="mask0_1158_5748" style="mask-type:alpha" maskUnits="userSpaceOnUse" x="0" y="0" width="24" height="24">
<circle cx="12" cy="12" r="12" fill="#D9D9D9"/>
</mask>
<g mask="url(#mask0_1158_5748)">
<path d="M0 0H36V24H0V0Z" fill="#CF142B"/>
<path d="M0 16H36V0H0V16Z" fill="#00247D"/>
<path d="M0 0H36V8H0V0Z" fill="#FFCC00"/>
<path d="M13.6335 8.7243L13.1641 9.60725L13.6938 9.88893L13.6335 8.7243Z" fill="white"/>
<path d="M13.6335 8.7243L13.7727 9.71457L13.1786 9.79808L13.6335 8.7243Z" fill="white"/>
<path d="M14.45 9.57001L13.4651 9.39636L13.361 9.98724L14.45 9.57001Z" fill="white"/>
<path d="M14.45 9.57001L13.5512 10.0084L13.2881 9.4691L14.45 9.57001Z" fill="white"/>
<path d="M12.5771 9.23953L13.2717 9.95887L13.7033 9.54208L12.5771 9.23953Z" fill="white"/>
<path d="M12.5771 9.23953L13.5619 9.41318L13.4577 10.0041L12.5771 9.23953Z" fill="white"/>
<path d="M13.899 10.6079L13.7598 9.61764L13.1657 9.70115L13.899 10.6079Z" fill="white"/>
<path d="M13.899 10.6079L13.2043 9.88857L13.6359 9.47178L13.899 10.6079Z" fill="white"/>
<path d="M12.7413 10.4037L13.6401 9.96538L13.377 9.4261L12.7413 10.4037Z" fill="white"/>
<path d="M12.7413 10.4037L13.2107 9.5208L13.7405 9.80248L12.7413 10.4037Z" fill="white"/>
<path d="M16.3106 9.69839L15.5675 10.3675L15.9689 10.8134L16.3106 9.69839Z" fill="white"/>
<path d="M16.3106 9.69839L16.1027 10.6765L15.5158 10.5518L16.3106 9.69839Z" fill="white"/>
<path d="M16.7892 10.7723L15.9232 10.2723L15.6232 10.7919L16.7892 10.7723Z" fill="white"/>
<path d="M16.7892 10.7723L15.7947 10.8768L15.7319 10.2801L16.7892 10.7723Z" fill="white"/>
<path d="M15.1409 9.82129L15.5476 10.7348L16.0957 10.4908L15.1409 9.82129Z" fill="white"/>
<path d="M15.1409 9.82129L16.0069 10.3213L15.7069 10.8409L15.1409 9.82129Z" fill="white"/>
<path d="M15.9148 11.5588L16.1227 10.5807L15.5358 10.4559L15.9148 11.5588Z" fill="white"/>
<path d="M15.9148 11.5588L15.5081 10.6453L16.0562 10.4012L15.9148 11.5588Z" fill="white"/>
<path d="M14.8964 10.9708L15.8909 10.8663L15.8282 10.2696L14.8964 10.9708Z" fill="white"/>
<path d="M14.8964 10.9708L15.6395 10.3017L16.041 10.7476L14.8964 10.9708Z" fill="white"/>
<path d="M18.4918 11.5288L17.5646 11.9034L17.7894 12.4598L18.4918 11.5288Z" fill="white"/>
<path d="M18.4918 11.5288L17.9619 12.3769L17.4531 12.0589L18.4918 11.5288Z" fill="white"/>
<path d="M18.5731 12.7016L17.9303 11.9356L17.4706 12.3213L18.5731 12.7016Z" fill="white"/>
<path d="M18.5731 12.7016L17.6028 12.4597L17.7479 11.8775L18.5731 12.7016Z" fill="white"/>
<path d="M17.351 11.2448L17.4207 12.2423L18.0192 12.2005L17.351 11.2448Z" fill="white"/>
<path d="M17.351 11.2448L17.9937 12.0108L17.5341 12.3965L17.351 11.2448Z" fill="white"/>
<path d="M17.483 13.1422L18.013 12.2942L17.5041 11.9762L17.483 13.1422Z" fill="white"/>
<path d="M17.483 13.1422L17.4133 12.1447L18.0118 12.1028L17.483 13.1422Z" fill="white"/>
<path d="M16.7274 12.2417L17.6977 12.4837L17.8429 11.9015L16.7274 12.2417Z" fill="white"/>
<path d="M16.7274 12.2417L17.6546 11.8671L17.8794 12.4234L16.7274 12.2417Z" fill="white"/>
<path d="M19.9158 13.9951L18.9164 14.03L18.9373 14.6297L19.9158 13.9951Z" fill="white"/>
<path d="M19.9158 13.9951L19.1278 14.6108L18.7584 14.138L19.9158 13.9951Z" fill="white"/>
<path d="M19.5927 15.1249L19.2506 14.1852L18.6868 14.3904L19.5927 15.1249Z" fill="white"/>
<path d="M19.5927 15.1249L18.7636 14.5657L19.0991 14.0683L19.5927 15.1249Z" fill="white"/>
<path d="M18.9412 13.3377L18.6656 14.299L19.2423 14.4644L18.9412 13.3377Z" fill="white"/>
<path d="M18.9412 13.3377L19.2832 14.2774L18.7194 14.4826L18.9412 13.3377Z" fill="white"/>
<path d="M18.4169 15.166L19.2049 14.5504L18.8355 14.0776L18.4169 15.166Z" fill="white"/>
<path d="M18.4169 15.166L18.6925 14.2048L19.2693 14.3702L18.4169 15.166Z" fill="white"/>
<path d="M18.0146 14.0619L18.8436 14.6211L19.1791 14.1236L18.0146 14.0619Z" fill="white"/>
<path d="M18.0146 14.0619L19.014 14.027L19.0349 14.6266L18.0146 14.0619Z" fill="white"/>
<path d="M4.50378 13.9953L5.29179 14.611L5.66119 14.1382L4.50378 13.9953Z" fill="white"/>
<path d="M4.50378 13.9953L5.50317 14.0302L5.48224 14.6298L4.50378 13.9953Z" fill="white"/>
<path d="M5.47839 13.338L5.13637 14.2776L5.70019 14.4829L5.47839 13.338Z" fill="white"/>
<path d="M5.47839 13.338L5.75403 14.2992L5.17727 14.4646L5.47839 13.338Z" fill="white"/>
<path d="M4.82825 15.1256L5.65728 14.5664L5.32177 14.069L4.82825 15.1256Z" fill="white"/>
<path d="M4.82825 15.1256L5.17027 14.1859L5.73408 14.3911L4.82825 15.1256Z" fill="white"/>
<path d="M6.40436 14.0618L5.40497 14.0269L5.38403 14.6266L6.40436 14.0618Z" fill="white"/>
<path d="M6.40436 14.0618L5.57532 14.621L5.2398 14.1236L6.40436 14.0618Z" fill="white"/>
<path d="M6.00293 15.1666L5.72729 14.2054L5.15054 14.3707L6.00293 15.1666Z" fill="white"/>
<path d="M6.00293 15.1666L5.21492 14.551L5.58432 14.0782L6.00293 15.1666Z" fill="white"/>
<path d="M5.92877 11.5294L6.45869 12.3774L6.96752 12.0595L5.92877 11.5294Z" fill="white"/>
<path d="M5.92877 11.5294L6.85596 11.904L6.63119 12.4603L5.92877 11.5294Z" fill="white"/>
<path d="M7.06915 11.2451L6.42637 12.0112L6.88599 12.3968L7.06915 11.2451Z" fill="white"/>
<path d="M7.06915 11.2451L6.9994 12.2427L6.40086 12.2008L7.06915 11.2451Z" fill="white"/>
<path d="M5.8457 12.7023L6.816 12.4603L6.67085 11.8782L5.8457 12.7023Z" fill="white"/>
<path d="M5.8457 12.7023L6.48849 11.9362L6.94812 12.3219L5.8457 12.7023Z" fill="white"/>
<path d="M7.69165 12.2417L6.76447 11.8671L6.5397 12.4234L7.69165 12.2417Z" fill="white"/>
<path d="M7.69165 12.2417L6.72135 12.4837L6.5762 11.9015L7.69165 12.2417Z" fill="white"/>
<path d="M6.93555 13.1421L7.0053 12.1445L6.40676 12.1027L6.93555 13.1421Z" fill="white"/>
<path d="M6.93555 13.1421L6.40563 12.294L6.91446 11.9761L6.93555 13.1421Z" fill="white"/>
<path d="M8.11011 9.6987L8.31802 10.6768L8.90491 10.5521L8.11011 9.6987Z" fill="white"/>
<path d="M8.11011 9.6987L8.85325 10.3678L8.45177 10.8137L8.11011 9.6987Z" fill="white"/>
<path d="M9.27924 9.82159L8.41321 10.3216L8.71321 10.8412L9.27924 9.82159Z" fill="white"/>
<path d="M9.27924 9.82159L8.8725 10.7351L8.32437 10.4911L9.27924 9.82159Z" fill="white"/>
<path d="M7.63251 10.7731L8.62703 10.8776L8.68975 10.2809L7.63251 10.7731Z" fill="white"/>
<path d="M7.63251 10.7731L8.49853 10.2731L8.79853 10.7927L7.63251 10.7731Z" fill="white"/>
<path d="M9.52295 10.9718L8.7798 10.3027L8.37833 10.7486L9.52295 10.9718Z" fill="white"/>
<path d="M9.52295 10.9718L8.52843 10.8673L8.59114 10.2706L9.52295 10.9718Z" fill="white"/>
<path d="M8.50525 11.5594L8.91199 10.6458L8.36386 10.4018L8.50525 11.5594Z" fill="white"/>
<path d="M8.50525 11.5594L8.29734 10.5812L8.88423 10.4565L8.50525 11.5594Z" fill="white"/>
<path d="M10.7854 8.72479L10.6462 9.71506L11.2404 9.79856L10.7854 8.72479Z" fill="white"/>
<path d="M10.7854 8.72479L11.2549 9.60774L10.7251 9.88942L10.7854 8.72479Z" fill="white"/>
<path d="M11.8421 9.24023L10.8573 9.41388L10.9615 10.0048L11.8421 9.24023Z" fill="white"/>
<path d="M11.8421 9.24023L11.1474 9.95957L10.7158 9.54278L11.8421 9.24023Z" fill="white"/>
<path d="M9.96893 9.57059L10.8677 10.009L11.1307 9.46968L9.96893 9.57059Z" fill="white"/>
<path d="M9.96893 9.57059L10.9537 9.39694L11.0579 9.98782L9.96893 9.57059Z" fill="white"/>
<path d="M11.6788 10.4043L11.2094 9.52135L10.6796 9.80303L11.6788 10.4043Z" fill="white"/>
<path d="M11.6788 10.4043L10.78 9.96593L11.0431 9.42665L11.6788 10.4043Z" fill="white"/>
<path d="M10.5212 10.6084L11.2158 9.88909L10.7842 9.47229L10.5212 10.6084Z" fill="white"/>
<path d="M10.5212 10.6084L10.6604 9.61816L11.2545 9.70166L10.5212 10.6084Z" fill="white"/>
<path d="M6.67 6.78999C7.66411 6.78999 8.46999 5.88562 8.46999 4.77C8.46999 3.65439 7.66411 2.75 6.67 2.75C5.67588 2.75 4.87 3.65439 4.87 4.77C4.87 5.88562 5.67588 6.78999 6.67 6.78999Z" fill="#448027"/>
</g>
</g>
<defs>
<clipPath id="clip0_1158_5748">
<rect width="24" height="24" fill="white"/>
</clipPath>
</defs>
</svg>
