<svg width="24" height="24" viewBox="0 0 24 24" fill="none" xmlns="http://www.w3.org/2000/svg">
<g clip-path="url(#clip0_162_12902)">
<mask id="mask0_162_12902" style="mask-type:alpha" maskUnits="userSpaceOnUse" x="0" y="0" width="24" height="24">
<circle cx="12" cy="12" r="12" fill="#D9D9D9"/>
</mask>
<g mask="url(#mask0_162_12902)">
<path d="M-6 0H30V24H-6V0Z" fill="#EE1C25"/>
<path d="M13.7171 5.008C13.5536 5.06035 13.4043 5.1497 13.281 5.2691C13.1576 5.38851 13.0634 5.53475 13.0058 5.69647C12.9481 5.85818 12.9285 6.03102 12.9485 6.20154C12.9685 6.37206 13.0275 6.53568 13.121 6.67967C13.2648 6.90112 13.3584 7.15139 13.395 7.41288C13.4317 7.67436 13.4106 7.9407 13.3332 8.19315C13.2558 8.4456 13.1241 8.67802 12.9472 8.87406C12.7703 9.0701 12.5526 9.225 12.3094 9.32784C12.0699 9.42915 11.8598 9.58925 11.6985 9.79333C11.5373 9.99741 11.4302 10.2389 11.387 10.4954C11.3439 10.7518 11.3661 11.0151 11.4518 11.2607C11.5374 11.5062 11.6835 11.7263 11.8768 11.9004C11.2956 11.4869 10.899 10.8627 10.7715 10.1609C10.6439 9.45918 10.7956 8.73537 11.1941 8.14382C11.1786 8.13057 11.1638 8.11659 11.1497 8.10191C10.7419 8.70258 10.5839 9.43833 10.7089 10.1535C10.834 10.8686 11.2324 11.507 11.8199 11.9336C10.996 11.6037 10.3224 10.982 9.92741 10.1873C9.53244 9.39253 9.44374 8.48022 9.67822 7.62426C9.9127 6.76831 10.454 6.02857 11.1988 5.54607C11.9437 5.06357 12.8401 4.87204 13.7171 5.008Z" fill="white"/>
<path d="M12.0792 7.24409L10.9766 7.72496L12.1512 7.98401L11.3532 7.08398L11.4698 8.2812" fill="#EE1C25"/>
<path d="M19.1803 11.4726C19.08 11.3333 18.9489 11.2189 18.7972 11.1385C18.6455 11.0581 18.4773 11.0137 18.3057 11.0088C18.1341 11.004 17.9637 11.0387 17.8077 11.1105C17.6517 11.1822 17.5143 11.2889 17.4062 11.4223C17.2401 11.6275 17.0309 11.7938 16.7936 11.9094C16.5562 12.0251 16.2964 12.0873 16.0324 12.0918C15.7684 12.0962 15.5066 12.0427 15.2655 11.9351C15.0244 11.8274 14.8098 11.6683 14.6369 11.4687C14.4665 11.2722 14.2493 11.1219 14.0054 11.0316C13.7615 10.9413 13.4987 10.914 13.2415 10.9523C12.9842 10.9905 12.7408 11.093 12.5336 11.2503C12.3265 11.4076 12.1624 11.6147 12.0566 11.8522C12.2702 11.1717 12.7413 10.6016 13.3693 10.2635C13.9973 9.92533 14.7326 9.84589 15.4183 10.0421C15.4261 10.0233 15.4348 10.0049 15.4444 9.98694C14.7472 9.78475 13.9986 9.86177 13.3571 10.2017C12.7156 10.5417 12.2315 11.1179 12.0073 11.8084C12.0666 10.9229 12.4496 10.0901 13.0834 9.46889C13.7172 8.84766 14.5575 8.48138 15.444 8.43988C16.3305 8.39838 17.2013 8.68456 17.8904 9.24387C18.5794 9.80318 19.0386 10.5965 19.1803 11.4726Z" fill="white"/>
<path d="M16.5473 10.6054L15.7493 9.7054L15.8659 10.9026L16.4753 9.8655L15.3727 10.3464" fill="#EE1C25"/>
<path d="M6.50035 16.6474C6.6634 16.7011 6.83666 16.7166 7.00665 16.6925C7.17665 16.6684 7.3388 16.6054 7.4805 16.5085C7.62221 16.4115 7.73965 16.2832 7.82371 16.1335C7.90776 15.9838 7.95617 15.8168 7.96516 15.6453C7.97899 15.3816 8.05044 15.1242 8.17448 14.8911C8.29852 14.658 8.47214 14.4549 8.68312 14.2962C8.8941 14.1374 9.13731 14.0268 9.39563 13.9722C9.65396 13.9176 9.92112 13.9202 10.1783 13.9799C10.4317 14.0388 10.6957 14.0328 10.9461 13.9624C11.1965 13.8921 11.4252 13.7597 11.6108 13.5776C11.7965 13.3954 11.9332 13.1694 12.0083 12.9204C12.0834 12.6714 12.0944 12.4074 12.0404 12.153C12.2675 12.8292 12.2215 13.5673 11.9122 14.2099C11.6029 14.8526 11.0548 15.3491 10.3847 15.5934C10.3894 15.6132 10.3932 15.6332 10.396 15.6534C11.0789 15.4071 11.6393 14.9048 11.9584 14.2527C12.2776 13.6006 12.3305 12.85 12.106 12.1596C12.5786 12.9108 12.7582 13.8096 12.6106 14.6847C12.463 15.5599 11.9985 16.3501 11.3057 16.9047C10.6129 17.4594 9.74016 17.7397 8.85394 17.6922C7.96772 17.6448 7.12995 17.2728 6.50035 16.6474Z" fill="white"/>
<path d="M9.14057 15.801L10.3152 16.0601L9.51718 15.16L9.63379 16.3572L10.2432 15.3201" fill="#EE1C25"/>
<path d="M14.7207 18.6659C14.8222 18.5275 14.8904 18.3675 14.9201 18.1983C14.9497 18.0292 14.9399 17.8556 14.8915 17.6908C14.8431 17.5261 14.7574 17.3748 14.641 17.2486C14.5246 17.1224 14.3806 17.0247 14.2203 16.9632C13.9738 16.8685 13.7511 16.721 13.5677 16.531C13.3844 16.341 13.2449 16.1131 13.1591 15.8634C13.0733 15.6137 13.0433 15.3482 13.0712 15.0857C13.099 14.8231 13.1841 14.5698 13.3204 14.3437C13.4546 14.1209 13.5305 13.8679 13.541 13.608C13.5515 13.3482 13.4962 13.0898 13.3804 12.857C13.2645 12.6241 13.0918 12.4243 12.8782 12.2759C12.6646 12.1275 12.417 12.0354 12.1583 12.0082C12.8715 12.0011 13.5593 12.2729 14.075 12.7657C14.5906 13.2585 14.8934 13.9332 14.9187 14.646C14.939 14.6476 14.9592 14.6502 14.9792 14.6538C14.956 13.9282 14.6515 13.2401 14.1299 12.735C13.6084 12.23 12.9108 11.9477 12.1848 11.9478C13.0453 11.7305 13.9556 11.8375 14.7423 12.2483C15.529 12.6591 16.137 13.345 16.4504 14.1753C16.7638 15.0056 16.7607 15.9222 16.4417 16.7504C16.1227 17.5786 15.5101 18.2604 14.7207 18.6659Z" fill="white"/>
<path d="M14.7317 15.8938L15.341 14.8567L14.2384 15.3376L15.4131 15.5966L14.615 14.6966" fill="#EE1C25"/>
<path d="M5.88108 8.20562C5.88034 8.3773 5.91919 8.54685 5.99463 8.70108C6.07007 8.85531 6.18005 8.99007 6.31603 9.09488C6.45202 9.1997 6.61034 9.27174 6.77869 9.30542C6.94705 9.33911 7.1209 9.33351 7.28674 9.28908C7.54179 9.22075 7.80871 9.20915 8.06872 9.25509C8.32873 9.30103 8.57551 9.40341 8.7917 9.555C9.00788 9.70659 9.18822 9.90373 9.32001 10.1325C9.4518 10.3613 9.53184 10.6162 9.5545 10.8793C9.57683 11.1384 9.66416 11.3877 9.80843 11.6041C9.95269 11.8205 10.1492 11.9971 10.3798 12.1173C10.6104 12.2376 10.8676 12.2978 11.1277 12.2923C11.3877 12.2867 11.6421 12.2157 11.8674 12.0857C11.2946 12.5107 10.5784 12.695 9.87156 12.5994C9.16474 12.5039 8.52321 12.136 8.08376 11.5742C8.06639 11.5848 8.04851 11.5945 8.03019 11.6034C8.47545 12.1769 9.12635 12.5545 9.84514 12.6566C10.5639 12.7586 11.2942 12.577 11.8815 12.1501C11.3131 12.8317 10.5137 13.2803 9.63579 13.4103C8.75788 13.5404 7.86281 13.3428 7.12121 12.8553C6.37961 12.3678 5.84334 11.6244 5.61463 10.7669C5.38592 9.90938 5.48076 8.99769 5.88108 8.20562Z" fill="white"/>
<path d="M7.50178 10.455L7.61839 11.6522L8.22776 10.6151L7.12517 11.0959L8.29983 11.355" fill="#EE1C25"/>
</g>
</g>
<defs>
<clipPath id="clip0_162_12902">
<rect width="24" height="24" fill="white"/>
</clipPath>
</defs>
</svg>
