<svg width="24" height="24" viewBox="0 0 24 24" fill="none" xmlns="http://www.w3.org/2000/svg">
<circle cx="12" cy="12" r="12" fill="#0F71F0"/>
<mask id="mask0_1158_11119" style="mask-type:alpha" maskUnits="userSpaceOnUse" x="-4" y="2" width="32" height="22">
<g clip-path="url(#clip0_1158_11119)">
<path d="M22.4984 22.6798C22.6003 22.606 22.6095 22.5229 22.5354 22.4213C22.4521 22.3198 22.3873 22.3475 22.2946 22.4029C22.2113 22.449 22.1001 22.4675 21.9983 22.4675C21.8315 22.4675 21.7945 22.4859 21.7945 22.6244C21.9797 22.6706 22.165 22.7075 22.3502 22.7537C22.4058 22.726 22.4614 22.7075 22.5077 22.6798H22.4984Z" fill="white"/>
<path d="M23.2116 12.9861C23.2116 12.9861 23.1745 12.9585 23.156 12.9492C23.0449 13.0323 22.9337 13.1246 22.8318 13.1985C22.8967 13.2816 22.943 13.3462 23.0449 13.4754C23.1097 13.3 23.1653 13.1431 23.2208 12.9861H23.2116Z" fill="white"/>
<path d="M0.186399 19.4024C0.103041 19.504 -0.00810185 19.5963 -0.0636735 19.7163C-0.100721 19.7994 -0.0636735 19.9102 -0.0636735 20.0118C-0.00810185 20.0118 0.0567318 19.9933 0.112303 19.9841C0.121565 19.9748 0.130827 19.9656 0.140089 19.9471C0.417947 19.6609 0.42721 19.5778 0.177137 19.3932L0.186399 19.4024Z" fill="white"/>
<path d="M20.8961 13.1708C20.8961 13.1708 20.9239 13.1523 20.9331 13.1431C20.859 13.0877 20.7942 12.9861 20.7201 12.9769C20.646 12.9677 20.5534 13.0231 20.4793 13.06C20.5349 13.0415 20.5905 13.0138 20.6368 13.0231C20.7294 13.0508 20.8127 13.1154 20.8961 13.1708Z" fill="white"/>
<path d="M0.0381785 11.7952C0.0103926 11.9983 0.186369 12.2107 0.390132 12.266C0.686514 12.3584 0.788395 12.3307 0.899539 12.1183C0.612419 12.3491 0.167846 12.1922 0.0381785 11.786V11.7952Z" fill="white"/>
<path d="M17.8674 13.5493C17.9045 13.6232 17.9508 13.7339 18.0156 13.7524C18.1268 13.7801 18.2564 13.7524 18.3861 13.7524C18.5899 13.7524 18.7936 13.7524 19.0066 13.7524C19.1085 13.7524 19.2197 13.7801 19.303 13.7524C19.4883 13.6693 19.6457 13.5401 19.8217 13.457C19.9606 13.3924 19.9699 13.3093 19.9051 13.1985C19.8587 13.1523 19.8124 13.0877 19.7569 13.0692C19.2104 12.8938 18.6547 12.9861 18.099 12.9861C18.099 12.9861 18.0805 13.0046 18.0712 13.0231C17.8582 13.0415 17.7655 13.1616 17.8211 13.3554C17.8396 13.4293 17.8396 13.5031 17.8674 13.5678V13.5493Z" fill="white"/>
<path d="M2.48334 11.5921C2.39998 11.5921 2.30736 11.6198 2.22401 11.629C2.16843 11.4259 2.00172 11.4352 1.86279 11.4813C1.79796 11.4998 1.76091 11.6013 1.7146 11.666C1.77943 11.7029 1.84427 11.7583 1.9091 11.7675C1.97393 11.7675 2.04803 11.7398 2.12213 11.7214C2.14065 11.7214 2.14991 11.7214 2.16843 11.7214C2.22401 11.7767 2.28884 11.8783 2.33515 11.8691C2.42777 11.8598 2.51113 11.786 2.59448 11.7306C2.61301 11.7121 2.62227 11.6383 2.60375 11.6106C2.58522 11.5829 2.52965 11.5829 2.4926 11.5829L2.48334 11.5921Z" fill="white"/>
<path d="M23.0634 14.1771C23.1931 14.3525 23.3691 14.4725 23.6191 14.491C23.5636 14.1125 23.4709 13.974 23.2672 13.9555C23.2023 13.9555 23.119 13.9832 23.0727 14.0201C23.0449 14.0478 23.0356 14.1402 23.0634 14.1771Z" fill="white"/>
<path d="M5.66945 4.55729C5.52126 4.52959 5.39159 4.48343 5.26193 4.48343C5.20636 4.48343 5.123 4.56652 5.09521 4.63114C5.08595 4.65884 5.16005 4.75116 5.21562 4.77885C5.41938 4.88041 5.52126 4.82502 5.66945 4.54805V4.55729Z" fill="white"/>
<path d="M4.19682 2.70163C4.39132 2.64624 4.61361 2.50776 4.81737 2.7201C4.8359 2.58162 4.85442 2.44314 4.88221 2.24926C4.98409 2.29542 5.09523 2.34158 5.20637 2.38774C5.42866 2.54469 5.41014 2.80319 5.47497 3.02476C5.48423 3.06168 5.42866 3.13554 5.39161 3.1817C5.28973 3.27402 5.2249 3.35711 5.39161 3.45866C5.42866 3.47713 5.44718 3.52329 5.48423 3.55098C5.53054 3.57868 5.57685 3.59714 5.63242 3.62484C5.66021 3.56945 5.688 3.52329 5.69726 3.46789C5.72504 3.32941 5.72504 3.1817 5.78062 3.06168C5.91028 2.78472 5.8825 2.65547 5.62316 2.47083C5.50276 2.38774 5.4194 2.25849 5.32678 2.14771C5.2249 2.02769 4.74328 1.9446 4.66918 2.06462C4.54878 2.28619 4.36354 2.2031 4.19682 2.2308C4.1042 2.24926 3.9838 2.2308 3.92823 2.29542C3.77077 2.45237 3.65963 2.4339 3.5207 2.27696C3.45587 2.19387 3.36325 2.13848 3.23358 2.02769C3.31694 2.59085 3.74299 2.84935 4.20608 2.71087L4.19682 2.70163Z" fill="white"/>
<path d="M7.54963 5.74822C7.57742 5.81284 7.61447 5.87747 7.64225 5.94209C7.73487 5.8867 7.85528 5.84977 7.90159 5.77592C7.97568 5.64667 7.53111 5.08351 7.38292 5.08351C7.35513 5.08351 7.32735 5.10198 7.26251 5.12967C7.33661 5.25892 7.4107 5.36047 7.45701 5.47126C7.49406 5.55435 7.51258 5.6559 7.54963 5.74822Z" fill="white"/>
<path d="M4.67845 4.47419C4.6414 4.40956 4.52099 4.3911 4.42838 4.37263C4.40059 4.37263 4.32649 4.43726 4.32649 4.46496C4.36354 4.70499 4.21535 4.8527 4.08568 5.01888C3.97454 5.15736 4.00233 5.26814 4.15052 5.342C4.41911 5.48971 4.54878 5.74821 4.68771 5.99748C4.75254 6.10826 4.78033 6.23751 4.86369 6.3206C4.91926 6.38522 5.04892 6.44062 5.11376 6.42215C5.19712 6.39446 5.25269 6.27444 5.30826 6.20981C5.27121 6.07133 5.25269 5.97901 5.21564 5.88669C5.13228 5.61896 5.03966 5.35123 4.94704 5.09274C4.86369 4.8804 4.78033 4.66806 4.66918 4.46496L4.67845 4.47419Z" fill="white"/>
<path d="M7.77191 6.47754C8.04051 6.76374 7.68855 7.2715 8.19796 7.46537C8.22575 7.4746 8.24427 7.52077 8.28132 7.53923C8.34615 7.56693 8.41099 7.58539 8.46656 7.60385C8.46656 7.53923 8.48508 7.45614 8.46656 7.40075C8.33689 7.15148 8.1887 6.90222 8.04051 6.65295C7.9942 6.56986 7.93863 6.49601 7.89232 6.41292C7.85527 6.43138 7.81822 6.44985 7.77191 6.46831V6.47754Z" fill="white"/>
<path d="M6.73461 4.6219C6.76239 4.67729 6.63273 4.78808 6.54937 4.93579C6.62346 5.02811 6.73461 5.15736 6.84575 5.28661C6.87354 5.28661 6.90132 5.26814 6.92911 5.26814C6.94763 5.09273 6.97542 4.91732 6.99394 4.73268C7.02173 4.52035 6.96615 4.3634 6.77165 4.24338C6.56789 4.12337 6.37339 3.99412 6.14184 3.84641C6.07701 3.94796 6.00291 4.06797 5.91956 4.19722C6.12332 4.23415 6.30856 4.24338 6.46601 4.31724C6.58642 4.37263 6.6883 4.50188 6.74387 4.6219H6.73461Z" fill="white"/>
<path d="M6.53084 13.577C6.39192 13.5124 6.24372 13.4662 6.1048 13.4108C5.93808 13.3462 5.77137 13.2354 5.59539 13.2354C5.1786 13.2262 4.76181 13.0138 4.33576 13.1708C4.15053 13.1708 4.02086 13.2723 4.0116 13.4293C4.0116 13.5031 4.17831 13.577 4.28019 13.6509C4.39134 13.7339 4.53027 13.7986 4.60436 13.9001C4.73403 14.0663 4.89148 14.1032 5.08598 14.1032C5.1786 14.1032 5.28975 14.1402 5.35458 14.2048C5.55834 14.3617 5.58613 14.3617 5.67875 14.1217C5.77137 14.1032 5.85472 14.0755 5.93808 14.0571C6.08627 14.0571 6.24372 14.0848 6.39192 14.0571C6.50306 14.0386 6.66051 13.9832 6.70682 13.8909C6.78092 13.7432 6.65125 13.6232 6.52158 13.5585L6.53084 13.577Z" fill="white"/>
<path d="M0.695774 5.03735C0.603155 4.97272 0.538321 4.8804 0.48275 4.88963C0.278987 4.91733 0.10301 5.01888 -0.017395 5.19429C-0.017395 5.21276 -0.0081331 5.24045 0.00112884 5.25892C0.214153 5.19429 0.427178 5.12967 0.695774 5.04658V5.03735Z" fill="white"/>
<path d="M-0.591606 7.98237C-0.397105 8.22241 -0.193343 8.31473 0.0752535 8.34242C0.325326 8.36089 0.612446 8.30549 0.825471 8.51783C0.825471 8.51783 0.91809 8.57322 0.955138 8.56399C1.31635 8.51783 1.61274 8.62862 1.89059 8.85942C1.89986 8.86865 1.92764 8.85942 1.95543 8.86865C2.011 8.91481 2.06657 8.97943 2.1314 9.00713C2.3259 9.07176 2.52967 9.14561 2.73343 9.16408C2.9835 9.19177 3.23357 9.18254 3.48365 9.201C3.55774 9.201 3.63184 9.2287 3.70593 9.24716C3.72446 9.26563 3.74298 9.28409 3.77077 9.31179C3.79855 9.41334 3.82634 9.50566 3.84486 9.60721C3.9097 9.9765 4.31722 10.355 4.69696 10.3735C4.89146 10.3827 5.08596 10.3919 5.28046 10.4012H5.29899H5.31751C5.51201 10.4381 5.48423 10.5858 5.44718 10.6966C5.41939 10.7705 5.31751 10.8074 5.24342 10.8628C5.16932 10.9182 5.08596 10.9643 5.01187 11.0197C4.97482 11.1028 4.91925 11.1859 4.90072 11.2782C4.87294 11.3982 4.87294 11.5275 5.05818 11.509C5.22489 11.4813 5.39161 11.4444 5.55832 11.4259C5.8547 11.3982 6.16035 11.3613 6.45673 11.3613C6.7809 11.3613 7.10507 11.4167 7.42923 11.4167C7.78119 11.4167 8.15166 11.5459 8.47583 11.2875C8.54993 11.2321 8.67033 11.2321 8.77221 11.2044C8.94819 11.1582 9.12417 11.1213 9.29088 11.0751C9.44834 10.8997 9.30015 10.8443 9.17048 10.7797C9.04081 10.7151 8.90188 10.6412 8.77221 10.5673C8.67033 10.3919 8.5314 10.235 8.31838 10.235C8.06831 10.235 7.8275 10.2165 7.60521 10.0965C7.62373 9.90264 7.57742 9.75493 7.3644 9.69954C7.13285 9.64414 6.89204 9.60721 6.66049 9.55182C6.34559 9.39488 6.03068 9.2287 5.71577 9.06252H5.69725C5.67873 9.04406 5.6602 9.02559 5.63242 8.9979C5.63242 8.97943 5.62316 8.94251 5.60463 8.94251C5.29899 8.77633 4.99334 8.61015 4.67844 8.44398C4.65991 8.43474 4.63213 8.44398 4.6136 8.44398C4.4932 8.39781 4.38206 8.36089 4.26165 8.31473C4.06715 8.21317 3.87265 8.0193 3.67815 8.0193C3.39103 8.0193 3.13169 7.98237 2.87236 7.86236L2.53893 7.49307C2.35369 7.25304 2.06657 7.23458 1.78871 7.17918C1.70535 7.16072 1.60347 7.17918 1.55716 7.13302C1.44602 7.02224 1.32562 7.03147 1.18669 7.05917C0.945876 7.03147 0.705065 7.00377 0.464255 6.97608C0.25123 6.94838 0.0382057 6.92069 -0.174819 6.91145C-0.32301 6.91145 -0.480463 6.91145 -0.628654 6.92992C-0.925036 6.96685 -1.22142 7.01301 -1.5178 7.05917C-1.58263 7.0684 -1.64747 7.08686 -1.70304 7.10533C-1.93459 7.18842 -2.16614 7.28997 -2.40695 7.35459C-2.81447 7.46538 -3.21274 7.56693 -3.32388 8.05623C-3.33314 8.12085 -3.35166 8.18548 -3.37019 8.28703C-3.51838 8.33319 -3.68509 8.37935 -3.85181 8.43474C-3.90738 8.45321 -3.94443 8.51783 -4 8.56399C-3.93517 8.60092 -3.86107 8.68401 -3.79624 8.67478C-3.67583 8.67478 -3.55543 8.61938 -3.43502 8.59169C-3.43502 8.61015 -3.45355 8.62862 -3.45355 8.64708C-3.39797 8.68401 -3.33314 8.72094 -3.27757 8.75787C-3.08307 8.67478 -2.84226 8.62862 -2.71259 8.4809C-2.54588 8.28703 -2.35137 8.31473 -2.15687 8.28703C-1.99016 8.21317 -1.83271 8.13932 -1.66599 8.06546C-1.43444 7.87159 -1.23994 7.63155 -0.887988 7.65002C-0.100724 7.69618 -0.100723 7.68695 -0.0173658 7.86236C-0.119247 7.86236 -0.202605 7.85312 -0.285962 7.86236C-0.369319 7.88082 -0.452677 7.91775 -0.573082 7.95468L-0.591606 7.98237Z" fill="white"/>
<path d="M16.8672 21.6458C16.8857 21.5258 16.9412 21.3873 16.9042 21.2765C16.8672 21.1658 16.756 21.0457 16.5893 21.1011C16.6634 21.2858 16.7282 21.4519 16.7931 21.6274L16.8672 21.6458Z" fill="white"/>
<path d="M9.4576 7.95468C9.32794 8.047 9.19827 8.13932 9.07786 8.24087C9.04082 8.2778 9.01303 8.36089 9.03155 8.40705C9.05008 8.45321 9.13343 8.49937 9.17974 8.49014C9.44834 8.45321 9.73546 8.14855 9.74472 7.88082C9.74472 7.79773 9.67989 7.66848 9.60579 7.64079C9.42055 7.5577 9.21679 7.52077 8.98524 7.45615C8.96672 7.61309 8.93893 7.77004 8.92041 7.93621C9.12417 7.91775 9.28163 7.90852 9.43908 7.89929C9.43908 7.92698 9.44834 7.94545 9.4576 7.97314V7.95468Z" fill="white"/>
<path d="M16.0984 21.4243C16.0984 21.4243 16.1262 21.3873 16.1355 21.3596C15.9687 21.2489 15.802 21.1288 15.6353 21.0181C15.7094 21.3042 15.8854 21.4335 16.0984 21.4243Z" fill="white"/>
<path d="M13.0605 9.31179C13.0605 9.31179 12.9586 9.17331 12.9493 9.17331C12.866 9.21947 12.7919 9.28409 12.6807 9.37641C12.7826 9.4595 12.8289 9.50566 12.8845 9.55182C12.9493 9.46874 13.0234 9.39488 13.0697 9.30256L13.0605 9.31179Z" fill="white"/>
<path d="M11.1711 8.34242C11.0692 8.0193 10.8376 8.0193 10.6431 7.98237C10.5783 7.97314 10.5042 8.00084 10.4301 8.01007C10.4672 8.08393 10.4949 8.19471 10.5598 8.22241C10.745 8.2778 10.9395 8.30549 11.1711 8.35166V8.34242Z" fill="white"/>
<path d="M10.0411 10.1057C10.2078 10.0965 10.3745 10.0688 10.5227 9.99496C10.6987 9.91187 10.7543 9.56105 10.6802 9.4872C10.4949 9.53336 10.3467 9.56105 10.1986 9.60721C10.1152 9.63491 10.0041 9.64414 9.95775 9.70877C9.89291 9.78262 9.8466 9.90264 9.83734 9.99496C9.83734 10.0227 9.97627 10.1057 10.0411 10.1057Z" fill="white"/>
<path d="M10.3097 11.3521C10.1615 11.4167 10.0967 11.629 10.2171 11.7121C10.356 11.8137 10.495 11.9614 10.708 11.8875C10.8469 11.8414 10.9673 11.8875 10.9673 12.0537C10.9673 12.3953 11.0877 12.6815 11.3378 12.9123C11.3378 12.9492 11.3378 12.9862 11.347 13.0231C11.1062 13.0231 10.9117 13.2447 10.6524 13.18C10.5042 13.1431 10.3375 13.1523 10.1708 13.1339C9.83735 13.0877 9.50392 13.0508 9.17976 13.0046C9.03156 12.9769 8.92968 12.9677 8.9019 13.1523C8.85559 13.4108 8.9019 13.5032 9.0964 13.5401C9.19828 13.5585 9.33721 13.5862 9.39278 13.6601C9.5595 13.8724 9.70769 13.8724 9.88366 13.697C10.0226 13.6693 10.1615 13.5955 10.2912 13.6139C10.6246 13.6693 10.9488 13.7063 11.2822 13.577H11.273C11.5138 13.6047 11.7546 13.6232 11.9954 13.6509C12.0139 13.6693 12.0324 13.697 12.0602 13.7155C12.1251 13.7709 12.1991 13.8355 12.264 13.8909C12.3288 13.9925 12.3844 14.1125 12.4677 14.1863C12.5326 14.2417 12.69 14.2786 12.7271 14.2417C12.8567 14.1032 12.9586 13.9371 13.079 13.7801C13.1717 13.6232 13.1994 13.3831 13.4773 13.4293C13.5421 13.457 13.6347 13.4755 13.6811 13.5216C13.8015 13.6509 14.1812 13.6232 14.2923 13.4662C14.4498 13.2631 14.635 13.1708 14.8944 13.2539C14.987 13.2816 15.0889 13.2539 15.1815 13.2539C15.3945 13.2724 15.6724 13.2262 15.7928 13.337C16.0429 13.577 16.1725 13.3924 16.3485 13.2816C16.5523 13.1523 16.58 12.9308 16.4041 12.7646C16.2744 12.6446 16.1355 12.5246 16.0058 12.4045C15.7743 12.3584 15.5427 12.3122 15.2926 12.2661C15.376 12.2014 15.4501 12.146 15.5242 12.0814C15.4686 12.0076 15.4223 11.9337 15.4038 11.9152C15.2371 11.9152 15.1167 11.9152 15.0055 11.9152C14.6906 11.9429 14.6906 11.9429 14.635 11.6475C14.6073 11.4813 14.4591 11.4352 14.3201 11.546L13.9219 11.4536C13.7274 11.3705 13.5329 11.2413 13.3291 11.2136C13.0235 11.1767 12.6993 11.2136 12.3844 11.2136C12.3751 11.2136 12.3659 11.2505 12.3566 11.269C12.3566 11.269 12.3473 11.2782 12.3381 11.2875C12.2547 11.4813 12.1158 11.4629 11.9398 11.4259C11.7731 11.389 11.6064 11.389 11.4397 11.3798C11.0692 11.2044 10.6987 11.1859 10.319 11.3336L10.3097 11.3521Z" fill="white"/>
<path d="M12.5696 21.9974L12.5796 21.9874L12.5696 21.9974Z" fill="#0F71F0"/>
<path d="M27.7129 19.2086C27.8055 19.3193 27.9074 19.4301 28 19.5409C27.9167 19.5871 27.8426 19.6702 27.7592 19.6794C27.611 19.6979 27.5647 19.624 27.5369 19.4578C27.5925 19.3747 27.6573 19.2916 27.7129 19.2086ZM26.6756 21.7935C26.7867 22.0613 26.7497 22.1351 26.4903 22.1997C26.4162 22.1997 26.3421 22.1997 26.268 22.1997C26.2588 22.1813 26.2495 22.1536 26.2403 22.1351C26.3792 22.0243 26.5181 21.9136 26.6663 21.7935H26.6756ZM24.4434 14.5925C24.499 14.5279 24.5546 14.4633 24.6472 14.3617C24.7491 14.4633 24.8232 14.5279 24.888 14.6018C24.8139 14.6572 24.7398 14.7587 24.6565 14.7587C24.5731 14.7587 24.5083 14.6479 24.4342 14.5925H24.4434ZM25.2678 21.0919C25.2029 21.1473 25.1381 21.1935 25.0733 21.2488C24.9158 21.0365 24.9714 20.8519 25.2492 20.7226C25.3326 20.8426 25.3882 20.9626 25.2678 21.0919ZM25.5456 20.5287C25.5456 20.5287 25.4437 20.5472 25.3882 20.5564C25.3882 20.5195 25.3789 20.4457 25.3882 20.4457C25.5549 20.418 25.4067 20.1133 25.6382 20.1502C25.666 20.1502 25.6845 20.2149 25.7123 20.2425C25.6568 20.3441 25.6105 20.4457 25.5456 20.538V20.5287ZM25.6475 19.8363C25.4345 19.5686 25.4437 19.4209 25.6753 19.3009C25.7679 19.2547 25.8513 19.2455 25.8513 19.384C25.8513 19.5686 25.8235 19.7348 25.6382 19.8271L25.6475 19.8363ZM26.018 18.9224C25.9531 18.9593 25.8142 18.9408 25.7494 18.8854C25.6382 18.8023 25.7216 18.5531 25.879 18.4423C25.9254 18.4238 25.9624 18.4146 26.0087 18.3961C26.2125 18.5531 26.231 18.8023 26.0272 18.9131L26.018 18.9224ZM26.018 17.7776C26.018 17.8237 26.018 17.9068 25.9809 17.9253C25.9439 17.9438 25.8513 17.9438 25.8235 17.9161C25.7216 17.7868 25.629 17.6391 25.5364 17.5006C25.5641 17.4822 25.5827 17.4637 25.6105 17.4452C25.7772 17.5191 25.9809 17.5468 26.018 17.7868V17.7776ZM25.5734 16.799C25.4993 16.8821 25.4345 16.9375 25.3789 17.0021C25.3419 16.9467 25.2863 16.9005 25.2585 16.8359C25.2214 16.7528 25.1937 16.6605 25.1751 16.5682C25.1751 16.522 25.2122 16.4574 25.2492 16.4297C25.2585 16.4205 25.3419 16.4574 25.3696 16.4851C25.4345 16.5774 25.49 16.679 25.5641 16.799H25.5734ZM25.3048 15.5896C25.1566 15.7281 25.0362 15.8389 24.8695 15.9958C24.8324 15.8573 24.8047 15.7465 24.7769 15.645C24.9158 15.5711 25.0362 15.5157 25.1751 15.4511C25.2122 15.488 25.2678 15.5527 25.2955 15.5896H25.3048ZM24.6194 13.6416C24.712 13.7155 24.8232 13.7893 24.8973 13.8817C24.9158 13.9094 24.851 14.0571 24.8047 14.0663C24.7213 14.094 24.6287 14.0571 24.5361 14.0386C24.499 13.9463 24.4434 13.854 24.4342 13.7524C24.4342 13.6324 24.499 13.577 24.6194 13.6324V13.6416ZM24.2397 14.8603C24.323 14.971 24.4249 15.0449 24.4157 15.1188C24.4157 15.1741 24.286 15.2849 24.2304 15.2665C24.1656 15.2572 24.0822 15.1557 24.0637 15.0726C24.0544 15.0264 24.1563 14.9526 24.2397 14.8603ZM23.6191 14.5094C23.3691 14.491 23.1931 14.371 23.0634 14.1956C23.0356 14.1586 23.0449 14.0663 23.0727 14.0386C23.119 13.9924 23.2023 13.9647 23.2672 13.974C23.4709 13.9924 23.5636 14.1309 23.6191 14.5094ZM23.156 12.9677C23.156 12.9677 23.1931 12.9954 23.2116 13.0046C23.156 13.1616 23.1005 13.3277 23.0356 13.4939C22.9338 13.3647 22.8874 13.3 22.8226 13.217C22.9245 13.1339 23.0356 13.0508 23.1468 12.9677H23.156ZM21.989 22.4859C22.0909 22.4859 22.2021 22.4767 22.2854 22.4213C22.3873 22.3659 22.4429 22.3382 22.5262 22.4398C22.6096 22.5413 22.5911 22.6244 22.4892 22.6983C22.4429 22.7352 22.3873 22.7537 22.3317 22.7721C22.1465 22.726 21.9612 22.689 21.776 22.6429C21.776 22.5044 21.8131 22.4859 21.9798 22.4859H21.989ZM20.7201 12.9954C20.7942 13.0046 20.8683 13.1062 20.9332 13.1616C20.9239 13.1616 20.9054 13.18 20.8961 13.1893C20.8128 13.1431 20.7294 13.0692 20.6368 13.0415C20.5905 13.0323 20.5349 13.06 20.4793 13.0785C20.4793 13.0785 20.4793 13.0785 20.4701 13.0785C20.4701 13.0785 20.4886 13.1523 20.5071 13.1985C20.4793 13.1616 20.4608 13.1246 20.433 13.0969C20.4516 13.0969 20.4701 13.0877 20.4886 13.0785C20.572 13.0415 20.6553 12.9769 20.7294 12.9954H20.7201ZM18.0712 13.0231C18.0712 13.0231 18.0898 12.9861 18.099 12.9861C18.6547 12.9861 19.2105 12.8938 19.7569 13.0692C19.8125 13.0877 19.8588 13.1523 19.9051 13.1985C19.9699 13.3185 19.9607 13.3924 19.8217 13.457C19.6365 13.5401 19.479 13.6693 19.3031 13.7524C19.2197 13.7893 19.1086 13.7524 19.0067 13.7524C18.8029 13.7524 18.5992 13.7524 18.3861 13.7524C18.2657 13.7524 18.1361 13.7801 18.0157 13.7524C17.9508 13.7339 17.9045 13.6232 17.8675 13.5493C17.8397 13.4847 17.8397 13.4108 17.8212 13.337C17.7656 13.1431 17.8582 13.0231 18.0712 13.0046V13.0231ZM-0.109955 20.9627C-0.174789 21.0273 -0.23036 21.1011 -0.295194 21.1658C-0.350766 21.0919 -0.443385 21.0273 -0.443385 20.9534C-0.443385 20.8149 -0.536004 20.6303 -0.313718 20.5657C-0.100693 20.5749 -0.0358596 20.6949 -0.100693 20.9627H-0.109955ZM0.149379 19.9471C0.149379 19.9471 0.130855 19.9656 0.121593 19.9841C0.0660215 19.9841 0.00118829 20.0025 -0.0543833 20.0117C-0.0543833 19.9102 -0.100693 19.7994 -0.0543833 19.7163C0.00118829 19.5963 0.112332 19.4948 0.195689 19.4024C0.445761 19.5871 0.427237 19.6702 0.158641 19.9564L0.149379 19.9471ZM0.380928 12.2568C0.177165 12.1922 0.001188 11.9891 0.0289738 11.786C0.149379 12.1922 0.603214 12.3399 0.890334 12.1183C0.779191 12.3307 0.67731 12.3584 0.380928 12.266V12.2568ZM2.58527 11.7214C2.50191 11.7767 2.41855 11.8506 2.32593 11.8598C2.27963 11.8598 2.21479 11.7583 2.15922 11.7121C2.1407 11.7121 2.13143 11.7121 2.11291 11.7121C2.03881 11.7306 1.96472 11.7675 1.89989 11.7583C1.83505 11.7583 1.77022 11.6937 1.70538 11.6567C1.75169 11.5921 1.798 11.4906 1.85358 11.4721C2.00177 11.4352 2.15922 11.4259 2.21479 11.629C2.29815 11.6106 2.39077 11.5921 2.47413 11.5921C2.51117 11.5921 2.57601 11.5921 2.58527 11.6198C2.60379 11.6475 2.59453 11.7214 2.57601 11.7398L2.58527 11.7214ZM6.70683 13.9001C6.66052 13.9924 6.50307 14.0478 6.39193 14.0663C6.24374 14.094 6.09554 14.0663 5.93809 14.0663C5.85473 14.0848 5.77138 14.1125 5.67876 14.1309C5.58614 14.371 5.55835 14.371 5.35459 14.214C5.28049 14.1586 5.17861 14.1217 5.08599 14.1125C4.89149 14.1125 4.73404 14.0755 4.60437 13.9094C4.52101 13.8078 4.38209 13.7432 4.2802 13.6601C4.18758 13.5862 4.01161 13.5031 4.01161 13.4385C4.01161 13.2816 4.14128 13.1708 4.33578 13.18C4.76183 13.0231 5.17861 13.2262 5.5954 13.2446C5.76211 13.2446 5.93809 13.3554 6.10481 13.4201C6.24374 13.4754 6.39193 13.5124 6.53086 13.5862C6.66052 13.6509 6.79019 13.7709 6.71609 13.9186L6.70683 13.9001ZM16.0984 21.415C15.8854 21.415 15.7094 21.295 15.6353 21.0088C15.8021 21.1196 15.9688 21.2396 16.1355 21.3504C16.1262 21.3689 16.1077 21.3873 16.0984 21.415ZM16.9042 21.2673C16.9413 21.3689 16.8857 21.5073 16.8672 21.6366L16.7931 21.6181C16.7283 21.4427 16.6634 21.2765 16.5893 21.0919C16.756 21.0365 16.8579 21.1565 16.9042 21.2673ZM12.9494 9.16408C12.9494 9.16408 13.0698 9.27486 13.0605 9.30256C13.0142 9.39488 12.9401 9.46874 12.8753 9.55182C12.829 9.50566 12.7734 9.4595 12.6715 9.37641C12.7919 9.28409 12.8568 9.21947 12.9401 9.17331L12.9494 9.16408ZM11.9398 11.4259C12.1065 11.4629 12.2547 11.4813 12.3381 11.2875C12.3381 11.2875 12.3474 11.2782 12.3566 11.269C12.3659 11.2505 12.3751 11.2136 12.3844 11.2136C12.6993 11.2136 13.0142 11.1767 13.3291 11.2136C13.5329 11.2413 13.7274 11.3705 13.9219 11.4536L14.3201 11.5459C14.4591 11.4444 14.6073 11.4906 14.6351 11.6475C14.6906 11.9522 14.6906 11.9429 15.0055 11.9152C15.1167 11.906 15.2371 11.9152 15.4038 11.9152C15.4223 11.9337 15.4686 12.0076 15.5242 12.0814C15.4408 12.146 15.376 12.2014 15.2927 12.266C15.5427 12.3122 15.7743 12.3584 16.0058 12.4045C16.1355 12.5245 16.2744 12.6353 16.4041 12.7646C16.5708 12.9308 16.543 13.1523 16.3485 13.2816C16.1725 13.3924 16.0429 13.577 15.7928 13.337C15.6724 13.2262 15.3853 13.2723 15.1815 13.2539C15.0889 13.2539 14.9777 13.2723 14.8944 13.2539C14.6351 13.1708 14.4498 13.2631 14.2924 13.4662C14.1812 13.6232 13.8107 13.6509 13.6811 13.5216C13.6348 13.4754 13.5514 13.457 13.4773 13.4293C13.1995 13.3831 13.1717 13.6232 13.079 13.7801C12.9679 13.9371 12.866 14.1032 12.7271 14.2417C12.69 14.2786 12.5326 14.2417 12.4678 14.1863C12.3751 14.1125 12.3288 13.9924 12.264 13.8909C12.1992 13.8355 12.1251 13.7709 12.0602 13.7155C12.0417 13.697 12.0232 13.6693 11.9954 13.6509C11.7546 13.6324 11.5138 13.6047 11.273 13.5862H11.2822C10.9581 13.7063 10.6339 13.6693 10.2912 13.6139C10.1615 13.5955 10.0226 13.6693 9.88368 13.697C9.7077 13.8724 9.55025 13.8724 9.3928 13.6601C9.33722 13.5862 9.19829 13.5585 9.09641 13.5401C8.91117 13.5031 8.86486 13.4108 8.90191 13.1523C8.9297 12.9677 9.03158 12.9769 9.17977 13.0046C9.5132 13.06 9.83737 13.0969 10.1708 13.1339C10.3283 13.1431 10.495 13.1339 10.6524 13.18C10.921 13.2539 11.1063 13.0323 11.3471 13.0231C11.3471 12.9861 11.3471 12.9492 11.3378 12.9123C11.0877 12.6815 10.9581 12.4045 10.9673 12.0537C10.9673 11.8875 10.8562 11.8321 10.708 11.8875C10.495 11.9614 10.3468 11.8229 10.2171 11.7121C10.106 11.6198 10.1615 11.4075 10.3097 11.3521C10.6895 11.2044 11.0599 11.2228 11.4304 11.3982C11.5971 11.4167 11.7731 11.4075 11.9306 11.4444L11.9398 11.4259ZM10.6432 7.95468C10.8377 7.99161 11.0692 7.99161 11.1711 8.31473C10.9303 8.26857 10.7358 8.2501 10.5598 8.18548C10.5042 8.16701 10.4764 8.047 10.4301 7.97314C10.5042 7.96391 10.5783 7.92698 10.6432 7.94545V7.95468ZM9.94851 9.68107C10.0041 9.62568 10.106 9.60722 10.1893 9.57952C10.3375 9.54259 10.4857 9.50566 10.6709 9.4595C10.745 9.53336 10.6987 9.88418 10.5135 9.96727C10.3653 10.0319 10.1893 10.0596 10.0319 10.0781C9.96704 10.0781 9.82811 10.0042 9.82811 9.96727C9.82811 9.86571 9.87442 9.75493 9.94851 9.68107ZM8.98527 7.42845C9.21682 7.49307 9.42058 7.53923 9.60582 7.61309C9.67991 7.64079 9.74475 7.77004 9.74475 7.85312C9.74475 8.12085 9.44837 8.42551 9.17977 8.46244C9.13346 8.46244 9.0501 8.41628 9.03158 8.37935C9.01306 8.34242 9.03158 8.2501 9.07789 8.21317C9.19829 8.11162 9.33722 8.0193 9.45763 7.92698C9.45763 7.89928 9.44837 7.88082 9.43911 7.85312C9.28165 7.86236 9.1242 7.88082 8.92044 7.89005C8.93896 7.73311 8.96675 7.56693 8.98527 7.40999V7.42845ZM8.4666 7.39152C8.49439 7.44691 8.4666 7.52077 8.4666 7.59463C8.40177 7.57616 8.33693 7.5577 8.28136 7.53C8.25358 7.51154 8.23505 7.46538 8.19801 7.45615C7.67934 7.26227 8.04055 6.74528 7.77196 6.46832C7.809 6.44985 7.84605 6.43139 7.89236 6.41292C7.93867 6.49601 7.99424 6.56987 8.04055 6.65296C8.18874 6.90222 8.32767 7.14226 8.4666 7.40075V7.39152ZM7.37369 5.06504C7.53115 5.06504 7.96646 5.6282 7.89236 5.75745C7.84605 5.84054 7.72565 5.86823 7.63303 5.92362C7.60524 5.859 7.56819 5.79438 7.54041 5.72975C7.50336 5.63743 7.48484 5.54511 7.44779 5.45279C7.39222 5.342 7.32738 5.24045 7.25329 5.1112C7.32738 5.08351 7.34591 5.06504 7.37369 5.06504ZM6.13259 3.82795C6.36414 3.97566 6.55864 4.10491 6.7624 4.22492C6.9569 4.33571 7.01248 4.50189 6.98469 4.71422C6.96617 4.88963 6.93838 5.06504 6.91986 5.24968C6.89207 5.24968 6.86429 5.26815 6.8365 5.26815C6.72536 5.1389 6.61421 5.00042 6.54012 4.91733C6.63274 4.77885 6.75314 4.65883 6.72536 4.60344C6.66978 4.48342 6.5679 4.35417 6.4475 4.29878C6.29931 4.22492 6.11407 4.22492 5.90104 4.17876C5.9844 4.04952 6.0585 3.9295 6.12333 3.82795H6.13259ZM3.51146 2.24926C3.64113 2.40621 3.76154 2.43391 3.91899 2.26773C3.97456 2.21234 4.09497 2.22157 4.18759 2.2031C4.3543 2.18464 4.53954 2.2585 4.65994 2.03693C4.72478 1.91691 5.2064 1.99077 5.31754 2.12001C5.41942 2.2308 5.50278 2.36005 5.61392 2.44314C5.87326 2.62778 5.91031 2.75703 5.77138 3.03399C5.71581 3.15401 5.71581 3.31095 5.68802 3.4402C5.67876 3.49559 5.64171 3.54175 5.62319 3.59714C5.57688 3.56945 5.5213 3.55098 5.47499 3.52329C5.43795 3.49559 5.41942 3.44943 5.38238 3.43097C5.21566 3.33865 5.28049 3.25556 5.38238 3.15401C5.42869 3.11708 5.48426 3.04322 5.46573 2.99706C5.4009 2.77549 5.41942 2.51699 5.19714 2.36005C5.08599 2.31389 4.98411 2.26773 4.87297 2.22157C4.84518 2.41544 4.82666 2.55392 4.80814 2.6924C4.60437 2.48007 4.39135 2.61855 4.18759 2.67394C3.73375 2.81242 3.3077 2.55392 3.21508 1.99077C3.34475 2.10155 3.43737 2.15694 3.5022 2.24003L3.51146 2.24926ZM5.21566 4.76038C5.16009 4.73269 5.08599 4.64037 5.09525 4.61267C5.12304 4.54805 5.19714 4.46496 5.26197 4.46496C5.39164 4.46496 5.53057 4.51112 5.6695 4.53881C5.5213 4.81578 5.41942 4.86194 5.21566 4.76962V4.76038ZM5.30828 6.19135C5.25271 6.25598 5.19714 6.37599 5.11378 6.40369C5.04895 6.42216 4.91928 6.36676 4.86371 6.30214C4.78035 6.20982 4.75256 6.08057 4.68773 5.97902C4.5488 5.72975 4.41913 5.47125 4.15054 5.32354C4.01161 5.24968 3.97456 5.1389 4.0857 5.00042C4.21537 4.84347 4.36356 4.68653 4.32651 4.44649C4.32651 4.4188 4.40061 4.35417 4.4284 4.35417C4.52102 4.37264 4.64142 4.3911 4.67847 4.45573C4.78961 4.6496 4.87297 4.87117 4.95633 5.08351C5.05821 5.342 5.14156 5.60973 5.22492 5.87746C5.25271 5.96978 5.28049 6.06211 5.31754 6.20059L5.30828 6.19135ZM0.473547 4.86194C0.529119 4.86194 0.593952 4.94503 0.686572 5.00965C0.417975 5.09274 0.204951 5.15736 -0.00807391 5.22199C-0.00807391 5.20352 -0.0173358 5.17583 -0.0265978 5.15736C0.0938074 4.98195 0.269784 4.8804 0.473547 4.8527V4.86194ZM-0.971316 8.9702C-0.989839 9.0256 -1.06394 9.06252 -1.11024 9.10868C-1.25844 9.33025 -1.70301 9.28409 -1.84194 9.01636C-1.8512 8.98867 -1.7771 8.91481 -1.74006 8.86865C-1.72153 8.87788 -1.70301 8.88712 -1.69375 8.89635L-1.72153 8.79479C-1.64744 8.64708 -1.56408 8.5086 -1.36032 8.52707C-1.06394 8.61939 -0.915744 8.79479 -0.980578 8.97944L-0.971316 8.9702ZM-0.906482 7.64079C-1.2677 7.62232 -1.4622 7.86236 -1.68448 8.05623C-1.8512 8.13009 -2.00865 8.20394 -2.17537 8.2778C-2.36987 8.3055 -2.56437 8.2778 -2.73108 8.47167C-2.86075 8.61939 -3.10156 8.65631 -3.29606 8.74863C-3.35163 8.71171 -3.41647 8.67478 -3.47204 8.63785C-3.47204 8.61939 -3.45352 8.60092 -3.45352 8.58246C-3.57392 8.61015 -3.69433 8.66555 -3.81473 8.66555C-3.87956 8.66555 -3.95366 8.59169 -4.01849 8.55476C-3.97218 8.5086 -3.92587 8.44398 -3.8703 8.42551C-3.70359 8.36089 -3.53687 8.32396 -3.38868 8.2778C-3.37016 8.17625 -3.3609 8.11162 -3.34237 8.047C-3.23123 7.56693 -2.83297 7.45615 -2.42544 7.34536C-2.18463 7.28074 -1.95308 7.17918 -1.72153 7.0961C-1.6567 7.07763 -1.60113 7.05917 -1.53629 7.04994C-1.23991 7.00377 -0.94353 6.95761 -0.647148 6.92069C-0.498957 6.90222 -0.341504 6.89299 -0.193313 6.90222C0.0197121 6.91145 0.232737 6.93915 0.445761 6.96685C0.686572 6.99454 0.927382 7.02224 1.16819 7.04994C1.29786 7.01301 1.41826 7.00377 1.53867 7.11456C1.58498 7.16072 1.69612 7.14226 1.77022 7.16072C2.03881 7.21611 2.32593 7.23458 2.52044 7.47461L2.85387 7.84389C3.1132 7.95468 3.37253 7.99161 3.65966 8.00084C3.85416 8.00084 4.04866 8.19471 4.24316 8.29626C4.36356 8.34242 4.47471 8.37935 4.59511 8.42551C4.61363 8.42551 4.64142 8.42551 4.65994 8.42551C4.96559 8.59169 5.27123 8.75787 5.58614 8.92404C5.60466 8.92404 5.60466 8.96097 5.61392 8.97944C5.63245 8.9979 5.65097 9.01636 5.67876 9.04406H5.69728C6.01219 9.21024 6.32709 9.37641 6.642 9.54259C6.87355 9.57952 7.11436 9.62568 7.34591 9.68107C7.55893 9.72723 7.60524 9.88418 7.58672 10.0781C7.809 10.1981 8.04055 10.2165 8.29989 10.2165C8.51291 10.2165 8.65184 10.3642 8.75372 10.5489C8.88339 10.6227 9.01306 10.6966 9.15198 10.7612C9.28165 10.8258 9.42058 10.8812 9.27239 11.0566C9.09641 11.1028 8.92044 11.1397 8.75372 11.1859C8.65184 11.2136 8.53143 11.2044 8.45734 11.269C8.13317 11.5367 7.76269 11.3982 7.41074 11.3982C7.08657 11.3982 6.7624 11.3428 6.43824 11.3428C6.14185 11.3428 5.83621 11.3798 5.53983 11.4075C5.37311 11.4259 5.2064 11.4629 5.03968 11.4906C4.85445 11.509 4.85444 11.3798 4.88223 11.2598C4.90075 11.1674 4.95633 11.0843 4.99337 11.0013C5.06747 10.9459 5.15083 10.8997 5.22492 10.8443C5.29902 10.7889 5.41016 10.752 5.42869 10.6781C5.46573 10.5673 5.49352 10.4104 5.29902 10.3827H5.28049H5.26197C5.06747 10.3827 4.87297 10.3642 4.67847 10.355C4.30799 10.3273 3.8912 9.95803 3.82637 9.58875C3.80785 9.4872 3.78006 9.38565 3.75227 9.29333C3.73375 9.27486 3.71523 9.2564 3.68744 9.2287C3.61335 9.21024 3.53925 9.18254 3.46515 9.18254C3.21508 9.17331 2.96501 9.18254 2.71494 9.14561C2.51117 9.11792 2.31667 9.05329 2.11291 8.98867C2.04808 8.9702 1.9925 8.90558 1.93693 8.85019C1.91841 8.85019 1.89062 8.85019 1.8721 8.84095C1.6035 8.61015 1.29786 8.49937 0.936644 8.54553C0.899596 8.54553 0.853287 8.5086 0.806977 8.49014C0.593952 8.28703 0.316094 8.34242 0.0567598 8.32396C-0.211836 8.3055 -0.415599 8.21317 -0.6101 7.96391C-0.498957 7.92698 -0.415599 7.89005 -0.32298 7.87159C-0.239622 7.85312 -0.147003 7.87159 -0.0543833 7.87159C-0.137741 7.68695 -0.137741 7.69618 -0.925006 7.65925L-0.906482 7.64079Z" fill="#0F71F0"/>
<path d="M20.4978 13.1893C20.4978 13.1893 20.4608 13.0785 20.4608 13.0692C20.4608 13.0692 20.4608 13.0692 20.4701 13.0692C20.4515 13.0692 20.433 13.0877 20.4145 13.0877C20.4423 13.1246 20.4608 13.1616 20.4886 13.1893H20.4978Z" fill="#0F71F0"/>
<path d="M7.57818 10.1157V10.1057H7.56818L7.57818 10.1157Z" fill="#0F71F0"/>
</g>
</mask>
<g mask="url(#mask0_1158_11119)">
<circle cx="12" cy="12" r="12" fill="white"/>
<path d="M12 23.5C18.3513 23.5 23.5 18.3513 23.5 12C23.5 5.64873 18.3513 0.5 12 0.5C5.64873 0.5 0.5 5.64873 0.5 12C0.5 18.3513 5.64873 23.5 12 23.5Z" fill="#F8F9FA" stroke="#E5E8EA"/>
</g>
<defs>
<clipPath id="clip0_1158_11119">
<rect width="32" height="22" fill="white" transform="translate(-4 2)"/>
</clipPath>
</defs>
</svg>
